<?xml version="1.0" encoding="UTF-8" standalone="no"?><svg xmlns="http://www.w3.org/2000/svg" xmlns:xlink="http://www.w3.org/1999/xlink" contentScriptType="application/ecmascript" contentStyleType="text/css" height="615px" preserveAspectRatio="none" style="width:722px;height:615px;" version="1.1" viewBox="0 0 722 615" width="722px" zoomAndPan="magnify"><defs><filter height="300%" id="f19xaj0fxq4ldb" width="300%" x="-1" y="-1"><feGaussianBlur result="blurOut" stdDeviation="2.0"/><feColorMatrix in="blurOut" result="blurOut2" type="matrix" values="0 0 0 0 0 0 0 0 0 0 0 0 0 0 0 0 0 0 .4 0"/><feOffset dx="4.0" dy="4.0" in="blurOut2" result="blurOut3"/><feBlend in="SourceGraphic" in2="blurOut3" mode="normal"/></filter></defs><g><text fill="#000000" font-family="sans-serif" font-size="18" lengthAdjust="spacingAndGlyphs" textLength="333" x="200.5" y="19.2419">UML Class Diagram for the Advisement</text><!--MD5=[3bba2e11fb0bcc18628c32de96d9320e]
cluster advs--><polygon fill="#FFFFFF" filter="url(#f19xaj0fxq4ldb)" points="22,48.5158,60,48.5158,67,73.5838,700,73.5838,700,565.5158,22,565.5158,22,48.5158" style="stroke: #000000; stroke-width: 1.5;"/><line style="stroke: #000000; stroke-width: 1.5;" x1="22" x2="67" y1="73.5838" y2="73.5838"/><text fill="#000000" font-family="sans-serif" font-size="14" font-weight="bold" lengthAdjust="spacingAndGlyphs" textLength="32" x="26" y="65.4818">advs</text><text fill="#000000" font-family="sans-serif" font-size="14" font-style="italic" lengthAdjust="spacingAndGlyphs" textLength="54" x="338" y="90.5497">«Advise»</text><!--MD5=[46f72044ffec222d9a8bcf09ab1c8a56]
class advs.MutableMapping--><rect fill="#FEFECE" filter="url(#f19xaj0fxq4ldb)" height="48" id="advs.MutableMapping" style="stroke: #A80036; stroke-width: 1.5;" width="124" x="277" y="105.5158"/><ellipse cx="292" cy="121.5158" fill="#A9DCDF" rx="11" ry="11" style="stroke: #A80036; stroke-width: 1.0;"/><path d="M292.1094,116.8596 L290.9531,121.9377 L293.2813,121.9377 L292.1094,116.8596 Z M290.625,114.6252 L293.6094,114.6252 L296.9688,127.0158 L294.5156,127.0158 L293.75,123.9533 L290.4688,123.9533 L289.7188,127.0158 L287.2813,127.0158 L290.625,114.6252 Z "/><text fill="#000000" font-family="sans-serif" font-size="12" font-style="italic" lengthAdjust="spacingAndGlyphs" textLength="92" x="306" y="126.1719">MutableMapping</text><line style="stroke: #A80036; stroke-width: 1.5;" x1="278" x2="400" y1="137.5158" y2="137.5158"/><line style="stroke: #A80036; stroke-width: 1.5;" x1="278" x2="400" y1="145.5158" y2="145.5158"/><!--MD5=[def5754f4599be6a31cfce80666edd1d]
class advs.TransformedDict--><rect fill="#FEFECE" filter="url(#f19xaj0fxq4ldb)" height="167.8551" id="advs.TransformedDict" style="stroke: #A80036; stroke-width: 1.5;" width="122" x="278" y="213.5158"/><ellipse cx="293" cy="229.5158" fill="#A9DCDF" rx="11" ry="11" style="stroke: #A80036; stroke-width: 1.0;"/><path d="M293.1094,224.8596 L291.9531,229.9377 L294.2813,229.9377 L293.1094,224.8596 Z M291.625,222.6252 L294.6094,222.6252 L297.9688,235.0158 L295.5156,235.0158 L294.75,231.9533 L291.4688,231.9533 L290.7188,235.0158 L288.2813,235.0158 L291.625,222.6252 Z "/><text fill="#000000" font-family="sans-serif" font-size="12" font-style="italic" lengthAdjust="spacingAndGlyphs" textLength="90" x="307" y="234.1719">TransformedDict</text><line style="stroke: #A80036; stroke-width: 1.5;" x1="279" x2="399" y1="245.5158" y2="245.5158"/><text fill="#000000" font-family="sans-serif" font-size="11" lengthAdjust="spacingAndGlyphs" textLength="55" x="284" y="261.2748">store : dict</text><line style="stroke: #A80036; stroke-width: 1.0;" x1="279" x2="399" y1="268.4977" y2="268.4977"/><text fill="#000000" font-family="sans-serif" font-size="11" lengthAdjust="spacingAndGlyphs" textLength="66" x="284" y="284.2566">__getitem__()</text><text fill="#000000" font-family="sans-serif" font-size="11" lengthAdjust="spacingAndGlyphs" textLength="64" x="284" y="299.2385">__setitem__()</text><text fill="#000000" font-family="sans-serif" font-size="11" lengthAdjust="spacingAndGlyphs" textLength="65" x="284" y="314.2204">__delitem__()</text><text fill="#000000" font-family="sans-serif" font-size="11" lengthAdjust="spacingAndGlyphs" textLength="44" x="284" y="329.2023">__iter__()</text><text fill="#000000" font-family="sans-serif" font-size="11" lengthAdjust="spacingAndGlyphs" textLength="42" x="284" y="344.1842">__len__()</text><text fill="#000000" font-family="sans-serif" font-size="11" lengthAdjust="spacingAndGlyphs" textLength="49" x="284" y="359.1661">__repr__()</text><text fill="#000000" font-family="sans-serif" font-size="11" lengthAdjust="spacingAndGlyphs" textLength="82" x="284" y="374.148">_keytransform()</text><!--MD5=[8e739cdd9138556ecb1060d388508b98]
class advs.Advisement--><rect fill="#FEFECE" filter="url(#f19xaj0fxq4ldb)" height="107.9276" id="advs.Advisement" style="stroke: #A80036; stroke-width: 1.5;" width="157" x="38.5" y="441.5158"/><ellipse cx="80.05" cy="457.5158" fill="#ADD1B2" rx="11" ry="11" style="stroke: #A80036; stroke-width: 1.0;"/><path d="M83.0188,463.1565 Q82.4406,463.4533 81.8,463.594 Q81.1594,463.7502 80.4563,463.7502 Q77.9563,463.7502 76.6281,462.1096 Q75.3156,460.4533 75.3156,457.3283 Q75.3156,454.2033 76.6281,452.5471 Q77.9563,450.8908 80.4563,450.8908 Q81.1594,450.8908 81.8,451.0471 Q82.4563,451.2033 83.0188,451.5002 L83.0188,454.219 Q82.3938,453.6408 81.8,453.3752 Q81.2063,453.094 80.5813,453.094 Q79.2375,453.094 78.55,454.1721 Q77.8625,455.2346 77.8625,457.3283 Q77.8625,459.4221 78.55,460.5002 Q79.2375,461.5627 80.5813,461.5627 Q81.2063,461.5627 81.8,461.2971 Q82.3938,461.0158 83.0188,460.4377 L83.0188,463.1565 Z "/><text fill="#000000" font-family="sans-serif" font-size="12" lengthAdjust="spacingAndGlyphs" textLength="66" x="99.95" y="462.1719">Advisement</text><line style="stroke: #A80036; stroke-width: 1.5;" x1="39.5" x2="194.5" y1="473.5158" y2="473.5158"/><text fill="#000000" font-family="sans-serif" font-size="11" lengthAdjust="spacingAndGlyphs" textLength="111" x="44.5" y="489.2748">CommandSet : String</text><text fill="#000000" font-family="sans-serif" font-size="11" lengthAdjust="spacingAndGlyphs" textLength="145" x="44.5" y="504.2566">MaximumFeatures : Integer</text><text fill="#000000" font-family="sans-serif" font-size="11" lengthAdjust="spacingAndGlyphs" textLength="98" x="44.5" y="519.2385">ObjectClasses : List</text><line style="stroke: #A80036; stroke-width: 1.0;" x1="39.5" x2="194.5" y1="526.4615" y2="526.4615"/><text fill="#000000" font-family="sans-serif" font-size="11" lengthAdjust="spacingAndGlyphs" textLength="82" x="44.5" y="542.2204">_keytransform()</text><!--MD5=[7bfaa97c40201567bc5179640906c7a7]
class advs.ObjectClass--><rect fill="#FEFECE" filter="url(#f19xaj0fxq4ldb)" height="77.9638" id="advs.ObjectClass" style="stroke: #A80036; stroke-width: 1.5;" width="216" x="231" y="456.5158"/><ellipse cx="301.75" cy="472.5158" fill="#ADD1B2" rx="11" ry="11" style="stroke: #A80036; stroke-width: 1.0;"/><path d="M304.7188,478.1565 Q304.1406,478.4533 303.5,478.594 Q302.8594,478.7502 302.1563,478.7502 Q299.6563,478.7502 298.3281,477.1096 Q297.0156,475.4533 297.0156,472.3283 Q297.0156,469.2033 298.3281,467.5471 Q299.6563,465.8908 302.1563,465.8908 Q302.8594,465.8908 303.5,466.0471 Q304.1563,466.2033 304.7188,466.5002 L304.7188,469.219 Q304.0938,468.6408 303.5,468.3752 Q302.9063,468.094 302.2813,468.094 Q300.9375,468.094 300.25,469.1721 Q299.5625,470.2346 299.5625,472.3283 Q299.5625,474.4221 300.25,475.5002 Q300.9375,476.5627 302.2813,476.5627 Q302.9063,476.5627 303.5,476.2971 Q304.0938,476.0158 304.7188,475.4377 L304.7188,478.1565 Z "/><text fill="#000000" font-family="sans-serif" font-size="12" lengthAdjust="spacingAndGlyphs" textLength="66" x="322.25" y="477.1719">ObjectClass</text><line style="stroke: #A80036; stroke-width: 1.5;" x1="232" x2="446" y1="488.5158" y2="488.5158"/><text fill="#000000" font-family="sans-serif" font-size="11" lengthAdjust="spacingAndGlyphs" textLength="70" x="237" y="504.2748">name : String</text><text fill="#000000" font-family="sans-serif" font-size="11" lengthAdjust="spacingAndGlyphs" textLength="204" x="237" y="519.2566">objectclass_recommendations : Integer</text><line style="stroke: #A80036; stroke-width: 1.5;" x1="232" x2="446" y1="526.4796" y2="526.4796"/><!--MD5=[c7fdb151a1a03f526c6fe50d4b368e13]
class advs.ObjectClassRecommendations--><rect fill="#FEFECE" filter="url(#f19xaj0fxq4ldb)" height="62.9819" id="advs.ObjectClassRecommendations" style="stroke: #A80036; stroke-width: 1.5;" width="202" x="482" y="464.0158"/><ellipse cx="497" cy="480.0158" fill="#ADD1B2" rx="11" ry="11" style="stroke: #A80036; stroke-width: 1.0;"/><path d="M499.9688,485.6565 Q499.3906,485.9533 498.75,486.094 Q498.1094,486.2502 497.4063,486.2502 Q494.9063,486.2502 493.5781,484.6096 Q492.2656,482.9533 492.2656,479.8283 Q492.2656,476.7033 493.5781,475.0471 Q494.9063,473.3908 497.4063,473.3908 Q498.1094,473.3908 498.75,473.5471 Q499.4063,473.7033 499.9688,474.0002 L499.9688,476.719 Q499.3438,476.1408 498.75,475.8752 Q498.1563,475.594 497.5313,475.594 Q496.1875,475.594 495.5,476.6721 Q494.8125,477.7346 494.8125,479.8283 Q494.8125,481.9221 495.5,483.0002 Q496.1875,484.0627 497.5313,484.0627 Q498.1563,484.0627 498.75,483.7971 Q499.3438,483.5158 499.9688,482.9377 L499.9688,485.6565 Z "/><text fill="#000000" font-family="sans-serif" font-size="12" lengthAdjust="spacingAndGlyphs" textLength="170" x="511" y="484.6719">ObjectClassRecommendations</text><line style="stroke: #A80036; stroke-width: 1.5;" x1="483" x2="683" y1="496.0158" y2="496.0158"/><text fill="#000000" font-family="sans-serif" font-size="11" lengthAdjust="spacingAndGlyphs" textLength="145" x="488" y="511.7748">MaximumFeatures : Integer</text><line style="stroke: #A80036; stroke-width: 1.5;" x1="483" x2="683" y1="518.9977" y2="518.9977"/><!--MD5=[10eee84e996e9ad7f1e4344cd4029a3f]
reverse link advs.MutableMapping to advs.TransformedDict--><path d="M339,173.6158 C339,185.8258 339,199.5458 339,213.2758 " fill="none" id="advs.MutableMapping&lt;-advs.TransformedDict" style="stroke: #A80036; stroke-width: 1.0;"/><polygon fill="none" points="332,173.5958,339,153.5958,346,173.5958,332,173.5958" style="stroke: #A80036; stroke-width: 1.0;"/><!--MD5=[ef5bf8f832f3b9a8e8f181cd00b93a3b]
reverse link advs.TransformedDict to advs.Advisement--><path d="M262.63,365.9358 C234.73,390.5758 203.59,418.0658 177.28,441.2958 " fill="none" id="advs.TransformedDict&lt;-advs.Advisement" style="stroke: #A80036; stroke-width: 1.0;"/><polygon fill="none" points="258.12,360.5858,277.75,352.5958,267.39,371.0758,258.12,360.5858" style="stroke: #A80036; stroke-width: 1.0;"/><!--MD5=[78b91add12ef49f7354121e9973eaa20]
reverse link advs.TransformedDict to advs.ObjectClass--><path d="M339,386.8258 C339,411.2258 339,436.4358 339,456.3258 " fill="none" id="advs.TransformedDict&lt;-advs.ObjectClass" style="stroke: #A80036; stroke-width: 1.0;"/><polygon fill="#A80036" points="339,381.6358,335,390.6358,339,386.6358,343,390.6358,339,381.6358" style="stroke: #A80036; stroke-width: 1.0;"/><!--MD5=[de3c4577a150f814cbaad02b68473c64]
reverse link advs.TransformedDict to advs.ObjectClassRecommendations--><path d="M415.95,360.3258 C458.93,394.8458 510.58,436.3458 544.96,463.9558 " fill="none" id="advs.TransformedDict&lt;-advs.ObjectClassRecommendations" style="stroke: #A80036; stroke-width: 1.0;"/><polygon fill="none" points="411.47,365.7058,400.26,347.7258,420.23,354.7858,411.47,365.7058" style="stroke: #A80036; stroke-width: 1.0;"/><text fill="#888888" font-family="sans-serif" font-size="10" lengthAdjust="spacingAndGlyphs" textLength="114" x="310" y="602.2058">Last Check : 18.05.2026</text><!--MD5=[efabf5700b244cbb9cad82538aaec0ce]
@startuml
title UML Class Diagram for the Advisement
footer Last Check : 18.05.2026
namespace advs <<Advise>> {
  abstract class MutableMapping {
  }
  abstract class TransformedDict {
    store : dict
    - - -
    __getitem__()
    __setitem__()
    __delitem__()
    __iter__()
    __len__()
    __repr__()
    _keytransform()
  }
  TransformedDict -up-|> MutableMapping
  class Advisement {
    CommandSet : String
    MaximumFeatures : Integer
    ObjectClasses : List
    - - -
    _keytransform()
  }
  Advisement -up-|> TransformedDict
  class ObjectClass {
    name : String
    objectclass_recommendations : Integer
  }
  ObjectClass -up-> TransformedDict
  class ObjectClassRecommendations {
    MaximumFeatures : Integer
  }
  ObjectClassRecommendations -up-|> TransformedDict
}
@enduml

PlantUML version 1.2020.02(Sun Mar 01 11:22:07 CET 2020)
(GPL source distribution)
Java Runtime: OpenJDK Runtime Environment
JVM: OpenJDK 64-Bit Server VM
Java Version: 21.0.10+7-Ubuntu-124.04
Operating System: Linux
Default Encoding: UTF-8
Language: en
Country: US
--></g></svg>