<?xml version="1.0" encoding="UTF-8" standalone="no"?><svg xmlns="http://www.w3.org/2000/svg" xmlns:xlink="http://www.w3.org/1999/xlink" contentScriptType="application/ecmascript" contentStyleType="text/css" height="603px" preserveAspectRatio="none" style="width:637px;height:603px;" version="1.1" viewBox="0 0 637 603" width="637px" zoomAndPan="magnify"><defs/><g><rect fill="#F8F8FF" height="36.2969" rx="7" ry="7" style="stroke: #A80036; stroke-width: 1.5;" width="124.3333" x="10" y="217.0391"/><path d="M25.6667,230.5026 L21,234.0026 L22.1667,234.0026 L22.1667,238.6693 L24.5,238.6693 L24.5,236.3359 L26.8333,236.3359 L26.8333,238.6693 L29.1667,238.6693 L29.1667,233.9664 L30.3333,234.0026 L25.6667,230.5026 " fill="#000000" style="stroke: ; stroke-width: 0.0; stroke-dasharray: ;"/><text fill="#000000" font-family="Helvetica" font-size="14" lengthAdjust="spacingAndGlyphs" textLength="89" x="35.3333" y="240.0342">citydb-3dtiler</text><rect fill="#F8F8FF" height="36.2969" rx="7" ry="7" style="stroke: #A80036; stroke-width: 1.5;" width="104" x="184.3333" y="104.4453"/><text fill="#000000" font-family="Helvetica" font-size="14" lengthAdjust="spacingAndGlyphs" textLength="84" x="194.3333" y="127.4404">advise_main</text><rect fill="#C0C0C0" height="36.2969" rx="7" ry="7" style="stroke: #A80036; stroke-width: 1.5;" width="47.3333" x="338.3333" y="48.1484"/><path d="M349.443,61.612 C349.373,61.612 349.3333,61.6516 349.3333,61.7216 L349.3333,70.8368 C349.3333,70.9068 349.373,70.9465 349.443,70.9465 L357.3915,70.9465 C357.4615,70.9465 357.5012,70.9068 357.5012,70.8368 L357.5012,61.7216 C357.5012,61.6516 357.4615,61.612 357.3915,61.612 L349.443,61.612 M350.5,62.7786 L356.3333,62.7786 L356.3333,65.112 L350.5,65.112 L350.5,62.7786 M350.5,66.2786 L351.6667,66.2786 L351.6667,67.4453 L350.5,67.4453 L350.5,66.2786 M352.8333,66.2786 L354,66.2786 L354,67.4453 L352.8333,67.4453 L352.8333,66.2786 M355.1667,66.2786 L356.3333,66.2786 L356.3333,69.7786 L355.1667,69.7786 L355.1667,66.2786 M350.5,68.612 L351.6667,68.612 L351.6667,69.7786 L350.5,69.7786 L350.5,68.612 M352.8333,68.612 L354,68.612 L354,69.7786 L352.8333,69.7786 L352.8333,68.612 " fill="#000000" style="stroke: ; stroke-width: 0.0; stroke-dasharray: ;"/><text fill="#000000" font-family="Helvetica" font-size="14" lengthAdjust="spacingAndGlyphs" textLength="12" x="363.6667" y="71.1436">io</text><rect fill="#F8F8FF" height="36.2969" rx="7" ry="7" style="stroke: #A80036; stroke-width: 1.5;" width="85.3333" x="435.6667" y="20"/><path d="M446.7763,33.4635 C446.7063,33.4635 446.6667,33.5032 446.6667,33.5732 L446.6667,42.6884 C446.6667,42.7584 446.7063,42.798 446.7763,42.798 L454.7248,42.798 C454.7948,42.798 454.8345,42.7584 454.8345,42.6884 L454.8345,33.5732 C454.8345,33.5032 454.7948,33.4635 454.7248,33.4635 L446.7763,33.4635 M447.8333,34.6302 L453.6667,34.6302 L453.6667,36.9635 L447.8333,36.9635 L447.8333,34.6302 M447.8333,38.1302 L449,38.1302 L449,39.2969 L447.8333,39.2969 L447.8333,38.1302 M450.1667,38.1302 L451.3333,38.1302 L451.3333,39.2969 L450.1667,39.2969 L450.1667,38.1302 M452.5,38.1302 L453.6667,38.1302 L453.6667,41.6302 L452.5,41.6302 L452.5,38.1302 M447.8333,40.4635 L449,40.4635 L449,41.6302 L447.8333,41.6302 L447.8333,40.4635 M450.1667,40.4635 L451.3333,40.4635 L451.3333,41.6302 L450.1667,41.6302 L450.1667,40.4635 " fill="#000000" style="stroke: ; stroke-width: 0.0; stroke-dasharray: ;"/><text fill="#000000" font-family="Helvetica" font-size="14" lengthAdjust="spacingAndGlyphs" textLength="50" x="461" y="42.9951">io_yaml</text><path d="M385.6667,66.2969 L395.6667,66.2969 C410.6667,66.2969 410.6667,38.1484 425.6667,38.1484 L435.6667,38.1484 " fill="none" style="stroke: #808080; stroke-width: 2.0;"/><rect fill="#F8F8FF" height="36.2969" rx="7" ry="7" style="stroke: #A80036; stroke-width: 1.5;" width="74.3333" x="435.6667" y="76.2969"/><path d="M446.7763,89.7604 C446.7063,89.7604 446.6667,89.8001 446.6667,89.8701 L446.6667,98.9853 C446.6667,99.0553 446.7063,99.0949 446.7763,99.0949 L454.7248,99.0949 C454.7948,99.0949 454.8345,99.0553 454.8345,98.9853 L454.8345,89.8701 C454.8345,89.8001 454.7948,89.7604 454.7248,89.7604 L446.7763,89.7604 M447.8333,90.9271 L453.6667,90.9271 L453.6667,93.2604 L447.8333,93.2604 L447.8333,90.9271 M447.8333,94.4271 L449,94.4271 L449,95.5938 L447.8333,95.5938 L447.8333,94.4271 M450.1667,94.4271 L451.3333,94.4271 L451.3333,95.5938 L450.1667,95.5938 L450.1667,94.4271 M452.5,94.4271 L453.6667,94.4271 L453.6667,97.9271 L452.5,97.9271 L452.5,94.4271 M447.8333,96.7604 L449,96.7604 L449,97.9271 L447.8333,97.9271 L447.8333,96.7604 M450.1667,96.7604 L451.3333,96.7604 L451.3333,97.9271 L450.1667,97.9271 L450.1667,96.7604 " fill="#000000" style="stroke: ; stroke-width: 0.0; stroke-dasharray: ;"/><text fill="#000000" font-family="Helvetica" font-size="14" lengthAdjust="spacingAndGlyphs" textLength="39" x="461" y="99.292">io_sql</text><path d="M385.6667,66.2969 L395.6667,66.2969 C410.6667,66.2969 410.6667,94.4453 425.6667,94.4453 L435.6667,94.4453 " fill="none" style="stroke: #808080; stroke-width: 2.0;"/><path d="M288.3333,122.5938 L298.3333,122.5938 C313.3333,122.5938 313.3333,66.2969 328.3333,66.2969 L338.3333,66.2969 " fill="none" style="stroke: #808080; stroke-width: 2.0;"/><rect fill="#C0C0C0" height="36.2969" rx="7" ry="7" style="stroke: #A80036; stroke-width: 1.5;" width="87.3333" x="338.3333" y="132.5938"/><path d="M352.8333,146.0573 C352.187,146.0573 351.6667,146.5916 351.6667,147.224 L351.6667,148.3906 L349.443,148.3906 C349.373,148.3906 349.3333,148.4303 349.3333,148.5003 L349.3333,151.3073 C349.3333,151.634 349.59,151.8906 349.9167,151.8906 L358.0833,151.8906 C358.41,151.8906 358.6667,151.634 358.6667,151.3073 L358.6667,148.5003 C358.6667,148.4303 358.627,148.3906 358.557,148.3906 L356.3333,148.3906 L356.3333,147.224 C356.3333,146.5916 355.813,146.0573 355.1667,146.0573 L352.8333,146.0573 M352.8333,147.224 L355.1667,147.224 L355.1667,148.3906 L352.8333,148.3906 L352.8333,147.224 M349.3333,152.9476 L349.3333,155.281 C349.3333,155.351 349.373,155.3906 349.443,155.3906 L358.5582,155.3906 C358.6282,155.3906 358.6678,155.351 358.6678,155.281 L358.6678,152.9476 C358.4812,153.006 358.2945,153.0573 358.0845,153.0573 L349.9178,153.0573 C349.7078,153.0573 349.5212,153.006 349.3345,152.9476 " fill="#000000" style="stroke: ; stroke-width: 0.0; stroke-dasharray: ;"/><text fill="#000000" font-family="Helvetica" font-size="14" lengthAdjust="spacingAndGlyphs" textLength="52" x="363.6667" y="155.5889">classes</text><rect fill="#F8F8FF" height="36.2969" rx="7" ry="7" style="stroke: #A80036; stroke-width: 1.5;" width="115.3333" x="475.6667" y="132.5938"/><path d="M490.1667,146.0573 C489.5203,146.0573 489,146.5916 489,147.224 L489,148.3906 L486.7763,148.3906 C486.7063,148.3906 486.6667,148.4303 486.6667,148.5003 L486.6667,151.3073 C486.6667,151.634 486.9233,151.8906 487.25,151.8906 L495.4167,151.8906 C495.7433,151.8906 496,151.634 496,151.3073 L496,148.5003 C496,148.4303 495.9603,148.3906 495.8903,148.3906 L493.6667,148.3906 L493.6667,147.224 C493.6667,146.5916 493.1463,146.0573 492.5,146.0573 L490.1667,146.0573 M490.1667,147.224 L492.5,147.224 L492.5,148.3906 L490.1667,148.3906 L490.1667,147.224 M486.6667,152.9476 L486.6667,155.281 C486.6667,155.351 486.7063,155.3906 486.7763,155.3906 L495.8915,155.3906 C495.9615,155.3906 496.0012,155.351 496.0012,155.281 L496.0012,152.9476 C495.8145,153.006 495.6278,153.0573 495.4178,153.0573 L487.2512,153.0573 C487.0412,153.0573 486.8545,153.006 486.6678,152.9476 " fill="#000000" style="stroke: ; stroke-width: 0.0; stroke-dasharray: ;"/><text fill="#000000" font-family="Helvetica" font-size="14" lengthAdjust="spacingAndGlyphs" textLength="80" x="501" y="155.5889">advisement</text><path d="M425.6667,150.7422 L435.6667,150.7422 C450.6667,150.7422 450.6667,150.7422 465.6667,150.7422 L475.6667,150.7422 " fill="none" style="stroke: #808080; stroke-width: 2.0;"/><path d="M288.3333,122.5938 L298.3333,122.5938 C313.3333,122.5938 313.3333,150.7422 328.3333,150.7422 L338.3333,150.7422 " fill="none" style="stroke: #808080; stroke-width: 2.0;"/><rect fill="#C0C0C0" height="36.2969" rx="7" ry="7" style="stroke: #A80036; stroke-width: 1.5;" width="99.3333" x="338.3333" y="188.8906"/><path d="M349.443,202.3542 C349.373,202.3542 349.3333,202.3938 349.3333,202.4638 L349.3333,211.579 C349.3333,211.649 349.373,211.6887 349.443,211.6887 L357.3915,211.6887 C357.4615,211.6887 357.5012,211.649 357.5012,211.579 L357.5012,202.4638 C357.5012,202.3938 357.4615,202.3542 357.3915,202.3542 L349.443,202.3542 M350.5,203.5208 L356.3333,203.5208 L356.3333,205.8542 L350.5,205.8542 L350.5,203.5208 M350.5,207.0208 L351.6667,207.0208 L351.6667,208.1875 L350.5,208.1875 L350.5,207.0208 M352.8333,207.0208 L354,207.0208 L354,208.1875 L352.8333,208.1875 L352.8333,207.0208 M355.1667,207.0208 L356.3333,207.0208 L356.3333,210.5208 L355.1667,210.5208 L355.1667,207.0208 M350.5,209.3542 L351.6667,209.3542 L351.6667,210.5208 L350.5,210.5208 L350.5,209.3542 M352.8333,209.3542 L354,209.3542 L354,210.5208 L352.8333,210.5208 L352.8333,209.3542 " fill="#000000" style="stroke: ; stroke-width: 0.0; stroke-dasharray: ;"/><text fill="#000000" font-family="Helvetica" font-size="14" lengthAdjust="spacingAndGlyphs" textLength="64" x="363.6667" y="211.8857">database</text><rect fill="#F8F8FF" height="36.2969" rx="7" ry="7" style="stroke: #A80036; stroke-width: 1.5;" width="138.3333" x="487.6667" y="188.8906"/><path d="M498.7763,202.3542 C498.7063,202.3542 498.6667,202.3938 498.6667,202.4638 L498.6667,211.579 C498.6667,211.649 498.7063,211.6887 498.7763,211.6887 L506.7248,211.6887 C506.7948,211.6887 506.8345,211.649 506.8345,211.579 L506.8345,202.4638 C506.8345,202.3938 506.7948,202.3542 506.7248,202.3542 L498.7763,202.3542 M499.8333,203.5208 L505.6667,203.5208 L505.6667,205.8542 L499.8333,205.8542 L499.8333,203.5208 M499.8333,207.0208 L501,207.0208 L501,208.1875 L499.8333,208.1875 L499.8333,207.0208 M502.1667,207.0208 L503.3333,207.0208 L503.3333,208.1875 L502.1667,208.1875 L502.1667,207.0208 M504.5,207.0208 L505.6667,207.0208 L505.6667,210.5208 L504.5,210.5208 L504.5,207.0208 M499.8333,209.3542 L501,209.3542 L501,210.5208 L499.8333,210.5208 L499.8333,209.3542 M502.1667,209.3542 L503.3333,209.3542 L503.3333,210.5208 L502.1667,210.5208 L502.1667,209.3542 " fill="#000000" style="stroke: ; stroke-width: 0.0; stroke-dasharray: ;"/><text fill="#000000" font-family="Helvetica" font-size="14" lengthAdjust="spacingAndGlyphs" textLength="103" x="513" y="211.8857">pg_connection</text><path d="M437.6667,207.0391 L447.6667,207.0391 C462.6667,207.0391 462.6667,207.0391 477.6667,207.0391 L487.6667,207.0391 " fill="none" style="stroke: #808080; stroke-width: 2.0;"/><path d="M288.3333,122.5938 L298.3333,122.5938 C313.3333,122.5938 313.3333,207.0391 328.3333,207.0391 L338.3333,207.0391 " fill="none" style="stroke: #808080; stroke-width: 2.0;"/><path d="M134.3333,235.1875 L144.3333,235.1875 C159.3333,235.1875 159.3333,122.5938 174.3333,122.5938 L184.3333,122.5938 " fill="none" style="stroke: #808080; stroke-width: 2.0;"/><rect fill="#F8F8FF" height="36.2969" rx="7" ry="7" style="stroke: #A80036; stroke-width: 1.5;" width="80" x="184.3333" y="329.6328"/><text fill="#000000" font-family="Helvetica" font-size="14" lengthAdjust="spacingAndGlyphs" textLength="60" x="194.3333" y="352.6279">tile_main</text><rect fill="#C0C0C0" height="36.2969" rx="7" ry="7" style="stroke: #A80036; stroke-width: 1.5;" width="47.3333" x="314.3333" y="245.1875"/><path d="M325.443,258.651 C325.373,258.651 325.3333,258.6907 325.3333,258.7607 L325.3333,267.8759 C325.3333,267.9459 325.373,267.9855 325.443,267.9855 L333.3915,267.9855 C333.4615,267.9855 333.5012,267.9459 333.5012,267.8759 L333.5012,258.7607 C333.5012,258.6907 333.4615,258.651 333.3915,258.651 L325.443,258.651 M326.5,259.8177 L332.3333,259.8177 L332.3333,262.151 L326.5,262.151 L326.5,259.8177 M326.5,263.3177 L327.6667,263.3177 L327.6667,264.4844 L326.5,264.4844 L326.5,263.3177 M328.8333,263.3177 L330,263.3177 L330,264.4844 L328.8333,264.4844 L328.8333,263.3177 M331.1667,263.3177 L332.3333,263.3177 L332.3333,266.8177 L331.1667,266.8177 L331.1667,263.3177 M326.5,265.651 L327.6667,265.651 L327.6667,266.8177 L326.5,266.8177 L326.5,265.651 M328.8333,265.651 L330,265.651 L330,266.8177 L328.8333,266.8177 L328.8333,265.651 " fill="#000000" style="stroke: ; stroke-width: 0.0; stroke-dasharray: ;"/><text fill="#000000" font-family="Helvetica" font-size="14" lengthAdjust="spacingAndGlyphs" textLength="12" x="339.6667" y="268.1826">io</text><rect fill="#F8F8FF" height="36.2969" rx="7" ry="7" style="stroke: #A80036; stroke-width: 1.5;" width="82.3333" x="411.6667" y="245.1875"/><path d="M422.7763,258.651 C422.7063,258.651 422.6667,258.6907 422.6667,258.7607 L422.6667,267.8759 C422.6667,267.9459 422.7063,267.9855 422.7763,267.9855 L430.7248,267.9855 C430.7948,267.9855 430.8345,267.9459 430.8345,267.8759 L430.8345,258.7607 C430.8345,258.6907 430.7948,258.651 430.7248,258.651 L422.7763,258.651 M423.8333,259.8177 L429.6667,259.8177 L429.6667,262.151 L423.8333,262.151 L423.8333,259.8177 M423.8333,263.3177 L425,263.3177 L425,264.4844 L423.8333,264.4844 L423.8333,263.3177 M426.1667,263.3177 L427.3333,263.3177 L427.3333,264.4844 L426.1667,264.4844 L426.1667,263.3177 M428.5,263.3177 L429.6667,263.3177 L429.6667,266.8177 L428.5,266.8177 L428.5,263.3177 M423.8333,265.651 L425,265.651 L425,266.8177 L423.8333,266.8177 L423.8333,265.651 M426.1667,265.651 L427.3333,265.651 L427.3333,266.8177 L426.1667,266.8177 L426.1667,265.651 " fill="#000000" style="stroke: ; stroke-width: 0.0; stroke-dasharray: ;"/><text fill="#000000" font-family="Helvetica" font-size="14" lengthAdjust="spacingAndGlyphs" textLength="47" x="437" y="268.1826">io_tiles</text><path d="M361.6667,263.3359 L371.6667,263.3359 C386.6667,263.3359 386.6667,263.3359 401.6667,263.3359 L411.6667,263.3359 " fill="none" style="stroke: #808080; stroke-width: 2.0;"/><path d="M264.3333,347.7813 L274.3333,347.7813 C289.3333,347.7813 289.3333,263.3359 304.3333,263.3359 L314.3333,263.3359 " fill="none" style="stroke: #808080; stroke-width: 2.0;"/><rect fill="#C0C0C0" height="36.2969" rx="7" ry="7" style="stroke: #A80036; stroke-width: 1.5;" width="87.3333" x="314.3333" y="301.4844"/><path d="M328.8333,314.9479 C328.187,314.9479 327.6667,315.4823 327.6667,316.1146 L327.6667,317.2813 L325.443,317.2813 C325.373,317.2813 325.3333,317.3209 325.3333,317.3909 L325.3333,320.1979 C325.3333,320.5246 325.59,320.7813 325.9167,320.7813 L334.0833,320.7813 C334.41,320.7813 334.6667,320.5246 334.6667,320.1979 L334.6667,317.3909 C334.6667,317.3209 334.627,317.2813 334.557,317.2813 L332.3333,317.2813 L332.3333,316.1146 C332.3333,315.4823 331.813,314.9479 331.1667,314.9479 L328.8333,314.9479 M328.8333,316.1146 L331.1667,316.1146 L331.1667,317.2813 L328.8333,317.2813 L328.8333,316.1146 M325.3333,321.8383 L325.3333,324.1716 C325.3333,324.2416 325.373,324.2813 325.443,324.2813 L334.5582,324.2813 C334.6282,324.2813 334.6678,324.2416 334.6678,324.1716 L334.6678,321.8383 C334.4812,321.8966 334.2945,321.9479 334.0845,321.9479 L325.9178,321.9479 C325.7078,321.9479 325.5212,321.8966 325.3345,321.8383 " fill="#000000" style="stroke: ; stroke-width: 0.0; stroke-dasharray: ;"/><text fill="#000000" font-family="Helvetica" font-size="14" lengthAdjust="spacingAndGlyphs" textLength="52" x="339.6667" y="324.4795">classes</text><rect fill="#F8F8FF" height="36.2969" rx="7" ry="7" style="stroke: #A80036; stroke-width: 1.5;" width="107.3333" x="451.6667" y="301.4844"/><path d="M466.1667,314.9479 C465.5203,314.9479 465,315.4823 465,316.1146 L465,317.2813 L462.7763,317.2813 C462.7063,317.2813 462.6667,317.3209 462.6667,317.3909 L462.6667,320.1979 C462.6667,320.5246 462.9233,320.7813 463.25,320.7813 L471.4167,320.7813 C471.7433,320.7813 472,320.5246 472,320.1979 L472,317.3909 C472,317.3209 471.9603,317.2813 471.8903,317.2813 L469.6667,317.2813 L469.6667,316.1146 C469.6667,315.4823 469.1463,314.9479 468.5,314.9479 L466.1667,314.9479 M466.1667,316.1146 L468.5,316.1146 L468.5,317.2813 L466.1667,317.2813 L466.1667,316.1146 M462.6667,321.8383 L462.6667,324.1716 C462.6667,324.2416 462.7063,324.2813 462.7763,324.2813 L471.8915,324.2813 C471.9615,324.2813 472.0012,324.2416 472.0012,324.1716 L472.0012,321.8383 C471.8145,321.8966 471.6278,321.9479 471.4178,321.9479 L463.2512,321.9479 C463.0412,321.9479 462.8545,321.8966 462.6678,321.8383 " fill="#000000" style="stroke: ; stroke-width: 0.0; stroke-dasharray: ;"/><text fill="#000000" font-family="Helvetica" font-size="14" lengthAdjust="spacingAndGlyphs" textLength="72" x="477" y="324.4795">sql_blocks</text><path d="M401.6667,319.6328 L411.6667,319.6328 C426.6667,319.6328 426.6667,319.6328 441.6667,319.6328 L451.6667,319.6328 " fill="none" style="stroke: #808080; stroke-width: 2.0;"/><path d="M264.3333,347.7813 L274.3333,347.7813 C289.3333,347.7813 289.3333,319.6328 304.3333,319.6328 L314.3333,319.6328 " fill="none" style="stroke: #808080; stroke-width: 2.0;"/><rect fill="#C0C0C0" height="36.2969" rx="7" ry="7" style="stroke: #A80036; stroke-width: 1.5;" width="99.3333" x="314.3333" y="357.7813"/><path d="M325.443,371.2448 C325.373,371.2448 325.3333,371.2845 325.3333,371.3545 L325.3333,380.4696 C325.3333,380.5396 325.373,380.5793 325.443,380.5793 L333.3915,380.5793 C333.4615,380.5793 333.5012,380.5396 333.5012,380.4696 L333.5012,371.3545 C333.5012,371.2845 333.4615,371.2448 333.3915,371.2448 L325.443,371.2448 M326.5,372.4115 L332.3333,372.4115 L332.3333,374.7448 L326.5,374.7448 L326.5,372.4115 M326.5,375.9115 L327.6667,375.9115 L327.6667,377.0781 L326.5,377.0781 L326.5,375.9115 M328.8333,375.9115 L330,375.9115 L330,377.0781 L328.8333,377.0781 L328.8333,375.9115 M331.1667,375.9115 L332.3333,375.9115 L332.3333,379.4115 L331.1667,379.4115 L331.1667,375.9115 M326.5,378.2448 L327.6667,378.2448 L327.6667,379.4115 L326.5,379.4115 L326.5,378.2448 M328.8333,378.2448 L330,378.2448 L330,379.4115 L328.8333,379.4115 L328.8333,378.2448 " fill="#000000" style="stroke: ; stroke-width: 0.0; stroke-dasharray: ;"/><text fill="#000000" font-family="Helvetica" font-size="14" lengthAdjust="spacingAndGlyphs" textLength="64" x="339.6667" y="380.7764">database</text><rect fill="#F8F8FF" height="36.2969" rx="7" ry="7" style="stroke: #A80036; stroke-width: 1.5;" width="138.3333" x="463.6667" y="357.7813"/><path d="M474.7763,371.2448 C474.7063,371.2448 474.6667,371.2845 474.6667,371.3545 L474.6667,380.4696 C474.6667,380.5396 474.7063,380.5793 474.7763,380.5793 L482.7248,380.5793 C482.7948,380.5793 482.8345,380.5396 482.8345,380.4696 L482.8345,371.3545 C482.8345,371.2845 482.7948,371.2448 482.7248,371.2448 L474.7763,371.2448 M475.8333,372.4115 L481.6667,372.4115 L481.6667,374.7448 L475.8333,374.7448 L475.8333,372.4115 M475.8333,375.9115 L477,375.9115 L477,377.0781 L475.8333,377.0781 L475.8333,375.9115 M478.1667,375.9115 L479.3333,375.9115 L479.3333,377.0781 L478.1667,377.0781 L478.1667,375.9115 M480.5,375.9115 L481.6667,375.9115 L481.6667,379.4115 L480.5,379.4115 L480.5,375.9115 M475.8333,378.2448 L477,378.2448 L477,379.4115 L475.8333,379.4115 L475.8333,378.2448 M478.1667,378.2448 L479.3333,378.2448 L479.3333,379.4115 L478.1667,379.4115 L478.1667,378.2448 " fill="#000000" style="stroke: ; stroke-width: 0.0; stroke-dasharray: ;"/><text fill="#000000" font-family="Helvetica" font-size="14" lengthAdjust="spacingAndGlyphs" textLength="103" x="489" y="380.7764">pg_connection</text><path d="M413.6667,375.9297 L423.6667,375.9297 C438.6667,375.9297 438.6667,375.9297 453.6667,375.9297 L463.6667,375.9297 " fill="none" style="stroke: #808080; stroke-width: 2.0;"/><path d="M264.3333,347.7813 L274.3333,347.7813 C289.3333,347.7813 289.3333,375.9297 304.3333,375.9297 L314.3333,375.9297 " fill="none" style="stroke: #808080; stroke-width: 2.0;"/><rect fill="#C0C0C0" height="36.2969" rx="7" ry="7" style="stroke: #A80036; stroke-width: 1.5;" width="102.3333" x="314.3333" y="414.0781"/><path d="M328.8333,427.5417 C328.187,427.5417 327.6667,428.076 327.6667,428.7083 L327.6667,429.875 L325.443,429.875 C325.373,429.875 325.3333,429.9147 325.3333,429.9847 L325.3333,432.7917 C325.3333,433.1183 325.59,433.375 325.9167,433.375 L334.0833,433.375 C334.41,433.375 334.6667,433.1183 334.6667,432.7917 L334.6667,429.9847 C334.6667,429.9147 334.627,429.875 334.557,429.875 L332.3333,429.875 L332.3333,428.7083 C332.3333,428.076 331.813,427.5417 331.1667,427.5417 L328.8333,427.5417 M328.8333,428.7083 L331.1667,428.7083 L331.1667,429.875 L328.8333,429.875 L328.8333,428.7083 M325.3333,434.432 L325.3333,436.7653 C325.3333,436.8353 325.373,436.875 325.443,436.875 L334.5582,436.875 C334.6282,436.875 334.6678,436.8353 334.6678,436.7653 L334.6678,434.432 C334.4812,434.4903 334.2945,434.5417 334.0845,434.5417 L325.9178,434.5417 C325.7078,434.5417 325.5212,434.4903 325.3345,434.432 " fill="#000000" style="stroke: ; stroke-width: 0.0; stroke-dasharray: ;"/><text fill="#000000" font-family="Helvetica" font-size="14" lengthAdjust="spacingAndGlyphs" textLength="67" x="339.6667" y="437.0732">instances</text><rect fill="#F8F8FF" height="36.2969" rx="7" ry="7" style="stroke: #A80036; stroke-width: 1.5;" width="78.3333" x="466.6667" y="414.0781"/><path d="M481.1667,427.5417 C480.5203,427.5417 480,428.076 480,428.7083 L480,429.875 L477.7763,429.875 C477.7063,429.875 477.6667,429.9147 477.6667,429.9847 L477.6667,432.7917 C477.6667,433.1183 477.9233,433.375 478.25,433.375 L486.4167,433.375 C486.7433,433.375 487,433.1183 487,432.7917 L487,429.9847 C487,429.9147 486.9603,429.875 486.8903,429.875 L484.6667,429.875 L484.6667,428.7083 C484.6667,428.076 484.1463,427.5417 483.5,427.5417 L481.1667,427.5417 M481.1667,428.7083 L483.5,428.7083 L483.5,429.875 L481.1667,429.875 L481.1667,428.7083 M477.6667,434.432 L477.6667,436.7653 C477.6667,436.8353 477.7063,436.875 477.7763,436.875 L486.8915,436.875 C486.9615,436.875 487.0012,436.8353 487.0012,436.7653 L487.0012,434.432 C486.8145,434.4903 486.6278,434.5417 486.4178,434.5417 L478.2512,434.5417 C478.0412,434.5417 477.8545,434.4903 477.6678,434.432 " fill="#000000" style="stroke: ; stroke-width: 0.0; stroke-dasharray: ;"/><text fill="#000000" font-family="Helvetica" font-size="14" lengthAdjust="spacingAndGlyphs" textLength="43" x="492" y="437.0732">kernel</text><path d="M416.6667,432.2266 L426.6667,432.2266 C441.6667,432.2266 441.6667,432.2266 456.6667,432.2266 L466.6667,432.2266 " fill="none" style="stroke: #808080; stroke-width: 2.0;"/><path d="M264.3333,347.7813 L274.3333,347.7813 C289.3333,347.7813 289.3333,432.2266 304.3333,432.2266 L314.3333,432.2266 " fill="none" style="stroke: #808080; stroke-width: 2.0;"/><path d="M134.3333,235.1875 L144.3333,235.1875 C159.3333,235.1875 159.3333,347.7813 174.3333,347.7813 L184.3333,347.7813 " fill="none" style="stroke: #808080; stroke-width: 2.0;"/><rect fill="#DDDDDD" height="124.0781" rx="5" ry="5" style="stroke: #000000; stroke-width: 1.0;" width="183.3333" x="18" y="468.375"/><text fill="#000000" font-family="Helvetica" font-size="14" lengthAdjust="spacingAndGlyphs" textLength="42" x="24" y="486.3701">Icons:</text><text fill="#000000" font-family="Helvetica" font-size="14" lengthAdjust="spacingAndGlyphs" textLength="59" x="40" y="502.667">Main File</text><path d="M108.6667,493.1354 L104,496.6354 L105.1667,496.6354 L105.1667,501.3021 L107.5,501.3021 L107.5,498.9688 L109.8333,498.9688 L109.8333,501.3021 L112.1667,501.3021 L112.1667,496.5993 L113.3333,496.6354 L108.6667,493.1354 " fill="#000000" style="stroke: ; stroke-width: 0.0; stroke-dasharray: ;"/><text fill="#000000" font-family="Helvetica" font-size="14" lengthAdjust="spacingAndGlyphs" textLength="68" x="40" y="518.9639">Functions</text><path d="M113.1097,509.4323 C113.0397,509.4323 113,509.472 113,509.542 L113,518.6571 C113,518.7271 113.0397,518.7668 113.1097,518.7668 L121.0582,518.7668 C121.1282,518.7668 121.1678,518.7271 121.1678,518.6571 L121.1678,509.542 C121.1678,509.472 121.1282,509.4323 121.0582,509.4323 L113.1097,509.4323 M114.1667,510.599 L120,510.599 L120,512.9323 L114.1667,512.9323 L114.1667,510.599 M114.1667,514.099 L115.3333,514.099 L115.3333,515.2656 L114.1667,515.2656 L114.1667,514.099 M116.5,514.099 L117.6667,514.099 L117.6667,515.2656 L116.5,515.2656 L116.5,514.099 M118.8333,514.099 L120,514.099 L120,517.599 L118.8333,517.599 L118.8333,514.099 M114.1667,516.4323 L115.3333,516.4323 L115.3333,517.599 L114.1667,517.599 L114.1667,516.4323 M116.5,516.4323 L117.6667,516.4323 L117.6667,517.599 L116.5,517.599 L116.5,516.4323 " fill="#000000" style="stroke: ; stroke-width: 0.0; stroke-dasharray: ;"/><text fill="#000000" font-family="Helvetica" font-size="14" lengthAdjust="spacingAndGlyphs" textLength="140" x="40" y="535.2607">Classes/Dictionaries</text><path d="M188.5,525.7292 C187.8537,525.7292 187.3333,526.2635 187.3333,526.8958 L187.3333,528.0625 L185.1097,528.0625 C185.0397,528.0625 185,528.1022 185,528.1722 L185,530.9792 C185,531.3058 185.2567,531.5625 185.5833,531.5625 L193.75,531.5625 C194.0767,531.5625 194.3333,531.3058 194.3333,530.9792 L194.3333,528.1722 C194.3333,528.1022 194.2937,528.0625 194.2237,528.0625 L192,528.0625 L192,526.8958 C192,526.2635 191.4797,525.7292 190.8333,525.7292 L188.5,525.7292 M188.5,526.8958 L190.8333,526.8958 L190.8333,528.0625 L188.5,528.0625 L188.5,526.8958 M185,532.6195 L185,534.9528 C185,535.0228 185.0397,535.0625 185.1097,535.0625 L194.2248,535.0625 C194.2948,535.0625 194.3345,535.0228 194.3345,534.9528 L194.3345,532.6195 C194.1478,532.6778 193.9612,532.7292 193.7512,532.7292 L185.5845,532.7292 C185.3745,532.7292 185.1878,532.6778 185.0012,532.6195 " fill="#000000" style="stroke: ; stroke-width: 0.0; stroke-dasharray: ;"/><text fill="#000000" font-family="Helvetica" font-size="14" lengthAdjust="spacingAndGlyphs" textLength="79" x="24" y="551.5576">Box Colors:</text><text fill="#000000" font-family="Helvetica" font-size="14" lengthAdjust="spacingAndGlyphs" textLength="107" x="40" y="567.8545">Folders = Silver</text><text fill="#000000" font-family="Helvetica" font-size="14" lengthAdjust="spacingAndGlyphs" textLength="90" x="40" y="584.1514">Files = White</text><!--MD5=[c27cf31296ed57601a49c15a51585c3c]
@startmindmap




skinparam {
    DefaultFontName Helvetica 
    defaultTextAlignment center
    RoundCorner 14
    Shadowing false

    BackgroundColor transparent

    TitleFontSize 36
    TitleFontStyle Bold

    minClassWidth 125
    maxClassWidth 300
    nodesep 30
    ranksep 30
    CircledCharacterRadius 10
    CircledCharacterFontSize 12
    CircledCharacterFontColor White
    Class {
        FontSize 16
        FontStyle Bold
        BackgroundColor #FFFFFF90
        BorderThickness 0.5
        BorderColor Gray
        ArrowThickness 2
        ArrowColor Gray
        AttributeIconSize 9
    }

}

*[#ghostwhite] <&home> citydb-3dtiler
**[#ghostwhite] advise_main
***[#silver] <&calculator> io
****[#ghostwhite] <&calculator> io_yaml
****[#ghostwhite] <&calculator> io_sql
***[#silver] <&briefcase> classes
****[#ghostwhite] <&briefcase> advisement
***[#silver] <&calculator> database
****[#ghostwhite] <&calculator> pg_connection
**[#ghostwhite] tile_main
***[#silver] <&calculator> io
****[#ghostwhite] <&calculator> io_tiles
***[#silver] <&briefcase> classes
****[#ghostwhite] <&briefcase> sql_blocks
***[#silver] <&calculator> database
****[#ghostwhite] <&calculator> pg_connection
***[#silver] <&briefcase> instances
****[#ghostwhite] <&briefcase> kernel

legend left
    Icons:
        Main File <&home>
        Functions <&calculator>
        Classes/Dictionaries <&briefcase>
    Box Colors:
        Folders = Silver
        Files = White
endlegend


@endmindmap

PlantUML version 1.2020.02(Sun Mar 01 11:22:07 CET 2020)
(GPL source distribution)
Java Runtime: OpenJDK Runtime Environment
JVM: OpenJDK 64-Bit Server VM
Java Version: 21.0.8+9-Ubuntu-0ubuntu124.04.1
Operating System: Linux
Default Encoding: UTF-8
Language: en
Country: US
--></g></svg>