<?xml version="1.0" encoding="UTF-8" standalone="no"?><svg xmlns="http://www.w3.org/2000/svg" xmlns:xlink="http://www.w3.org/1999/xlink" contentScriptType="application/ecmascript" contentStyleType="text/css" height="678px" preserveAspectRatio="none" style="width:637px;height:678px;" version="1.1" viewBox="0 0 637 678" width="637px" zoomAndPan="magnify"><defs/><g><text fill="#FF0000" font-family="Helvetica" font-size="10" lengthAdjust="spacingAndGlyphs" textLength="117" x="459" y="19.2822">Last Check : 06.11.2025</text><rect fill="none" height="51.9063" rx="7" ry="7" style="stroke: none; stroke-width: 1.0;" width="476" x="54.5" y="26.6406"/><text fill="#000000" font-family="Helvetica" font-size="36" font-weight="bold" lengthAdjust="spacingAndGlyphs" textLength="466" x="59.5" y="65.0566">Folder &amp; File Structure</text><rect fill="#F8F8FF" height="36.2969" rx="7" ry="7" style="stroke: #A80036; stroke-width: 1.5;" width="124.3333" x="10" y="291.5859"/><path d="M25.6667,305.0495 L21,308.5495 L22.1667,308.5495 L22.1667,313.2161 L24.5,313.2161 L24.5,310.8828 L26.8333,310.8828 L26.8333,313.2161 L29.1667,313.2161 L29.1667,308.5133 L30.3333,308.5495 L25.6667,305.0495 " fill="#000000" style="stroke: ; stroke-width: 0.0; stroke-dasharray: ;"/><text fill="#000000" font-family="Helvetica" font-size="14" lengthAdjust="spacingAndGlyphs" textLength="89" x="35.3333" y="314.5811">citydb-3dtiler</text><rect fill="#F8F8FF" height="36.2969" rx="7" ry="7" style="stroke: #A80036; stroke-width: 1.5;" width="104" x="184.3333" y="178.9922"/><text fill="#000000" font-family="Helvetica" font-size="14" lengthAdjust="spacingAndGlyphs" textLength="84" x="194.3333" y="201.9873">advise_main</text><rect fill="#C0C0C0" height="36.2969" rx="7" ry="7" style="stroke: #A80036; stroke-width: 1.5;" width="47.3333" x="338.3333" y="122.6953"/><path d="M349.443,136.1589 C349.373,136.1589 349.3333,136.1985 349.3333,136.2685 L349.3333,145.3837 C349.3333,145.4537 349.373,145.4934 349.443,145.4934 L357.3915,145.4934 C357.4615,145.4934 357.5012,145.4537 357.5012,145.3837 L357.5012,136.2685 C357.5012,136.1985 357.4615,136.1589 357.3915,136.1589 L349.443,136.1589 M350.5,137.3255 L356.3333,137.3255 L356.3333,139.6589 L350.5,139.6589 L350.5,137.3255 M350.5,140.8255 L351.6667,140.8255 L351.6667,141.9922 L350.5,141.9922 L350.5,140.8255 M352.8333,140.8255 L354,140.8255 L354,141.9922 L352.8333,141.9922 L352.8333,140.8255 M355.1667,140.8255 L356.3333,140.8255 L356.3333,144.3255 L355.1667,144.3255 L355.1667,140.8255 M350.5,143.1589 L351.6667,143.1589 L351.6667,144.3255 L350.5,144.3255 L350.5,143.1589 M352.8333,143.1589 L354,143.1589 L354,144.3255 L352.8333,144.3255 L352.8333,143.1589 " fill="#000000" style="stroke: ; stroke-width: 0.0; stroke-dasharray: ;"/><text fill="#000000" font-family="Helvetica" font-size="14" lengthAdjust="spacingAndGlyphs" textLength="12" x="363.6667" y="145.6904">io</text><rect fill="#F8F8FF" height="36.2969" rx="7" ry="7" style="stroke: #A80036; stroke-width: 1.5;" width="85.3333" x="435.6667" y="94.5469"/><path d="M446.7763,108.0104 C446.7063,108.0104 446.6667,108.0501 446.6667,108.1201 L446.6667,117.2353 C446.6667,117.3053 446.7063,117.3449 446.7763,117.3449 L454.7248,117.3449 C454.7948,117.3449 454.8345,117.3053 454.8345,117.2353 L454.8345,108.1201 C454.8345,108.0501 454.7948,108.0104 454.7248,108.0104 L446.7763,108.0104 M447.8333,109.1771 L453.6667,109.1771 L453.6667,111.5104 L447.8333,111.5104 L447.8333,109.1771 M447.8333,112.6771 L449,112.6771 L449,113.8438 L447.8333,113.8438 L447.8333,112.6771 M450.1667,112.6771 L451.3333,112.6771 L451.3333,113.8438 L450.1667,113.8438 L450.1667,112.6771 M452.5,112.6771 L453.6667,112.6771 L453.6667,116.1771 L452.5,116.1771 L452.5,112.6771 M447.8333,115.0104 L449,115.0104 L449,116.1771 L447.8333,116.1771 L447.8333,115.0104 M450.1667,115.0104 L451.3333,115.0104 L451.3333,116.1771 L450.1667,116.1771 L450.1667,115.0104 " fill="#000000" style="stroke: ; stroke-width: 0.0; stroke-dasharray: ;"/><text fill="#000000" font-family="Helvetica" font-size="14" lengthAdjust="spacingAndGlyphs" textLength="50" x="461" y="117.542">io_yaml</text><path d="M385.6667,140.8438 L395.6667,140.8438 C410.6667,140.8438 410.6667,112.6953 425.6667,112.6953 L435.6667,112.6953 " fill="none" style="stroke: #808080; stroke-width: 2.0;"/><rect fill="#F8F8FF" height="36.2969" rx="7" ry="7" style="stroke: #A80036; stroke-width: 1.5;" width="74.3333" x="435.6667" y="150.8438"/><path d="M446.7763,164.3073 C446.7063,164.3073 446.6667,164.347 446.6667,164.417 L446.6667,173.5321 C446.6667,173.6021 446.7063,173.6418 446.7763,173.6418 L454.7248,173.6418 C454.7948,173.6418 454.8345,173.6021 454.8345,173.5321 L454.8345,164.417 C454.8345,164.347 454.7948,164.3073 454.7248,164.3073 L446.7763,164.3073 M447.8333,165.474 L453.6667,165.474 L453.6667,167.8073 L447.8333,167.8073 L447.8333,165.474 M447.8333,168.974 L449,168.974 L449,170.1406 L447.8333,170.1406 L447.8333,168.974 M450.1667,168.974 L451.3333,168.974 L451.3333,170.1406 L450.1667,170.1406 L450.1667,168.974 M452.5,168.974 L453.6667,168.974 L453.6667,172.474 L452.5,172.474 L452.5,168.974 M447.8333,171.3073 L449,171.3073 L449,172.474 L447.8333,172.474 L447.8333,171.3073 M450.1667,171.3073 L451.3333,171.3073 L451.3333,172.474 L450.1667,172.474 L450.1667,171.3073 " fill="#000000" style="stroke: ; stroke-width: 0.0; stroke-dasharray: ;"/><text fill="#000000" font-family="Helvetica" font-size="14" lengthAdjust="spacingAndGlyphs" textLength="39" x="461" y="173.8389">io_sql</text><path d="M385.6667,140.8438 L395.6667,140.8438 C410.6667,140.8438 410.6667,168.9922 425.6667,168.9922 L435.6667,168.9922 " fill="none" style="stroke: #808080; stroke-width: 2.0;"/><path d="M288.3333,197.1406 L298.3333,197.1406 C313.3333,197.1406 313.3333,140.8438 328.3333,140.8438 L338.3333,140.8438 " fill="none" style="stroke: #808080; stroke-width: 2.0;"/><rect fill="#C0C0C0" height="36.2969" rx="7" ry="7" style="stroke: #A80036; stroke-width: 1.5;" width="87.3333" x="338.3333" y="207.1406"/><path d="M352.8333,220.6042 C352.187,220.6042 351.6667,221.1385 351.6667,221.7708 L351.6667,222.9375 L349.443,222.9375 C349.373,222.9375 349.3333,222.9772 349.3333,223.0472 L349.3333,225.8542 C349.3333,226.1808 349.59,226.4375 349.9167,226.4375 L358.0833,226.4375 C358.41,226.4375 358.6667,226.1808 358.6667,225.8542 L358.6667,223.0472 C358.6667,222.9772 358.627,222.9375 358.557,222.9375 L356.3333,222.9375 L356.3333,221.7708 C356.3333,221.1385 355.813,220.6042 355.1667,220.6042 L352.8333,220.6042 M352.8333,221.7708 L355.1667,221.7708 L355.1667,222.9375 L352.8333,222.9375 L352.8333,221.7708 M349.3333,227.4945 L349.3333,229.8278 C349.3333,229.8978 349.373,229.9375 349.443,229.9375 L358.5582,229.9375 C358.6282,229.9375 358.6678,229.8978 358.6678,229.8278 L358.6678,227.4945 C358.4812,227.5528 358.2945,227.6042 358.0845,227.6042 L349.9178,227.6042 C349.7078,227.6042 349.5212,227.5528 349.3345,227.4945 " fill="#000000" style="stroke: ; stroke-width: 0.0; stroke-dasharray: ;"/><text fill="#000000" font-family="Helvetica" font-size="14" lengthAdjust="spacingAndGlyphs" textLength="52" x="363.6667" y="230.1357">classes</text><rect fill="#F8F8FF" height="36.2969" rx="7" ry="7" style="stroke: #A80036; stroke-width: 1.5;" width="115.3333" x="475.6667" y="207.1406"/><path d="M490.1667,220.6042 C489.5203,220.6042 489,221.1385 489,221.7708 L489,222.9375 L486.7763,222.9375 C486.7063,222.9375 486.6667,222.9772 486.6667,223.0472 L486.6667,225.8542 C486.6667,226.1808 486.9233,226.4375 487.25,226.4375 L495.4167,226.4375 C495.7433,226.4375 496,226.1808 496,225.8542 L496,223.0472 C496,222.9772 495.9603,222.9375 495.8903,222.9375 L493.6667,222.9375 L493.6667,221.7708 C493.6667,221.1385 493.1463,220.6042 492.5,220.6042 L490.1667,220.6042 M490.1667,221.7708 L492.5,221.7708 L492.5,222.9375 L490.1667,222.9375 L490.1667,221.7708 M486.6667,227.4945 L486.6667,229.8278 C486.6667,229.8978 486.7063,229.9375 486.7763,229.9375 L495.8915,229.9375 C495.9615,229.9375 496.0012,229.8978 496.0012,229.8278 L496.0012,227.4945 C495.8145,227.5528 495.6278,227.6042 495.4178,227.6042 L487.2512,227.6042 C487.0412,227.6042 486.8545,227.5528 486.6678,227.4945 " fill="#000000" style="stroke: ; stroke-width: 0.0; stroke-dasharray: ;"/><text fill="#000000" font-family="Helvetica" font-size="14" lengthAdjust="spacingAndGlyphs" textLength="80" x="501" y="230.1357">advisement</text><path d="M425.6667,225.2891 L435.6667,225.2891 C450.6667,225.2891 450.6667,225.2891 465.6667,225.2891 L475.6667,225.2891 " fill="none" style="stroke: #808080; stroke-width: 2.0;"/><path d="M288.3333,197.1406 L298.3333,197.1406 C313.3333,197.1406 313.3333,225.2891 328.3333,225.2891 L338.3333,225.2891 " fill="none" style="stroke: #808080; stroke-width: 2.0;"/><rect fill="#C0C0C0" height="36.2969" rx="7" ry="7" style="stroke: #A80036; stroke-width: 1.5;" width="99.3333" x="338.3333" y="263.4375"/><path d="M349.443,276.901 C349.373,276.901 349.3333,276.9407 349.3333,277.0107 L349.3333,286.1259 C349.3333,286.1959 349.373,286.2355 349.443,286.2355 L357.3915,286.2355 C357.4615,286.2355 357.5012,286.1959 357.5012,286.1259 L357.5012,277.0107 C357.5012,276.9407 357.4615,276.901 357.3915,276.901 L349.443,276.901 M350.5,278.0677 L356.3333,278.0677 L356.3333,280.401 L350.5,280.401 L350.5,278.0677 M350.5,281.5677 L351.6667,281.5677 L351.6667,282.7344 L350.5,282.7344 L350.5,281.5677 M352.8333,281.5677 L354,281.5677 L354,282.7344 L352.8333,282.7344 L352.8333,281.5677 M355.1667,281.5677 L356.3333,281.5677 L356.3333,285.0677 L355.1667,285.0677 L355.1667,281.5677 M350.5,283.901 L351.6667,283.901 L351.6667,285.0677 L350.5,285.0677 L350.5,283.901 M352.8333,283.901 L354,283.901 L354,285.0677 L352.8333,285.0677 L352.8333,283.901 " fill="#000000" style="stroke: ; stroke-width: 0.0; stroke-dasharray: ;"/><text fill="#000000" font-family="Helvetica" font-size="14" lengthAdjust="spacingAndGlyphs" textLength="64" x="363.6667" y="286.4326">database</text><rect fill="#F8F8FF" height="36.2969" rx="7" ry="7" style="stroke: #A80036; stroke-width: 1.5;" width="138.3333" x="487.6667" y="263.4375"/><path d="M498.7763,276.901 C498.7063,276.901 498.6667,276.9407 498.6667,277.0107 L498.6667,286.1259 C498.6667,286.1959 498.7063,286.2355 498.7763,286.2355 L506.7248,286.2355 C506.7948,286.2355 506.8345,286.1959 506.8345,286.1259 L506.8345,277.0107 C506.8345,276.9407 506.7948,276.901 506.7248,276.901 L498.7763,276.901 M499.8333,278.0677 L505.6667,278.0677 L505.6667,280.401 L499.8333,280.401 L499.8333,278.0677 M499.8333,281.5677 L501,281.5677 L501,282.7344 L499.8333,282.7344 L499.8333,281.5677 M502.1667,281.5677 L503.3333,281.5677 L503.3333,282.7344 L502.1667,282.7344 L502.1667,281.5677 M504.5,281.5677 L505.6667,281.5677 L505.6667,285.0677 L504.5,285.0677 L504.5,281.5677 M499.8333,283.901 L501,283.901 L501,285.0677 L499.8333,285.0677 L499.8333,283.901 M502.1667,283.901 L503.3333,283.901 L503.3333,285.0677 L502.1667,285.0677 L502.1667,283.901 " fill="#000000" style="stroke: ; stroke-width: 0.0; stroke-dasharray: ;"/><text fill="#000000" font-family="Helvetica" font-size="14" lengthAdjust="spacingAndGlyphs" textLength="103" x="513" y="286.4326">pg_connection</text><path d="M437.6667,281.5859 L447.6667,281.5859 C462.6667,281.5859 462.6667,281.5859 477.6667,281.5859 L487.6667,281.5859 " fill="none" style="stroke: #808080; stroke-width: 2.0;"/><path d="M288.3333,197.1406 L298.3333,197.1406 C313.3333,197.1406 313.3333,281.5859 328.3333,281.5859 L338.3333,281.5859 " fill="none" style="stroke: #808080; stroke-width: 2.0;"/><path d="M134.3333,309.7344 L144.3333,309.7344 C159.3333,309.7344 159.3333,197.1406 174.3333,197.1406 L184.3333,197.1406 " fill="none" style="stroke: #808080; stroke-width: 2.0;"/><rect fill="#F8F8FF" height="36.2969" rx="7" ry="7" style="stroke: #A80036; stroke-width: 1.5;" width="80" x="184.3333" y="404.1797"/><text fill="#000000" font-family="Helvetica" font-size="14" lengthAdjust="spacingAndGlyphs" textLength="60" x="194.3333" y="427.1748">tile_main</text><rect fill="#C0C0C0" height="36.2969" rx="7" ry="7" style="stroke: #A80036; stroke-width: 1.5;" width="47.3333" x="314.3333" y="319.7344"/><path d="M325.443,333.1979 C325.373,333.1979 325.3333,333.2376 325.3333,333.3076 L325.3333,342.4228 C325.3333,342.4928 325.373,342.5324 325.443,342.5324 L333.3915,342.5324 C333.4615,342.5324 333.5012,342.4928 333.5012,342.4228 L333.5012,333.3076 C333.5012,333.2376 333.4615,333.1979 333.3915,333.1979 L325.443,333.1979 M326.5,334.3646 L332.3333,334.3646 L332.3333,336.6979 L326.5,336.6979 L326.5,334.3646 M326.5,337.8646 L327.6667,337.8646 L327.6667,339.0313 L326.5,339.0313 L326.5,337.8646 M328.8333,337.8646 L330,337.8646 L330,339.0313 L328.8333,339.0313 L328.8333,337.8646 M331.1667,337.8646 L332.3333,337.8646 L332.3333,341.3646 L331.1667,341.3646 L331.1667,337.8646 M326.5,340.1979 L327.6667,340.1979 L327.6667,341.3646 L326.5,341.3646 L326.5,340.1979 M328.8333,340.1979 L330,340.1979 L330,341.3646 L328.8333,341.3646 L328.8333,340.1979 " fill="#000000" style="stroke: ; stroke-width: 0.0; stroke-dasharray: ;"/><text fill="#000000" font-family="Helvetica" font-size="14" lengthAdjust="spacingAndGlyphs" textLength="12" x="339.6667" y="342.7295">io</text><rect fill="#F8F8FF" height="36.2969" rx="7" ry="7" style="stroke: #A80036; stroke-width: 1.5;" width="82.3333" x="411.6667" y="319.7344"/><path d="M422.7763,333.1979 C422.7063,333.1979 422.6667,333.2376 422.6667,333.3076 L422.6667,342.4228 C422.6667,342.4928 422.7063,342.5324 422.7763,342.5324 L430.7248,342.5324 C430.7948,342.5324 430.8345,342.4928 430.8345,342.4228 L430.8345,333.3076 C430.8345,333.2376 430.7948,333.1979 430.7248,333.1979 L422.7763,333.1979 M423.8333,334.3646 L429.6667,334.3646 L429.6667,336.6979 L423.8333,336.6979 L423.8333,334.3646 M423.8333,337.8646 L425,337.8646 L425,339.0313 L423.8333,339.0313 L423.8333,337.8646 M426.1667,337.8646 L427.3333,337.8646 L427.3333,339.0313 L426.1667,339.0313 L426.1667,337.8646 M428.5,337.8646 L429.6667,337.8646 L429.6667,341.3646 L428.5,341.3646 L428.5,337.8646 M423.8333,340.1979 L425,340.1979 L425,341.3646 L423.8333,341.3646 L423.8333,340.1979 M426.1667,340.1979 L427.3333,340.1979 L427.3333,341.3646 L426.1667,341.3646 L426.1667,340.1979 " fill="#000000" style="stroke: ; stroke-width: 0.0; stroke-dasharray: ;"/><text fill="#000000" font-family="Helvetica" font-size="14" lengthAdjust="spacingAndGlyphs" textLength="47" x="437" y="342.7295">io_tiles</text><path d="M361.6667,337.8828 L371.6667,337.8828 C386.6667,337.8828 386.6667,337.8828 401.6667,337.8828 L411.6667,337.8828 " fill="none" style="stroke: #808080; stroke-width: 2.0;"/><path d="M264.3333,422.3281 L274.3333,422.3281 C289.3333,422.3281 289.3333,337.8828 304.3333,337.8828 L314.3333,337.8828 " fill="none" style="stroke: #808080; stroke-width: 2.0;"/><rect fill="#C0C0C0" height="36.2969" rx="7" ry="7" style="stroke: #A80036; stroke-width: 1.5;" width="87.3333" x="314.3333" y="376.0313"/><path d="M328.8333,389.4948 C328.187,389.4948 327.6667,390.0291 327.6667,390.6615 L327.6667,391.8281 L325.443,391.8281 C325.373,391.8281 325.3333,391.8678 325.3333,391.9378 L325.3333,394.7448 C325.3333,395.0715 325.59,395.3281 325.9167,395.3281 L334.0833,395.3281 C334.41,395.3281 334.6667,395.0715 334.6667,394.7448 L334.6667,391.9378 C334.6667,391.8678 334.627,391.8281 334.557,391.8281 L332.3333,391.8281 L332.3333,390.6615 C332.3333,390.0291 331.813,389.4948 331.1667,389.4948 L328.8333,389.4948 M328.8333,390.6615 L331.1667,390.6615 L331.1667,391.8281 L328.8333,391.8281 L328.8333,390.6615 M325.3333,396.3851 L325.3333,398.7185 C325.3333,398.7885 325.373,398.8281 325.443,398.8281 L334.5582,398.8281 C334.6282,398.8281 334.6678,398.7885 334.6678,398.7185 L334.6678,396.3851 C334.4812,396.4435 334.2945,396.4948 334.0845,396.4948 L325.9178,396.4948 C325.7078,396.4948 325.5212,396.4435 325.3345,396.3851 " fill="#000000" style="stroke: ; stroke-width: 0.0; stroke-dasharray: ;"/><text fill="#000000" font-family="Helvetica" font-size="14" lengthAdjust="spacingAndGlyphs" textLength="52" x="339.6667" y="399.0264">classes</text><rect fill="#F8F8FF" height="36.2969" rx="7" ry="7" style="stroke: #A80036; stroke-width: 1.5;" width="107.3333" x="451.6667" y="376.0313"/><path d="M466.1667,389.4948 C465.5203,389.4948 465,390.0291 465,390.6615 L465,391.8281 L462.7763,391.8281 C462.7063,391.8281 462.6667,391.8678 462.6667,391.9378 L462.6667,394.7448 C462.6667,395.0715 462.9233,395.3281 463.25,395.3281 L471.4167,395.3281 C471.7433,395.3281 472,395.0715 472,394.7448 L472,391.9378 C472,391.8678 471.9603,391.8281 471.8903,391.8281 L469.6667,391.8281 L469.6667,390.6615 C469.6667,390.0291 469.1463,389.4948 468.5,389.4948 L466.1667,389.4948 M466.1667,390.6615 L468.5,390.6615 L468.5,391.8281 L466.1667,391.8281 L466.1667,390.6615 M462.6667,396.3851 L462.6667,398.7185 C462.6667,398.7885 462.7063,398.8281 462.7763,398.8281 L471.8915,398.8281 C471.9615,398.8281 472.0012,398.7885 472.0012,398.7185 L472.0012,396.3851 C471.8145,396.4435 471.6278,396.4948 471.4178,396.4948 L463.2512,396.4948 C463.0412,396.4948 462.8545,396.4435 462.6678,396.3851 " fill="#000000" style="stroke: ; stroke-width: 0.0; stroke-dasharray: ;"/><text fill="#000000" font-family="Helvetica" font-size="14" lengthAdjust="spacingAndGlyphs" textLength="72" x="477" y="399.0264">sql_blocks</text><path d="M401.6667,394.1797 L411.6667,394.1797 C426.6667,394.1797 426.6667,394.1797 441.6667,394.1797 L451.6667,394.1797 " fill="none" style="stroke: #808080; stroke-width: 2.0;"/><path d="M264.3333,422.3281 L274.3333,422.3281 C289.3333,422.3281 289.3333,394.1797 304.3333,394.1797 L314.3333,394.1797 " fill="none" style="stroke: #808080; stroke-width: 2.0;"/><rect fill="#C0C0C0" height="36.2969" rx="7" ry="7" style="stroke: #A80036; stroke-width: 1.5;" width="99.3333" x="314.3333" y="432.3281"/><path d="M325.443,445.7917 C325.373,445.7917 325.3333,445.8313 325.3333,445.9013 L325.3333,455.0165 C325.3333,455.0865 325.373,455.1262 325.443,455.1262 L333.3915,455.1262 C333.4615,455.1262 333.5012,455.0865 333.5012,455.0165 L333.5012,445.9013 C333.5012,445.8313 333.4615,445.7917 333.3915,445.7917 L325.443,445.7917 M326.5,446.9583 L332.3333,446.9583 L332.3333,449.2917 L326.5,449.2917 L326.5,446.9583 M326.5,450.4583 L327.6667,450.4583 L327.6667,451.625 L326.5,451.625 L326.5,450.4583 M328.8333,450.4583 L330,450.4583 L330,451.625 L328.8333,451.625 L328.8333,450.4583 M331.1667,450.4583 L332.3333,450.4583 L332.3333,453.9583 L331.1667,453.9583 L331.1667,450.4583 M326.5,452.7917 L327.6667,452.7917 L327.6667,453.9583 L326.5,453.9583 L326.5,452.7917 M328.8333,452.7917 L330,452.7917 L330,453.9583 L328.8333,453.9583 L328.8333,452.7917 " fill="#000000" style="stroke: ; stroke-width: 0.0; stroke-dasharray: ;"/><text fill="#000000" font-family="Helvetica" font-size="14" lengthAdjust="spacingAndGlyphs" textLength="64" x="339.6667" y="455.3232">database</text><rect fill="#F8F8FF" height="36.2969" rx="7" ry="7" style="stroke: #A80036; stroke-width: 1.5;" width="138.3333" x="463.6667" y="432.3281"/><path d="M474.7763,445.7917 C474.7063,445.7917 474.6667,445.8313 474.6667,445.9013 L474.6667,455.0165 C474.6667,455.0865 474.7063,455.1262 474.7763,455.1262 L482.7248,455.1262 C482.7948,455.1262 482.8345,455.0865 482.8345,455.0165 L482.8345,445.9013 C482.8345,445.8313 482.7948,445.7917 482.7248,445.7917 L474.7763,445.7917 M475.8333,446.9583 L481.6667,446.9583 L481.6667,449.2917 L475.8333,449.2917 L475.8333,446.9583 M475.8333,450.4583 L477,450.4583 L477,451.625 L475.8333,451.625 L475.8333,450.4583 M478.1667,450.4583 L479.3333,450.4583 L479.3333,451.625 L478.1667,451.625 L478.1667,450.4583 M480.5,450.4583 L481.6667,450.4583 L481.6667,453.9583 L480.5,453.9583 L480.5,450.4583 M475.8333,452.7917 L477,452.7917 L477,453.9583 L475.8333,453.9583 L475.8333,452.7917 M478.1667,452.7917 L479.3333,452.7917 L479.3333,453.9583 L478.1667,453.9583 L478.1667,452.7917 " fill="#000000" style="stroke: ; stroke-width: 0.0; stroke-dasharray: ;"/><text fill="#000000" font-family="Helvetica" font-size="14" lengthAdjust="spacingAndGlyphs" textLength="103" x="489" y="455.3232">pg_connection</text><path d="M413.6667,450.4766 L423.6667,450.4766 C438.6667,450.4766 438.6667,450.4766 453.6667,450.4766 L463.6667,450.4766 " fill="none" style="stroke: #808080; stroke-width: 2.0;"/><path d="M264.3333,422.3281 L274.3333,422.3281 C289.3333,422.3281 289.3333,450.4766 304.3333,450.4766 L314.3333,450.4766 " fill="none" style="stroke: #808080; stroke-width: 2.0;"/><rect fill="#C0C0C0" height="36.2969" rx="7" ry="7" style="stroke: #A80036; stroke-width: 1.5;" width="102.3333" x="314.3333" y="488.625"/><path d="M328.8333,502.0885 C328.187,502.0885 327.6667,502.6229 327.6667,503.2552 L327.6667,504.4219 L325.443,504.4219 C325.373,504.4219 325.3333,504.4615 325.3333,504.5315 L325.3333,507.3385 C325.3333,507.6652 325.59,507.9219 325.9167,507.9219 L334.0833,507.9219 C334.41,507.9219 334.6667,507.6652 334.6667,507.3385 L334.6667,504.5315 C334.6667,504.4615 334.627,504.4219 334.557,504.4219 L332.3333,504.4219 L332.3333,503.2552 C332.3333,502.6229 331.813,502.0885 331.1667,502.0885 L328.8333,502.0885 M328.8333,503.2552 L331.1667,503.2552 L331.1667,504.4219 L328.8333,504.4219 L328.8333,503.2552 M325.3333,508.9789 L325.3333,511.3122 C325.3333,511.3822 325.373,511.4219 325.443,511.4219 L334.5582,511.4219 C334.6282,511.4219 334.6678,511.3822 334.6678,511.3122 L334.6678,508.9789 C334.4812,509.0372 334.2945,509.0885 334.0845,509.0885 L325.9178,509.0885 C325.7078,509.0885 325.5212,509.0372 325.3345,508.9789 " fill="#000000" style="stroke: ; stroke-width: 0.0; stroke-dasharray: ;"/><text fill="#000000" font-family="Helvetica" font-size="14" lengthAdjust="spacingAndGlyphs" textLength="67" x="339.6667" y="511.6201">instances</text><rect fill="#F8F8FF" height="36.2969" rx="7" ry="7" style="stroke: #A80036; stroke-width: 1.5;" width="78.3333" x="466.6667" y="488.625"/><path d="M481.1667,502.0885 C480.5203,502.0885 480,502.6229 480,503.2552 L480,504.4219 L477.7763,504.4219 C477.7063,504.4219 477.6667,504.4615 477.6667,504.5315 L477.6667,507.3385 C477.6667,507.6652 477.9233,507.9219 478.25,507.9219 L486.4167,507.9219 C486.7433,507.9219 487,507.6652 487,507.3385 L487,504.5315 C487,504.4615 486.9603,504.4219 486.8903,504.4219 L484.6667,504.4219 L484.6667,503.2552 C484.6667,502.6229 484.1463,502.0885 483.5,502.0885 L481.1667,502.0885 M481.1667,503.2552 L483.5,503.2552 L483.5,504.4219 L481.1667,504.4219 L481.1667,503.2552 M477.6667,508.9789 L477.6667,511.3122 C477.6667,511.3822 477.7063,511.4219 477.7763,511.4219 L486.8915,511.4219 C486.9615,511.4219 487.0012,511.3822 487.0012,511.3122 L487.0012,508.9789 C486.8145,509.0372 486.6278,509.0885 486.4178,509.0885 L478.2512,509.0885 C478.0412,509.0885 477.8545,509.0372 477.6678,508.9789 " fill="#000000" style="stroke: ; stroke-width: 0.0; stroke-dasharray: ;"/><text fill="#000000" font-family="Helvetica" font-size="14" lengthAdjust="spacingAndGlyphs" textLength="43" x="492" y="511.6201">kernel</text><path d="M416.6667,506.7734 L426.6667,506.7734 C441.6667,506.7734 441.6667,506.7734 456.6667,506.7734 L466.6667,506.7734 " fill="none" style="stroke: #808080; stroke-width: 2.0;"/><path d="M264.3333,422.3281 L274.3333,422.3281 C289.3333,422.3281 289.3333,506.7734 304.3333,506.7734 L314.3333,506.7734 " fill="none" style="stroke: #808080; stroke-width: 2.0;"/><path d="M134.3333,309.7344 L144.3333,309.7344 C159.3333,309.7344 159.3333,422.3281 174.3333,422.3281 L184.3333,422.3281 " fill="none" style="stroke: #808080; stroke-width: 2.0;"/><rect fill="#DDDDDD" height="124.0781" rx="5" ry="5" style="stroke: #000000; stroke-width: 1.0;" width="183.3333" x="18" y="542.9219"/><text fill="#000000" font-family="Helvetica" font-size="14" lengthAdjust="spacingAndGlyphs" textLength="42" x="24" y="560.917">Icons:</text><text fill="#000000" font-family="Helvetica" font-size="14" lengthAdjust="spacingAndGlyphs" textLength="59" x="40" y="577.2139">Main File</text><path d="M108.6667,567.6823 L104,571.1823 L105.1667,571.1823 L105.1667,575.849 L107.5,575.849 L107.5,573.5156 L109.8333,573.5156 L109.8333,575.849 L112.1667,575.849 L112.1667,571.1461 L113.3333,571.1823 L108.6667,567.6823 " fill="#000000" style="stroke: ; stroke-width: 0.0; stroke-dasharray: ;"/><text fill="#000000" font-family="Helvetica" font-size="14" lengthAdjust="spacingAndGlyphs" textLength="68" x="40" y="593.5107">Functions</text><path d="M113.1097,583.9792 C113.0397,583.9792 113,584.0188 113,584.0888 L113,593.204 C113,593.274 113.0397,593.3137 113.1097,593.3137 L121.0582,593.3137 C121.1282,593.3137 121.1678,593.274 121.1678,593.204 L121.1678,584.0888 C121.1678,584.0188 121.1282,583.9792 121.0582,583.9792 L113.1097,583.9792 M114.1667,585.1458 L120,585.1458 L120,587.4792 L114.1667,587.4792 L114.1667,585.1458 M114.1667,588.6458 L115.3333,588.6458 L115.3333,589.8125 L114.1667,589.8125 L114.1667,588.6458 M116.5,588.6458 L117.6667,588.6458 L117.6667,589.8125 L116.5,589.8125 L116.5,588.6458 M118.8333,588.6458 L120,588.6458 L120,592.1458 L118.8333,592.1458 L118.8333,588.6458 M114.1667,590.9792 L115.3333,590.9792 L115.3333,592.1458 L114.1667,592.1458 L114.1667,590.9792 M116.5,590.9792 L117.6667,590.9792 L117.6667,592.1458 L116.5,592.1458 L116.5,590.9792 " fill="#000000" style="stroke: ; stroke-width: 0.0; stroke-dasharray: ;"/><text fill="#000000" font-family="Helvetica" font-size="14" lengthAdjust="spacingAndGlyphs" textLength="140" x="40" y="609.8076">Classes/Dictionaries</text><path d="M188.5,600.276 C187.8537,600.276 187.3333,600.8104 187.3333,601.4427 L187.3333,602.6094 L185.1097,602.6094 C185.0397,602.6094 185,602.649 185,602.719 L185,605.526 C185,605.8527 185.2567,606.1094 185.5833,606.1094 L193.75,606.1094 C194.0767,606.1094 194.3333,605.8527 194.3333,605.526 L194.3333,602.719 C194.3333,602.649 194.2937,602.6094 194.2237,602.6094 L192,602.6094 L192,601.4427 C192,600.8104 191.4797,600.276 190.8333,600.276 L188.5,600.276 M188.5,601.4427 L190.8333,601.4427 L190.8333,602.6094 L188.5,602.6094 L188.5,601.4427 M185,607.1664 L185,609.4997 C185,609.5697 185.0397,609.6094 185.1097,609.6094 L194.2248,609.6094 C194.2948,609.6094 194.3345,609.5697 194.3345,609.4997 L194.3345,607.1664 C194.1478,607.2247 193.9612,607.276 193.7512,607.276 L185.5845,607.276 C185.3745,607.276 185.1878,607.2247 185.0012,607.1664 " fill="#000000" style="stroke: ; stroke-width: 0.0; stroke-dasharray: ;"/><text fill="#000000" font-family="Helvetica" font-size="14" lengthAdjust="spacingAndGlyphs" textLength="79" x="24" y="626.1045">Box Colors:</text><text fill="#000000" font-family="Helvetica" font-size="14" lengthAdjust="spacingAndGlyphs" textLength="107" x="40" y="642.4014">Folders = Silver</text><text fill="#000000" font-family="Helvetica" font-size="14" lengthAdjust="spacingAndGlyphs" textLength="90" x="40" y="658.6982">Files = White</text><!--MD5=[d6edd43aefe9e60e0d19307519c0bc31]
@startmindmap




skinparam {
    DefaultFontName Helvetica 
    defaultTextAlignment center
    RoundCorner 14
    Shadowing false

    BackgroundColor transparent

    TitleFontSize 36
    TitleFontStyle Bold

    minClassWidth 125
    maxClassWidth 300
    nodesep 30
    ranksep 30
    CircledCharacterRadius 10
    CircledCharacterFontSize 12
    CircledCharacterFontColor White
    Class {
        FontSize 16
        FontStyle Bold
        BackgroundColor #FFFFFF90
        BorderThickness 0.5
        BorderColor Gray
        ArrowThickness 2
        ArrowColor Gray
        AttributeIconSize 9
    }

}

title Folder & File Structure

right header
<font color=red size=10> Last Check : 06.11.2025</font>
endheader

*[#ghostwhite] <&home> citydb-3dtiler
**[#ghostwhite] advise_main
***[#silver] <&calculator> io
****[#ghostwhite] <&calculator> io_yaml
****[#ghostwhite] <&calculator> io_sql
***[#silver] <&briefcase> classes
****[#ghostwhite] <&briefcase> advisement
***[#silver] <&calculator> database
****[#ghostwhite] <&calculator> pg_connection
**[#ghostwhite] tile_main
***[#silver] <&calculator> io
****[#ghostwhite] <&calculator> io_tiles
***[#silver] <&briefcase> classes
****[#ghostwhite] <&briefcase> sql_blocks
***[#silver] <&calculator> database
****[#ghostwhite] <&calculator> pg_connection
***[#silver] <&briefcase> instances
****[#ghostwhite] <&briefcase> kernel

legend left
    Icons:
        Main File <&home>
        Functions <&calculator>
        Classes/Dictionaries <&briefcase>
    Box Colors:
        Folders = Silver
        Files = White
endlegend


@endmindmap

PlantUML version 1.2020.02(Sun Mar 01 11:22:07 CET 2020)
(GPL source distribution)
Java Runtime: OpenJDK Runtime Environment
JVM: OpenJDK 64-Bit Server VM
Java Version: 21.0.8+9-Ubuntu-0ubuntu124.04.1
Operating System: Linux
Default Encoding: UTF-8
Language: en
Country: US
--></g></svg>