<?xml version="1.0" encoding="UTF-8" standalone="no"?><svg xmlns="http://www.w3.org/2000/svg" xmlns:xlink="http://www.w3.org/1999/xlink" contentScriptType="application/ecmascript" contentStyleType="text/css" height="699px" preserveAspectRatio="none" style="width:1065px;height:699px;" version="1.1" viewBox="0 0 1065 699" width="1065px" zoomAndPan="magnify"><defs/><g><text fill="#FF0000" font-family="Helvetica" font-size="12" lengthAdjust="spacingAndGlyphs" textLength="133" x="920" y="11.1387">sqlb is not tested yet</text><text fill="#000000" font-family="Helvetica" font-size="36" font-weight="bold" lengthAdjust="spacingAndGlyphs" textLength="390" x="331.5" y="47.3848">UML Class Diagram</text><!--MD5=[3bba2e11fb0bcc18628c32de96d9320e]
cluster advs--><polygon fill="#FFFFFF" points="785,92.875,828,92.875,835,115.1719,1019,115.1719,1019,256.875,785,256.875,785,92.875" style="stroke: #000000; stroke-width: 1.5;"/><line style="stroke: #000000; stroke-width: 1.5;" x1="785" x2="835" y1="115.1719" y2="115.1719"/><text fill="#000000" font-family="Helvetica" font-size="14" font-weight="bold" lengthAdjust="spacingAndGlyphs" textLength="37" x="789" y="107.8701">advs</text><text fill="#000000" font-family="Helvetica" font-size="14" font-style="italic" lengthAdjust="spacingAndGlyphs" textLength="64" x="874" y="130.167">«Advise»</text><!--MD5=[38ea690d6de6cae03e3c90d8eb8ed2bb]
cluster sqlb--><polygon fill="#FFFFFF" points="22,79.875,61,79.875,68,102.1719,761,102.1719,761,651.875,22,651.875,22,79.875" style="stroke: #000000; stroke-width: 1.5;"/><line style="stroke: #000000; stroke-width: 1.5;" x1="22" x2="68" y1="102.1719" y2="102.1719"/><text fill="#000000" font-family="Helvetica" font-size="14" font-weight="bold" lengthAdjust="spacingAndGlyphs" textLength="33" x="26" y="94.8701">sqlb</text><text fill="#000000" font-family="Helvetica" font-size="14" font-style="italic" lengthAdjust="spacingAndGlyphs" textLength="95" x="348" y="117.167">«SQL Blocks»</text><!--MD5=[8e739cdd9138556ecb1060d388508b98]
class advs.Advisement--><rect fill="#FFFFFF" height="97.2188" id="advs.Advisement" rx="7" ry="7" style="stroke: #808080; stroke-width: 0.5;" width="202" x="801" y="143.875"/><ellipse cx="846" cy="158.875" fill="#ADD1B2" rx="10" ry="10" style="stroke: #808080; stroke-width: 1.0;"/><path d="M847.8281,163.125 Q847.4219,163.3281 846.9688,163.4375 Q846.5156,163.5469 846.0313,163.5469 Q844.25,163.5469 843.3125,162.3906 Q842.3906,161.2188 842.3906,159.0156 Q842.3906,156.7969 843.3125,155.6406 Q844.25,154.4688 846.0313,154.4688 Q846.5156,154.4688 846.9688,154.5781 Q847.4375,154.6719 847.8281,154.8906 L847.8281,156.8125 Q847.3906,156.4063 846.9688,156.2188 Q846.5469,156.0156 846.1094,156.0156 Q845.1563,156.0156 844.6719,156.7813 Q844.1875,157.5313 844.1875,159.0156 Q844.1875,160.4844 844.6719,161.2344 Q845.1563,161.9844 846.1094,161.9844 Q846.5469,161.9844 846.9688,161.7969 Q847.3906,161.6094 847.8281,161.2031 L847.8281,163.125 Z "/><text fill="#000000" font-family="Helvetica" font-size="16" font-weight="bold" lengthAdjust="spacingAndGlyphs" textLength="104" x="865" y="164.4141">Advisement</text><line style="stroke: #808080; stroke-width: 1.5;" x1="802" x2="1002" y1="173.875" y2="173.875"/><text fill="#000000" font-family="Helvetica" font-size="11" lengthAdjust="spacingAndGlyphs" textLength="151" x="826.5" y="188.0854">usedCommandSet : String</text><text fill="#000000" font-family="Helvetica" font-size="11" lengthAdjust="spacingAndGlyphs" textLength="190" x="807" y="200.8901">maximumFeaturePerTile : Integer</text><line style="stroke: #808080; stroke-width: 1.0;" x1="802" x2="1002" y1="207.4844" y2="207.4844"/><text fill="#000000" font-family="Helvetica" font-size="11" lengthAdjust="spacingAndGlyphs" textLength="128" x="838" y="221.6948">to_oneline_command()</text><text fill="#000000" font-family="Helvetica" font-size="11" lengthAdjust="spacingAndGlyphs" textLength="52" x="876" y="234.4995">to_yaml()</text><!--MD5=[ca3cbec99660a7c9fdc4077024e9e7a9]
class sqlb.CombinedQueryBlock--><rect fill="#FFFFFF" height="71.6094" id="sqlb.CombinedQueryBlock" rx="7" ry="7" style="stroke: #808080; stroke-width: 0.5;" width="219" x="38.5" y="156.375"/><ellipse cx="52.5" cy="171.375" fill="#ADD1B2" rx="10" ry="10" style="stroke: #808080; stroke-width: 1.0;"/><path d="M54.3281,175.625 Q53.9219,175.8281 53.4688,175.9375 Q53.0156,176.0469 52.5313,176.0469 Q50.75,176.0469 49.8125,174.8906 Q48.8906,173.7188 48.8906,171.5156 Q48.8906,169.2969 49.8125,168.1406 Q50.75,166.9688 52.5313,166.9688 Q53.0156,166.9688 53.4688,167.0781 Q53.9375,167.1719 54.3281,167.3906 L54.3281,169.3125 Q53.8906,168.9063 53.4688,168.7188 Q53.0469,168.5156 52.6094,168.5156 Q51.6563,168.5156 51.1719,169.2813 Q50.6875,170.0313 50.6875,171.5156 Q50.6875,172.9844 51.1719,173.7344 Q51.6563,174.4844 52.6094,174.4844 Q53.0469,174.4844 53.4688,174.2969 Q53.8906,174.1094 54.3281,173.7031 L54.3281,175.625 Z "/><text fill="#000000" font-family="Helvetica" font-size="16" font-weight="bold" lengthAdjust="spacingAndGlyphs" textLength="189" x="65.5" y="176.9141">CombinedQueryBlock</text><line style="stroke: #808080; stroke-width: 0.5;" x1="39.5" x2="256.5" y1="186.375" y2="186.375"/><text fill="#000000" font-family="Helvetica" font-size="11" lengthAdjust="spacingAndGlyphs" textLength="78" x="44.5" y="200.5854">name : String</text><text fill="#000000" font-family="Helvetica" font-size="11" lengthAdjust="spacingAndGlyphs" textLength="105" x="44.5" y="213.3901">comType : DbType</text><line style="stroke: #808080; stroke-width: 0.5;" x1="39.5" x2="256.5" y1="219.9844" y2="219.9844"/><!--MD5=[c18457cbec4c267384d22c608b35ce75]
class sqlb.QueryBlock--><rect fill="#FFFFFF" height="110.0234" id="sqlb.QueryBlock" rx="7" ry="7" style="stroke: #808080; stroke-width: 0.5;" width="181" x="249.5" y="417.375"/><ellipse cx="285.55" cy="432.375" fill="#ADD1B2" rx="10" ry="10" style="stroke: #808080; stroke-width: 1.0;"/><path d="M287.3781,436.625 Q286.9719,436.8281 286.5188,436.9375 Q286.0656,437.0469 285.5813,437.0469 Q283.8,437.0469 282.8625,435.8906 Q281.9406,434.7188 281.9406,432.5156 Q281.9406,430.2969 282.8625,429.1406 Q283.8,427.9688 285.5813,427.9688 Q286.0656,427.9688 286.5188,428.0781 Q286.9875,428.1719 287.3781,428.3906 L287.3781,430.3125 Q286.9406,429.9063 286.5188,429.7188 Q286.0969,429.5156 285.6594,429.5156 Q284.7063,429.5156 284.2219,430.2813 Q283.7375,431.0313 283.7375,432.5156 Q283.7375,433.9844 284.2219,434.7344 Q284.7063,435.4844 285.6594,435.4844 Q286.0969,435.4844 286.5188,435.2969 Q286.9406,435.1094 287.3781,434.7031 L287.3781,436.625 Z "/><text fill="#000000" font-family="Helvetica" font-size="16" font-weight="bold" lengthAdjust="spacingAndGlyphs" textLength="102" x="303.45" y="437.9141">QueryBlock</text><line style="stroke: #808080; stroke-width: 0.5;" x1="250.5" x2="429.5" y1="447.375" y2="447.375"/><text fill="#000000" font-family="Helvetica" font-size="11" lengthAdjust="spacingAndGlyphs" textLength="115" x="255.5" y="461.5854">genericAlias : String</text><text fill="#000000" font-family="Helvetica" font-size="11" lengthAdjust="spacingAndGlyphs" textLength="153" x="255.5" y="474.3901">typeOfEffect : TypeOfEffect</text><text fill="#000000" font-family="Helvetica" font-size="11" lengthAdjust="spacingAndGlyphs" textLength="128" x="255.5" y="487.1948">orderNumber : Integer</text><text fill="#000000" font-family="Helvetica" font-size="11" lengthAdjust="spacingAndGlyphs" textLength="109" x="255.5" y="499.9995">aliases : Dictionary</text><text fill="#000000" font-family="Helvetica" font-size="11" lengthAdjust="spacingAndGlyphs" textLength="169" x="255.5" y="512.8042">innerQueryBlock : QueryBlock</text><line style="stroke: #808080; stroke-width: 0.5;" x1="250.5" x2="429.5" y1="519.3984" y2="519.3984"/><!--MD5=[ec3d896b7ce2358954560bb12fb408a8]
class sqlb.SelectElement--><rect fill="#FFFFFF" height="84.4141" id="sqlb.SelectElement" rx="7" ry="7" style="stroke: #808080; stroke-width: 0.5;" width="156" x="231" y="290.375"/><ellipse cx="245" cy="305.375" fill="#ADD1B2" rx="10" ry="10" style="stroke: #808080; stroke-width: 1.0;"/><path d="M246.8281,309.625 Q246.4219,309.8281 245.9688,309.9375 Q245.5156,310.0469 245.0313,310.0469 Q243.25,310.0469 242.3125,308.8906 Q241.3906,307.7188 241.3906,305.5156 Q241.3906,303.2969 242.3125,302.1406 Q243.25,300.9688 245.0313,300.9688 Q245.5156,300.9688 245.9688,301.0781 Q246.4375,301.1719 246.8281,301.3906 L246.8281,303.3125 Q246.3906,302.9063 245.9688,302.7188 Q245.5469,302.5156 245.1094,302.5156 Q244.1563,302.5156 243.6719,303.2813 Q243.1875,304.0313 243.1875,305.5156 Q243.1875,306.9844 243.6719,307.7344 Q244.1563,308.4844 245.1094,308.4844 Q245.5469,308.4844 245.9688,308.2969 Q246.3906,308.1094 246.8281,307.7031 L246.8281,309.625 Z "/><text fill="#000000" font-family="Helvetica" font-size="16" font-weight="bold" lengthAdjust="spacingAndGlyphs" textLength="126" x="258" y="310.9141">SelectElement</text><line style="stroke: #808080; stroke-width: 0.5;" x1="232" x2="386" y1="320.375" y2="320.375"/><text fill="#000000" font-family="Helvetica" font-size="11" lengthAdjust="spacingAndGlyphs" textLength="115" x="237" y="334.5854">type : SelectionType</text><text fill="#000000" font-family="Helvetica" font-size="11" lengthAdjust="spacingAndGlyphs" textLength="70" x="237" y="347.3901">field : String</text><text fill="#000000" font-family="Helvetica" font-size="11" lengthAdjust="spacingAndGlyphs" textLength="102" x="237" y="360.1948">case: CaseWhen[]</text><line style="stroke: #808080; stroke-width: 0.5;" x1="232" x2="386" y1="366.7891" y2="366.7891"/><!--MD5=[f7969e2bd863557fe455516c5ea3d333]
class sqlb.FromElement--><rect fill="#FFFFFF" height="84.4141" id="sqlb.FromElement" rx="7" ry="7" style="stroke: #808080; stroke-width: 0.5;" width="181" x="38.5" y="430.375"/><ellipse cx="68.25" cy="445.375" fill="#ADD1B2" rx="10" ry="10" style="stroke: #808080; stroke-width: 1.0;"/><path d="M70.0781,449.625 Q69.6719,449.8281 69.2188,449.9375 Q68.7656,450.0469 68.2813,450.0469 Q66.5,450.0469 65.5625,448.8906 Q64.6406,447.7188 64.6406,445.5156 Q64.6406,443.2969 65.5625,442.1406 Q66.5,440.9688 68.2813,440.9688 Q68.7656,440.9688 69.2188,441.0781 Q69.6875,441.1719 70.0781,441.3906 L70.0781,443.3125 Q69.6406,442.9063 69.2188,442.7188 Q68.7969,442.5156 68.3594,442.5156 Q67.4063,442.5156 66.9219,443.2813 Q66.4375,444.0313 66.4375,445.5156 Q66.4375,446.9844 66.9219,447.7344 Q67.4063,448.4844 68.3594,448.4844 Q68.7969,448.4844 69.2188,448.2969 Q69.6406,448.1094 70.0781,447.7031 L70.0781,449.625 Z "/><text fill="#000000" font-family="Helvetica" font-size="16" font-weight="bold" lengthAdjust="spacingAndGlyphs" textLength="116" x="84.75" y="450.9141">FromElement</text><line style="stroke: #808080; stroke-width: 0.5;" x1="39.5" x2="218.5" y1="460.375" y2="460.375"/><text fill="#000000" font-family="Helvetica" font-size="11" lengthAdjust="spacingAndGlyphs" textLength="74" x="44.5" y="474.5854">table : String</text><text fill="#000000" font-family="Helvetica" font-size="11" lengthAdjust="spacingAndGlyphs" textLength="169" x="44.5" y="487.3901">innerQueryBlock : QueryBlock</text><text fill="#000000" font-family="Helvetica" font-size="11" lengthAdjust="spacingAndGlyphs" textLength="73" x="44.5" y="500.1948">alias : String</text><line style="stroke: #808080; stroke-width: 0.5;" x1="39.5" x2="218.5" y1="506.7891" y2="506.7891"/><!--MD5=[bbc9b817fd054643baa7ab12d80d0d98]
class sqlb.JoinElement--><rect fill="#FFFFFF" height="122.8281" id="sqlb.JoinElement" rx="7" ry="7" style="stroke: #808080; stroke-width: 0.5;" width="181" x="478.5" y="410.875"/><ellipse cx="514.1" cy="425.875" fill="#ADD1B2" rx="10" ry="10" style="stroke: #808080; stroke-width: 1.0;"/><path d="M515.9281,430.125 Q515.5219,430.3281 515.0688,430.4375 Q514.6156,430.5469 514.1313,430.5469 Q512.35,430.5469 511.4125,429.3906 Q510.4906,428.2188 510.4906,426.0156 Q510.4906,423.7969 511.4125,422.6406 Q512.35,421.4688 514.1313,421.4688 Q514.6156,421.4688 515.0688,421.5781 Q515.5375,421.6719 515.9281,421.8906 L515.9281,423.8125 Q515.4906,423.4063 515.0688,423.2188 Q514.6469,423.0156 514.2094,423.0156 Q513.2563,423.0156 512.7719,423.7813 Q512.2875,424.5313 512.2875,426.0156 Q512.2875,427.4844 512.7719,428.2344 Q513.2563,428.9844 514.2094,428.9844 Q514.6469,428.9844 515.0688,428.7969 Q515.4906,428.6094 515.9281,428.2031 L515.9281,430.125 Z "/><text fill="#000000" font-family="Helvetica" font-size="16" font-weight="bold" lengthAdjust="spacingAndGlyphs" textLength="103" x="531.9" y="431.4141">JoinElement</text><line style="stroke: #808080; stroke-width: 0.5;" x1="479.5" x2="658.5" y1="440.875" y2="440.875"/><text fill="#000000" font-family="Helvetica" font-size="11" lengthAdjust="spacingAndGlyphs" textLength="83" x="484.5" y="455.0854">type : JoinType</text><text fill="#000000" font-family="Helvetica" font-size="11" lengthAdjust="spacingAndGlyphs" textLength="74" x="484.5" y="467.8901">table : String</text><text fill="#000000" font-family="Helvetica" font-size="11" lengthAdjust="spacingAndGlyphs" textLength="169" x="484.5" y="480.6948">innerQueryBlock : QueryBlock</text><text fill="#000000" font-family="Helvetica" font-size="11" lengthAdjust="spacingAndGlyphs" textLength="121" x="484.5" y="493.4995">domain_alias : String</text><text fill="#000000" font-family="Helvetica" font-size="11" lengthAdjust="spacingAndGlyphs" textLength="112" x="484.5" y="506.3042">range_alias : String</text><text fill="#000000" font-family="Helvetica" font-size="11" lengthAdjust="spacingAndGlyphs" textLength="92" x="484.5" y="519.1089">Cndition : String</text><line style="stroke: #808080; stroke-width: 0.5;" x1="479.5" x2="658.5" y1="525.7031" y2="525.7031"/><!--MD5=[21e4a4a1ebfa31f9b78808d5c1c35942]
class sqlb.WhereElement--><rect fill="#FFFFFF" height="71.6094" id="sqlb.WhereElement" rx="7" ry="7" style="stroke: #808080; stroke-width: 0.5;" width="160" x="166" y="563.875"/><ellipse cx="180" cy="578.875" fill="#ADD1B2" rx="10" ry="10" style="stroke: #808080; stroke-width: 1.0;"/><path d="M181.8281,583.125 Q181.4219,583.3281 180.9688,583.4375 Q180.5156,583.5469 180.0313,583.5469 Q178.25,583.5469 177.3125,582.3906 Q176.3906,581.2188 176.3906,579.0156 Q176.3906,576.7969 177.3125,575.6406 Q178.25,574.4688 180.0313,574.4688 Q180.5156,574.4688 180.9688,574.5781 Q181.4375,574.6719 181.8281,574.8906 L181.8281,576.8125 Q181.3906,576.4063 180.9688,576.2188 Q180.5469,576.0156 180.1094,576.0156 Q179.1563,576.0156 178.6719,576.7813 Q178.1875,577.5313 178.1875,579.0156 Q178.1875,580.4844 178.6719,581.2344 Q179.1563,581.9844 180.1094,581.9844 Q180.5469,581.9844 180.9688,581.7969 Q181.3906,581.6094 181.8281,581.2031 L181.8281,583.125 Z "/><text fill="#000000" font-family="Helvetica" font-size="16" font-weight="bold" lengthAdjust="spacingAndGlyphs" textLength="130" x="193" y="584.4141">WhereElement</text><line style="stroke: #808080; stroke-width: 0.5;" x1="167" x2="325" y1="593.875" y2="593.875"/><text fill="#000000" font-family="Helvetica" font-size="11" lengthAdjust="spacingAndGlyphs" textLength="97" x="172" y="608.0854">condition : String</text><text fill="#000000" font-family="Helvetica" font-size="11" lengthAdjust="spacingAndGlyphs" textLength="112" x="172" y="620.8901">operator : Operator</text><line style="stroke: #808080; stroke-width: 0.5;" x1="167" x2="325" y1="627.4844" y2="627.4844"/><!--MD5=[8552146999f2aa062f6b0da817cf2a3a]
class sqlb.GroupElement--><rect fill="#FFFFFF" height="58.8047" id="sqlb.GroupElement" rx="7" ry="7" style="stroke: #808080; stroke-width: 0.5;" width="155" x="356.5" y="570.375"/><ellipse cx="370.5" cy="585.375" fill="#ADD1B2" rx="10" ry="10" style="stroke: #808080; stroke-width: 1.0;"/><path d="M372.3281,589.625 Q371.9219,589.8281 371.4688,589.9375 Q371.0156,590.0469 370.5313,590.0469 Q368.75,590.0469 367.8125,588.8906 Q366.8906,587.7188 366.8906,585.5156 Q366.8906,583.2969 367.8125,582.1406 Q368.75,580.9688 370.5313,580.9688 Q371.0156,580.9688 371.4688,581.0781 Q371.9375,581.1719 372.3281,581.3906 L372.3281,583.3125 Q371.8906,582.9063 371.4688,582.7188 Q371.0469,582.5156 370.6094,582.5156 Q369.6563,582.5156 369.1719,583.2813 Q368.6875,584.0313 368.6875,585.5156 Q368.6875,586.9844 369.1719,587.7344 Q369.6563,588.4844 370.6094,588.4844 Q371.0469,588.4844 371.4688,588.2969 Q371.8906,588.1094 372.3281,587.7031 L372.3281,589.625 Z "/><text fill="#000000" font-family="Helvetica" font-size="16" font-weight="bold" lengthAdjust="spacingAndGlyphs" textLength="125" x="383.5" y="590.9141">GroupElement</text><line style="stroke: #808080; stroke-width: 0.5;" x1="357.5" x2="510.5" y1="600.375" y2="600.375"/><text fill="#000000" font-family="Helvetica" font-size="11" lengthAdjust="spacingAndGlyphs" textLength="70" x="362.5" y="614.5854">field : String</text><line style="stroke: #808080; stroke-width: 0.5;" x1="357.5" x2="510.5" y1="621.1797" y2="621.1797"/><!--MD5=[6c82239725c894668a32f4e73efcfe81]
class sqlb.CaseWhen--><rect fill="#FFFFFF" height="84.4141" id="sqlb.CaseWhen" rx="7" ry="7" style="stroke: #808080; stroke-width: 0.5;" width="125" x="287.5" y="150.375"/><ellipse cx="301.95" cy="165.375" fill="#ADD1B2" rx="10" ry="10" style="stroke: #808080; stroke-width: 1.0;"/><path d="M303.7781,169.625 Q303.3719,169.8281 302.9188,169.9375 Q302.4656,170.0469 301.9813,170.0469 Q300.2,170.0469 299.2625,168.8906 Q298.3406,167.7188 298.3406,165.5156 Q298.3406,163.2969 299.2625,162.1406 Q300.2,160.9688 301.9813,160.9688 Q302.4656,160.9688 302.9188,161.0781 Q303.3875,161.1719 303.7781,161.3906 L303.7781,163.3125 Q303.3406,162.9063 302.9188,162.7188 Q302.4969,162.5156 302.0594,162.5156 Q301.1063,162.5156 300.6219,163.2813 Q300.1375,164.0313 300.1375,165.5156 Q300.1375,166.9844 300.6219,167.7344 Q301.1063,168.4844 302.0594,168.4844 Q302.4969,168.4844 302.9188,168.2969 Q303.3406,168.1094 303.7781,167.7031 L303.7781,169.625 Z "/><text fill="#000000" font-family="Helvetica" font-size="16" font-weight="bold" lengthAdjust="spacingAndGlyphs" textLength="94" x="315.05" y="170.9141">CaseWhen</text><line style="stroke: #808080; stroke-width: 0.5;" x1="288.5" x2="411.5" y1="180.375" y2="180.375"/><text fill="#000000" font-family="Helvetica" font-size="11" lengthAdjust="spacingAndGlyphs" textLength="76" x="293.5" y="194.5854">when : String</text><text fill="#000000" font-family="Helvetica" font-size="11" lengthAdjust="spacingAndGlyphs" textLength="71" x="293.5" y="207.3901">then : String</text><text fill="#000000" font-family="Helvetica" font-size="11" lengthAdjust="spacingAndGlyphs" textLength="66" x="293.5" y="220.1948">else: String</text><line style="stroke: #808080; stroke-width: 0.5;" x1="288.5" x2="411.5" y1="226.7891" y2="226.7891"/><!--MD5=[41886f93d666bda1f3933caa4d034e05]
class sqlb.DbType--><rect fill="#FFFFFF" height="71.6094" id="sqlb.DbType" rx="7" ry="7" style="stroke: #808080; stroke-width: 0.5;" width="125" x="442.5" y="156.375"/><ellipse cx="469.1" cy="171.375" fill="#EB937F" rx="10" ry="10" style="stroke: #808080; stroke-width: 1.0;"/><path d="M471.5375,175.875 L466.0844,175.875 L466.0844,167.125 L471.5375,167.125 L471.5375,168.6563 L467.8188,168.6563 L467.8188,170.5313 L471.1781,170.5313 L471.1781,172.0625 L467.8188,172.0625 L467.8188,174.3438 L471.5375,174.3438 L471.5375,175.875 Z "/><text fill="#000000" font-family="Helvetica" font-size="16" font-weight="bold" lengthAdjust="spacingAndGlyphs" textLength="67" x="484.9" y="176.9141">DbType</text><line style="stroke: #808080; stroke-width: 0.5;" x1="443.5" x2="566.5" y1="186.375" y2="186.375"/><text fill="#000000" font-family="Helvetica" font-size="11" lengthAdjust="spacingAndGlyphs" textLength="61" x="448.5" y="200.5854">postgresql</text><text fill="#000000" font-family="Helvetica" font-size="11" lengthAdjust="spacingAndGlyphs" textLength="49" x="448.5" y="213.3901">oracledb</text><line style="stroke: #808080; stroke-width: 0.5;" x1="443.5" x2="566.5" y1="219.9844" y2="219.9844"/><!--MD5=[bd57b2625cb1d3e060be693cf7ea696b]
class sqlb.TypeOfEffect--><rect fill="#FFFFFF" height="122.8281" id="sqlb.TypeOfEffect" rx="7" ry="7" style="stroke: #808080; stroke-width: 0.5;" width="147" x="597.5" y="130.875"/><ellipse cx="611.5" cy="145.875" fill="#EB937F" rx="10" ry="10" style="stroke: #808080; stroke-width: 1.0;"/><path d="M613.9375,150.375 L608.4844,150.375 L608.4844,141.625 L613.9375,141.625 L613.9375,143.1563 L610.2188,143.1563 L610.2188,145.0313 L613.5781,145.0313 L613.5781,146.5625 L610.2188,146.5625 L610.2188,148.8438 L613.9375,148.8438 L613.9375,150.375 Z "/><text fill="#000000" font-family="Helvetica" font-size="16" font-weight="bold" lengthAdjust="spacingAndGlyphs" textLength="117" x="624.5" y="151.4141">TypeOfEffect</text><line style="stroke: #808080; stroke-width: 0.5;" x1="598.5" x2="743.5" y1="160.875" y2="160.875"/><text fill="#000000" font-family="Helvetica" font-size="11" lengthAdjust="spacingAndGlyphs" textLength="63" x="603.5" y="175.0854">Ontological</text><text fill="#000000" font-family="Helvetica" font-size="11" lengthAdjust="spacingAndGlyphs" textLength="39" x="603.5" y="187.8901">Spatial</text><text fill="#000000" font-family="Helvetica" font-size="11" lengthAdjust="spacingAndGlyphs" textLength="53" x="603.5" y="200.6948">Semantic</text><text fill="#000000" font-family="Helvetica" font-size="11" lengthAdjust="spacingAndGlyphs" textLength="54" x="603.5" y="213.4995">Temporal</text><text fill="#000000" font-family="Helvetica" font-size="11" lengthAdjust="spacingAndGlyphs" textLength="34" x="603.5" y="226.3042">Visual</text><text fill="#000000" font-family="Helvetica" font-size="11" lengthAdjust="spacingAndGlyphs" textLength="64" x="603.5" y="239.1089">Topological</text><line style="stroke: #808080; stroke-width: 0.5;" x1="598.5" x2="743.5" y1="245.7031" y2="245.7031"/><!--MD5=[2edacf8575a95646aab037f643558882]
class sqlb.SelectionType--><rect fill="#FFFFFF" height="71.6094" id="sqlb.SelectionType" rx="7" ry="7" style="stroke: #808080; stroke-width: 0.5;" width="154" x="417" y="296.375"/><ellipse cx="431" cy="311.375" fill="#EB937F" rx="10" ry="10" style="stroke: #808080; stroke-width: 1.0;"/><path d="M433.4375,315.875 L427.9844,315.875 L427.9844,307.125 L433.4375,307.125 L433.4375,308.6563 L429.7188,308.6563 L429.7188,310.5313 L433.0781,310.5313 L433.0781,312.0625 L429.7188,312.0625 L429.7188,314.3438 L433.4375,314.3438 L433.4375,315.875 Z "/><text fill="#000000" font-family="Helvetica" font-size="16" font-weight="bold" lengthAdjust="spacingAndGlyphs" textLength="124" x="444" y="316.9141">SelectionType</text><line style="stroke: #808080; stroke-width: 0.5;" x1="418" x2="570" y1="326.375" y2="326.375"/><text fill="#000000" font-family="Helvetica" font-size="11" lengthAdjust="spacingAndGlyphs" textLength="24" x="423" y="340.5854">field</text><text fill="#000000" font-family="Helvetica" font-size="11" lengthAdjust="spacingAndGlyphs" textLength="61" x="423" y="353.3901">case-when</text><line style="stroke: #808080; stroke-width: 0.5;" x1="418" x2="570" y1="359.9844" y2="359.9844"/><!--MD5=[65228ebb673ddb8b696e3a2401a2d8c9]
class sqlb.JoinType--><rect fill="#FFFFFF" height="97.2188" id="sqlb.JoinType" rx="7" ry="7" style="stroke: #808080; stroke-width: 0.5;" width="125" x="601.5" y="283.875"/><ellipse cx="624.5" cy="298.875" fill="#EB937F" rx="10" ry="10" style="stroke: #808080; stroke-width: 1.0;"/><path d="M626.9375,303.375 L621.4844,303.375 L621.4844,294.625 L626.9375,294.625 L626.9375,296.1563 L623.2188,296.1563 L623.2188,298.0313 L626.5781,298.0313 L626.5781,299.5625 L623.2188,299.5625 L623.2188,301.8438 L626.9375,301.8438 L626.9375,303.375 Z "/><text fill="#000000" font-family="Helvetica" font-size="16" font-weight="bold" lengthAdjust="spacingAndGlyphs" textLength="75" x="639.5" y="304.4141">JoinType</text><line style="stroke: #808080; stroke-width: 0.5;" x1="602.5" x2="725.5" y1="313.875" y2="313.875"/><text fill="#000000" font-family="Helvetica" font-size="11" lengthAdjust="spacingAndGlyphs" textLength="21" x="607.5" y="328.0854">Left</text><text fill="#000000" font-family="Helvetica" font-size="11" lengthAdjust="spacingAndGlyphs" textLength="28" x="607.5" y="340.8901">Right</text><text fill="#000000" font-family="Helvetica" font-size="11" lengthAdjust="spacingAndGlyphs" textLength="29" x="607.5" y="353.6948">Inner</text><text fill="#000000" font-family="Helvetica" font-size="11" lengthAdjust="spacingAndGlyphs" textLength="19" x="607.5" y="366.4995">Full</text><line style="stroke: #808080; stroke-width: 0.5;" x1="602.5" x2="725.5" y1="373.0938" y2="373.0938"/><!--MD5=[3605377810e72e88c9d027f873e93905]
link sqlb.CombinedQueryBlock to sqlb.QueryBlock--><path d="M156.8941,240.1846 C156.8941,240.1846 184.64,339.115 216,380.875 C223.42,390.765 232.23,400.035 241.67,408.595 " fill="none" id="sqlb.CombinedQueryBlock-sqlb.QueryBlock" style="stroke: #808080; stroke-width: 2.0;"/><polygon fill="#808080" points="251.71,417.255,247.5127,408.3453,247.9258,413.987,242.284,414.4001,251.71,417.255" style="stroke: #808080; stroke-width: 2.0;"/><line style="stroke: #808080; stroke-width: 2.0;" x1="247.9258" x2="241.865" y1="413.987" y2="408.76"/><polygon fill="#808080" points="154.27,228.475,151.6789,235.2045,156.8941,240.1846,159.4852,233.4551,154.27,228.475" style="stroke: #808080; stroke-width: 2.0;"/><text fill="#000000" font-family="Helvetica" font-size="13" lengthAdjust="spacingAndGlyphs" textLength="8" x="146.6602" y="248.0806">1</text><text fill="#000000" font-family="Helvetica" font-size="13" lengthAdjust="spacingAndGlyphs" textLength="7" x="234.6705" y="407.4788">*</text><!--MD5=[75ca98bf1b3279fa978a2fc7986f3ec4]
link sqlb.QueryBlock to sqlb.QueryBlock--><path d="M430.65,449.845 C448.12,452.495 460.5,460.005 460.5,472.375 C460.5,484.745 448.12,492.255 430.65,494.905 " fill="none" id="sqlb.QueryBlock-sqlb.QueryBlock" style="stroke: #808080; stroke-width: 2.0;"/><text fill="#000000" font-family="Helvetica" font-size="13" lengthAdjust="spacingAndGlyphs" textLength="7" x="438.4468" y="444.4296">*</text><text fill="#000000" font-family="Helvetica" font-size="13" lengthAdjust="spacingAndGlyphs" textLength="24" x="438.5091" y="493.1268">0..1</text><!--MD5=[b8a54d2501747365094286fd3cf2fe48]
link sqlb.SelectElement to sqlb.QueryBlock--><path d="M321.14,387.415 C322.38,392.915 325.2059,405.4954 325.2059,405.4954 " fill="none" id="sqlb.SelectElement-sqlb.QueryBlock" style="stroke: #808080; stroke-width: 2.0;"/><polygon fill="#FFFFFF" points="327.83,417.205,330.4211,410.4755,325.2059,405.4954,322.6148,412.2249,327.83,417.205" style="stroke: #808080; stroke-width: 2.0;"/><polygon fill="#808080" points="318.22,374.405,316.2849,384.0619,319.3134,379.284,324.0913,382.3125,318.22,374.405" style="stroke: #808080; stroke-width: 2.0;"/><line style="stroke: #808080; stroke-width: 2.0;" x1="319.3134" x2="321.07" y1="379.284" y2="387.09"/><text fill="#000000" font-family="Helvetica" font-size="13" lengthAdjust="spacingAndGlyphs" textLength="7" x="312.2031" y="394.9607">*</text><text fill="#000000" font-family="Helvetica" font-size="13" lengthAdjust="spacingAndGlyphs" textLength="24" x="300.7332" y="406.2493">0..1</text><!--MD5=[4fe8635cb6d91640ce4707ebe088ff1a]
link sqlb.FromElement to sqlb.QueryBlock--><path d="M233.08,503.865 C234.1,503.875 237.2928,503.8089 237.2928,503.8089 " fill="none" id="sqlb.FromElement-sqlb.QueryBlock" style="stroke: #808080; stroke-width: 2.0;"/><polygon fill="#FFFFFF" points="249.28,503.255,243.1018,499.5362,237.2928,503.8089,243.471,507.5277,249.28,503.255" style="stroke: #808080; stroke-width: 2.0;"/><polygon fill="#808080" points="219.66,503.255,228.4658,507.6661,224.6547,503.4858,228.835,499.6747,219.66,503.255" style="stroke: #808080; stroke-width: 2.0;"/><line style="stroke: #808080; stroke-width: 2.0;" x1="224.6547" x2="232.65" y1="503.4858" y2="503.85"/><text fill="#000000" font-family="Helvetica" font-size="13" lengthAdjust="spacingAndGlyphs" textLength="7" x="227.4576" y="502.2464">*</text><text fill="#000000" font-family="Helvetica" font-size="13" lengthAdjust="spacingAndGlyphs" textLength="24" x="227.7708" y="522.5114">0..1</text><!--MD5=[4fe8635cb6d91640ce4707ebe088ff1a]
link sqlb.FromElement to sqlb.QueryBlock--><path d="M231.6472,440.9411 C231.6472,440.9411 235.11,440.875 236.12,440.885 " fill="none" id="sqlb.FromElement-sqlb.QueryBlock-1" style="stroke: #808080; stroke-width: 2.0;"/><polygon fill="#808080" points="249.28,441.495,240.4742,437.0839,244.2853,441.2642,240.105,445.0753,249.28,441.495" style="stroke: #808080; stroke-width: 2.0;"/><line style="stroke: #808080; stroke-width: 2.0;" x1="244.2853" x2="236.29" y1="441.2642" y2="440.89"/><polygon fill="#FFFFFF" points="219.66,441.495,225.8382,445.2138,231.6472,440.9411,225.469,437.2223,219.66,441.495" style="stroke: #808080; stroke-width: 2.0;"/><text fill="#000000" font-family="Helvetica" font-size="13" lengthAdjust="spacingAndGlyphs" textLength="8" x="227.499" y="435.3719">1</text><text fill="#000000" font-family="Helvetica" font-size="13" lengthAdjust="spacingAndGlyphs" textLength="7" x="234.4774" y="435.3881">*</text><!--MD5=[82e9743b5ef776b939cbed43b83115b6]
link sqlb.QueryBlock to sqlb.JoinElement--><path d="M442.7203,513.1469 C442.7203,513.1469 458.17,513.745 465.36,513.255 " fill="none" id="sqlb.QueryBlock-sqlb.JoinElement" style="stroke: #808080; stroke-width: 2.0;"/><polygon fill="#808080" points="478.3,511.845,468.9217,508.8372,473.3291,512.3833,469.7829,516.7907,478.3,511.845" style="stroke: #808080; stroke-width: 2.0;"/><line style="stroke: #808080; stroke-width: 2.0;" x1="473.3291" x2="465.38" y1="512.3833" y2="513.25"/><polygon fill="#FFFFFF" points="430.79,511.855,436.3245,516.4777,442.7203,513.1469,437.1858,508.5242,430.79,511.855" style="stroke: #808080; stroke-width: 2.0;"/><text fill="#000000" font-family="Helvetica" font-size="13" lengthAdjust="spacingAndGlyphs" textLength="24" x="438.6599" y="511.3746">0..1</text><text fill="#000000" font-family="Helvetica" font-size="13" lengthAdjust="spacingAndGlyphs" textLength="7" x="463.4991" y="511.572">*</text><!--MD5=[265b473d2bc0e00b73705859a5ff5559]
link sqlb.JoinElement to sqlb.QueryBlock--><path d="M466.3697,431.6131 C466.3697,431.6131 450.98,431.005 443.79,431.485 " fill="none" id="sqlb.JoinElement-sqlb.QueryBlock" style="stroke: #808080; stroke-width: 2.0;"/><polygon fill="#808080" points="430.79,432.895,440.1683,435.9028,435.7609,432.3567,439.3071,427.9493,430.79,432.895" style="stroke: #808080; stroke-width: 2.0;"/><line style="stroke: #808080; stroke-width: 2.0;" x1="435.7609" x2="443.72" y1="432.3567" y2="431.49"/><polygon fill="#FFFFFF" points="478.3,432.905,472.7655,428.2823,466.3697,431.6131,471.9042,436.2358,478.3,432.905" style="stroke: #808080; stroke-width: 2.0;"/><text fill="#000000" font-family="Helvetica" font-size="13" lengthAdjust="spacingAndGlyphs" textLength="8" x="462.4577" y="426.0948">1</text><text fill="#000000" font-family="Helvetica" font-size="13" lengthAdjust="spacingAndGlyphs" textLength="7" x="438.5984" y="426.0759">*</text><!--MD5=[36672e1a59e2b40f82ba7d4f8a595f95]
link sqlb.QueryBlock to sqlb.WhereElement--><path d="M292.1263,537.2997 C292.1263,537.2997 284.01,548.125 280.45,552.885 " fill="none" id="sqlb.QueryBlock-sqlb.WhereElement" style="stroke: #808080; stroke-width: 2.0;"/><polygon fill="#808080" points="272.37,563.675,280.97,558.875,275.37,559.675,274.57,554.075,272.37,563.675" style="stroke: #808080; stroke-width: 2.0;"/><line style="stroke: #808080; stroke-width: 2.0;" x1="275.37" x2="280.16" y1="559.675" y2="553.265"/><polygon fill="#FFFFFF" points="299.32,527.695,292.5216,530.0995,292.1263,537.2997,298.9247,534.8953,299.32,527.695" style="stroke: #808080; stroke-width: 2.0;"/><text fill="#000000" font-family="Helvetica" font-size="13" lengthAdjust="spacingAndGlyphs" textLength="24" x="268.8996" y="547.4247">0..1</text><text fill="#000000" font-family="Helvetica" font-size="13" lengthAdjust="spacingAndGlyphs" textLength="7" x="269.5867" y="552.733">*</text><!--MD5=[bff4530dab5037584e3fc883a850d2dd]
link sqlb.QueryBlock to sqlb.GroupElement--><path d="M387.8737,537.2997 C387.8737,537.2997 399.31,552.565 404.32,559.245 " fill="none" id="sqlb.QueryBlock-sqlb.GroupElement" style="stroke: #808080; stroke-width: 2.0;"/><polygon fill="#808080" points="412.41,570.045,410.2248,560.4416,409.4162,566.0404,403.8174,565.2318,412.41,570.045" style="stroke: #808080; stroke-width: 2.0;"/><line style="stroke: #808080; stroke-width: 2.0;" x1="409.4162" x2="404.615" y1="566.0404" y2="559.64"/><polygon fill="#FFFFFF" points="380.68,527.695,381.0753,534.8953,387.8737,537.2997,387.4784,530.0995,380.68,527.695" style="stroke: #808080; stroke-width: 2.0;"/><text fill="#000000" font-family="Helvetica" font-size="13" lengthAdjust="spacingAndGlyphs" textLength="24" x="360.1754" y="547.4247">0..1</text><text fill="#000000" font-family="Helvetica" font-size="13" lengthAdjust="spacingAndGlyphs" textLength="7" x="400.2352" y="559.4464">*</text><!--MD5=[1d4744a5e0ae0df12fc3984adf32cc10]
link sqlb.CaseWhen to sqlb.DbType--><!--MD5=[4307e849f0c56039f2ca8eb022d253bc]
link sqlb.DbType to sqlb.TypeOfEffect--><!--MD5=[0135133119d38d08ec092ba010e13573]
link sqlb.CaseWhen to sqlb.SelectionType--><!--MD5=[7c98469a78febcdb665fb7eeaac87150]
link sqlb.SelectionType to sqlb.JoinType--><text fill="#0000FF" font-family="Helvetica" font-size="9" lengthAdjust="spacingAndGlyphs" textLength="54" x="499.5" y="686.229">31.10.2025</text><!--MD5=[0be1e88819c5c180c1e36d157a180a8a]
@startuml
title UML Class Diagram 
header
<font color=red size=12>sqlb is not tested yet</font>
endheader
footer
<font color=blue size=9>31.10.2025</font>
endfooter




skinparam {
    DefaultFontName Helvetica 
    defaultTextAlignment center
    RoundCorner 14
    Shadowing false

    BackgroundColor transparent

    TitleFontSize 36
    TitleFontStyle Bold

    minClassWidth 125
    maxClassWidth 300
    nodesep 30
    ranksep 30
    CircledCharacterRadius 10
    CircledCharacterFontSize 12
    CircledCharacterFontColor White
    Class {
        FontSize 16
        FontStyle Bold
        BackgroundColor #FFFFFF90
        BorderThickness 0.5
        BorderColor Gray
        ArrowThickness 2
        ArrowColor Gray
        AttributeIconSize 9
    }

}

namespace advs <<Advise>> {
	class Advisement {
		usedCommandSet : String
		maximumFeaturePerTile : Integer
		- - -
		to_oneline_command()
		to_yaml()
	}
}

namespace sqlb <<SQL Blocks>> {
	class CombinedQueryBlock {
		name : String
		comType : DbType
	}
	CombinedQueryBlock "1" *- -down-> "*" QueryBlock

	class QueryBlock {
		genericAlias : String
		typeOfEffect : TypeOfEffect
		orderNumber : Integer
		aliases : Dictionary
		innerQueryBlock : QueryBlock
	}
	QueryBlock "0..1" -left- "*" QueryBlock
	QueryBlock "0..1" o-up-> "*" SelectElement
	QueryBlock "0..1" o-up-> "*" FromElement
	QueryBlock "0..1" o-right-> "*" JoinElement
	QueryBlock "0..1" o-down-> "*" WhereElement
	QueryBlock "0..1" o-down-> "*" GroupElement

	class SelectElement {
		type : SelectionType
		field : String
		case: CaseWhen[]
	}

	class FromElement {
		table : String
		innerQueryBlock : QueryBlock
		alias : String
	}
	FromElement "1" o-> "*" QueryBlock

	class JoinElement {
		type : JoinType
		table : String
		innerQueryBlock : QueryBlock
		domain_alias : String
		range_alias : String
		Cndition : String
	}
	JoinElement "1" o-> "*" QueryBlock

	class WhereElement {
		condition : String
		operator : Operator
	}

	class GroupElement {
		field : String
	}

	class CaseWhen {
		when : String
		then : String
		else: String
	}

	enum DbType {
		postgresql
		oracledb
	}

	enum TypeOfEffect {
		Ontological
		Spatial
		Semantic
		Temporal
		Visual
		Topological
	}

	enum SelectionType {
		field
		case-when
	}

	enum JoinType {
		Left
		Right
		Inner
		Full
	}
}
@enduml

PlantUML version 1.2020.02(Sun Mar 01 11:22:07 CET 2020)
(GPL source distribution)
Java Runtime: OpenJDK Runtime Environment
JVM: OpenJDK 64-Bit Server VM
Java Version: 21.0.8+9-Ubuntu-0ubuntu124.04.1
Operating System: Linux
Default Encoding: UTF-8
Language: en
Country: US
--></g></svg>