<?xml version="1.0" encoding="UTF-8" standalone="no"?><svg xmlns="http://www.w3.org/2000/svg" xmlns:xlink="http://www.w3.org/1999/xlink" contentScriptType="application/ecmascript" contentStyleType="text/css" height="967px" preserveAspectRatio="none" style="width:1561px;height:967px;" version="1.1" viewBox="0 0 1561 967" width="1561px" zoomAndPan="magnify"><defs/><g><text fill="#FF0000" font-family="Helvetica" font-size="12" lengthAdjust="spacingAndGlyphs" textLength="152" x="1397" y="11.1387">Last Check : 06.11.2025</text><text fill="#000000" font-family="Helvetica" font-size="36" font-weight="bold" lengthAdjust="spacingAndGlyphs" textLength="390" x="579.5" y="47.3848">UML Class Diagram</text><!--MD5=[3bba2e11fb0bcc18628c32de96d9320e]
cluster advs--><polygon fill="#FFFFFF" points="1281,92.875,1324,92.875,1331,115.1719,1515,115.1719,1515,291.875,1281,291.875,1281,92.875" style="stroke: #000000; stroke-width: 1.5;"/><line style="stroke: #000000; stroke-width: 1.5;" x1="1281" x2="1331" y1="115.1719" y2="115.1719"/><text fill="#000000" font-family="Helvetica" font-size="14" font-weight="bold" lengthAdjust="spacingAndGlyphs" textLength="37" x="1285" y="107.8701">advs</text><text fill="#000000" font-family="Helvetica" font-size="14" font-style="italic" lengthAdjust="spacingAndGlyphs" textLength="64" x="1370" y="130.167">«Advise»</text><!--MD5=[38ea690d6de6cae03e3c90d8eb8ed2bb]
cluster sqlb--><polygon fill="#FFFFFF" points="22,79.875,61,79.875,68,102.1719,1257,102.1719,1257,955.875,22,955.875,22,79.875" style="stroke: #000000; stroke-width: 1.5;"/><line style="stroke: #000000; stroke-width: 1.5;" x1="22" x2="68" y1="102.1719" y2="102.1719"/><text fill="#000000" font-family="Helvetica" font-size="14" font-weight="bold" lengthAdjust="spacingAndGlyphs" textLength="33" x="26" y="94.8701">sqlb</text><text fill="#000000" font-family="Helvetica" font-size="14" font-style="italic" lengthAdjust="spacingAndGlyphs" textLength="95" x="596" y="117.167">«SQL Blocks»</text><!--MD5=[8e739cdd9138556ecb1060d388508b98]
class advs.Advisement--><rect fill="#FFFFFF" height="97.2188" id="advs.Advisement" rx="7" ry="7" style="stroke: #808080; stroke-width: 0.5;" width="202" x="1297" y="178.875"/><ellipse cx="1342" cy="193.875" fill="#ADD1B2" rx="10" ry="10" style="stroke: #808080; stroke-width: 1.0;"/><path d="M1343.8281,198.125 Q1343.4219,198.3281 1342.9688,198.4375 Q1342.5156,198.5469 1342.0313,198.5469 Q1340.25,198.5469 1339.3125,197.3906 Q1338.3906,196.2188 1338.3906,194.0156 Q1338.3906,191.7969 1339.3125,190.6406 Q1340.25,189.4688 1342.0313,189.4688 Q1342.5156,189.4688 1342.9688,189.5781 Q1343.4375,189.6719 1343.8281,189.8906 L1343.8281,191.8125 Q1343.3906,191.4063 1342.9688,191.2188 Q1342.5469,191.0156 1342.1094,191.0156 Q1341.1563,191.0156 1340.6719,191.7813 Q1340.1875,192.5313 1340.1875,194.0156 Q1340.1875,195.4844 1340.6719,196.2344 Q1341.1563,196.9844 1342.1094,196.9844 Q1342.5469,196.9844 1342.9688,196.7969 Q1343.3906,196.6094 1343.8281,196.2031 L1343.8281,198.125 Z "/><text fill="#000000" font-family="Helvetica" font-size="16" font-weight="bold" lengthAdjust="spacingAndGlyphs" textLength="104" x="1361" y="199.4141">Advisement</text><line style="stroke: #808080; stroke-width: 1.5;" x1="1298" x2="1498" y1="208.875" y2="208.875"/><text fill="#000000" font-family="Helvetica" font-size="11" lengthAdjust="spacingAndGlyphs" textLength="151" x="1322.5" y="223.0854">usedCommandSet : String</text><text fill="#000000" font-family="Helvetica" font-size="11" lengthAdjust="spacingAndGlyphs" textLength="190" x="1303" y="235.8901">maximumFeaturePerTile : Integer</text><line style="stroke: #808080; stroke-width: 1.0;" x1="1298" x2="1498" y1="242.4844" y2="242.4844"/><text fill="#000000" font-family="Helvetica" font-size="11" lengthAdjust="spacingAndGlyphs" textLength="128" x="1334" y="256.6948">to_oneline_command()</text><text fill="#000000" font-family="Helvetica" font-size="11" lengthAdjust="spacingAndGlyphs" textLength="52" x="1372" y="269.4995">to_yaml()</text><!--MD5=[b48412dfeeac0ccba29a0d41cd4d653b]
class sqlb.CombinedQueryBlocks--><rect fill="#FFFFFF" height="84.4141" id="sqlb.CombinedQueryBlocks" rx="7" ry="7" style="stroke: #808080; stroke-width: 0.5;" width="229" x="601.5" y="185.375"/><ellipse cx="615.5" cy="200.375" fill="#ADD1B2" rx="10" ry="10" style="stroke: #808080; stroke-width: 1.0;"/><path d="M617.3281,204.625 Q616.9219,204.8281 616.4688,204.9375 Q616.0156,205.0469 615.5313,205.0469 Q613.75,205.0469 612.8125,203.8906 Q611.8906,202.7188 611.8906,200.5156 Q611.8906,198.2969 612.8125,197.1406 Q613.75,195.9688 615.5313,195.9688 Q616.0156,195.9688 616.4688,196.0781 Q616.9375,196.1719 617.3281,196.3906 L617.3281,198.3125 Q616.8906,197.9063 616.4688,197.7188 Q616.0469,197.5156 615.6094,197.5156 Q614.6563,197.5156 614.1719,198.2813 Q613.6875,199.0313 613.6875,200.5156 Q613.6875,201.9844 614.1719,202.7344 Q614.6563,203.4844 615.6094,203.4844 Q616.0469,203.4844 616.4688,203.2969 Q616.8906,203.1094 617.3281,202.7031 L617.3281,204.625 Z "/><text fill="#000000" font-family="Helvetica" font-size="16" font-weight="bold" lengthAdjust="spacingAndGlyphs" textLength="199" x="628.5" y="205.9141">CombinedQueryBlocks</text><line style="stroke: #808080; stroke-width: 1.5;" x1="602.5" x2="829.5" y1="215.375" y2="215.375"/><text fill="#000000" font-family="Helvetica" font-size="11" lengthAdjust="spacingAndGlyphs" textLength="78" x="621" y="229.5854">name : String</text><text fill="#000000" font-family="Helvetica" font-size="11" lengthAdjust="spacingAndGlyphs" textLength="105" x="607.5" y="242.3901">comType : DbType</text><line style="stroke: #808080; stroke-width: 1.0;" x1="602.5" x2="829.5" y1="248.9844" y2="248.9844"/><text fill="#000000" font-family="Helvetica" font-size="11" lengthAdjust="spacingAndGlyphs" textLength="56" x="632" y="263.1948">__repr__()</text><!--MD5=[9c9a80b1da4080869733d854fcdfabd6]
class sqlb.AbstractQueryBlock--><rect fill="#FFFFFF" height="161.2422" id="sqlb.AbstractQueryBlock" rx="7" ry="7" style="stroke: #808080; stroke-width: 0.5;" width="208" x="612" y="467.875"/><ellipse cx="626" cy="482.875" fill="#A9DCDF" rx="10" ry="10" style="stroke: #808080; stroke-width: 1.0;"/><path d="M625.6094,479.9531 L624.7969,483.5313 L626.4375,483.5313 L625.6094,479.9531 Z M624.5625,478.375 L626.6719,478.375 L629.0313,487.125 L627.2969,487.125 L626.7656,484.9688 L624.4531,484.9688 L623.9219,487.125 L622.1875,487.125 L624.5625,478.375 Z "/><text fill="#000000" font-family="Helvetica" font-size="16" font-style="italic" font-weight="bold" lengthAdjust="spacingAndGlyphs" textLength="178" x="639" y="488.4141">AbstractQueryBlock</text><line style="stroke: #808080; stroke-width: 1.5;" x1="613" x2="819" y1="497.875" y2="497.875"/><text fill="#000000" font-family="Helvetica" font-size="11" lengthAdjust="spacingAndGlyphs" textLength="78" x="660.5" y="512.0854">name : String</text><text fill="#000000" font-family="Helvetica" font-size="11" lengthAdjust="spacingAndGlyphs" textLength="112" x="643.5" y="524.8901">range_alias : String</text><text fill="#000000" font-family="Helvetica" font-size="11" lengthAdjust="spacingAndGlyphs" textLength="163" x="618" y="537.6948">type_of_effect : TypeOfEffect</text><text fill="#000000" font-family="Helvetica" font-size="11" lengthAdjust="spacingAndGlyphs" textLength="133" x="633" y="550.4995">order_number : Integer</text><text fill="#000000" font-family="Helvetica" font-size="11" lengthAdjust="spacingAndGlyphs" textLength="109" x="645" y="563.3042">description : String</text><text fill="#000000" font-family="Helvetica" font-size="11" lengthAdjust="spacingAndGlyphs" textLength="143" x="628" y="576.1089">domain_aliases : String[]</text><text fill="#000000" font-family="Helvetica" font-size="11" lengthAdjust="spacingAndGlyphs" textLength="145" x="627" y="588.9136">header_comment : String</text><text fill="#000000" font-family="Helvetica" font-size="11" lengthAdjust="spacingAndGlyphs" textLength="139" x="630" y="601.7183">footer_comment : String</text><line style="stroke: #808080; stroke-width: 1.0;" x1="613" x2="819" y1="608.3125" y2="608.3125"/><text fill="#000000" font-family="Helvetica" font-size="11" lengthAdjust="spacingAndGlyphs" textLength="56" x="671.5" y="622.5229">__repr__()</text><!--MD5=[ec3d896b7ce2358954560bb12fb408a8]
class sqlb.SelectElement--><rect fill="#FFFFFF" height="110.0234" id="sqlb.SelectElement" rx="7" ry="7" style="stroke: #808080; stroke-width: 0.5;" width="156" x="38" y="675.875"/><ellipse cx="52" cy="690.875" fill="#ADD1B2" rx="10" ry="10" style="stroke: #808080; stroke-width: 1.0;"/><path d="M53.8281,695.125 Q53.4219,695.3281 52.9688,695.4375 Q52.5156,695.5469 52.0313,695.5469 Q50.25,695.5469 49.3125,694.3906 Q48.3906,693.2188 48.3906,691.0156 Q48.3906,688.7969 49.3125,687.6406 Q50.25,686.4688 52.0313,686.4688 Q52.5156,686.4688 52.9688,686.5781 Q53.4375,686.6719 53.8281,686.8906 L53.8281,688.8125 Q53.3906,688.4063 52.9688,688.2188 Q52.5469,688.0156 52.1094,688.0156 Q51.1563,688.0156 50.6719,688.7813 Q50.1875,689.5313 50.1875,691.0156 Q50.1875,692.4844 50.6719,693.2344 Q51.1563,693.9844 52.1094,693.9844 Q52.5469,693.9844 52.9688,693.7969 Q53.3906,693.6094 53.8281,693.2031 L53.8281,695.125 Z "/><text fill="#000000" font-family="Helvetica" font-size="16" font-weight="bold" lengthAdjust="spacingAndGlyphs" textLength="126" x="65" y="696.4141">SelectElement</text><line style="stroke: #808080; stroke-width: 1.5;" x1="39" x2="193" y1="705.875" y2="705.875"/><text fill="#000000" font-family="Helvetica" font-size="11" lengthAdjust="spacingAndGlyphs" textLength="115" x="47" y="720.0854">type : SelectionType</text><text fill="#000000" font-family="Helvetica" font-size="11" lengthAdjust="spacingAndGlyphs" textLength="70" x="69.5" y="732.8901">field : String</text><text fill="#000000" font-family="Helvetica" font-size="11" lengthAdjust="spacingAndGlyphs" textLength="121" x="44" y="745.6948">domain_alias : String</text><text fill="#000000" font-family="Helvetica" font-size="11" lengthAdjust="spacingAndGlyphs" textLength="112" x="48.5" y="758.4995">range_alias : String</text><line style="stroke: #808080; stroke-width: 1.0;" x1="39" x2="193" y1="765.0938" y2="765.0938"/><text fill="#000000" font-family="Helvetica" font-size="11" lengthAdjust="spacingAndGlyphs" textLength="56" x="76.5" y="779.3042">__repr__()</text><!--MD5=[f7969e2bd863557fe455516c5ea3d333]
class sqlb.FromElement--><rect fill="#FFFFFF" height="84.4141" id="sqlb.FromElement" rx="7" ry="7" style="stroke: #808080; stroke-width: 0.5;" width="146" x="273" y="836.375"/><ellipse cx="287" cy="851.375" fill="#ADD1B2" rx="10" ry="10" style="stroke: #808080; stroke-width: 1.0;"/><path d="M288.8281,855.625 Q288.4219,855.8281 287.9688,855.9375 Q287.5156,856.0469 287.0313,856.0469 Q285.25,856.0469 284.3125,854.8906 Q283.3906,853.7188 283.3906,851.5156 Q283.3906,849.2969 284.3125,848.1406 Q285.25,846.9688 287.0313,846.9688 Q287.5156,846.9688 287.9688,847.0781 Q288.4375,847.1719 288.8281,847.3906 L288.8281,849.3125 Q288.3906,848.9063 287.9688,848.7188 Q287.5469,848.5156 287.1094,848.5156 Q286.1563,848.5156 285.6719,849.2813 Q285.1875,850.0313 285.1875,851.5156 Q285.1875,852.9844 285.6719,853.7344 Q286.1563,854.4844 287.1094,854.4844 Q287.5469,854.4844 287.9688,854.2969 Q288.3906,854.1094 288.8281,853.7031 L288.8281,855.625 Z "/><text fill="#000000" font-family="Helvetica" font-size="16" font-weight="bold" lengthAdjust="spacingAndGlyphs" textLength="116" x="300" y="856.9141">FromElement</text><line style="stroke: #808080; stroke-width: 1.5;" x1="274" x2="418" y1="866.375" y2="866.375"/><text fill="#000000" font-family="Helvetica" font-size="11" lengthAdjust="spacingAndGlyphs" textLength="74" x="279" y="880.5854">table : String</text><text fill="#000000" font-family="Helvetica" font-size="11" lengthAdjust="spacingAndGlyphs" textLength="73" x="279.5" y="893.3901">alias : String</text><line style="stroke: #808080; stroke-width: 1.0;" x1="274" x2="418" y1="899.9844" y2="899.9844"/><text fill="#000000" font-family="Helvetica" font-size="11" lengthAdjust="spacingAndGlyphs" textLength="56" x="288" y="914.1948">__repr__()</text><!--MD5=[bbc9b817fd054643baa7ab12d80d0d98]
class sqlb.JoinElement--><rect fill="#FFFFFF" height="122.8281" id="sqlb.JoinElement" rx="7" ry="7" style="stroke: #808080; stroke-width: 0.5;" width="133" x="794.5" y="816.875"/><ellipse cx="808.5" cy="831.875" fill="#ADD1B2" rx="10" ry="10" style="stroke: #808080; stroke-width: 1.0;"/><path d="M810.3281,836.125 Q809.9219,836.3281 809.4688,836.4375 Q809.0156,836.5469 808.5313,836.5469 Q806.75,836.5469 805.8125,835.3906 Q804.8906,834.2188 804.8906,832.0156 Q804.8906,829.7969 805.8125,828.6406 Q806.75,827.4688 808.5313,827.4688 Q809.0156,827.4688 809.4688,827.5781 Q809.9375,827.6719 810.3281,827.8906 L810.3281,829.8125 Q809.8906,829.4063 809.4688,829.2188 Q809.0469,829.0156 808.6094,829.0156 Q807.6563,829.0156 807.1719,829.7813 Q806.6875,830.5313 806.6875,832.0156 Q806.6875,833.4844 807.1719,834.2344 Q807.6563,834.9844 808.6094,834.9844 Q809.0469,834.9844 809.4688,834.7969 Q809.8906,834.6094 810.3281,834.2031 L810.3281,836.125 Z "/><text fill="#000000" font-family="Helvetica" font-size="16" font-weight="bold" lengthAdjust="spacingAndGlyphs" textLength="103" x="821.5" y="837.4141">JoinElement</text><line style="stroke: #808080; stroke-width: 1.5;" x1="795.5" x2="926.5" y1="846.875" y2="846.875"/><text fill="#000000" font-family="Helvetica" font-size="11" lengthAdjust="spacingAndGlyphs" textLength="83" x="819.5" y="861.0854">type : JoinType</text><text fill="#000000" font-family="Helvetica" font-size="11" lengthAdjust="spacingAndGlyphs" textLength="74" x="824" y="873.8901">table : String</text><text fill="#000000" font-family="Helvetica" font-size="11" lengthAdjust="spacingAndGlyphs" textLength="121" x="800.5" y="886.6948">domain_alias : String</text><text fill="#000000" font-family="Helvetica" font-size="11" lengthAdjust="spacingAndGlyphs" textLength="112" x="805" y="899.4995">range_alias : String</text><text fill="#000000" font-family="Helvetica" font-size="11" lengthAdjust="spacingAndGlyphs" textLength="97" x="812.5" y="912.3042">condition : String</text><line style="stroke: #808080; stroke-width: 1.0;" x1="795.5" x2="926.5" y1="918.8984" y2="918.8984"/><text fill="#000000" font-family="Helvetica" font-size="11" lengthAdjust="spacingAndGlyphs" textLength="56" x="833" y="933.1089">__repr__()</text><!--MD5=[21e4a4a1ebfa31f9b78808d5c1c35942]
class sqlb.WhereElement--><rect fill="#FFFFFF" height="71.6094" id="sqlb.WhereElement" rx="7" ry="7" style="stroke: #808080; stroke-width: 0.5;" width="160" x="718" y="694.875"/><ellipse cx="732" cy="709.875" fill="#ADD1B2" rx="10" ry="10" style="stroke: #808080; stroke-width: 1.0;"/><path d="M733.8281,714.125 Q733.4219,714.3281 732.9688,714.4375 Q732.5156,714.5469 732.0313,714.5469 Q730.25,714.5469 729.3125,713.3906 Q728.3906,712.2188 728.3906,710.0156 Q728.3906,707.7969 729.3125,706.6406 Q730.25,705.4688 732.0313,705.4688 Q732.5156,705.4688 732.9688,705.5781 Q733.4375,705.6719 733.8281,705.8906 L733.8281,707.8125 Q733.3906,707.4063 732.9688,707.2188 Q732.5469,707.0156 732.1094,707.0156 Q731.1563,707.0156 730.6719,707.7813 Q730.1875,708.5313 730.1875,710.0156 Q730.1875,711.4844 730.6719,712.2344 Q731.1563,712.9844 732.1094,712.9844 Q732.5469,712.9844 732.9688,712.7969 Q733.3906,712.6094 733.8281,712.2031 L733.8281,714.125 Z "/><text fill="#000000" font-family="Helvetica" font-size="16" font-weight="bold" lengthAdjust="spacingAndGlyphs" textLength="130" x="745" y="715.4141">WhereElement</text><line style="stroke: #808080; stroke-width: 0.5;" x1="719" x2="877" y1="724.875" y2="724.875"/><text fill="#000000" font-family="Helvetica" font-size="11" lengthAdjust="spacingAndGlyphs" textLength="97" x="724" y="739.0854">condition : String</text><text fill="#000000" font-family="Helvetica" font-size="11" lengthAdjust="spacingAndGlyphs" textLength="112" x="724" y="751.8901">operator : Operator</text><line style="stroke: #808080; stroke-width: 0.5;" x1="719" x2="877" y1="758.4844" y2="758.4844"/><!--MD5=[8552146999f2aa062f6b0da817cf2a3a]
class sqlb.GroupElement--><rect fill="#FFFFFF" height="58.8047" id="sqlb.GroupElement" rx="7" ry="7" style="stroke: #808080; stroke-width: 0.5;" width="155" x="908.5" y="701.375"/><ellipse cx="922.5" cy="716.375" fill="#ADD1B2" rx="10" ry="10" style="stroke: #808080; stroke-width: 1.0;"/><path d="M924.3281,720.625 Q923.9219,720.8281 923.4688,720.9375 Q923.0156,721.0469 922.5313,721.0469 Q920.75,721.0469 919.8125,719.8906 Q918.8906,718.7188 918.8906,716.5156 Q918.8906,714.2969 919.8125,713.1406 Q920.75,711.9688 922.5313,711.9688 Q923.0156,711.9688 923.4688,712.0781 Q923.9375,712.1719 924.3281,712.3906 L924.3281,714.3125 Q923.8906,713.9063 923.4688,713.7188 Q923.0469,713.5156 922.6094,713.5156 Q921.6563,713.5156 921.1719,714.2813 Q920.6875,715.0313 920.6875,716.5156 Q920.6875,717.9844 921.1719,718.7344 Q921.6563,719.4844 922.6094,719.4844 Q923.0469,719.4844 923.4688,719.2969 Q923.8906,719.1094 924.3281,718.7031 L924.3281,720.625 Z "/><text fill="#000000" font-family="Helvetica" font-size="16" font-weight="bold" lengthAdjust="spacingAndGlyphs" textLength="125" x="935.5" y="721.9141">GroupElement</text><line style="stroke: #808080; stroke-width: 0.5;" x1="909.5" x2="1062.5" y1="731.375" y2="731.375"/><text fill="#000000" font-family="Helvetica" font-size="11" lengthAdjust="spacingAndGlyphs" textLength="70" x="914.5" y="745.5854">field : String</text><line style="stroke: #808080; stroke-width: 0.5;" x1="909.5" x2="1062.5" y1="752.1797" y2="752.1797"/><!--MD5=[c18457cbec4c267384d22c608b35ce75]
class sqlb.QueryBlock--><rect fill="#FFFFFF" height="46" id="sqlb.QueryBlock" rx="7" ry="7" style="stroke: #808080; stroke-width: 0.5;" width="132" x="450" y="525.375"/><ellipse cx="464" cy="540.375" fill="#ADD1B2" rx="10" ry="10" style="stroke: #808080; stroke-width: 1.0;"/><path d="M465.8281,544.625 Q465.4219,544.8281 464.9688,544.9375 Q464.5156,545.0469 464.0313,545.0469 Q462.25,545.0469 461.3125,543.8906 Q460.3906,542.7188 460.3906,540.5156 Q460.3906,538.2969 461.3125,537.1406 Q462.25,535.9688 464.0313,535.9688 Q464.5156,535.9688 464.9688,536.0781 Q465.4375,536.1719 465.8281,536.3906 L465.8281,538.3125 Q465.3906,537.9063 464.9688,537.7188 Q464.5469,537.5156 464.1094,537.5156 Q463.1563,537.5156 462.6719,538.2813 Q462.1875,539.0313 462.1875,540.5156 Q462.1875,541.9844 462.6719,542.7344 Q463.1563,543.4844 464.1094,543.4844 Q464.5469,543.4844 464.9688,543.2969 Q465.3906,543.1094 465.8281,542.7031 L465.8281,544.625 Z "/><text fill="#000000" font-family="Helvetica" font-size="16" font-weight="bold" lengthAdjust="spacingAndGlyphs" textLength="102" x="477" y="545.9141">QueryBlock</text><line style="stroke: #808080; stroke-width: 0.5;" x1="451" x2="581" y1="555.375" y2="555.375"/><line style="stroke: #808080; stroke-width: 0.5;" x1="451" x2="581" y1="563.375" y2="563.375"/><!--MD5=[81f2f0d8d251d887bfa810fe2f33b4a7]
class sqlb.CompositeQueryBlock--><rect fill="#FFFFFF" height="46" id="sqlb.CompositeQueryBlock" rx="7" ry="7" style="stroke: #808080; stroke-width: 0.5;" width="226" x="194" y="525.375"/><ellipse cx="208" cy="540.375" fill="#ADD1B2" rx="10" ry="10" style="stroke: #808080; stroke-width: 1.0;"/><path d="M209.8281,544.625 Q209.4219,544.8281 208.9688,544.9375 Q208.5156,545.0469 208.0313,545.0469 Q206.25,545.0469 205.3125,543.8906 Q204.3906,542.7188 204.3906,540.5156 Q204.3906,538.2969 205.3125,537.1406 Q206.25,535.9688 208.0313,535.9688 Q208.5156,535.9688 208.9688,536.0781 Q209.4375,536.1719 209.8281,536.3906 L209.8281,538.3125 Q209.3906,537.9063 208.9688,537.7188 Q208.5469,537.5156 208.1094,537.5156 Q207.1563,537.5156 206.6719,538.2813 Q206.1875,539.0313 206.1875,540.5156 Q206.1875,541.9844 206.6719,542.7344 Q207.1563,543.4844 208.1094,543.4844 Q208.5469,543.4844 208.9688,543.2969 Q209.3906,543.1094 209.8281,542.7031 L209.8281,544.625 Z "/><text fill="#000000" font-family="Helvetica" font-size="16" font-weight="bold" lengthAdjust="spacingAndGlyphs" textLength="196" x="221" y="545.9141">CompositeQueryBlock</text><line style="stroke: #808080; stroke-width: 0.5;" x1="195" x2="419" y1="555.375" y2="555.375"/><line style="stroke: #808080; stroke-width: 0.5;" x1="195" x2="419" y1="563.375" y2="563.375"/><!--MD5=[6c82239725c894668a32f4e73efcfe81]
class sqlb.CaseWhen--><rect fill="#FFFFFF" height="84.4141" id="sqlb.CaseWhen" rx="7" ry="7" style="stroke: #808080; stroke-width: 0.5;" width="125" x="38.5" y="506.375"/><ellipse cx="52.95" cy="521.375" fill="#ADD1B2" rx="10" ry="10" style="stroke: #808080; stroke-width: 1.0;"/><path d="M54.7781,525.625 Q54.3719,525.8281 53.9188,525.9375 Q53.4656,526.0469 52.9813,526.0469 Q51.2,526.0469 50.2625,524.8906 Q49.3406,523.7188 49.3406,521.5156 Q49.3406,519.2969 50.2625,518.1406 Q51.2,516.9688 52.9813,516.9688 Q53.4656,516.9688 53.9188,517.0781 Q54.3875,517.1719 54.7781,517.3906 L54.7781,519.3125 Q54.3406,518.9063 53.9188,518.7188 Q53.4969,518.5156 53.0594,518.5156 Q52.1063,518.5156 51.6219,519.2813 Q51.1375,520.0313 51.1375,521.5156 Q51.1375,522.9844 51.6219,523.7344 Q52.1063,524.4844 53.0594,524.4844 Q53.4969,524.4844 53.9188,524.2969 Q54.3406,524.1094 54.7781,523.7031 L54.7781,525.625 Z "/><text fill="#000000" font-family="Helvetica" font-size="16" font-weight="bold" lengthAdjust="spacingAndGlyphs" textLength="94" x="66.05" y="526.9141">CaseWhen</text><line style="stroke: #808080; stroke-width: 0.5;" x1="39.5" x2="162.5" y1="536.375" y2="536.375"/><text fill="#000000" font-family="Helvetica" font-size="11" lengthAdjust="spacingAndGlyphs" textLength="76" x="44.5" y="550.5854">when : String</text><text fill="#000000" font-family="Helvetica" font-size="11" lengthAdjust="spacingAndGlyphs" textLength="71" x="44.5" y="563.3901">then : String</text><text fill="#000000" font-family="Helvetica" font-size="11" lengthAdjust="spacingAndGlyphs" textLength="66" x="44.5" y="576.1948">else: String</text><line style="stroke: #808080; stroke-width: 0.5;" x1="39.5" x2="162.5" y1="582.7891" y2="582.7891"/><!--MD5=[41886f93d666bda1f3933caa4d034e05]
class sqlb.DbType--><rect fill="#FFFFFF" height="71.6094" id="sqlb.DbType" rx="7" ry="7" style="stroke: #808080; stroke-width: 0.5;" width="125" x="899.5" y="191.375"/><ellipse cx="926.1" cy="206.375" fill="#EB937F" rx="10" ry="10" style="stroke: #808080; stroke-width: 1.0;"/><path d="M928.5375,210.875 L923.0844,210.875 L923.0844,202.125 L928.5375,202.125 L928.5375,203.6563 L924.8188,203.6563 L924.8188,205.5313 L928.1781,205.5313 L928.1781,207.0625 L924.8188,207.0625 L924.8188,209.3438 L928.5375,209.3438 L928.5375,210.875 Z "/><text fill="#000000" font-family="Helvetica" font-size="16" font-weight="bold" lengthAdjust="spacingAndGlyphs" textLength="67" x="941.9" y="211.9141">DbType</text><line style="stroke: #808080; stroke-width: 0.5;" x1="900.5" x2="1023.5" y1="221.375" y2="221.375"/><text fill="#000000" font-family="Helvetica" font-size="11" lengthAdjust="spacingAndGlyphs" textLength="61" x="905.5" y="235.5854">postgresql</text><text fill="#000000" font-family="Helvetica" font-size="11" lengthAdjust="spacingAndGlyphs" textLength="49" x="905.5" y="248.3901">oracledb</text><line style="stroke: #808080; stroke-width: 0.5;" x1="900.5" x2="1023.5" y1="254.9844" y2="254.9844"/><!--MD5=[bd57b2625cb1d3e060be693cf7ea696b]
class sqlb.TypeOfEffect--><rect fill="#FFFFFF" height="122.8281" id="sqlb.TypeOfEffect" rx="7" ry="7" style="stroke: #808080; stroke-width: 0.5;" width="147" x="1054.5" y="165.875"/><ellipse cx="1068.5" cy="180.875" fill="#EB937F" rx="10" ry="10" style="stroke: #808080; stroke-width: 1.0;"/><path d="M1070.9375,185.375 L1065.4844,185.375 L1065.4844,176.625 L1070.9375,176.625 L1070.9375,178.1563 L1067.2188,178.1563 L1067.2188,180.0313 L1070.5781,180.0313 L1070.5781,181.5625 L1067.2188,181.5625 L1067.2188,183.8438 L1070.9375,183.8438 L1070.9375,185.375 Z "/><text fill="#000000" font-family="Helvetica" font-size="16" font-weight="bold" lengthAdjust="spacingAndGlyphs" textLength="117" x="1081.5" y="186.4141">TypeOfEffect</text><line style="stroke: #808080; stroke-width: 0.5;" x1="1055.5" x2="1200.5" y1="195.875" y2="195.875"/><text fill="#000000" font-family="Helvetica" font-size="11" lengthAdjust="spacingAndGlyphs" textLength="63" x="1060.5" y="210.0854">Ontological</text><text fill="#000000" font-family="Helvetica" font-size="11" lengthAdjust="spacingAndGlyphs" textLength="39" x="1060.5" y="222.8901">Spatial</text><text fill="#000000" font-family="Helvetica" font-size="11" lengthAdjust="spacingAndGlyphs" textLength="53" x="1060.5" y="235.6948">Semantic</text><text fill="#000000" font-family="Helvetica" font-size="11" lengthAdjust="spacingAndGlyphs" textLength="54" x="1060.5" y="248.4995">Temporal</text><text fill="#000000" font-family="Helvetica" font-size="11" lengthAdjust="spacingAndGlyphs" textLength="34" x="1060.5" y="261.3042">Visual</text><text fill="#000000" font-family="Helvetica" font-size="11" lengthAdjust="spacingAndGlyphs" textLength="64" x="1060.5" y="274.1089">Topological</text><line style="stroke: #808080; stroke-width: 0.5;" x1="1055.5" x2="1200.5" y1="280.7031" y2="280.7031"/><!--MD5=[2edacf8575a95646aab037f643558882]
class sqlb.SelectionType--><rect fill="#FFFFFF" height="71.6094" id="sqlb.SelectionType" rx="7" ry="7" style="stroke: #808080; stroke-width: 0.5;" width="154" x="885" y="336.375"/><ellipse cx="899" cy="351.375" fill="#EB937F" rx="10" ry="10" style="stroke: #808080; stroke-width: 1.0;"/><path d="M901.4375,355.875 L895.9844,355.875 L895.9844,347.125 L901.4375,347.125 L901.4375,348.6563 L897.7188,348.6563 L897.7188,350.5313 L901.0781,350.5313 L901.0781,352.0625 L897.7188,352.0625 L897.7188,354.3438 L901.4375,354.3438 L901.4375,355.875 Z "/><text fill="#000000" font-family="Helvetica" font-size="16" font-weight="bold" lengthAdjust="spacingAndGlyphs" textLength="124" x="912" y="356.9141">SelectionType</text><line style="stroke: #808080; stroke-width: 0.5;" x1="886" x2="1038" y1="366.375" y2="366.375"/><text fill="#000000" font-family="Helvetica" font-size="11" lengthAdjust="spacingAndGlyphs" textLength="24" x="891" y="380.5854">field</text><text fill="#000000" font-family="Helvetica" font-size="11" lengthAdjust="spacingAndGlyphs" textLength="61" x="891" y="393.3901">case-when</text><line style="stroke: #808080; stroke-width: 0.5;" x1="886" x2="1038" y1="399.9844" y2="399.9844"/><!--MD5=[65228ebb673ddb8b696e3a2401a2d8c9]
class sqlb.JoinType--><rect fill="#FFFFFF" height="97.2188" id="sqlb.JoinType" rx="7" ry="7" style="stroke: #808080; stroke-width: 0.5;" width="125" x="1069.5" y="323.875"/><ellipse cx="1092.5" cy="338.875" fill="#EB937F" rx="10" ry="10" style="stroke: #808080; stroke-width: 1.0;"/><path d="M1094.9375,343.375 L1089.4844,343.375 L1089.4844,334.625 L1094.9375,334.625 L1094.9375,336.1563 L1091.2188,336.1563 L1091.2188,338.0313 L1094.5781,338.0313 L1094.5781,339.5625 L1091.2188,339.5625 L1091.2188,341.8438 L1094.9375,341.8438 L1094.9375,343.375 Z "/><text fill="#000000" font-family="Helvetica" font-size="16" font-weight="bold" lengthAdjust="spacingAndGlyphs" textLength="75" x="1107.5" y="344.4141">JoinType</text><line style="stroke: #808080; stroke-width: 0.5;" x1="1070.5" x2="1193.5" y1="353.875" y2="353.875"/><text fill="#000000" font-family="Helvetica" font-size="11" lengthAdjust="spacingAndGlyphs" textLength="21" x="1075.5" y="368.0854">Left</text><text fill="#000000" font-family="Helvetica" font-size="11" lengthAdjust="spacingAndGlyphs" textLength="28" x="1075.5" y="380.8901">Right</text><text fill="#000000" font-family="Helvetica" font-size="11" lengthAdjust="spacingAndGlyphs" textLength="29" x="1075.5" y="393.6948">Inner</text><text fill="#000000" font-family="Helvetica" font-size="11" lengthAdjust="spacingAndGlyphs" textLength="19" x="1075.5" y="406.4995">Full</text><line style="stroke: #808080; stroke-width: 0.5;" x1="1070.5" x2="1193.5" y1="413.0938" y2="413.0938"/><!--MD5=[041b87f6a7c959718d924b02cf65bf1d]
link sqlb.CombinedQueryBlocks to sqlb.AbstractQueryBlock--><path d="M716,281.425 C716,281.425 716,398.725 716,454.485 " fill="none" id="sqlb.CombinedQueryBlocks-sqlb.AbstractQueryBlock" style="stroke: #808080; stroke-width: 2.0;"/><polygon fill="#808080" points="716,467.625,720,458.625,716,462.625,712,458.625,716,467.625" style="stroke: #808080; stroke-width: 2.0;"/><line style="stroke: #808080; stroke-width: 2.0;" x1="716" x2="716" y1="462.625" y2="454.625"/><polygon fill="#808080" points="716,269.425,712,275.425,716,281.425,720,275.425,716,269.425" style="stroke: #808080; stroke-width: 2.0;"/><text fill="#000000" font-family="Helvetica" font-size="13" lengthAdjust="spacingAndGlyphs" textLength="83" x="717" y="376.9419">query_blocks</text><text fill="#000000" font-family="Helvetica" font-size="13" lengthAdjust="spacingAndGlyphs" textLength="8" x="707.3125" y="289.9841">1</text><text fill="#000000" font-family="Helvetica" font-size="13" lengthAdjust="spacingAndGlyphs" textLength="7" x="708.6883" y="456.8273">*</text><!--MD5=[0202968e79922246db79af1bbf1a4b5a]
link sqlb.AbstractQueryBlock to sqlb.SelectElement--><path d="M600.6214,627.6106 C600.6214,627.6106 597.78,628.625 597,628.875 C548.52,644.445 178.87,612.215 139,643.875 C132.49,649.045 127.7,655.845 124.19,663.355 " fill="none" id="sqlb.AbstractQueryBlock-sqlb.SelectElement" style="stroke: #808080; stroke-width: 2.0;"/><polygon fill="#808080" points="119.68,675.615,126.5401,668.5483,121.4055,670.9222,119.0316,665.7875,119.68,675.615" style="stroke: #808080; stroke-width: 2.0;"/><line style="stroke: #808080; stroke-width: 2.0;" x1="121.4055" x2="124.17" y1="670.9222" y2="663.415"/><polygon fill="#FFFFFF" points="611.83,623.325,604.7971,621.7316,600.6214,627.6106,607.6542,629.204,611.83,623.325" style="stroke: #808080; stroke-width: 2.0;"/><text fill="#000000" font-family="Helvetica" font-size="13" lengthAdjust="spacingAndGlyphs" textLength="105" x="140" y="656.9419">select_elements</text><text fill="#000000" font-family="Helvetica" font-size="13" lengthAdjust="spacingAndGlyphs" textLength="24" x="580.0248" y="624.92">0..1</text><text fill="#000000" font-family="Helvetica" font-size="13" lengthAdjust="spacingAndGlyphs" textLength="7" x="112.7031" y="664.6478">*</text><!--MD5=[50b56be509ace09b51e3b14affa08ff1]
link sqlb.AbstractQueryBlock to sqlb.FromElement--><path d="M601.4243,626.4143 C601.4243,626.4143 598.07,628.285 597,628.875 C551.05,653.955 529.64,642.875 489,675.875 C438.56,716.835 397.75,779.865 372.83,824.505 " fill="none" id="sqlb.AbstractQueryBlock-sqlb.FromElement" style="stroke: #808080; stroke-width: 2.0;"/><polygon fill="#808080" points="366.53,836.005,374.3581,830.0283,368.9293,831.6183,367.3393,826.1894,366.53,836.005" style="stroke: #808080; stroke-width: 2.0;"/><line style="stroke: #808080; stroke-width: 2.0;" x1="368.9293" x2="372.775" y1="831.6183" y2="824.6"/><polygon fill="#FFFFFF" points="611.84,620.455,604.6457,619.9628,601.4243,626.4143,608.6186,626.9066,611.84,620.455" style="stroke: #808080; stroke-width: 2.0;"/><text fill="#000000" font-family="Helvetica" font-size="13" lengthAdjust="spacingAndGlyphs" textLength="97" x="490" y="735.4419">from_elements</text><text fill="#000000" font-family="Helvetica" font-size="13" lengthAdjust="spacingAndGlyphs" textLength="24" x="580.0355" y="637.865">0..1</text><text fill="#000000" font-family="Helvetica" font-size="13" lengthAdjust="spacingAndGlyphs" textLength="7" x="362.1377" y="825.414">*</text><!--MD5=[6da8b1b9b9a99cace2bd96bd796d01e1]
reverse link sqlb.AbstractQueryBlock to sqlb.FromElement--><path d="M607.28,624.625 C603.86,626.145 600.43,627.565 597,628.875 C527.39,655.455 313.86,619.615 265,675.875 C232.94,712.785 247.67,740.155 265,785.875 C272.07,804.525 284.87,821.815 298.23,836.225 " fill="none" id="sqlb.AbstractQueryBlock&lt;-sqlb.FromElement" style="stroke: #808080; stroke-width: 2.0;"/><polygon fill="#808080" points="611.94,622.485,602.0917,622.5933,607.3936,624.5658,605.421,629.8676,611.94,622.485" style="stroke: #808080; stroke-width: 2.0;"/><text fill="#000000" font-family="Helvetica" font-size="13" lengthAdjust="spacingAndGlyphs" textLength="122" x="266" y="735.4419">inner_query_blocks</text><text fill="#000000" font-family="Helvetica" font-size="13" lengthAdjust="spacingAndGlyphs" textLength="7" x="597.1703" y="646.5303">*</text><text fill="#000000" font-family="Helvetica" font-size="13" lengthAdjust="spacingAndGlyphs" textLength="8" x="281.9792" y="825.3565">1</text><!--MD5=[99c62601b738e9e1e89c58b37a95ad33]
link sqlb.AbstractQueryBlock to sqlb.JoinElement--><path d="M630.632,638.925 C630.632,638.925 616.47,663.405 612,675.875 C595.51,721.895 584.02,745.785 612,785.875 C649.9,840.185 723.79,862.355 781.28,871.345 " fill="none" id="sqlb.AbstractQueryBlock-sqlb.JoinElement" style="stroke: #808080; stroke-width: 2.0;"/><polygon fill="#808080" points="794.39,873.225,786.0478,867.9898,789.4405,872.5164,784.9139,875.9091,794.39,873.225" style="stroke: #808080; stroke-width: 2.0;"/><line style="stroke: #808080; stroke-width: 2.0;" x1="789.4405" x2="781.515" y1="872.5164" y2="871.38"/><polygon fill="#FFFFFF" points="637.34,628.975,630.6693,631.714,630.632,638.925,637.3027,636.186,637.34,628.975" style="stroke: #808080; stroke-width: 2.0;"/><text fill="#000000" font-family="Helvetica" font-size="13" lengthAdjust="spacingAndGlyphs" textLength="89" x="613" y="735.4419">join_elements</text><text fill="#000000" font-family="Helvetica" font-size="13" lengthAdjust="spacingAndGlyphs" textLength="24" x="631.1948" y="649.1586">0..1</text><text fill="#000000" font-family="Helvetica" font-size="13" lengthAdjust="spacingAndGlyphs" textLength="7" x="779.2835" y="868.8469">*</text><!--MD5=[23ede6ec5475c75b3870de023dd69d4c]
reverse link sqlb.AbstractQueryBlock to sqlb.JoinElement--><path d="M825.38,553.115 C911.64,562.695 1025.95,591.745 1079,675.875 C1105.08,717.225 1106.07,745.165 1079,785.875 C1045.6,836.125 978.67,858.835 927.74,869.065 " fill="none" id="sqlb.AbstractQueryBlock&lt;-sqlb.JoinElement" style="stroke: #808080; stroke-width: 2.0;"/><polygon fill="#808080" points="820.26,552.565,828.7867,557.4941,825.232,553.0936,829.6325,549.539,820.26,552.565" style="stroke: #808080; stroke-width: 2.0;"/><text fill="#000000" font-family="Helvetica" font-size="13" lengthAdjust="spacingAndGlyphs" textLength="115" x="1099" y="735.4419">inner_query_block</text><text fill="#000000" font-family="Helvetica" font-size="13" lengthAdjust="spacingAndGlyphs" textLength="7" x="827.8369" y="549.3953">*</text><text fill="#000000" font-family="Helvetica" font-size="13" lengthAdjust="spacingAndGlyphs" textLength="8" x="935.4772" y="864.31">1</text><!--MD5=[85458038e7b45dc4a6b2cedf8d7c14c2]
link sqlb.AbstractQueryBlock to sqlb.WhereElement--><path d="M757.1717,640.0012 C757.1717,640.0012 770.82,670.055 776.7,682.995 " fill="none" id="sqlb.AbstractQueryBlock-sqlb.WhereElement" style="stroke: #808080; stroke-width: 2.0;"/><polygon fill="#808080" points="782.1,694.875,782.0208,685.0265,780.0326,690.3224,774.7367,688.3342,782.1,694.875" style="stroke: #808080; stroke-width: 2.0;"/><line style="stroke: #808080; stroke-width: 2.0;" x1="780.0326" x2="776.72" y1="690.3224" y2="683.035"/><polygon fill="#FFFFFF" points="752.21,629.075,751.0488,636.192,757.1717,640.0012,758.3329,632.8842,752.21,629.075" style="stroke: #808080; stroke-width: 2.0;"/><text fill="#000000" font-family="Helvetica" font-size="13" lengthAdjust="spacingAndGlyphs" textLength="105" x="765" y="656.9419">where_elements</text><text fill="#000000" font-family="Helvetica" font-size="13" lengthAdjust="spacingAndGlyphs" textLength="24" x="730.4419" y="649.2678">0..1</text><text fill="#000000" font-family="Helvetica" font-size="13" lengthAdjust="spacingAndGlyphs" textLength="7" x="771.4019" y="683.6996">*</text><!--MD5=[5772b80d109c9301876e5a93971f271b]
link sqlb.AbstractQueryBlock to sqlb.GroupElement--><path d="M830.4948,613.3741 C830.4948,613.3741 863.3,633.815 878,643.875 C899.86,658.835 922.98,676.915 942.19,692.625 " fill="none" id="sqlb.AbstractQueryBlock-sqlb.GroupElement" style="stroke: #808080; stroke-width: 2.0;"/><polygon fill="#808080" points="952.43,701.075,948.0321,692.2626,948.5727,697.8936,942.9418,698.4343,952.43,701.075" style="stroke: #808080; stroke-width: 2.0;"/><line style="stroke: #808080; stroke-width: 2.0;" x1="948.5727" x2="942.405" y1="697.8936" y2="692.795"/><polygon fill="#FFFFFF" points="820.22,607.175,823.291,613.6995,830.4948,613.3741,827.4238,606.8497,820.22,607.175" style="stroke: #808080; stroke-width: 2.0;"/><text fill="#000000" font-family="Helvetica" font-size="13" lengthAdjust="spacingAndGlyphs" textLength="104" x="900" y="656.9419">group_elements</text><text fill="#000000" font-family="Helvetica" font-size="13" lengthAdjust="spacingAndGlyphs" textLength="24" x="828.0285" y="607.6849">0..1</text><text fill="#000000" font-family="Helvetica" font-size="13" lengthAdjust="spacingAndGlyphs" textLength="7" x="937.7843" y="690.4826">*</text><!--MD5=[f38e1db61c24a9f33591739b27738b08]
link sqlb.QueryBlock to sqlb.AbstractQueryBlock--><path d="M582.02,548.375 C585.28,548.375 588.54,548.375 591.8,548.375 " fill="none" id="sqlb.QueryBlock-&gt;sqlb.AbstractQueryBlock" style="stroke: #808080; stroke-width: 2.0;"/><polygon fill="none" points="591.85,541.375,611.85,548.375,591.85,555.375,591.85,541.375" style="stroke: #808080; stroke-width: 2.0;"/><!--MD5=[9220ca8a4c63a130c713cec1857728ac]
link sqlb.CompositeQueryBlock to sqlb.AbstractQueryBlock--><path d="M329.16,525.155 C355.25,499.655 401.25,460.225 450,444.375 C505.79,426.235 526.5,425.365 582,444.375 C591.76,447.715 601.36,452.095 610.66,457.155 " fill="none" id="sqlb.CompositeQueryBlock-&gt;sqlb.AbstractQueryBlock" style="stroke: #808080; stroke-width: 2.0;"/><polygon fill="none" points="614.6,451.355,628.14,467.655,607.39,463.355,614.6,451.355" style="stroke: #808080; stroke-width: 2.0;"/><!--MD5=[9220ca8a4c63a130c713cec1857728ac]
link sqlb.CompositeQueryBlock to sqlb.AbstractQueryBlock--><path d="M332.27,525.305 C359.85,501.835 406.44,466.965 454,452.875 C506.84,437.215 525.39,436.445 578,452.875 C588.37,456.115 598.65,460.435 608.64,465.455 " fill="none" id="sqlb.CompositeQueryBlock-&gt;sqlb.AbstractQueryBlock-1" style="stroke: #808080; stroke-width: 2.0;"/><polygon fill="#808080" points="613.21,467.805,607.0564,460.1152,608.7697,465.5063,603.3786,467.2196,613.21,467.805" style="stroke: #808080; stroke-width: 2.0;"/><text fill="#000000" font-family="Helvetica" font-size="13" lengthAdjust="spacingAndGlyphs" textLength="122" x="455" y="448.9419">inner_query_blocks</text><text fill="#000000" font-family="Helvetica" font-size="13" lengthAdjust="spacingAndGlyphs" textLength="7" x="331.1207" y="514.1741">*</text><text fill="#000000" font-family="Helvetica" font-size="13" lengthAdjust="spacingAndGlyphs" textLength="23" x="581.1025" y="457.8495">1..*</text><!--MD5=[344321cade5063983b125cb97d13bf78]
link sqlb.CaseWhen to sqlb.SelectElement--><path d="M75.21,602.915 C69.47,621.345 66.52,642.075 72,660.875 C72.28,661.825 73.2792,664.7169 73.2792,664.7169 " fill="none" id="sqlb.CaseWhen-sqlb.SelectElement" style="stroke: #808080; stroke-width: 2.0;"/><polygon fill="#FFFFFF" points="77.72,675.865,79.2156,668.8107,73.2792,664.7169,71.7836,671.7712,77.72,675.865" style="stroke: #808080; stroke-width: 2.0;"/><polygon fill="#808080" points="79.55,590.575,72.7914,597.7389,77.8916,595.292,80.3385,600.3922,79.55,590.575" style="stroke: #808080; stroke-width: 2.0;"/><line style="stroke: #808080; stroke-width: 2.0;" x1="77.8916" x2="75.235" y1="595.292" y2="602.835"/><text fill="#000000" font-family="Helvetica" font-size="13" lengthAdjust="spacingAndGlyphs" textLength="30" x="73" y="656.9419">case</text><text fill="#000000" font-family="Helvetica" font-size="13" lengthAdjust="spacingAndGlyphs" textLength="24" x="50.0098" y="610.8502">0..1</text><text fill="#000000" font-family="Helvetica" font-size="13" lengthAdjust="spacingAndGlyphs" textLength="7" x="65.3669" y="664.9298">*</text><!--MD5=[4307e849f0c56039f2ca8eb022d253bc]
link sqlb.DbType to sqlb.TypeOfEffect--><!--MD5=[88b60722e1c25d2bb7dcbe87d8de9598]
link sqlb.DbType to sqlb.SelectionType--><!--MD5=[7c98469a78febcdb665fb7eeaac87150]
link sqlb.SelectionType to sqlb.JoinType--><!--MD5=[09a034262ea5ed6ddd52210df14c4ee9]
@startuml
title UML Class Diagram 
header
<font color=red size=12>Last Check : 06.11.2025</font>
endheader




skinparam {
    DefaultFontName Helvetica 
    defaultTextAlignment center
    RoundCorner 14
    Shadowing false

    BackgroundColor transparent

    TitleFontSize 36
    TitleFontStyle Bold

    minClassWidth 125
    maxClassWidth 300
    nodesep 30
    ranksep 30
    CircledCharacterRadius 10
    CircledCharacterFontSize 12
    CircledCharacterFontColor White
    Class {
        FontSize 16
        FontStyle Bold
        BackgroundColor #FFFFFF90
        BorderThickness 0.5
        BorderColor Gray
        ArrowThickness 2
        ArrowColor Gray
        AttributeIconSize 9
    }

}

namespace advs <<Advise>> {
	class Advisement {
		usedCommandSet : String
		maximumFeaturePerTile : Integer
		- - -
		to_oneline_command()
		to_yaml()
	}
}

namespace sqlb <<SQL Blocks>> {
	class CombinedQueryBlocks {
		name : String
		comType : DbType
		- - -
		__repr__()
	}
	CombinedQueryBlocks "1" *- -down-> "*" AbstractQueryBlock : query_blocks

	abstract class AbstractQueryBlock {
		name : String
		range_alias : String
		type_of_effect : TypeOfEffect
		order_number : Integer
		description : String
		domain_aliases : String[]
		header_comment : String
		footer_comment : String
		- - -
		__repr__()
	}
	AbstractQueryBlock "0..1" o-down-> "*" SelectElement : select_elements
	AbstractQueryBlock "0..1" o-down-> "*" FromElement : from_elements
	AbstractQueryBlock "0..1" o-down-> "*" JoinElement : join_elements
	AbstractQueryBlock "0..1" o-down-> "*" WhereElement : where_elements
	AbstractQueryBlock "0..1" o-down-> "*" GroupElement : group_elements

	class QueryBlock {
	}
	QueryBlock -right-|> AbstractQueryBlock

	class CompositeQueryBlock {
	}
	CompositeQueryBlock -right-|> AbstractQueryBlock
	CompositeQueryBlock "*" -right-> "1..*" AbstractQueryBlock : inner_query_blocks

	class SelectElement {
		type : SelectionType
		field : String
		domain_alias : String
		range_alias : String
		- - -
		__repr__()
	}
	SelectElement "*" o-up-> "0..1" CaseWhen : case

	class FromElement {
		table : String
		alias : String
		- - -
		__repr__()
	}
	FromElement "1" - -up-> "*" AbstractQueryBlock : inner_query_blocks

	class JoinElement {
		type : JoinType
		table : String
		domain_alias : String
		range_alias : String
		condition : String
		- - -
		__repr__()
	}
	JoinElement "1" - -up-> "*" AbstractQueryBlock : inner_query_block

	class WhereElement {
		condition : String
		operator : Operator
	}

	class GroupElement {
		field : String
	}

	class CaseWhen {
		when : String
		then : String
		else: String
	}

	enum DbType {
		postgresql
		oracledb
	}

	enum TypeOfEffect {
		Ontological
		Spatial
		Semantic
		Temporal
		Visual
		Topological
	}

	enum SelectionType {
		field
		case-when
	}

	enum JoinType {
		Left
		Right
		Inner
		Full
	}
}
@enduml

PlantUML version 1.2020.02(Sun Mar 01 11:22:07 CET 2020)
(GPL source distribution)
Java Runtime: OpenJDK Runtime Environment
JVM: OpenJDK 64-Bit Server VM
Java Version: 21.0.8+9-Ubuntu-0ubuntu124.04.1
Operating System: Linux
Default Encoding: UTF-8
Language: en
Country: US
--></g></svg>