<?xml version="1.0" encoding="UTF-8" standalone="no"?><svg xmlns="http://www.w3.org/2000/svg" xmlns:xlink="http://www.w3.org/1999/xlink" contentScriptType="application/ecmascript" contentStyleType="text/css" height="775px" preserveAspectRatio="none" style="width:990px;height:775px;" version="1.1" viewBox="0 0 990 775" width="990px" zoomAndPan="magnify"><defs><filter height="300%" id="fx7r8oigu5zbo" width="300%" x="-1" y="-1"><feGaussianBlur result="blurOut" stdDeviation="2.0"/><feColorMatrix in="blurOut" result="blurOut2" type="matrix" values="0 0 0 0 0 0 0 0 0 0 0 0 0 0 0 0 0 0 .4 0"/><feOffset dx="4.0" dy="4.0" in="blurOut2" result="blurOut3"/><feBlend in="SourceGraphic" in2="blurOut3" mode="normal"/></filter></defs><g><text fill="#FF0000" font-family="sans-serif" font-size="10" lengthAdjust="spacingAndGlyphs" textLength="101" x="877" y="9.2822">sqlb is not tested yet</text><text fill="#000000" font-family="sans-serif" font-size="18" lengthAdjust="spacingAndGlyphs" textLength="171" x="403.5" y="28.3486">UML Class Diagram</text><!--MD5=[3bba2e11fb0bcc18628c32de96d9320e]
cluster advs--><polygon fill="#FFFFFF" filter="url(#fx7r8oigu5zbo)" points="710,69.5938,753,69.5938,760,91.8906,944,91.8906,944,235.5938,710,235.5938,710,69.5938" style="stroke: #000000; stroke-width: 1.5;"/><line style="stroke: #000000; stroke-width: 1.5;" x1="710" x2="760" y1="91.8906" y2="91.8906"/><text fill="#000000" font-family="sans-serif" font-size="14" font-weight="bold" lengthAdjust="spacingAndGlyphs" textLength="37" x="714" y="84.5889">advs</text><text fill="#000000" font-family="sans-serif" font-size="14" font-style="italic" lengthAdjust="spacingAndGlyphs" textLength="64" x="799" y="106.8857">«Advise»</text><!--MD5=[38ea690d6de6cae03e3c90d8eb8ed2bb]
cluster sqlb--><polygon fill="#FFFFFF" filter="url(#fx7r8oigu5zbo)" points="22,56.5938,61,56.5938,68,78.8906,686,78.8906,686,726.5938,22,726.5938,22,56.5938" style="stroke: #000000; stroke-width: 1.5;"/><line style="stroke: #000000; stroke-width: 1.5;" x1="22" x2="68" y1="78.8906" y2="78.8906"/><text fill="#000000" font-family="sans-serif" font-size="14" font-weight="bold" lengthAdjust="spacingAndGlyphs" textLength="33" x="26" y="71.5889">sqlb</text><text fill="#000000" font-family="sans-serif" font-size="14" font-style="italic" lengthAdjust="spacingAndGlyphs" textLength="95" x="310.5" y="93.8857">«SQL Blocks»</text><!--MD5=[8e739cdd9138556ecb1060d388508b98]
class advs.Advisement--><rect fill="#FEFECE" filter="url(#fx7r8oigu5zbo)" height="99.2188" id="advs.Advisement" style="stroke: #A80036; stroke-width: 1.5;" width="202" x="726" y="120.5938"/><ellipse cx="786.75" cy="136.5938" fill="#ADD1B2" rx="11" ry="11" style="stroke: #A80036; stroke-width: 1.0;"/><path d="M789.7188,142.2344 Q789.1406,142.5313 788.5,142.6719 Q787.8594,142.8281 787.1563,142.8281 Q784.6563,142.8281 783.3281,141.1875 Q782.0156,139.5313 782.0156,136.4063 Q782.0156,133.2813 783.3281,131.625 Q784.6563,129.9688 787.1563,129.9688 Q787.8594,129.9688 788.5,130.125 Q789.1563,130.2813 789.7188,130.5781 L789.7188,133.2969 Q789.0938,132.7188 788.5,132.4531 Q787.9063,132.1719 787.2813,132.1719 Q785.9375,132.1719 785.25,133.25 Q784.5625,134.3125 784.5625,136.4063 Q784.5625,138.5 785.25,139.5781 Q785.9375,140.6406 787.2813,140.6406 Q787.9063,140.6406 788.5,140.375 Q789.0938,140.0938 789.7188,139.5156 L789.7188,142.2344 Z "/><text fill="#000000" font-family="sans-serif" font-size="12" lengthAdjust="spacingAndGlyphs" textLength="72" x="807.25" y="140.748">Advisement</text><line style="stroke: #A80036; stroke-width: 1.5;" x1="727" x2="927" y1="152.5938" y2="152.5938"/><text fill="#000000" font-family="sans-serif" font-size="11" lengthAdjust="spacingAndGlyphs" textLength="151" x="732" y="166.8042">usedCommandSet : String</text><text fill="#000000" font-family="sans-serif" font-size="11" lengthAdjust="spacingAndGlyphs" textLength="190" x="732" y="179.6089">maximumFeaturePerTile : Integer</text><line style="stroke: #A80036; stroke-width: 1.0;" x1="727" x2="927" y1="186.2031" y2="186.2031"/><text fill="#000000" font-family="sans-serif" font-size="11" lengthAdjust="spacingAndGlyphs" textLength="128" x="732" y="200.4136">to_oneline_command()</text><text fill="#000000" font-family="sans-serif" font-size="11" lengthAdjust="spacingAndGlyphs" textLength="52" x="732" y="213.2183">to_yaml()</text><!--MD5=[ca3cbec99660a7c9fdc4077024e9e7a9]
class sqlb.CombinedQueryBlock--><rect fill="#FEFECE" filter="url(#fx7r8oigu5zbo)" height="73.6094" id="sqlb.CombinedQueryBlock" style="stroke: #A80036; stroke-width: 1.5;" width="163" x="115.5" y="133.0938"/><ellipse cx="130.5" cy="149.0938" fill="#ADD1B2" rx="11" ry="11" style="stroke: #A80036; stroke-width: 1.0;"/><path d="M133.4688,154.7344 Q132.8906,155.0313 132.25,155.1719 Q131.6094,155.3281 130.9063,155.3281 Q128.4063,155.3281 127.0781,153.6875 Q125.7656,152.0313 125.7656,148.9063 Q125.7656,145.7813 127.0781,144.125 Q128.4063,142.4688 130.9063,142.4688 Q131.6094,142.4688 132.25,142.625 Q132.9063,142.7813 133.4688,143.0781 L133.4688,145.7969 Q132.8438,145.2188 132.25,144.9531 Q131.6563,144.6719 131.0313,144.6719 Q129.6875,144.6719 129,145.75 Q128.3125,146.8125 128.3125,148.9063 Q128.3125,151 129,152.0781 Q129.6875,153.1406 131.0313,153.1406 Q131.6563,153.1406 132.25,152.875 Q132.8438,152.5938 133.4688,152.0156 L133.4688,154.7344 Z "/><text fill="#000000" font-family="sans-serif" font-size="12" lengthAdjust="spacingAndGlyphs" textLength="131" x="144.5" y="153.248">CombinedQueryBlock</text><line style="stroke: #A80036; stroke-width: 1.5;" x1="116.5" x2="277.5" y1="165.0938" y2="165.0938"/><text fill="#000000" font-family="sans-serif" font-size="11" lengthAdjust="spacingAndGlyphs" textLength="78" x="121.5" y="179.3042">name : String</text><text fill="#000000" font-family="sans-serif" font-size="11" lengthAdjust="spacingAndGlyphs" textLength="105" x="121.5" y="192.1089">comType : DbType</text><line style="stroke: #A80036; stroke-width: 1.5;" x1="116.5" x2="277.5" y1="198.7031" y2="198.7031"/><!--MD5=[c18457cbec4c267384d22c608b35ce75]
class sqlb.QueryBlock--><rect fill="#FEFECE" filter="url(#fx7r8oigu5zbo)" height="112.0234" id="sqlb.QueryBlock" style="stroke: #A80036; stroke-width: 1.5;" width="181" x="254.5" y="458.0938"/><ellipse cx="306.25" cy="474.0938" fill="#ADD1B2" rx="11" ry="11" style="stroke: #A80036; stroke-width: 1.0;"/><path d="M309.2188,479.7344 Q308.6406,480.0313 308,480.1719 Q307.3594,480.3281 306.6563,480.3281 Q304.1563,480.3281 302.8281,478.6875 Q301.5156,477.0313 301.5156,473.9063 Q301.5156,470.7813 302.8281,469.125 Q304.1563,467.4688 306.6563,467.4688 Q307.3594,467.4688 308,467.625 Q308.6563,467.7813 309.2188,468.0781 L309.2188,470.7969 Q308.5938,470.2188 308,469.9531 Q307.4063,469.6719 306.7813,469.6719 Q305.4375,469.6719 304.75,470.75 Q304.0625,471.8125 304.0625,473.9063 Q304.0625,476 304.75,477.0781 Q305.4375,478.1406 306.7813,478.1406 Q307.4063,478.1406 308,477.875 Q308.5938,477.5938 309.2188,477.0156 L309.2188,479.7344 Z "/><text fill="#000000" font-family="sans-serif" font-size="12" lengthAdjust="spacingAndGlyphs" textLength="69" x="326.75" y="478.248">QueryBlock</text><line style="stroke: #A80036; stroke-width: 1.5;" x1="255.5" x2="434.5" y1="490.0938" y2="490.0938"/><text fill="#000000" font-family="sans-serif" font-size="11" lengthAdjust="spacingAndGlyphs" textLength="115" x="260.5" y="504.3042">genericAlias : String</text><text fill="#000000" font-family="sans-serif" font-size="11" lengthAdjust="spacingAndGlyphs" textLength="153" x="260.5" y="517.1089">typeOfEffect : TypeOfEffect</text><text fill="#000000" font-family="sans-serif" font-size="11" lengthAdjust="spacingAndGlyphs" textLength="128" x="260.5" y="529.9136">orderNumber : Integer</text><text fill="#000000" font-family="sans-serif" font-size="11" lengthAdjust="spacingAndGlyphs" textLength="109" x="260.5" y="542.7183">aliases : Dictionary</text><text fill="#000000" font-family="sans-serif" font-size="11" lengthAdjust="spacingAndGlyphs" textLength="169" x="260.5" y="555.5229">innerQueryBlock : QueryBlock</text><line style="stroke: #A80036; stroke-width: 1.5;" x1="255.5" x2="434.5" y1="562.1172" y2="562.1172"/><!--MD5=[ec3d896b7ce2358954560bb12fb408a8]
class sqlb.SelectElement--><rect fill="#FEFECE" filter="url(#fx7r8oigu5zbo)" height="86.4141" id="sqlb.SelectElement" style="stroke: #A80036; stroke-width: 1.5;" width="127" x="260.5" y="299.0938"/><ellipse cx="277.75" cy="315.0938" fill="#ADD1B2" rx="11" ry="11" style="stroke: #A80036; stroke-width: 1.0;"/><path d="M280.7188,320.7344 Q280.1406,321.0313 279.5,321.1719 Q278.8594,321.3281 278.1563,321.3281 Q275.6563,321.3281 274.3281,319.6875 Q273.0156,318.0313 273.0156,314.9063 Q273.0156,311.7813 274.3281,310.125 Q275.6563,308.4688 278.1563,308.4688 Q278.8594,308.4688 279.5,308.625 Q280.1563,308.7813 280.7188,309.0781 L280.7188,311.7969 Q280.0938,311.2188 279.5,310.9531 Q278.9063,310.6719 278.2813,310.6719 Q276.9375,310.6719 276.25,311.75 Q275.5625,312.8125 275.5625,314.9063 Q275.5625,317 276.25,318.0781 Q276.9375,319.1406 278.2813,319.1406 Q278.9063,319.1406 279.5,318.875 Q280.0938,318.5938 280.7188,318.0156 L280.7188,320.7344 Z "/><text fill="#000000" font-family="sans-serif" font-size="12" lengthAdjust="spacingAndGlyphs" textLength="90" x="292.25" y="319.248">SelectElement</text><line style="stroke: #A80036; stroke-width: 1.5;" x1="261.5" x2="386.5" y1="331.0938" y2="331.0938"/><text fill="#000000" font-family="sans-serif" font-size="11" lengthAdjust="spacingAndGlyphs" textLength="115" x="266.5" y="345.3042">type : SelectionType</text><text fill="#000000" font-family="sans-serif" font-size="11" lengthAdjust="spacingAndGlyphs" textLength="70" x="266.5" y="358.1089">field : String</text><text fill="#000000" font-family="sans-serif" font-size="11" lengthAdjust="spacingAndGlyphs" textLength="102" x="266.5" y="370.9136">case: CaseWhen[]</text><line style="stroke: #A80036; stroke-width: 1.5;" x1="261.5" x2="386.5" y1="377.5078" y2="377.5078"/><!--MD5=[f7969e2bd863557fe455516c5ea3d333]
class sqlb.FromElement--><rect fill="#FEFECE" filter="url(#fx7r8oigu5zbo)" height="86.4141" id="sqlb.FromElement" style="stroke: #A80036; stroke-width: 1.5;" width="181" x="38.5" y="471.0938"/><ellipse cx="83.75" cy="487.0938" fill="#ADD1B2" rx="11" ry="11" style="stroke: #A80036; stroke-width: 1.0;"/><path d="M86.7188,492.7344 Q86.1406,493.0313 85.5,493.1719 Q84.8594,493.3281 84.1563,493.3281 Q81.6563,493.3281 80.3281,491.6875 Q79.0156,490.0313 79.0156,486.9063 Q79.0156,483.7813 80.3281,482.125 Q81.6563,480.4688 84.1563,480.4688 Q84.8594,480.4688 85.5,480.625 Q86.1563,480.7813 86.7188,481.0781 L86.7188,483.7969 Q86.0938,483.2188 85.5,482.9531 Q84.9063,482.6719 84.2813,482.6719 Q82.9375,482.6719 82.25,483.75 Q81.5625,484.8125 81.5625,486.9063 Q81.5625,489 82.25,490.0781 Q82.9375,491.1406 84.2813,491.1406 Q84.9063,491.1406 85.5,490.875 Q86.0938,490.5938 86.7188,490.0156 L86.7188,492.7344 Z "/><text fill="#000000" font-family="sans-serif" font-size="12" lengthAdjust="spacingAndGlyphs" textLength="82" x="104.25" y="491.248">FromElement</text><line style="stroke: #A80036; stroke-width: 1.5;" x1="39.5" x2="218.5" y1="503.0938" y2="503.0938"/><text fill="#000000" font-family="sans-serif" font-size="11" lengthAdjust="spacingAndGlyphs" textLength="74" x="44.5" y="517.3042">table : String</text><text fill="#000000" font-family="sans-serif" font-size="11" lengthAdjust="spacingAndGlyphs" textLength="169" x="44.5" y="530.1089">innerQueryBlock : QueryBlock</text><text fill="#000000" font-family="sans-serif" font-size="11" lengthAdjust="spacingAndGlyphs" textLength="73" x="44.5" y="542.9136">alias : String</text><line style="stroke: #A80036; stroke-width: 1.5;" x1="39.5" x2="218.5" y1="549.5078" y2="549.5078"/><!--MD5=[bbc9b817fd054643baa7ab12d80d0d98]
class sqlb.JoinElement--><rect fill="#FEFECE" filter="url(#fx7r8oigu5zbo)" height="124.8281" id="sqlb.JoinElement" style="stroke: #A80036; stroke-width: 1.5;" width="181" x="488.5" y="451.5938"/><ellipse cx="538.25" cy="467.5938" fill="#ADD1B2" rx="11" ry="11" style="stroke: #A80036; stroke-width: 1.0;"/><path d="M541.2188,473.2344 Q540.6406,473.5313 540,473.6719 Q539.3594,473.8281 538.6563,473.8281 Q536.1563,473.8281 534.8281,472.1875 Q533.5156,470.5313 533.5156,467.4063 Q533.5156,464.2813 534.8281,462.625 Q536.1563,460.9688 538.6563,460.9688 Q539.3594,460.9688 540,461.125 Q540.6563,461.2813 541.2188,461.5781 L541.2188,464.2969 Q540.5938,463.7188 540,463.4531 Q539.4063,463.1719 538.7813,463.1719 Q537.4375,463.1719 536.75,464.25 Q536.0625,465.3125 536.0625,467.4063 Q536.0625,469.5 536.75,470.5781 Q537.4375,471.6406 538.7813,471.6406 Q539.4063,471.6406 540,471.375 Q540.5938,471.0938 541.2188,470.5156 L541.2188,473.2344 Z "/><text fill="#000000" font-family="sans-serif" font-size="12" lengthAdjust="spacingAndGlyphs" textLength="73" x="558.75" y="471.748">JoinElement</text><line style="stroke: #A80036; stroke-width: 1.5;" x1="489.5" x2="668.5" y1="483.5938" y2="483.5938"/><text fill="#000000" font-family="sans-serif" font-size="11" lengthAdjust="spacingAndGlyphs" textLength="83" x="494.5" y="497.8042">type : JoinType</text><text fill="#000000" font-family="sans-serif" font-size="11" lengthAdjust="spacingAndGlyphs" textLength="74" x="494.5" y="510.6089">table : String</text><text fill="#000000" font-family="sans-serif" font-size="11" lengthAdjust="spacingAndGlyphs" textLength="169" x="494.5" y="523.4136">innerQueryBlock : QueryBlock</text><text fill="#000000" font-family="sans-serif" font-size="11" lengthAdjust="spacingAndGlyphs" textLength="121" x="494.5" y="536.2183">domain_alias : String</text><text fill="#000000" font-family="sans-serif" font-size="11" lengthAdjust="spacingAndGlyphs" textLength="112" x="494.5" y="549.0229">range_alias : String</text><text fill="#000000" font-family="sans-serif" font-size="11" lengthAdjust="spacingAndGlyphs" textLength="92" x="494.5" y="561.8276">Cndition : String</text><line style="stroke: #A80036; stroke-width: 1.5;" x1="489.5" x2="668.5" y1="568.4219" y2="568.4219"/><!--MD5=[21e4a4a1ebfa31f9b78808d5c1c35942]
class sqlb.WhereElement--><rect fill="#FEFECE" filter="url(#fx7r8oigu5zbo)" height="73.6094" id="sqlb.WhereElement" style="stroke: #A80036; stroke-width: 1.5;" width="124" x="204" y="636.5938"/><ellipse cx="219.45" cy="652.5938" fill="#ADD1B2" rx="11" ry="11" style="stroke: #A80036; stroke-width: 1.0;"/><path d="M222.4188,658.2344 Q221.8406,658.5313 221.2,658.6719 Q220.5594,658.8281 219.8563,658.8281 Q217.3563,658.8281 216.0281,657.1875 Q214.7156,655.5313 214.7156,652.4063 Q214.7156,649.2813 216.0281,647.625 Q217.3563,645.9688 219.8563,645.9688 Q220.5594,645.9688 221.2,646.125 Q221.8563,646.2813 222.4188,646.5781 L222.4188,649.2969 Q221.7938,648.7188 221.2,648.4531 Q220.6063,648.1719 219.9813,648.1719 Q218.6375,648.1719 217.95,649.25 Q217.2625,650.3125 217.2625,652.4063 Q217.2625,654.5 217.95,655.5781 Q218.6375,656.6406 219.9813,656.6406 Q220.6063,656.6406 221.2,656.375 Q221.7938,656.0938 222.4188,655.5156 L222.4188,658.2344 Z "/><text fill="#000000" font-family="sans-serif" font-size="12" lengthAdjust="spacingAndGlyphs" textLength="91" x="233.55" y="656.748">WhereElement</text><line style="stroke: #A80036; stroke-width: 1.5;" x1="205" x2="327" y1="668.5938" y2="668.5938"/><text fill="#000000" font-family="sans-serif" font-size="11" lengthAdjust="spacingAndGlyphs" textLength="97" x="210" y="682.8042">condition : String</text><text fill="#000000" font-family="sans-serif" font-size="11" lengthAdjust="spacingAndGlyphs" textLength="112" x="210" y="695.6089">operator : Operator</text><line style="stroke: #A80036; stroke-width: 1.5;" x1="205" x2="327" y1="702.2031" y2="702.2031"/><!--MD5=[8552146999f2aa062f6b0da817cf2a3a]
class sqlb.GroupElement--><rect fill="#FEFECE" filter="url(#fx7r8oigu5zbo)" height="60.8047" id="sqlb.GroupElement" style="stroke: #A80036; stroke-width: 1.5;" width="121" x="363.5" y="643.0938"/><ellipse cx="378.5" cy="659.0938" fill="#ADD1B2" rx="11" ry="11" style="stroke: #A80036; stroke-width: 1.0;"/><path d="M381.4688,664.7344 Q380.8906,665.0313 380.25,665.1719 Q379.6094,665.3281 378.9063,665.3281 Q376.4063,665.3281 375.0781,663.6875 Q373.7656,662.0313 373.7656,658.9063 Q373.7656,655.7813 375.0781,654.125 Q376.4063,652.4688 378.9063,652.4688 Q379.6094,652.4688 380.25,652.625 Q380.9063,652.7813 381.4688,653.0781 L381.4688,655.7969 Q380.8438,655.2188 380.25,654.9531 Q379.6563,654.6719 379.0313,654.6719 Q377.6875,654.6719 377,655.75 Q376.3125,656.8125 376.3125,658.9063 Q376.3125,661 377,662.0781 Q377.6875,663.1406 379.0313,663.1406 Q379.6563,663.1406 380.25,662.875 Q380.8438,662.5938 381.4688,662.0156 L381.4688,664.7344 Z "/><text fill="#000000" font-family="sans-serif" font-size="12" lengthAdjust="spacingAndGlyphs" textLength="89" x="392.5" y="663.248">GroupElement</text><line style="stroke: #A80036; stroke-width: 1.5;" x1="364.5" x2="483.5" y1="675.0938" y2="675.0938"/><text fill="#000000" font-family="sans-serif" font-size="11" lengthAdjust="spacingAndGlyphs" textLength="70" x="369.5" y="689.3042">field : String</text><line style="stroke: #A80036; stroke-width: 1.5;" x1="364.5" x2="483.5" y1="695.8984" y2="695.8984"/><!--MD5=[6c82239725c894668a32f4e73efcfe81]
class sqlb.CaseWhen--><rect fill="#FEFECE" filter="url(#fx7r8oigu5zbo)" height="86.4141" id="sqlb.CaseWhen" style="stroke: #A80036; stroke-width: 1.5;" width="98" x="314" y="127.0938"/><ellipse cx="329" cy="143.0938" fill="#ADD1B2" rx="11" ry="11" style="stroke: #A80036; stroke-width: 1.0;"/><path d="M331.9688,148.7344 Q331.3906,149.0313 330.75,149.1719 Q330.1094,149.3281 329.4063,149.3281 Q326.9063,149.3281 325.5781,147.6875 Q324.2656,146.0313 324.2656,142.9063 Q324.2656,139.7813 325.5781,138.125 Q326.9063,136.4688 329.4063,136.4688 Q330.1094,136.4688 330.75,136.625 Q331.4063,136.7813 331.9688,137.0781 L331.9688,139.7969 Q331.3438,139.2188 330.75,138.9531 Q330.1563,138.6719 329.5313,138.6719 Q328.1875,138.6719 327.5,139.75 Q326.8125,140.8125 326.8125,142.9063 Q326.8125,145 327.5,146.0781 Q328.1875,147.1406 329.5313,147.1406 Q330.1563,147.1406 330.75,146.875 Q331.3438,146.5938 331.9688,146.0156 L331.9688,148.7344 Z "/><text fill="#000000" font-family="sans-serif" font-size="12" lengthAdjust="spacingAndGlyphs" textLength="66" x="343" y="147.248">CaseWhen</text><line style="stroke: #A80036; stroke-width: 1.5;" x1="315" x2="411" y1="159.0938" y2="159.0938"/><text fill="#000000" font-family="sans-serif" font-size="11" lengthAdjust="spacingAndGlyphs" textLength="76" x="320" y="173.3042">when : String</text><text fill="#000000" font-family="sans-serif" font-size="11" lengthAdjust="spacingAndGlyphs" textLength="71" x="320" y="186.1089">then : String</text><text fill="#000000" font-family="sans-serif" font-size="11" lengthAdjust="spacingAndGlyphs" textLength="66" x="320" y="198.9136">else: String</text><line style="stroke: #A80036; stroke-width: 1.5;" x1="315" x2="411" y1="205.5078" y2="205.5078"/><!--MD5=[41886f93d666bda1f3933caa4d034e05]
class sqlb.DbType--><rect fill="#FEFECE" filter="url(#fx7r8oigu5zbo)" height="73.6094" id="sqlb.DbType" style="stroke: #A80036; stroke-width: 1.5;" width="78" x="447" y="133.0938"/><ellipse cx="462" cy="149.0938" fill="#EB937F" rx="11" ry="11" style="stroke: #A80036; stroke-width: 1.0;"/><path d="M466.1094,155.0938 L458.3906,155.0938 L458.3906,142.7031 L466.1094,142.7031 L466.1094,144.8594 L460.8438,144.8594 L460.8438,147.5313 L465.6094,147.5313 L465.6094,149.6875 L460.8438,149.6875 L460.8438,152.9375 L466.1094,152.9375 L466.1094,155.0938 Z "/><text fill="#000000" font-family="sans-serif" font-size="12" lengthAdjust="spacingAndGlyphs" textLength="46" x="476" y="153.248">DbType</text><line style="stroke: #A80036; stroke-width: 1.5;" x1="448" x2="524" y1="165.0938" y2="165.0938"/><text fill="#000000" font-family="sans-serif" font-size="11" lengthAdjust="spacingAndGlyphs" textLength="61" x="453" y="179.3042">postgresql</text><text fill="#000000" font-family="sans-serif" font-size="11" lengthAdjust="spacingAndGlyphs" textLength="49" x="453" y="192.1089">oracledb</text><line style="stroke: #A80036; stroke-width: 1.5;" x1="448" x2="524" y1="198.7031" y2="198.7031"/><!--MD5=[bd57b2625cb1d3e060be693cf7ea696b]
class sqlb.TypeOfEffect--><rect fill="#FEFECE" filter="url(#fx7r8oigu5zbo)" height="124.8281" id="sqlb.TypeOfEffect" style="stroke: #A80036; stroke-width: 1.5;" width="110" x="560" y="107.5938"/><ellipse cx="575" cy="123.5938" fill="#EB937F" rx="11" ry="11" style="stroke: #A80036; stroke-width: 1.0;"/><path d="M579.1094,129.5938 L571.3906,129.5938 L571.3906,117.2031 L579.1094,117.2031 L579.1094,119.3594 L573.8438,119.3594 L573.8438,122.0313 L578.6094,122.0313 L578.6094,124.1875 L573.8438,124.1875 L573.8438,127.4375 L579.1094,127.4375 L579.1094,129.5938 Z "/><text fill="#000000" font-family="sans-serif" font-size="12" lengthAdjust="spacingAndGlyphs" textLength="78" x="589" y="127.748">TypeOfEffect</text><line style="stroke: #A80036; stroke-width: 1.5;" x1="561" x2="669" y1="139.5938" y2="139.5938"/><text fill="#000000" font-family="sans-serif" font-size="11" lengthAdjust="spacingAndGlyphs" textLength="63" x="566" y="153.8042">Ontological</text><text fill="#000000" font-family="sans-serif" font-size="11" lengthAdjust="spacingAndGlyphs" textLength="39" x="566" y="166.6089">Spatial</text><text fill="#000000" font-family="sans-serif" font-size="11" lengthAdjust="spacingAndGlyphs" textLength="53" x="566" y="179.4136">Semantic</text><text fill="#000000" font-family="sans-serif" font-size="11" lengthAdjust="spacingAndGlyphs" textLength="54" x="566" y="192.2183">Temporal</text><text fill="#000000" font-family="sans-serif" font-size="11" lengthAdjust="spacingAndGlyphs" textLength="34" x="566" y="205.0229">Visual</text><text fill="#000000" font-family="sans-serif" font-size="11" lengthAdjust="spacingAndGlyphs" textLength="64" x="566" y="217.8276">Topological</text><line style="stroke: #A80036; stroke-width: 1.5;" x1="561" x2="669" y1="224.4219" y2="224.4219"/><!--MD5=[2edacf8575a95646aab037f643558882]
class sqlb.SelectionType--><rect fill="#FEFECE" filter="url(#fx7r8oigu5zbo)" height="73.6094" id="sqlb.SelectionType" style="stroke: #A80036; stroke-width: 1.5;" width="119" x="422.5" y="305.0938"/><ellipse cx="437.5" cy="321.0938" fill="#EB937F" rx="11" ry="11" style="stroke: #A80036; stroke-width: 1.0;"/><path d="M441.6094,327.0938 L433.8906,327.0938 L433.8906,314.7031 L441.6094,314.7031 L441.6094,316.8594 L436.3438,316.8594 L436.3438,319.5313 L441.1094,319.5313 L441.1094,321.6875 L436.3438,321.6875 L436.3438,324.9375 L441.6094,324.9375 L441.6094,327.0938 Z "/><text fill="#000000" font-family="sans-serif" font-size="12" lengthAdjust="spacingAndGlyphs" textLength="87" x="451.5" y="325.248">SelectionType</text><line style="stroke: #A80036; stroke-width: 1.5;" x1="423.5" x2="540.5" y1="337.0938" y2="337.0938"/><text fill="#000000" font-family="sans-serif" font-size="11" lengthAdjust="spacingAndGlyphs" textLength="24" x="428.5" y="351.3042">field</text><text fill="#000000" font-family="sans-serif" font-size="11" lengthAdjust="spacingAndGlyphs" textLength="61" x="428.5" y="364.1089">case-when</text><line style="stroke: #A80036; stroke-width: 1.5;" x1="423.5" x2="540.5" y1="370.7031" y2="370.7031"/><!--MD5=[65228ebb673ddb8b696e3a2401a2d8c9]
class sqlb.JoinType--><rect fill="#FEFECE" filter="url(#fx7r8oigu5zbo)" height="99.2188" id="sqlb.JoinType" style="stroke: #A80036; stroke-width: 1.5;" width="83" x="576.5" y="292.5938"/><ellipse cx="591.5" cy="308.5938" fill="#EB937F" rx="11" ry="11" style="stroke: #A80036; stroke-width: 1.0;"/><path d="M595.6094,314.5938 L587.8906,314.5938 L587.8906,302.2031 L595.6094,302.2031 L595.6094,304.3594 L590.3438,304.3594 L590.3438,307.0313 L595.1094,307.0313 L595.1094,309.1875 L590.3438,309.1875 L590.3438,312.4375 L595.6094,312.4375 L595.6094,314.5938 Z "/><text fill="#000000" font-family="sans-serif" font-size="12" lengthAdjust="spacingAndGlyphs" textLength="51" x="605.5" y="312.748">JoinType</text><line style="stroke: #A80036; stroke-width: 1.5;" x1="577.5" x2="658.5" y1="324.5938" y2="324.5938"/><text fill="#000000" font-family="sans-serif" font-size="11" lengthAdjust="spacingAndGlyphs" textLength="21" x="582.5" y="338.8042">Left</text><text fill="#000000" font-family="sans-serif" font-size="11" lengthAdjust="spacingAndGlyphs" textLength="28" x="582.5" y="351.6089">Right</text><text fill="#000000" font-family="sans-serif" font-size="11" lengthAdjust="spacingAndGlyphs" textLength="29" x="582.5" y="364.4136">Inner</text><text fill="#000000" font-family="sans-serif" font-size="11" lengthAdjust="spacingAndGlyphs" textLength="19" x="582.5" y="377.2183">Full</text><line style="stroke: #A80036; stroke-width: 1.5;" x1="577.5" x2="658.5" y1="383.8125" y2="383.8125"/><!--MD5=[3605377810e72e88c9d027f873e93905]
link sqlb.CombinedQueryBlock to sqlb.QueryBlock--><path d="M200.2278,219.1425 C200.2278,219.1425 216.26,336.5238 243,391.5938 C252.56,411.2938 266.02,430.4738 280.04,447.5538 " fill="none" id="sqlb.CombinedQueryBlock-sqlb.QueryBlock" style="stroke: #A80036; stroke-width: 1.0;"/><polygon fill="#A80036" points="288.81,457.9138,286.0428,448.4616,285.5773,454.0993,279.9397,453.6339,288.81,457.9138" style="stroke: #A80036; stroke-width: 1.0;"/><line style="stroke: #A80036; stroke-width: 1.0;" x1="285.5773" x2="280.405" y1="454.0993" y2="447.9888"/><polygon fill="#A80036" points="199.12,207.1938,195.691,213.5374,200.2278,219.1425,203.6568,212.7988,199.12,207.1938" style="stroke: #A80036; stroke-width: 1.0;"/><text fill="#000000" font-family="sans-serif" font-size="13" lengthAdjust="spacingAndGlyphs" textLength="8" x="190.8086" y="226.6909">1</text><text fill="#000000" font-family="sans-serif" font-size="13" lengthAdjust="spacingAndGlyphs" textLength="7" x="274.5353" y="447.2263">*</text><!--MD5=[75ca98bf1b3279fa978a2fc7986f3ec4]
link sqlb.QueryBlock to sqlb.QueryBlock--><path d="M435.53,485.2238 C455.75,487.8837 470.5,497.5037 470.5,514.0938 C470.5,530.6838 455.75,540.3038 435.53,542.9638 " fill="none" id="sqlb.QueryBlock-sqlb.QueryBlock" style="stroke: #A80036; stroke-width: 1.0;"/><text fill="#000000" font-family="sans-serif" font-size="13" lengthAdjust="spacingAndGlyphs" textLength="7" x="443.6107" y="495.4589">*</text><text fill="#000000" font-family="sans-serif" font-size="13" lengthAdjust="spacingAndGlyphs" textLength="24" x="443.38" y="541.671">0..1</text><!--MD5=[b8a54d2501747365094286fd3cf2fe48]
link sqlb.SelectElement to sqlb.QueryBlock--><path d="M330.82,398.2738 C332.65,413.1038 336.7246,446.1648 336.7246,446.1648 " fill="none" id="sqlb.SelectElement-sqlb.QueryBlock" style="stroke: #A80036; stroke-width: 1.0;"/><polygon fill="#FFFFFF" points="338.2,458.0738,341.4319,451.6275,336.7246,446.1648,333.4926,452.6111,338.2,458.0738" style="stroke: #A80036; stroke-width: 1.0;"/><polygon fill="#A80036" points="329.19,385.1138,326.3179,394.5345,329.8,390.0764,334.2582,393.5585,329.19,385.1138" style="stroke: #A80036; stroke-width: 1.0;"/><line style="stroke: #A80036; stroke-width: 1.0;" x1="329.8" x2="330.785" y1="390.0764" y2="398.0188"/><text fill="#000000" font-family="sans-serif" font-size="13" lengthAdjust="spacingAndGlyphs" textLength="7" x="322.4699" y="405.5247">*</text><text fill="#000000" font-family="sans-serif" font-size="13" lengthAdjust="spacingAndGlyphs" textLength="24" x="311.7913" y="447.0092">0..1</text><!--MD5=[4fe8635cb6d91640ce4707ebe088ff1a]
link sqlb.FromElement to sqlb.QueryBlock--><path d="M232.73,546.2938 C235.56,546.3638 242.4719,546.2285 242.4719,546.2285 " fill="none" id="sqlb.FromElement-sqlb.QueryBlock" style="stroke: #A80036; stroke-width: 1.0;"/><polygon fill="#FFFFFF" points="254.45,545.5038,248.2194,541.8734,242.4719,546.2285,248.7025,549.8588,254.45,545.5038" style="stroke: #A80036; stroke-width: 1.0;"/><polygon fill="#A80036" points="219.7,545.5138,228.447,550.0404,224.6912,545.8103,228.9214,542.0545,219.7,545.5138" style="stroke: #A80036; stroke-width: 1.0;"/><line style="stroke: #A80036; stroke-width: 1.0;" x1="224.6912" x2="232.68" y1="545.8103" y2="546.2887"/><text fill="#000000" font-family="sans-serif" font-size="13" lengthAdjust="spacingAndGlyphs" textLength="7" x="227.5009" y="544.5499">*</text><text fill="#000000" font-family="sans-serif" font-size="13" lengthAdjust="spacingAndGlyphs" textLength="24" x="227.3834" y="545.5656">0..1</text><!--MD5=[4fe8635cb6d91640ce4707ebe088ff1a]
link sqlb.FromElement to sqlb.QueryBlock--><path d="M231.6789,481.9621 C231.6789,481.9621 238.39,481.8238 241.22,481.8938 " fill="none" id="sqlb.FromElement-sqlb.QueryBlock-1" style="stroke: #A80036; stroke-width: 1.0;"/><polygon fill="#A80036" points="254.45,482.6838,245.708,478.1475,249.4591,482.3818,245.2248,486.1329,254.45,482.6838" style="stroke: #A80036; stroke-width: 1.0;"/><line style="stroke: #A80036; stroke-width: 1.0;" x1="249.4591" x2="241.475" y1="482.3818" y2="481.9088"/><polygon fill="#FFFFFF" points="219.7,482.6738,225.9266,486.3109,231.6789,481.9621,225.4522,478.325,219.7,482.6738" style="stroke: #A80036; stroke-width: 1.0;"/><text fill="#000000" font-family="sans-serif" font-size="13" lengthAdjust="spacingAndGlyphs" textLength="8" x="227.5423" y="476.5059">1</text><text fill="#000000" font-family="sans-serif" font-size="13" lengthAdjust="spacingAndGlyphs" textLength="7" x="239.3676" y="476.4115">*</text><!--MD5=[82e9743b5ef776b939cbed43b83115b6]
link sqlb.QueryBlock to sqlb.JoinElement--><path d="M447.8653,555.4373 C447.8653,555.4373 466.73,556.2638 475.55,555.5338 " fill="none" id="sqlb.QueryBlock-sqlb.JoinElement" style="stroke: #A80036; stroke-width: 1.0;"/><polygon fill="#A80036" points="488.48,553.9438,479.0592,551.0717,483.5174,554.5538,480.0353,559.0119,488.48,553.9438" style="stroke: #A80036; stroke-width: 1.0;"/><line style="stroke: #A80036; stroke-width: 1.0;" x1="483.5174" x2="475.575" y1="554.5538" y2="555.5288"/><polygon fill="#FFFFFF" points="435.95,554.0138,441.4331,558.6973,447.8653,555.4373,442.3821,550.7537,435.95,554.0138" style="stroke: #A80036; stroke-width: 1.0;"/><text fill="#000000" font-family="sans-serif" font-size="13" lengthAdjust="spacingAndGlyphs" textLength="24" x="443.5104" y="569.5671">0..1</text><text fill="#000000" font-family="sans-serif" font-size="13" lengthAdjust="spacingAndGlyphs" textLength="7" x="473.4002" y="553.8038">*</text><!--MD5=[265b473d2bc0e00b73705859a5ff5559]
link sqlb.JoinElement to sqlb.QueryBlock--><path d="M476.5696,472.7797 C476.5696,472.7797 457.9,471.9038 449.08,472.6038 " fill="none" id="sqlb.JoinElement-sqlb.QueryBlock" style="stroke: #A80036; stroke-width: 1.0;"/><polygon fill="#A80036" points="435.95,474.1738,445.361,477.0779,440.9147,473.5806,444.4119,469.1344,435.95,474.1738" style="stroke: #A80036; stroke-width: 1.0;"/><line style="stroke: #A80036; stroke-width: 1.0;" x1="440.9147" x2="448.86" y1="473.5806" y2="472.6337"/><polygon fill="#FFFFFF" points="488.48,474.2438,483.0128,469.5416,476.5696,472.7797,482.0368,477.4818,488.48,474.2438" style="stroke: #A80036; stroke-width: 1.0;"/><text fill="#000000" font-family="sans-serif" font-size="13" lengthAdjust="spacingAndGlyphs" textLength="8" x="472.3572" y="467.2546">1</text><text fill="#000000" font-family="sans-serif" font-size="13" lengthAdjust="spacingAndGlyphs" textLength="7" x="443.4765" y="467.4662">*</text><!--MD5=[36672e1a59e2b40f82ba7d4f8a595f95]
link sqlb.QueryBlock to sqlb.WhereElement--><path d="M311.9929,580.9116 C311.9929,580.9116 296.8,611.1938 290.05,624.6438 " fill="none" id="sqlb.QueryBlock-sqlb.WhereElement" style="stroke: #A80036; stroke-width: 1.0;"/><polygon fill="#A80036" points="284.09,636.5338,291.7019,630.284,286.3327,632.0649,284.5517,626.6957,284.09,636.5338" style="stroke: #A80036; stroke-width: 1.0;"/><line style="stroke: #A80036; stroke-width: 1.0;" x1="286.3327" x2="289.915" y1="632.0649" y2="624.9137"/><polygon fill="#FFFFFF" points="317.37,570.1838,311.1055,573.7553,311.9929,580.9116,318.2574,577.34,317.37,570.1838" style="stroke: #A80036; stroke-width: 1.0;"/><text fill="#000000" font-family="sans-serif" font-size="13" lengthAdjust="spacingAndGlyphs" textLength="24" x="288.5401" y="590.0073">0..1</text><text fill="#000000" font-family="sans-serif" font-size="13" lengthAdjust="spacingAndGlyphs" textLength="7" x="279.78" y="625.4331">*</text><!--MD5=[bff4530dab5037584e3fc883a850d2dd]
link sqlb.QueryBlock to sqlb.GroupElement--><path d="M378.0071,580.9116 C378.0071,580.9116 395.57,615.9137 403.12,630.9638 " fill="none" id="sqlb.QueryBlock-sqlb.GroupElement" style="stroke: #A80036; stroke-width: 1.0;"/><polygon fill="#A80036" points="409.15,642.9838,408.6883,633.1457,406.9073,638.5149,401.5381,636.734,409.15,642.9838" style="stroke: #A80036; stroke-width: 1.0;"/><line style="stroke: #A80036; stroke-width: 1.0;" x1="406.9073" x2="403.315" y1="638.5149" y2="631.3638"/><polygon fill="#FFFFFF" points="372.63,570.1838,371.7426,577.34,378.0071,580.9116,378.8945,573.7553,372.63,570.1838" style="stroke: #A80036; stroke-width: 1.0;"/><text fill="#000000" font-family="sans-serif" font-size="13" lengthAdjust="spacingAndGlyphs" textLength="24" x="350.5349" y="590.0073">0..1</text><text fill="#000000" font-family="sans-serif" font-size="13" lengthAdjust="spacingAndGlyphs" textLength="7" x="398.3653" y="632.2243">*</text><!--MD5=[1d4744a5e0ae0df12fc3984adf32cc10]
link sqlb.CaseWhen to sqlb.DbType--><!--MD5=[4307e849f0c56039f2ca8eb022d253bc]
link sqlb.DbType to sqlb.TypeOfEffect--><!--MD5=[0135133119d38d08ec092ba010e13573]
link sqlb.CaseWhen to sqlb.SelectionType--><!--MD5=[7c98469a78febcdb665fb7eeaac87150]
link sqlb.SelectionType to sqlb.JoinType--><text fill="#0000FF" font-family="sans-serif" font-size="10" lengthAdjust="spacingAndGlyphs" textLength="54" x="462" y="761.876">31.10.2025</text><!--MD5=[c612d8429f41934961e9015a4a304ef7]
@startuml
title UML Class Diagram 
header
<font color=red>sqlb is not tested yet</font>
endheader
footer
<font color=blue>31.10.2025</font>
endfooter

namespace advs <<Advise>> {
	class Advisement {
		usedCommandSet : String
		maximumFeaturePerTile : Integer
		- - -
		to_oneline_command()
		to_yaml()
	}
}

namespace sqlb <<SQL Blocks>> {
	class CombinedQueryBlock {
		name : String
		comType : DbType
	}
	CombinedQueryBlock "1" *- -down-> "*" QueryBlock

	class QueryBlock {
		genericAlias : String
		typeOfEffect : TypeOfEffect
		orderNumber : Integer
		aliases : Dictionary
		innerQueryBlock : QueryBlock
	}
	QueryBlock "0..1" -left- "*" QueryBlock
	QueryBlock "0..1" o-up-> "*" SelectElement
	QueryBlock "0..1" o-up-> "*" FromElement
	QueryBlock "0..1" o-right-> "*" JoinElement
	QueryBlock "0..1" o-down-> "*" WhereElement
	QueryBlock "0..1" o-down-> "*" GroupElement

	class SelectElement {
		type : SelectionType
		field : String
		case: CaseWhen[]
	}

	class FromElement {
		table : String
		innerQueryBlock : QueryBlock
		alias : String
	}
	FromElement "1" o-> "*" QueryBlock

	class JoinElement {
		type : JoinType
		table : String
		innerQueryBlock : QueryBlock
		domain_alias : String
		range_alias : String
		Cndition : String
	}
	JoinElement "1" o-> "*" QueryBlock

	class WhereElement {
		condition : String
		operator : Operator
	}

	class GroupElement {
		field : String
	}

	class CaseWhen {
		when : String
		then : String
		else: String
	}

	enum DbType {
		postgresql
		oracledb
	}

	enum TypeOfEffect {
		Ontological
		Spatial
		Semantic
		Temporal
		Visual
		Topological
	}

	enum SelectionType {
		field
		case-when
	}

	enum JoinType {
		Left
		Right
		Inner
		Full
	}
}
@enduml

PlantUML version 1.2020.02(Sun Mar 01 11:22:07 CET 2020)
(GPL source distribution)
Java Runtime: OpenJDK Runtime Environment
JVM: OpenJDK 64-Bit Server VM
Java Version: 21.0.8+9-Ubuntu-0ubuntu124.04.1
Operating System: Linux
Default Encoding: UTF-8
Language: en
Country: US
--></g></svg>