<?xml version="1.0" encoding="UTF-8" standalone="no"?><svg xmlns="http://www.w3.org/2000/svg" xmlns:xlink="http://www.w3.org/1999/xlink" contentScriptType="application/ecmascript" contentStyleType="text/css" height="965px" preserveAspectRatio="none" style="width:1561px;height:965px;" version="1.1" viewBox="0 0 1561 965" width="1561px" zoomAndPan="magnify"><defs/><g><text fill="#FF0000" font-family="Helvetica" font-size="10" lengthAdjust="spacingAndGlyphs" textLength="117" x="1432" y="9.2822">Last Check : 06.11.2025</text><text fill="#000000" font-family="Helvetica" font-size="36" font-weight="bold" lengthAdjust="spacingAndGlyphs" textLength="390" x="579.5" y="45.0566">UML Class Diagram</text><!--MD5=[3bba2e11fb0bcc18628c32de96d9320e]
cluster advs--><polygon fill="#FFFFFF" points="1281,90.5469,1324,90.5469,1331,112.8438,1515,112.8438,1515,289.5469,1281,289.5469,1281,90.5469" style="stroke: #000000; stroke-width: 1.5;"/><line style="stroke: #000000; stroke-width: 1.5;" x1="1281" x2="1331" y1="112.8438" y2="112.8438"/><text fill="#000000" font-family="Helvetica" font-size="14" font-weight="bold" lengthAdjust="spacingAndGlyphs" textLength="37" x="1285" y="105.542">advs</text><text fill="#000000" font-family="Helvetica" font-size="14" font-style="italic" lengthAdjust="spacingAndGlyphs" textLength="64" x="1370" y="127.8389">«Advise»</text><!--MD5=[38ea690d6de6cae03e3c90d8eb8ed2bb]
cluster sqlb--><polygon fill="#FFFFFF" points="22,77.5469,61,77.5469,68,99.8438,1257,99.8438,1257,953.5469,22,953.5469,22,77.5469" style="stroke: #000000; stroke-width: 1.5;"/><line style="stroke: #000000; stroke-width: 1.5;" x1="22" x2="68" y1="99.8438" y2="99.8438"/><text fill="#000000" font-family="Helvetica" font-size="14" font-weight="bold" lengthAdjust="spacingAndGlyphs" textLength="33" x="26" y="92.542">sqlb</text><text fill="#000000" font-family="Helvetica" font-size="14" font-style="italic" lengthAdjust="spacingAndGlyphs" textLength="95" x="596" y="114.8389">«SQL Blocks»</text><!--MD5=[8e739cdd9138556ecb1060d388508b98]
class advs.Advisement--><rect fill="#FFFFFF" height="97.2188" id="advs.Advisement" rx="7" ry="7" style="stroke: #808080; stroke-width: 0.5;" width="202" x="1297" y="176.5469"/><ellipse cx="1342" cy="191.5469" fill="#ADD1B2" rx="10" ry="10" style="stroke: #808080; stroke-width: 1.0;"/><path d="M1343.8281,195.7969 Q1343.4219,196 1342.9688,196.1094 Q1342.5156,196.2188 1342.0313,196.2188 Q1340.25,196.2188 1339.3125,195.0625 Q1338.3906,193.8906 1338.3906,191.6875 Q1338.3906,189.4688 1339.3125,188.3125 Q1340.25,187.1406 1342.0313,187.1406 Q1342.5156,187.1406 1342.9688,187.25 Q1343.4375,187.3438 1343.8281,187.5625 L1343.8281,189.4844 Q1343.3906,189.0781 1342.9688,188.8906 Q1342.5469,188.6875 1342.1094,188.6875 Q1341.1563,188.6875 1340.6719,189.4531 Q1340.1875,190.2031 1340.1875,191.6875 Q1340.1875,193.1563 1340.6719,193.9063 Q1341.1563,194.6563 1342.1094,194.6563 Q1342.5469,194.6563 1342.9688,194.4688 Q1343.3906,194.2813 1343.8281,193.875 L1343.8281,195.7969 Z "/><text fill="#000000" font-family="Helvetica" font-size="16" font-weight="bold" lengthAdjust="spacingAndGlyphs" textLength="104" x="1361" y="197.0859">Advisement</text><line style="stroke: #808080; stroke-width: 1.5;" x1="1298" x2="1498" y1="206.5469" y2="206.5469"/><text fill="#000000" font-family="Helvetica" font-size="11" lengthAdjust="spacingAndGlyphs" textLength="151" x="1322.5" y="220.7573">usedCommandSet : String</text><text fill="#000000" font-family="Helvetica" font-size="11" lengthAdjust="spacingAndGlyphs" textLength="190" x="1303" y="233.562">maximumFeaturePerTile : Integer</text><line style="stroke: #808080; stroke-width: 1.0;" x1="1298" x2="1498" y1="240.1563" y2="240.1563"/><text fill="#000000" font-family="Helvetica" font-size="11" lengthAdjust="spacingAndGlyphs" textLength="128" x="1334" y="254.3667">to_oneline_command()</text><text fill="#000000" font-family="Helvetica" font-size="11" lengthAdjust="spacingAndGlyphs" textLength="52" x="1372" y="267.1714">to_yaml()</text><!--MD5=[b48412dfeeac0ccba29a0d41cd4d653b]
class sqlb.CombinedQueryBlocks--><rect fill="#FFFFFF" height="84.4141" id="sqlb.CombinedQueryBlocks" rx="7" ry="7" style="stroke: #808080; stroke-width: 0.5;" width="229" x="601.5" y="183.0469"/><ellipse cx="615.5" cy="198.0469" fill="#ADD1B2" rx="10" ry="10" style="stroke: #808080; stroke-width: 1.0;"/><path d="M617.3281,202.2969 Q616.9219,202.5 616.4688,202.6094 Q616.0156,202.7188 615.5313,202.7188 Q613.75,202.7188 612.8125,201.5625 Q611.8906,200.3906 611.8906,198.1875 Q611.8906,195.9688 612.8125,194.8125 Q613.75,193.6406 615.5313,193.6406 Q616.0156,193.6406 616.4688,193.75 Q616.9375,193.8438 617.3281,194.0625 L617.3281,195.9844 Q616.8906,195.5781 616.4688,195.3906 Q616.0469,195.1875 615.6094,195.1875 Q614.6563,195.1875 614.1719,195.9531 Q613.6875,196.7031 613.6875,198.1875 Q613.6875,199.6563 614.1719,200.4063 Q614.6563,201.1563 615.6094,201.1563 Q616.0469,201.1563 616.4688,200.9688 Q616.8906,200.7813 617.3281,200.375 L617.3281,202.2969 Z "/><text fill="#000000" font-family="Helvetica" font-size="16" font-weight="bold" lengthAdjust="spacingAndGlyphs" textLength="199" x="628.5" y="203.5859">CombinedQueryBlocks</text><line style="stroke: #808080; stroke-width: 1.5;" x1="602.5" x2="829.5" y1="213.0469" y2="213.0469"/><text fill="#000000" font-family="Helvetica" font-size="11" lengthAdjust="spacingAndGlyphs" textLength="78" x="621" y="227.2573">name : String</text><text fill="#000000" font-family="Helvetica" font-size="11" lengthAdjust="spacingAndGlyphs" textLength="105" x="607.5" y="240.062">comType : DbType</text><line style="stroke: #808080; stroke-width: 1.0;" x1="602.5" x2="829.5" y1="246.6563" y2="246.6563"/><text fill="#000000" font-family="Helvetica" font-size="11" lengthAdjust="spacingAndGlyphs" textLength="56" x="632" y="260.8667">__repr__()</text><!--MD5=[9c9a80b1da4080869733d854fcdfabd6]
class sqlb.AbstractQueryBlock--><rect fill="#FFFFFF" height="161.2422" id="sqlb.AbstractQueryBlock" rx="7" ry="7" style="stroke: #808080; stroke-width: 0.5;" width="208" x="612" y="465.5469"/><ellipse cx="626" cy="480.5469" fill="#A9DCDF" rx="10" ry="10" style="stroke: #808080; stroke-width: 1.0;"/><path d="M625.6094,477.625 L624.7969,481.2031 L626.4375,481.2031 L625.6094,477.625 Z M624.5625,476.0469 L626.6719,476.0469 L629.0313,484.7969 L627.2969,484.7969 L626.7656,482.6406 L624.4531,482.6406 L623.9219,484.7969 L622.1875,484.7969 L624.5625,476.0469 Z "/><text fill="#000000" font-family="Helvetica" font-size="16" font-style="italic" font-weight="bold" lengthAdjust="spacingAndGlyphs" textLength="178" x="639" y="486.0859">AbstractQueryBlock</text><line style="stroke: #808080; stroke-width: 1.5;" x1="613" x2="819" y1="495.5469" y2="495.5469"/><text fill="#000000" font-family="Helvetica" font-size="11" lengthAdjust="spacingAndGlyphs" textLength="78" x="660.5" y="509.7573">name : String</text><text fill="#000000" font-family="Helvetica" font-size="11" lengthAdjust="spacingAndGlyphs" textLength="112" x="643.5" y="522.562">range_alias : String</text><text fill="#000000" font-family="Helvetica" font-size="11" lengthAdjust="spacingAndGlyphs" textLength="163" x="618" y="535.3667">type_of_effect : TypeOfEffect</text><text fill="#000000" font-family="Helvetica" font-size="11" lengthAdjust="spacingAndGlyphs" textLength="133" x="633" y="548.1714">order_number : Integer</text><text fill="#000000" font-family="Helvetica" font-size="11" lengthAdjust="spacingAndGlyphs" textLength="109" x="645" y="560.9761">description : String</text><text fill="#000000" font-family="Helvetica" font-size="11" lengthAdjust="spacingAndGlyphs" textLength="143" x="628" y="573.7808">domain_aliases : String[]</text><text fill="#000000" font-family="Helvetica" font-size="11" lengthAdjust="spacingAndGlyphs" textLength="145" x="627" y="586.5854">header_comment : String</text><text fill="#000000" font-family="Helvetica" font-size="11" lengthAdjust="spacingAndGlyphs" textLength="139" x="630" y="599.3901">footer_comment : String</text><line style="stroke: #808080; stroke-width: 1.0;" x1="613" x2="819" y1="605.9844" y2="605.9844"/><text fill="#000000" font-family="Helvetica" font-size="11" lengthAdjust="spacingAndGlyphs" textLength="56" x="671.5" y="620.1948">__repr__()</text><!--MD5=[ec3d896b7ce2358954560bb12fb408a8]
class sqlb.SelectElement--><rect fill="#FFFFFF" height="110.0234" id="sqlb.SelectElement" rx="7" ry="7" style="stroke: #808080; stroke-width: 0.5;" width="156" x="38" y="673.5469"/><ellipse cx="52" cy="688.5469" fill="#ADD1B2" rx="10" ry="10" style="stroke: #808080; stroke-width: 1.0;"/><path d="M53.8281,692.7969 Q53.4219,693 52.9688,693.1094 Q52.5156,693.2188 52.0313,693.2188 Q50.25,693.2188 49.3125,692.0625 Q48.3906,690.8906 48.3906,688.6875 Q48.3906,686.4688 49.3125,685.3125 Q50.25,684.1406 52.0313,684.1406 Q52.5156,684.1406 52.9688,684.25 Q53.4375,684.3438 53.8281,684.5625 L53.8281,686.4844 Q53.3906,686.0781 52.9688,685.8906 Q52.5469,685.6875 52.1094,685.6875 Q51.1563,685.6875 50.6719,686.4531 Q50.1875,687.2031 50.1875,688.6875 Q50.1875,690.1563 50.6719,690.9063 Q51.1563,691.6563 52.1094,691.6563 Q52.5469,691.6563 52.9688,691.4688 Q53.3906,691.2813 53.8281,690.875 L53.8281,692.7969 Z "/><text fill="#000000" font-family="Helvetica" font-size="16" font-weight="bold" lengthAdjust="spacingAndGlyphs" textLength="126" x="65" y="694.0859">SelectElement</text><line style="stroke: #808080; stroke-width: 1.5;" x1="39" x2="193" y1="703.5469" y2="703.5469"/><text fill="#000000" font-family="Helvetica" font-size="11" lengthAdjust="spacingAndGlyphs" textLength="115" x="47" y="717.7573">type : SelectionType</text><text fill="#000000" font-family="Helvetica" font-size="11" lengthAdjust="spacingAndGlyphs" textLength="70" x="69.5" y="730.562">field : String</text><text fill="#000000" font-family="Helvetica" font-size="11" lengthAdjust="spacingAndGlyphs" textLength="121" x="44" y="743.3667">domain_alias : String</text><text fill="#000000" font-family="Helvetica" font-size="11" lengthAdjust="spacingAndGlyphs" textLength="112" x="48.5" y="756.1714">range_alias : String</text><line style="stroke: #808080; stroke-width: 1.0;" x1="39" x2="193" y1="762.7656" y2="762.7656"/><text fill="#000000" font-family="Helvetica" font-size="11" lengthAdjust="spacingAndGlyphs" textLength="56" x="76.5" y="776.9761">__repr__()</text><!--MD5=[f7969e2bd863557fe455516c5ea3d333]
class sqlb.FromElement--><rect fill="#FFFFFF" height="84.4141" id="sqlb.FromElement" rx="7" ry="7" style="stroke: #808080; stroke-width: 0.5;" width="146" x="273" y="834.0469"/><ellipse cx="287" cy="849.0469" fill="#ADD1B2" rx="10" ry="10" style="stroke: #808080; stroke-width: 1.0;"/><path d="M288.8281,853.2969 Q288.4219,853.5 287.9688,853.6094 Q287.5156,853.7188 287.0313,853.7188 Q285.25,853.7188 284.3125,852.5625 Q283.3906,851.3906 283.3906,849.1875 Q283.3906,846.9688 284.3125,845.8125 Q285.25,844.6406 287.0313,844.6406 Q287.5156,844.6406 287.9688,844.75 Q288.4375,844.8438 288.8281,845.0625 L288.8281,846.9844 Q288.3906,846.5781 287.9688,846.3906 Q287.5469,846.1875 287.1094,846.1875 Q286.1563,846.1875 285.6719,846.9531 Q285.1875,847.7031 285.1875,849.1875 Q285.1875,850.6563 285.6719,851.4063 Q286.1563,852.1563 287.1094,852.1563 Q287.5469,852.1563 287.9688,851.9688 Q288.3906,851.7813 288.8281,851.375 L288.8281,853.2969 Z "/><text fill="#000000" font-family="Helvetica" font-size="16" font-weight="bold" lengthAdjust="spacingAndGlyphs" textLength="116" x="300" y="854.5859">FromElement</text><line style="stroke: #808080; stroke-width: 1.5;" x1="274" x2="418" y1="864.0469" y2="864.0469"/><text fill="#000000" font-family="Helvetica" font-size="11" lengthAdjust="spacingAndGlyphs" textLength="74" x="279" y="878.2573">table : String</text><text fill="#000000" font-family="Helvetica" font-size="11" lengthAdjust="spacingAndGlyphs" textLength="73" x="279.5" y="891.062">alias : String</text><line style="stroke: #808080; stroke-width: 1.0;" x1="274" x2="418" y1="897.6563" y2="897.6563"/><text fill="#000000" font-family="Helvetica" font-size="11" lengthAdjust="spacingAndGlyphs" textLength="56" x="288" y="911.8667">__repr__()</text><!--MD5=[bbc9b817fd054643baa7ab12d80d0d98]
class sqlb.JoinElement--><rect fill="#FFFFFF" height="122.8281" id="sqlb.JoinElement" rx="7" ry="7" style="stroke: #808080; stroke-width: 0.5;" width="133" x="794.5" y="814.5469"/><ellipse cx="808.5" cy="829.5469" fill="#ADD1B2" rx="10" ry="10" style="stroke: #808080; stroke-width: 1.0;"/><path d="M810.3281,833.7969 Q809.9219,834 809.4688,834.1094 Q809.0156,834.2188 808.5313,834.2188 Q806.75,834.2188 805.8125,833.0625 Q804.8906,831.8906 804.8906,829.6875 Q804.8906,827.4688 805.8125,826.3125 Q806.75,825.1406 808.5313,825.1406 Q809.0156,825.1406 809.4688,825.25 Q809.9375,825.3438 810.3281,825.5625 L810.3281,827.4844 Q809.8906,827.0781 809.4688,826.8906 Q809.0469,826.6875 808.6094,826.6875 Q807.6563,826.6875 807.1719,827.4531 Q806.6875,828.2031 806.6875,829.6875 Q806.6875,831.1563 807.1719,831.9063 Q807.6563,832.6563 808.6094,832.6563 Q809.0469,832.6563 809.4688,832.4688 Q809.8906,832.2813 810.3281,831.875 L810.3281,833.7969 Z "/><text fill="#000000" font-family="Helvetica" font-size="16" font-weight="bold" lengthAdjust="spacingAndGlyphs" textLength="103" x="821.5" y="835.0859">JoinElement</text><line style="stroke: #808080; stroke-width: 1.5;" x1="795.5" x2="926.5" y1="844.5469" y2="844.5469"/><text fill="#000000" font-family="Helvetica" font-size="11" lengthAdjust="spacingAndGlyphs" textLength="83" x="819.5" y="858.7573">type : JoinType</text><text fill="#000000" font-family="Helvetica" font-size="11" lengthAdjust="spacingAndGlyphs" textLength="74" x="824" y="871.562">table : String</text><text fill="#000000" font-family="Helvetica" font-size="11" lengthAdjust="spacingAndGlyphs" textLength="121" x="800.5" y="884.3667">domain_alias : String</text><text fill="#000000" font-family="Helvetica" font-size="11" lengthAdjust="spacingAndGlyphs" textLength="112" x="805" y="897.1714">range_alias : String</text><text fill="#000000" font-family="Helvetica" font-size="11" lengthAdjust="spacingAndGlyphs" textLength="97" x="812.5" y="909.9761">condition : String</text><line style="stroke: #808080; stroke-width: 1.0;" x1="795.5" x2="926.5" y1="916.5703" y2="916.5703"/><text fill="#000000" font-family="Helvetica" font-size="11" lengthAdjust="spacingAndGlyphs" textLength="56" x="833" y="930.7808">__repr__()</text><!--MD5=[21e4a4a1ebfa31f9b78808d5c1c35942]
class sqlb.WhereElement--><rect fill="#FFFFFF" height="71.6094" id="sqlb.WhereElement" rx="7" ry="7" style="stroke: #808080; stroke-width: 0.5;" width="160" x="718" y="692.5469"/><ellipse cx="732" cy="707.5469" fill="#ADD1B2" rx="10" ry="10" style="stroke: #808080; stroke-width: 1.0;"/><path d="M733.8281,711.7969 Q733.4219,712 732.9688,712.1094 Q732.5156,712.2188 732.0313,712.2188 Q730.25,712.2188 729.3125,711.0625 Q728.3906,709.8906 728.3906,707.6875 Q728.3906,705.4688 729.3125,704.3125 Q730.25,703.1406 732.0313,703.1406 Q732.5156,703.1406 732.9688,703.25 Q733.4375,703.3438 733.8281,703.5625 L733.8281,705.4844 Q733.3906,705.0781 732.9688,704.8906 Q732.5469,704.6875 732.1094,704.6875 Q731.1563,704.6875 730.6719,705.4531 Q730.1875,706.2031 730.1875,707.6875 Q730.1875,709.1563 730.6719,709.9063 Q731.1563,710.6563 732.1094,710.6563 Q732.5469,710.6563 732.9688,710.4688 Q733.3906,710.2813 733.8281,709.875 L733.8281,711.7969 Z "/><text fill="#000000" font-family="Helvetica" font-size="16" font-weight="bold" lengthAdjust="spacingAndGlyphs" textLength="130" x="745" y="713.0859">WhereElement</text><line style="stroke: #808080; stroke-width: 0.5;" x1="719" x2="877" y1="722.5469" y2="722.5469"/><text fill="#000000" font-family="Helvetica" font-size="11" lengthAdjust="spacingAndGlyphs" textLength="97" x="724" y="736.7573">condition : String</text><text fill="#000000" font-family="Helvetica" font-size="11" lengthAdjust="spacingAndGlyphs" textLength="112" x="724" y="749.562">operator : Operator</text><line style="stroke: #808080; stroke-width: 0.5;" x1="719" x2="877" y1="756.1563" y2="756.1563"/><!--MD5=[8552146999f2aa062f6b0da817cf2a3a]
class sqlb.GroupElement--><rect fill="#FFFFFF" height="58.8047" id="sqlb.GroupElement" rx="7" ry="7" style="stroke: #808080; stroke-width: 0.5;" width="155" x="908.5" y="699.0469"/><ellipse cx="922.5" cy="714.0469" fill="#ADD1B2" rx="10" ry="10" style="stroke: #808080; stroke-width: 1.0;"/><path d="M924.3281,718.2969 Q923.9219,718.5 923.4688,718.6094 Q923.0156,718.7188 922.5313,718.7188 Q920.75,718.7188 919.8125,717.5625 Q918.8906,716.3906 918.8906,714.1875 Q918.8906,711.9688 919.8125,710.8125 Q920.75,709.6406 922.5313,709.6406 Q923.0156,709.6406 923.4688,709.75 Q923.9375,709.8438 924.3281,710.0625 L924.3281,711.9844 Q923.8906,711.5781 923.4688,711.3906 Q923.0469,711.1875 922.6094,711.1875 Q921.6563,711.1875 921.1719,711.9531 Q920.6875,712.7031 920.6875,714.1875 Q920.6875,715.6563 921.1719,716.4063 Q921.6563,717.1563 922.6094,717.1563 Q923.0469,717.1563 923.4688,716.9688 Q923.8906,716.7813 924.3281,716.375 L924.3281,718.2969 Z "/><text fill="#000000" font-family="Helvetica" font-size="16" font-weight="bold" lengthAdjust="spacingAndGlyphs" textLength="125" x="935.5" y="719.5859">GroupElement</text><line style="stroke: #808080; stroke-width: 0.5;" x1="909.5" x2="1062.5" y1="729.0469" y2="729.0469"/><text fill="#000000" font-family="Helvetica" font-size="11" lengthAdjust="spacingAndGlyphs" textLength="70" x="914.5" y="743.2573">field : String</text><line style="stroke: #808080; stroke-width: 0.5;" x1="909.5" x2="1062.5" y1="749.8516" y2="749.8516"/><!--MD5=[c18457cbec4c267384d22c608b35ce75]
class sqlb.QueryBlock--><rect fill="#FFFFFF" height="46" id="sqlb.QueryBlock" rx="7" ry="7" style="stroke: #808080; stroke-width: 0.5;" width="132" x="450" y="523.0469"/><ellipse cx="464" cy="538.0469" fill="#ADD1B2" rx="10" ry="10" style="stroke: #808080; stroke-width: 1.0;"/><path d="M465.8281,542.2969 Q465.4219,542.5 464.9688,542.6094 Q464.5156,542.7188 464.0313,542.7188 Q462.25,542.7188 461.3125,541.5625 Q460.3906,540.3906 460.3906,538.1875 Q460.3906,535.9688 461.3125,534.8125 Q462.25,533.6406 464.0313,533.6406 Q464.5156,533.6406 464.9688,533.75 Q465.4375,533.8438 465.8281,534.0625 L465.8281,535.9844 Q465.3906,535.5781 464.9688,535.3906 Q464.5469,535.1875 464.1094,535.1875 Q463.1563,535.1875 462.6719,535.9531 Q462.1875,536.7031 462.1875,538.1875 Q462.1875,539.6563 462.6719,540.4063 Q463.1563,541.1563 464.1094,541.1563 Q464.5469,541.1563 464.9688,540.9688 Q465.3906,540.7813 465.8281,540.375 L465.8281,542.2969 Z "/><text fill="#000000" font-family="Helvetica" font-size="16" font-weight="bold" lengthAdjust="spacingAndGlyphs" textLength="102" x="477" y="543.5859">QueryBlock</text><line style="stroke: #808080; stroke-width: 0.5;" x1="451" x2="581" y1="553.0469" y2="553.0469"/><line style="stroke: #808080; stroke-width: 0.5;" x1="451" x2="581" y1="561.0469" y2="561.0469"/><!--MD5=[81f2f0d8d251d887bfa810fe2f33b4a7]
class sqlb.CompositeQueryBlock--><rect fill="#FFFFFF" height="46" id="sqlb.CompositeQueryBlock" rx="7" ry="7" style="stroke: #808080; stroke-width: 0.5;" width="226" x="194" y="523.0469"/><ellipse cx="208" cy="538.0469" fill="#ADD1B2" rx="10" ry="10" style="stroke: #808080; stroke-width: 1.0;"/><path d="M209.8281,542.2969 Q209.4219,542.5 208.9688,542.6094 Q208.5156,542.7188 208.0313,542.7188 Q206.25,542.7188 205.3125,541.5625 Q204.3906,540.3906 204.3906,538.1875 Q204.3906,535.9688 205.3125,534.8125 Q206.25,533.6406 208.0313,533.6406 Q208.5156,533.6406 208.9688,533.75 Q209.4375,533.8438 209.8281,534.0625 L209.8281,535.9844 Q209.3906,535.5781 208.9688,535.3906 Q208.5469,535.1875 208.1094,535.1875 Q207.1563,535.1875 206.6719,535.9531 Q206.1875,536.7031 206.1875,538.1875 Q206.1875,539.6563 206.6719,540.4063 Q207.1563,541.1563 208.1094,541.1563 Q208.5469,541.1563 208.9688,540.9688 Q209.3906,540.7813 209.8281,540.375 L209.8281,542.2969 Z "/><text fill="#000000" font-family="Helvetica" font-size="16" font-weight="bold" lengthAdjust="spacingAndGlyphs" textLength="196" x="221" y="543.5859">CompositeQueryBlock</text><line style="stroke: #808080; stroke-width: 0.5;" x1="195" x2="419" y1="553.0469" y2="553.0469"/><line style="stroke: #808080; stroke-width: 0.5;" x1="195" x2="419" y1="561.0469" y2="561.0469"/><!--MD5=[6c82239725c894668a32f4e73efcfe81]
class sqlb.CaseWhen--><rect fill="#FFFFFF" height="84.4141" id="sqlb.CaseWhen" rx="7" ry="7" style="stroke: #808080; stroke-width: 0.5;" width="125" x="38.5" y="504.0469"/><ellipse cx="52.95" cy="519.0469" fill="#ADD1B2" rx="10" ry="10" style="stroke: #808080; stroke-width: 1.0;"/><path d="M54.7781,523.2969 Q54.3719,523.5 53.9188,523.6094 Q53.4656,523.7188 52.9813,523.7188 Q51.2,523.7188 50.2625,522.5625 Q49.3406,521.3906 49.3406,519.1875 Q49.3406,516.9688 50.2625,515.8125 Q51.2,514.6406 52.9813,514.6406 Q53.4656,514.6406 53.9188,514.75 Q54.3875,514.8438 54.7781,515.0625 L54.7781,516.9844 Q54.3406,516.5781 53.9188,516.3906 Q53.4969,516.1875 53.0594,516.1875 Q52.1063,516.1875 51.6219,516.9531 Q51.1375,517.7031 51.1375,519.1875 Q51.1375,520.6563 51.6219,521.4063 Q52.1063,522.1563 53.0594,522.1563 Q53.4969,522.1563 53.9188,521.9688 Q54.3406,521.7813 54.7781,521.375 L54.7781,523.2969 Z "/><text fill="#000000" font-family="Helvetica" font-size="16" font-weight="bold" lengthAdjust="spacingAndGlyphs" textLength="94" x="66.05" y="524.5859">CaseWhen</text><line style="stroke: #808080; stroke-width: 0.5;" x1="39.5" x2="162.5" y1="534.0469" y2="534.0469"/><text fill="#000000" font-family="Helvetica" font-size="11" lengthAdjust="spacingAndGlyphs" textLength="76" x="44.5" y="548.2573">when : String</text><text fill="#000000" font-family="Helvetica" font-size="11" lengthAdjust="spacingAndGlyphs" textLength="71" x="44.5" y="561.062">then : String</text><text fill="#000000" font-family="Helvetica" font-size="11" lengthAdjust="spacingAndGlyphs" textLength="66" x="44.5" y="573.8667">else: String</text><line style="stroke: #808080; stroke-width: 0.5;" x1="39.5" x2="162.5" y1="580.4609" y2="580.4609"/><!--MD5=[41886f93d666bda1f3933caa4d034e05]
class sqlb.DbType--><rect fill="#FFFFFF" height="71.6094" id="sqlb.DbType" rx="7" ry="7" style="stroke: #808080; stroke-width: 0.5;" width="125" x="899.5" y="189.0469"/><ellipse cx="926.1" cy="204.0469" fill="#EB937F" rx="10" ry="10" style="stroke: #808080; stroke-width: 1.0;"/><path d="M928.5375,208.5469 L923.0844,208.5469 L923.0844,199.7969 L928.5375,199.7969 L928.5375,201.3281 L924.8188,201.3281 L924.8188,203.2031 L928.1781,203.2031 L928.1781,204.7344 L924.8188,204.7344 L924.8188,207.0156 L928.5375,207.0156 L928.5375,208.5469 Z "/><text fill="#000000" font-family="Helvetica" font-size="16" font-weight="bold" lengthAdjust="spacingAndGlyphs" textLength="67" x="941.9" y="209.5859">DbType</text><line style="stroke: #808080; stroke-width: 0.5;" x1="900.5" x2="1023.5" y1="219.0469" y2="219.0469"/><text fill="#000000" font-family="Helvetica" font-size="11" lengthAdjust="spacingAndGlyphs" textLength="61" x="905.5" y="233.2573">postgresql</text><text fill="#000000" font-family="Helvetica" font-size="11" lengthAdjust="spacingAndGlyphs" textLength="49" x="905.5" y="246.062">oracledb</text><line style="stroke: #808080; stroke-width: 0.5;" x1="900.5" x2="1023.5" y1="252.6563" y2="252.6563"/><!--MD5=[bd57b2625cb1d3e060be693cf7ea696b]
class sqlb.TypeOfEffect--><rect fill="#FFFFFF" height="122.8281" id="sqlb.TypeOfEffect" rx="7" ry="7" style="stroke: #808080; stroke-width: 0.5;" width="147" x="1054.5" y="163.5469"/><ellipse cx="1068.5" cy="178.5469" fill="#EB937F" rx="10" ry="10" style="stroke: #808080; stroke-width: 1.0;"/><path d="M1070.9375,183.0469 L1065.4844,183.0469 L1065.4844,174.2969 L1070.9375,174.2969 L1070.9375,175.8281 L1067.2188,175.8281 L1067.2188,177.7031 L1070.5781,177.7031 L1070.5781,179.2344 L1067.2188,179.2344 L1067.2188,181.5156 L1070.9375,181.5156 L1070.9375,183.0469 Z "/><text fill="#000000" font-family="Helvetica" font-size="16" font-weight="bold" lengthAdjust="spacingAndGlyphs" textLength="117" x="1081.5" y="184.0859">TypeOfEffect</text><line style="stroke: #808080; stroke-width: 0.5;" x1="1055.5" x2="1200.5" y1="193.5469" y2="193.5469"/><text fill="#000000" font-family="Helvetica" font-size="11" lengthAdjust="spacingAndGlyphs" textLength="63" x="1060.5" y="207.7573">Ontological</text><text fill="#000000" font-family="Helvetica" font-size="11" lengthAdjust="spacingAndGlyphs" textLength="39" x="1060.5" y="220.562">Spatial</text><text fill="#000000" font-family="Helvetica" font-size="11" lengthAdjust="spacingAndGlyphs" textLength="53" x="1060.5" y="233.3667">Semantic</text><text fill="#000000" font-family="Helvetica" font-size="11" lengthAdjust="spacingAndGlyphs" textLength="54" x="1060.5" y="246.1714">Temporal</text><text fill="#000000" font-family="Helvetica" font-size="11" lengthAdjust="spacingAndGlyphs" textLength="34" x="1060.5" y="258.9761">Visual</text><text fill="#000000" font-family="Helvetica" font-size="11" lengthAdjust="spacingAndGlyphs" textLength="64" x="1060.5" y="271.7808">Topological</text><line style="stroke: #808080; stroke-width: 0.5;" x1="1055.5" x2="1200.5" y1="278.375" y2="278.375"/><!--MD5=[2edacf8575a95646aab037f643558882]
class sqlb.SelectionType--><rect fill="#FFFFFF" height="71.6094" id="sqlb.SelectionType" rx="7" ry="7" style="stroke: #808080; stroke-width: 0.5;" width="154" x="885" y="334.0469"/><ellipse cx="899" cy="349.0469" fill="#EB937F" rx="10" ry="10" style="stroke: #808080; stroke-width: 1.0;"/><path d="M901.4375,353.5469 L895.9844,353.5469 L895.9844,344.7969 L901.4375,344.7969 L901.4375,346.3281 L897.7188,346.3281 L897.7188,348.2031 L901.0781,348.2031 L901.0781,349.7344 L897.7188,349.7344 L897.7188,352.0156 L901.4375,352.0156 L901.4375,353.5469 Z "/><text fill="#000000" font-family="Helvetica" font-size="16" font-weight="bold" lengthAdjust="spacingAndGlyphs" textLength="124" x="912" y="354.5859">SelectionType</text><line style="stroke: #808080; stroke-width: 0.5;" x1="886" x2="1038" y1="364.0469" y2="364.0469"/><text fill="#000000" font-family="Helvetica" font-size="11" lengthAdjust="spacingAndGlyphs" textLength="24" x="891" y="378.2573">field</text><text fill="#000000" font-family="Helvetica" font-size="11" lengthAdjust="spacingAndGlyphs" textLength="61" x="891" y="391.062">case-when</text><line style="stroke: #808080; stroke-width: 0.5;" x1="886" x2="1038" y1="397.6563" y2="397.6563"/><!--MD5=[65228ebb673ddb8b696e3a2401a2d8c9]
class sqlb.JoinType--><rect fill="#FFFFFF" height="97.2188" id="sqlb.JoinType" rx="7" ry="7" style="stroke: #808080; stroke-width: 0.5;" width="125" x="1069.5" y="321.5469"/><ellipse cx="1092.5" cy="336.5469" fill="#EB937F" rx="10" ry="10" style="stroke: #808080; stroke-width: 1.0;"/><path d="M1094.9375,341.0469 L1089.4844,341.0469 L1089.4844,332.2969 L1094.9375,332.2969 L1094.9375,333.8281 L1091.2188,333.8281 L1091.2188,335.7031 L1094.5781,335.7031 L1094.5781,337.2344 L1091.2188,337.2344 L1091.2188,339.5156 L1094.9375,339.5156 L1094.9375,341.0469 Z "/><text fill="#000000" font-family="Helvetica" font-size="16" font-weight="bold" lengthAdjust="spacingAndGlyphs" textLength="75" x="1107.5" y="342.0859">JoinType</text><line style="stroke: #808080; stroke-width: 0.5;" x1="1070.5" x2="1193.5" y1="351.5469" y2="351.5469"/><text fill="#000000" font-family="Helvetica" font-size="11" lengthAdjust="spacingAndGlyphs" textLength="21" x="1075.5" y="365.7573">Left</text><text fill="#000000" font-family="Helvetica" font-size="11" lengthAdjust="spacingAndGlyphs" textLength="28" x="1075.5" y="378.562">Right</text><text fill="#000000" font-family="Helvetica" font-size="11" lengthAdjust="spacingAndGlyphs" textLength="29" x="1075.5" y="391.3667">Inner</text><text fill="#000000" font-family="Helvetica" font-size="11" lengthAdjust="spacingAndGlyphs" textLength="19" x="1075.5" y="404.1714">Full</text><line style="stroke: #808080; stroke-width: 0.5;" x1="1070.5" x2="1193.5" y1="410.7656" y2="410.7656"/><!--MD5=[041b87f6a7c959718d924b02cf65bf1d]
link sqlb.CombinedQueryBlocks to sqlb.AbstractQueryBlock--><path d="M716,279.0969 C716,279.0969 716,396.3969 716,452.1569 " fill="none" id="sqlb.CombinedQueryBlocks-sqlb.AbstractQueryBlock" style="stroke: #808080; stroke-width: 2.0;"/><polygon fill="#808080" points="716,465.2969,720,456.2969,716,460.2969,712,456.2969,716,465.2969" style="stroke: #808080; stroke-width: 2.0;"/><line style="stroke: #808080; stroke-width: 2.0;" x1="716" x2="716" y1="460.2969" y2="452.2969"/><polygon fill="#808080" points="716,267.0969,712,273.0969,716,279.0969,720,273.0969,716,267.0969" style="stroke: #808080; stroke-width: 2.0;"/><text fill="#000000" font-family="Helvetica" font-size="13" lengthAdjust="spacingAndGlyphs" textLength="83" x="717" y="374.6138">query_blocks</text><text fill="#000000" font-family="Helvetica" font-size="13" lengthAdjust="spacingAndGlyphs" textLength="8" x="707.3125" y="287.656">1</text><text fill="#000000" font-family="Helvetica" font-size="13" lengthAdjust="spacingAndGlyphs" textLength="7" x="708.6883" y="454.4991">*</text><!--MD5=[0202968e79922246db79af1bbf1a4b5a]
link sqlb.AbstractQueryBlock to sqlb.SelectElement--><path d="M600.6214,625.2825 C600.6214,625.2825 597.78,626.2969 597,626.5469 C548.52,642.1169 178.87,609.8869 139,641.5469 C132.49,646.7169 127.7,653.5169 124.19,661.0269 " fill="none" id="sqlb.AbstractQueryBlock-sqlb.SelectElement" style="stroke: #808080; stroke-width: 2.0;"/><polygon fill="#808080" points="119.68,673.2869,126.5401,666.2201,121.4055,668.594,119.0316,663.4594,119.68,673.2869" style="stroke: #808080; stroke-width: 2.0;"/><line style="stroke: #808080; stroke-width: 2.0;" x1="121.4055" x2="124.17" y1="668.594" y2="661.0869"/><polygon fill="#FFFFFF" points="611.83,620.9969,604.7971,619.4035,600.6214,625.2825,607.6542,626.8759,611.83,620.9969" style="stroke: #808080; stroke-width: 2.0;"/><text fill="#000000" font-family="Helvetica" font-size="13" lengthAdjust="spacingAndGlyphs" textLength="105" x="140" y="654.6138">select_elements</text><text fill="#000000" font-family="Helvetica" font-size="13" lengthAdjust="spacingAndGlyphs" textLength="24" x="580.0248" y="622.5919">0..1</text><text fill="#000000" font-family="Helvetica" font-size="13" lengthAdjust="spacingAndGlyphs" textLength="7" x="112.7031" y="662.3197">*</text><!--MD5=[50b56be509ace09b51e3b14affa08ff1]
link sqlb.AbstractQueryBlock to sqlb.FromElement--><path d="M601.4243,624.0862 C601.4243,624.0862 598.07,625.9569 597,626.5469 C551.05,651.6269 529.64,640.5469 489,673.5469 C438.56,714.5069 397.75,777.5369 372.83,822.1769 " fill="none" id="sqlb.AbstractQueryBlock-sqlb.FromElement" style="stroke: #808080; stroke-width: 2.0;"/><polygon fill="#808080" points="366.53,833.6769,374.3581,827.7001,368.9293,829.2901,367.3393,823.8613,366.53,833.6769" style="stroke: #808080; stroke-width: 2.0;"/><line style="stroke: #808080; stroke-width: 2.0;" x1="368.9293" x2="372.775" y1="829.2901" y2="822.2719"/><polygon fill="#FFFFFF" points="611.84,618.1269,604.6457,617.6347,601.4243,624.0862,608.6186,624.5784,611.84,618.1269" style="stroke: #808080; stroke-width: 2.0;"/><text fill="#000000" font-family="Helvetica" font-size="13" lengthAdjust="spacingAndGlyphs" textLength="97" x="490" y="733.1138">from_elements</text><text fill="#000000" font-family="Helvetica" font-size="13" lengthAdjust="spacingAndGlyphs" textLength="24" x="580.0355" y="635.5369">0..1</text><text fill="#000000" font-family="Helvetica" font-size="13" lengthAdjust="spacingAndGlyphs" textLength="7" x="362.1377" y="823.0859">*</text><!--MD5=[6da8b1b9b9a99cace2bd96bd796d01e1]
reverse link sqlb.AbstractQueryBlock to sqlb.FromElement--><path d="M607.28,622.2969 C603.86,623.8169 600.43,625.2369 597,626.5469 C527.39,653.1269 313.86,617.2869 265,673.5469 C232.94,710.4569 247.67,737.8269 265,783.5469 C272.07,802.1969 284.87,819.4869 298.23,833.8969 " fill="none" id="sqlb.AbstractQueryBlock&lt;-sqlb.FromElement" style="stroke: #808080; stroke-width: 2.0;"/><polygon fill="#808080" points="611.94,620.1569,602.0917,620.2652,607.3936,622.2377,605.421,627.5395,611.94,620.1569" style="stroke: #808080; stroke-width: 2.0;"/><text fill="#000000" font-family="Helvetica" font-size="13" lengthAdjust="spacingAndGlyphs" textLength="122" x="266" y="733.1138">inner_query_blocks</text><text fill="#000000" font-family="Helvetica" font-size="13" lengthAdjust="spacingAndGlyphs" textLength="7" x="597.1703" y="644.2022">*</text><text fill="#000000" font-family="Helvetica" font-size="13" lengthAdjust="spacingAndGlyphs" textLength="8" x="281.9792" y="823.0284">1</text><!--MD5=[99c62601b738e9e1e89c58b37a95ad33]
link sqlb.AbstractQueryBlock to sqlb.JoinElement--><path d="M630.632,636.5969 C630.632,636.5969 616.47,661.0769 612,673.5469 C595.51,719.5669 584.02,743.4569 612,783.5469 C649.9,837.8569 723.79,860.0269 781.28,869.0169 " fill="none" id="sqlb.AbstractQueryBlock-sqlb.JoinElement" style="stroke: #808080; stroke-width: 2.0;"/><polygon fill="#808080" points="794.39,870.8969,786.0478,865.6617,789.4405,870.1882,784.9139,873.5809,794.39,870.8969" style="stroke: #808080; stroke-width: 2.0;"/><line style="stroke: #808080; stroke-width: 2.0;" x1="789.4405" x2="781.515" y1="870.1882" y2="869.0519"/><polygon fill="#FFFFFF" points="637.34,626.6469,630.6693,629.3859,630.632,636.5969,637.3027,633.8579,637.34,626.6469" style="stroke: #808080; stroke-width: 2.0;"/><text fill="#000000" font-family="Helvetica" font-size="13" lengthAdjust="spacingAndGlyphs" textLength="89" x="613" y="733.1138">join_elements</text><text fill="#000000" font-family="Helvetica" font-size="13" lengthAdjust="spacingAndGlyphs" textLength="24" x="631.1948" y="646.8304">0..1</text><text fill="#000000" font-family="Helvetica" font-size="13" lengthAdjust="spacingAndGlyphs" textLength="7" x="779.2835" y="866.5187">*</text><!--MD5=[23ede6ec5475c75b3870de023dd69d4c]
reverse link sqlb.AbstractQueryBlock to sqlb.JoinElement--><path d="M825.38,550.7869 C911.64,560.3669 1025.95,589.4169 1079,673.5469 C1105.08,714.8969 1106.07,742.8369 1079,783.5469 C1045.6,833.7969 978.67,856.5069 927.74,866.7369 " fill="none" id="sqlb.AbstractQueryBlock&lt;-sqlb.JoinElement" style="stroke: #808080; stroke-width: 2.0;"/><polygon fill="#808080" points="820.26,550.2369,828.7867,555.166,825.232,550.7655,829.6325,547.2108,820.26,550.2369" style="stroke: #808080; stroke-width: 2.0;"/><text fill="#000000" font-family="Helvetica" font-size="13" lengthAdjust="spacingAndGlyphs" textLength="115" x="1099" y="733.1138">inner_query_block</text><text fill="#000000" font-family="Helvetica" font-size="13" lengthAdjust="spacingAndGlyphs" textLength="7" x="827.8369" y="547.0672">*</text><text fill="#000000" font-family="Helvetica" font-size="13" lengthAdjust="spacingAndGlyphs" textLength="8" x="935.4772" y="861.9818">1</text><!--MD5=[85458038e7b45dc4a6b2cedf8d7c14c2]
link sqlb.AbstractQueryBlock to sqlb.WhereElement--><path d="M757.1717,637.6731 C757.1717,637.6731 770.82,667.7269 776.7,680.6669 " fill="none" id="sqlb.AbstractQueryBlock-sqlb.WhereElement" style="stroke: #808080; stroke-width: 2.0;"/><polygon fill="#808080" points="782.1,692.5469,782.0208,682.6983,780.0326,687.9943,774.7367,686.0061,782.1,692.5469" style="stroke: #808080; stroke-width: 2.0;"/><line style="stroke: #808080; stroke-width: 2.0;" x1="780.0326" x2="776.72" y1="687.9943" y2="680.7069"/><polygon fill="#FFFFFF" points="752.21,626.7469,751.0488,633.8639,757.1717,637.6731,758.3329,630.5561,752.21,626.7469" style="stroke: #808080; stroke-width: 2.0;"/><text fill="#000000" font-family="Helvetica" font-size="13" lengthAdjust="spacingAndGlyphs" textLength="105" x="765" y="654.6138">where_elements</text><text fill="#000000" font-family="Helvetica" font-size="13" lengthAdjust="spacingAndGlyphs" textLength="24" x="730.4419" y="646.9397">0..1</text><text fill="#000000" font-family="Helvetica" font-size="13" lengthAdjust="spacingAndGlyphs" textLength="7" x="771.4019" y="681.3715">*</text><!--MD5=[5772b80d109c9301876e5a93971f271b]
link sqlb.AbstractQueryBlock to sqlb.GroupElement--><path d="M830.4948,611.046 C830.4948,611.046 863.3,631.4869 878,641.5469 C899.86,656.5069 922.98,674.5869 942.19,690.2969 " fill="none" id="sqlb.AbstractQueryBlock-sqlb.GroupElement" style="stroke: #808080; stroke-width: 2.0;"/><polygon fill="#808080" points="952.43,698.7469,948.0321,689.9345,948.5727,695.5655,942.9418,696.1061,952.43,698.7469" style="stroke: #808080; stroke-width: 2.0;"/><line style="stroke: #808080; stroke-width: 2.0;" x1="948.5727" x2="942.405" y1="695.5655" y2="690.4669"/><polygon fill="#FFFFFF" points="820.22,604.8469,823.291,611.3714,830.4948,611.046,827.4238,604.5215,820.22,604.8469" style="stroke: #808080; stroke-width: 2.0;"/><text fill="#000000" font-family="Helvetica" font-size="13" lengthAdjust="spacingAndGlyphs" textLength="104" x="900" y="654.6138">group_elements</text><text fill="#000000" font-family="Helvetica" font-size="13" lengthAdjust="spacingAndGlyphs" textLength="24" x="828.0285" y="605.3568">0..1</text><text fill="#000000" font-family="Helvetica" font-size="13" lengthAdjust="spacingAndGlyphs" textLength="7" x="937.7843" y="688.1545">*</text><!--MD5=[f38e1db61c24a9f33591739b27738b08]
link sqlb.QueryBlock to sqlb.AbstractQueryBlock--><path d="M582.02,546.0469 C585.28,546.0469 588.54,546.0469 591.8,546.0469 " fill="none" id="sqlb.QueryBlock-&gt;sqlb.AbstractQueryBlock" style="stroke: #808080; stroke-width: 2.0;"/><polygon fill="none" points="591.85,539.0469,611.85,546.0469,591.85,553.0469,591.85,539.0469" style="stroke: #808080; stroke-width: 2.0;"/><!--MD5=[9220ca8a4c63a130c713cec1857728ac]
link sqlb.CompositeQueryBlock to sqlb.AbstractQueryBlock--><path d="M329.16,522.8269 C355.25,497.3269 401.25,457.8969 450,442.0469 C505.79,423.9069 526.5,423.0369 582,442.0469 C591.76,445.3869 601.36,449.7669 610.66,454.8269 " fill="none" id="sqlb.CompositeQueryBlock-&gt;sqlb.AbstractQueryBlock" style="stroke: #808080; stroke-width: 2.0;"/><polygon fill="none" points="614.6,449.0269,628.14,465.3269,607.39,461.0269,614.6,449.0269" style="stroke: #808080; stroke-width: 2.0;"/><!--MD5=[9220ca8a4c63a130c713cec1857728ac]
link sqlb.CompositeQueryBlock to sqlb.AbstractQueryBlock--><path d="M332.27,522.9769 C359.85,499.5069 406.44,464.6369 454,450.5469 C506.84,434.8869 525.39,434.1169 578,450.5469 C588.37,453.7869 598.65,458.1069 608.64,463.1269 " fill="none" id="sqlb.CompositeQueryBlock-&gt;sqlb.AbstractQueryBlock-1" style="stroke: #808080; stroke-width: 2.0;"/><polygon fill="#808080" points="613.21,465.4769,607.0564,457.787,608.7697,463.1782,603.3786,464.8915,613.21,465.4769" style="stroke: #808080; stroke-width: 2.0;"/><text fill="#000000" font-family="Helvetica" font-size="13" lengthAdjust="spacingAndGlyphs" textLength="122" x="455" y="446.6138">inner_query_blocks</text><text fill="#000000" font-family="Helvetica" font-size="13" lengthAdjust="spacingAndGlyphs" textLength="7" x="331.1207" y="511.8459">*</text><text fill="#000000" font-family="Helvetica" font-size="13" lengthAdjust="spacingAndGlyphs" textLength="23" x="581.1025" y="455.5213">1..*</text><!--MD5=[344321cade5063983b125cb97d13bf78]
link sqlb.CaseWhen to sqlb.SelectElement--><path d="M75.21,600.5869 C69.47,619.0169 66.52,639.7469 72,658.5469 C72.28,659.4969 73.2792,662.3888 73.2792,662.3888 " fill="none" id="sqlb.CaseWhen-sqlb.SelectElement" style="stroke: #808080; stroke-width: 2.0;"/><polygon fill="#FFFFFF" points="77.72,673.5369,79.2156,666.4826,73.2792,662.3888,71.7836,669.4431,77.72,673.5369" style="stroke: #808080; stroke-width: 2.0;"/><polygon fill="#808080" points="79.55,588.2469,72.7914,595.4107,77.8916,592.9639,80.3385,598.0641,79.55,588.2469" style="stroke: #808080; stroke-width: 2.0;"/><line style="stroke: #808080; stroke-width: 2.0;" x1="77.8916" x2="75.235" y1="592.9639" y2="600.5069"/><text fill="#000000" font-family="Helvetica" font-size="13" lengthAdjust="spacingAndGlyphs" textLength="30" x="73" y="654.6138">case</text><text fill="#000000" font-family="Helvetica" font-size="13" lengthAdjust="spacingAndGlyphs" textLength="24" x="50.0098" y="608.522">0..1</text><text fill="#000000" font-family="Helvetica" font-size="13" lengthAdjust="spacingAndGlyphs" textLength="7" x="65.3669" y="662.6017">*</text><!--MD5=[4307e849f0c56039f2ca8eb022d253bc]
link sqlb.DbType to sqlb.TypeOfEffect--><!--MD5=[88b60722e1c25d2bb7dcbe87d8de9598]
link sqlb.DbType to sqlb.SelectionType--><!--MD5=[7c98469a78febcdb665fb7eeaac87150]
link sqlb.SelectionType to sqlb.JoinType--><!--MD5=[e86025b274c8f2a19c50cf13d4a99494]
@startuml
title UML Class Diagram 
header
<font color=red size=10>Last Check : 06.11.2025</font>
endheader




skinparam {
    DefaultFontName Helvetica 
    defaultTextAlignment center
    RoundCorner 14
    Shadowing false

    BackgroundColor transparent

    TitleFontSize 36
    TitleFontStyle Bold

    minClassWidth 125
    maxClassWidth 300
    nodesep 30
    ranksep 30
    CircledCharacterRadius 10
    CircledCharacterFontSize 12
    CircledCharacterFontColor White
    Class {
        FontSize 16
        FontStyle Bold
        BackgroundColor #FFFFFF90
        BorderThickness 0.5
        BorderColor Gray
        ArrowThickness 2
        ArrowColor Gray
        AttributeIconSize 9
    }

}

namespace advs <<Advise>> {
	class Advisement {
		usedCommandSet : String
		maximumFeaturePerTile : Integer
		- - -
		to_oneline_command()
		to_yaml()
	}
}

namespace sqlb <<SQL Blocks>> {
	class CombinedQueryBlocks {
		name : String
		comType : DbType
		- - -
		__repr__()
	}
	CombinedQueryBlocks "1" *- -down-> "*" AbstractQueryBlock : query_blocks

	abstract class AbstractQueryBlock {
		name : String
		range_alias : String
		type_of_effect : TypeOfEffect
		order_number : Integer
		description : String
		domain_aliases : String[]
		header_comment : String
		footer_comment : String
		- - -
		__repr__()
	}
	AbstractQueryBlock "0..1" o-down-> "*" SelectElement : select_elements
	AbstractQueryBlock "0..1" o-down-> "*" FromElement : from_elements
	AbstractQueryBlock "0..1" o-down-> "*" JoinElement : join_elements
	AbstractQueryBlock "0..1" o-down-> "*" WhereElement : where_elements
	AbstractQueryBlock "0..1" o-down-> "*" GroupElement : group_elements

	class QueryBlock {
	}
	QueryBlock -right-|> AbstractQueryBlock

	class CompositeQueryBlock {
	}
	CompositeQueryBlock -right-|> AbstractQueryBlock
	CompositeQueryBlock "*" -right-> "1..*" AbstractQueryBlock : inner_query_blocks

	class SelectElement {
		type : SelectionType
		field : String
		domain_alias : String
		range_alias : String
		- - -
		__repr__()
	}
	SelectElement "*" o-up-> "0..1" CaseWhen : case

	class FromElement {
		table : String
		alias : String
		- - -
		__repr__()
	}
	FromElement "1" - -up-> "*" AbstractQueryBlock : inner_query_blocks

	class JoinElement {
		type : JoinType
		table : String
		domain_alias : String
		range_alias : String
		condition : String
		- - -
		__repr__()
	}
	JoinElement "1" - -up-> "*" AbstractQueryBlock : inner_query_block

	class WhereElement {
		condition : String
		operator : Operator
	}

	class GroupElement {
		field : String
	}

	class CaseWhen {
		when : String
		then : String
		else: String
	}

	enum DbType {
		postgresql
		oracledb
	}

	enum TypeOfEffect {
		Ontological
		Spatial
		Semantic
		Temporal
		Visual
		Topological
	}

	enum SelectionType {
		field
		case-when
	}

	enum JoinType {
		Left
		Right
		Inner
		Full
	}
}
@enduml

PlantUML version 1.2020.02(Sun Mar 01 11:22:07 CET 2020)
(GPL source distribution)
Java Runtime: OpenJDK Runtime Environment
JVM: OpenJDK 64-Bit Server VM
Java Version: 21.0.8+9-Ubuntu-0ubuntu124.04.1
Operating System: Linux
Default Encoding: UTF-8
Language: en
Country: US
--></g></svg>