<?xml version="1.0" encoding="UTF-8" standalone="no"?><svg xmlns="http://www.w3.org/2000/svg" xmlns:xlink="http://www.w3.org/1999/xlink" contentScriptType="application/ecmascript" contentStyleType="text/css" height="1701px" preserveAspectRatio="none" style="width:776px;height:1701px;" version="1.1" viewBox="0 0 776 1701" width="776px" zoomAndPan="magnify"><defs/><g><text fill="#CD5C5C" font-family="Helvetica" font-size="12" font-weight="bold" lengthAdjust="spacingAndGlyphs" textLength="123" x="591.3333" y="22.8281">Last Edit : 19.05.2026</text><rect fill="none" height="59.032" rx="7" ry="7" style="stroke: none; stroke-width: 1.0;" width="631" x="46.1667" y="31.3441"/><text fill="#000000" font-family="Helvetica" font-size="36" font-weight="bold" lengthAdjust="spacingAndGlyphs" textLength="621" x="51.1667" y="74.8281">citydb-3dtiler Functionality Matrix</text><rect fill="#D3D3D3" height="39.0679" rx="7" ry="7" style="stroke: #A80036; stroke-width: 1.5;" width="125.3333" x="10" y="836.0647"/><path d="M21.1097,852.2993 C21.0397,852.2993 21,852.3389 21,852.4089 L21,861.5241 C21,861.5941 21.0397,861.6338 21.1097,861.6338 L30.2248,861.6338 C30.2948,861.6338 30.3345,861.5941 30.3345,861.5241 L30.3345,852.4089 C30.3345,852.3389 30.2948,852.2993 30.2248,852.2993 L21.1097,852.2993 M22.75,853.2104 L24.7555,855.2159 L22.75,857.2214 L21.9112,856.3826 L23.0778,855.2159 L21.9112,854.0493 L22.75,853.2104 M25.6667,855.7993 L29.1667,855.7993 L29.1667,856.9659 L25.6667,856.9659 L25.6667,855.7993 " fill="#000000" style="stroke: ; stroke-width: 0.0; stroke-dasharray: ;"/><text fill="#000000" font-family="Helvetica" font-size="14" lengthAdjust="spacingAndGlyphs" textLength="90" x="35.3333" y="861.0306">citydb-3dtiler</text><rect fill="#8FBC8F" height="39.0679" rx="7" ry="7" style="stroke: #A80036; stroke-width: 1.5;" width="102.3333" x="185.3333" y="213.978"/><path d="M198.6667,230.2126 L198.6667,232.5459 L196.3333,232.5459 L196.3333,237.2126 L198.6667,237.2126 L198.6667,239.5459 L203.3333,239.5459 L203.3333,237.2126 L205.6667,237.2126 L205.6667,232.5459 L203.3333,232.5459 L203.3333,230.2126 L198.6667,230.2126 " fill="#000000" style="stroke: ; stroke-width: 0.0; stroke-dasharray: ;"/><text fill="#000000" font-family="Helvetica" font-size="14" lengthAdjust="spacingAndGlyphs" textLength="67" x="210.6667" y="238.9439">--help / -h</text><path d="M135.3333,855.5986 L145.3333,855.5986 C160.3333,855.5986 160.3333,233.512 175.3333,233.512 L185.3333,233.512 " fill="none" style="stroke: #808080; stroke-width: 2.0;"/><text fill="#000000" font-family="Helvetica" font-size="14" lengthAdjust="spacingAndGlyphs" textLength="295" x="188.3333" y="279.0119">database connection arguments group ----&gt;</text><rect fill="#FFFFE0" height="39.0679" rx="7" ry="7" style="stroke: #A80036; stroke-width: 1.5;" width="125.3333" x="533.3333" y="106.3761"/><path d="M545.2083,122.6107 C544.7393,122.6107 544.3333,123.0167 544.3333,123.4857 L544.3333,129.9024 C544.3333,130.3714 544.7393,130.7774 545.2083,130.7774 L552.7917,130.7774 C553.2607,130.7774 553.6667,130.3714 553.6667,129.9024 L553.6667,123.4857 C553.6667,123.0167 553.2607,122.6107 552.7917,122.6107 L545.2083,122.6107 M545.5,123.7774 L546.6667,123.7774 L546.6667,124.944 L545.5,124.944 L545.5,123.7774 M547.8333,123.7774 L552.5,123.7774 L552.5,124.944 L547.8333,124.944 L547.8333,123.7774 M545.5,126.1107 L546.6667,126.1107 L546.6667,127.2774 L545.5,127.2774 L545.5,126.1107 M547.8333,126.1107 L552.5,126.1107 L552.5,127.2774 L547.8333,127.2774 L547.8333,126.1107 M545.5,128.444 L546.6667,128.444 L546.6667,129.6107 L545.5,129.6107 L545.5,128.444 M547.8333,128.444 L552.5,128.444 L552.5,129.6107 L547.8333,129.6107 L547.8333,128.444 " fill="#000000" style="stroke: ; stroke-width: 0.0; stroke-dasharray: ;"/><text fill="#000000" font-family="Helvetica" font-size="14" lengthAdjust="spacingAndGlyphs" textLength="90" x="558.6667" y="131.3421">--db-host / -H</text><path d="M483.3333,273.5799 L493.3333,273.5799 C508.3333,273.5799 508.3333,125.9101 523.3333,125.9101 L533.3333,125.9101 " fill="none" style="stroke: #808080; stroke-width: 2.0;"/><rect fill="#FFFFE0" height="39.0679" rx="7" ry="7" style="stroke: #A80036; stroke-width: 1.5;" width="122.3333" x="533.3333" y="165.444"/><path d="M545.2083,181.6786 C544.7393,181.6786 544.3333,182.0846 544.3333,182.5536 L544.3333,188.9703 C544.3333,189.4393 544.7393,189.8453 545.2083,189.8453 L552.7917,189.8453 C553.2607,189.8453 553.6667,189.4393 553.6667,188.9703 L553.6667,182.5536 C553.6667,182.0846 553.2607,181.6786 552.7917,181.6786 L545.2083,181.6786 M545.5,182.8453 L546.6667,182.8453 L546.6667,184.012 L545.5,184.012 L545.5,182.8453 M547.8333,182.8453 L552.5,182.8453 L552.5,184.012 L547.8333,184.012 L547.8333,182.8453 M545.5,185.1786 L546.6667,185.1786 L546.6667,186.3453 L545.5,186.3453 L545.5,185.1786 M547.8333,185.1786 L552.5,185.1786 L552.5,186.3453 L547.8333,186.3453 L547.8333,185.1786 M545.5,187.512 L546.6667,187.512 L546.6667,188.6786 L545.5,188.6786 L545.5,187.512 M547.8333,187.512 L552.5,187.512 L552.5,188.6786 L547.8333,188.6786 L547.8333,187.512 " fill="#000000" style="stroke: ; stroke-width: 0.0; stroke-dasharray: ;"/><text fill="#000000" font-family="Helvetica" font-size="14" lengthAdjust="spacingAndGlyphs" textLength="87" x="558.6667" y="190.41">--db-port / -P</text><path d="M483.3333,273.5799 L493.3333,273.5799 C508.3333,273.5799 508.3333,184.978 523.3333,184.978 L533.3333,184.978 " fill="none" style="stroke: #808080; stroke-width: 2.0;"/><rect fill="#FFFFE0" height="39.0679" rx="7" ry="7" style="stroke: #A80036; stroke-width: 1.5;" width="133.3333" x="533.3333" y="224.512"/><path d="M545.2083,240.7465 C544.7393,240.7465 544.3333,241.1525 544.3333,241.6215 L544.3333,248.0382 C544.3333,248.5072 544.7393,248.9132 545.2083,248.9132 L552.7917,248.9132 C553.2607,248.9132 553.6667,248.5072 553.6667,248.0382 L553.6667,241.6215 C553.6667,241.1525 553.2607,240.7465 552.7917,240.7465 L545.2083,240.7465 M545.5,241.9132 L546.6667,241.9132 L546.6667,243.0799 L545.5,243.0799 L545.5,241.9132 M547.8333,241.9132 L552.5,241.9132 L552.5,243.0799 L547.8333,243.0799 L547.8333,241.9132 M545.5,244.2465 L546.6667,244.2465 L546.6667,245.4132 L545.5,245.4132 L545.5,244.2465 M547.8333,244.2465 L552.5,244.2465 L552.5,245.4132 L547.8333,245.4132 L547.8333,244.2465 M545.5,246.5799 L546.6667,246.5799 L546.6667,247.7465 L545.5,247.7465 L545.5,246.5799 M547.8333,246.5799 L552.5,246.5799 L552.5,247.7465 L547.8333,247.7465 L547.8333,246.5799 " fill="#000000" style="stroke: ; stroke-width: 0.0; stroke-dasharray: ;"/><text fill="#000000" font-family="Helvetica" font-size="14" lengthAdjust="spacingAndGlyphs" textLength="98" x="558.6667" y="249.4779">--db-name / -d</text><path d="M483.3333,273.5799 L493.3333,273.5799 C508.3333,273.5799 508.3333,244.0459 523.3333,244.0459 L533.3333,244.0459 " fill="none" style="stroke: #808080; stroke-width: 2.0;"/><rect fill="#FFFFE0" height="39.0679" rx="7" ry="7" style="stroke: #A80036; stroke-width: 1.5;" width="146.3333" x="533.3333" y="283.5799"/><path d="M545.2083,299.8145 C544.7393,299.8145 544.3333,300.2205 544.3333,300.6895 L544.3333,307.1061 C544.3333,307.5751 544.7393,307.9811 545.2083,307.9811 L552.7917,307.9811 C553.2607,307.9811 553.6667,307.5751 553.6667,307.1061 L553.6667,300.6895 C553.6667,300.2205 553.2607,299.8145 552.7917,299.8145 L545.2083,299.8145 M545.5,300.9811 L546.6667,300.9811 L546.6667,302.1478 L545.5,302.1478 L545.5,300.9811 M547.8333,300.9811 L552.5,300.9811 L552.5,302.1478 L547.8333,302.1478 L547.8333,300.9811 M545.5,303.3145 L546.6667,303.3145 L546.6667,304.4811 L545.5,304.4811 L545.5,303.3145 M547.8333,303.3145 L552.5,303.3145 L552.5,304.4811 L547.8333,304.4811 L547.8333,303.3145 M545.5,305.6478 L546.6667,305.6478 L546.6667,306.8145 L545.5,306.8145 L545.5,305.6478 M547.8333,305.6478 L552.5,305.6478 L552.5,306.8145 L547.8333,306.8145 L547.8333,305.6478 " fill="#000000" style="stroke: ; stroke-width: 0.0; stroke-dasharray: ;"/><text fill="#000000" font-family="Helvetica" font-size="14" lengthAdjust="spacingAndGlyphs" textLength="111" x="558.6667" y="308.5458">--db-schema / -S</text><path d="M483.3333,273.5799 L493.3333,273.5799 C508.3333,273.5799 508.3333,303.1138 523.3333,303.1138 L533.3333,303.1138 " fill="none" style="stroke: #808080; stroke-width: 2.0;"/><rect fill="#FFFFE0" height="39.0679" rx="7" ry="7" style="stroke: #A80036; stroke-width: 1.5;" width="163.3333" x="533.3333" y="342.6478"/><path d="M545.2083,358.8824 C544.7393,358.8824 544.3333,359.2884 544.3333,359.7574 L544.3333,366.174 C544.3333,366.643 544.7393,367.049 545.2083,367.049 L552.7917,367.049 C553.2607,367.049 553.6667,366.643 553.6667,366.174 L553.6667,359.7574 C553.6667,359.2884 553.2607,358.8824 552.7917,358.8824 L545.2083,358.8824 M545.5,360.049 L546.6667,360.049 L546.6667,361.2157 L545.5,361.2157 L545.5,360.049 M547.8333,360.049 L552.5,360.049 L552.5,361.2157 L547.8333,361.2157 L547.8333,360.049 M545.5,362.3824 L546.6667,362.3824 L546.6667,363.549 L545.5,363.549 L545.5,362.3824 M547.8333,362.3824 L552.5,362.3824 L552.5,363.549 L547.8333,363.549 L547.8333,362.3824 M545.5,364.7157 L546.6667,364.7157 L546.6667,365.8824 L545.5,365.8824 L545.5,364.7157 M547.8333,364.7157 L552.5,364.7157 L552.5,365.8824 L547.8333,365.8824 L547.8333,364.7157 " fill="#000000" style="stroke: ; stroke-width: 0.0; stroke-dasharray: ;"/><text fill="#000000" font-family="Helvetica" font-size="14" lengthAdjust="spacingAndGlyphs" textLength="128" x="558.6667" y="367.6137">--db-username / -u</text><path d="M483.3333,273.5799 L493.3333,273.5799 C508.3333,273.5799 508.3333,362.1818 523.3333,362.1818 L533.3333,362.1818 " fill="none" style="stroke: #808080; stroke-width: 2.0;"/><rect fill="#FFFFE0" height="39.0679" rx="7" ry="7" style="stroke: #A80036; stroke-width: 1.5;" width="160.3333" x="533.3333" y="401.7157"/><path d="M545.2083,417.9503 C544.7393,417.9503 544.3333,418.3563 544.3333,418.8253 L544.3333,425.242 C544.3333,425.711 544.7393,426.117 545.2083,426.117 L552.7917,426.117 C553.2607,426.117 553.6667,425.711 553.6667,425.242 L553.6667,418.8253 C553.6667,418.3563 553.2607,417.9503 552.7917,417.9503 L545.2083,417.9503 M545.5,419.117 L546.6667,419.117 L546.6667,420.2836 L545.5,420.2836 L545.5,419.117 M547.8333,419.117 L552.5,419.117 L552.5,420.2836 L547.8333,420.2836 L547.8333,419.117 M545.5,421.4503 L546.6667,421.4503 L546.6667,422.617 L545.5,422.617 L545.5,421.4503 M547.8333,421.4503 L552.5,421.4503 L552.5,422.617 L547.8333,422.617 L547.8333,421.4503 M545.5,423.7836 L546.6667,423.7836 L546.6667,424.9503 L545.5,424.9503 L545.5,423.7836 M547.8333,423.7836 L552.5,423.7836 L552.5,424.9503 L547.8333,424.9503 L547.8333,423.7836 " fill="#000000" style="stroke: ; stroke-width: 0.0; stroke-dasharray: ;"/><text fill="#000000" font-family="Helvetica" font-size="14" lengthAdjust="spacingAndGlyphs" textLength="125" x="558.6667" y="426.6817">--db-password / -p</text><path d="M483.3333,273.5799 L493.3333,273.5799 C508.3333,273.5799 508.3333,421.2497 523.3333,421.2497 L533.3333,421.2497 " fill="none" style="stroke: #808080; stroke-width: 2.0;"/><path d="M135.3333,855.5986 L145.3333,855.5986 C160.3333,855.5986 160.3333,273.5799 175.3333,273.5799 L185.3333,273.5799 " fill="none" style="stroke: #808080; stroke-width: 2.0;"/><text fill="#808080" font-family="Helvetica" font-size="14" lengthAdjust="spacingAndGlyphs" text-decoration="line-through" textLength="155" x="188.3333" y="300.0798">filter arguments group</text><path d="M135.3333,855.5986 L145.3333,855.5986 C160.3333,855.5986 160.3333,294.6478 175.3333,294.6478 L185.3333,294.6478 " fill="none" style="stroke: #808080; stroke-width: 2.0;"/><rect fill="#DEB887" height="39.0679" rx="7" ry="7" style="stroke: #A80036; stroke-width: 1.5;" width="103.3333" x="185.3333" y="315.1818"/><path d="M200.4167,331.4163 L199.8333,332.8023 L199.5055,332.9482 L198.1195,332.3648 L197.2807,333.2037 L197.864,334.5897 L197.7182,334.9175 L196.3322,335.5008 L196.3322,336.6675 L197.7182,337.2508 L197.864,337.616 L197.2807,338.9647 L198.1195,339.8035 L199.5055,339.2202 L199.8333,339.366 L200.4167,340.752 L201.5833,340.752 L202.1667,339.366 L202.4945,339.2202 L203.8805,339.8035 L204.7193,338.9647 L204.136,337.5787 L204.2818,337.2508 L205.6678,336.6675 L205.6678,335.5008 L204.2818,334.9175 L204.136,334.5897 L204.6832,333.2037 L203.8805,332.3648 L202.4945,332.9482 L202.1667,332.8023 L201.5833,331.4163 L200.4167,331.4163 M201,334.333 C201.9683,334.333 202.75,335.1147 202.75,336.083 C202.75,337.0513 201.9683,337.833 201,337.833 C200.0317,337.833 199.25,337.0513 199.25,336.083 C199.25,335.1147 200.0317,334.333 201,334.333 " fill="#000000" style="stroke: ; stroke-width: 0.0; stroke-dasharray: ;"/><text fill="#000000" font-family="Helvetica" font-size="14" lengthAdjust="spacingAndGlyphs" textLength="68" x="210.6667" y="340.1477">--tiler-app</text><path d="M347.3333,320.8824 L346.1667,324.3824 L342.6667,324.3824 L345.5833,326.7157 L344.4167,330.2157 L347.3333,327.8824 L350.25,330.2157 L349.0833,326.7157 L352,324.3824 L348.5,324.3824 L347.3333,320.8824 " fill="#000000" style="stroke: ; stroke-width: 0.0; stroke-dasharray: ;"/><text fill="#000000" font-family="Helvetica" font-size="14" lengthAdjust="spacingAndGlyphs" textLength="65" x="357" y="329.6137">pg2b3dm</text><path d="M288.6667,334.7157 L298.6667,334.7157 C313.6667,334.7157 313.6667,324.1818 328.6667,324.1818 L338.6667,324.1818 " fill="none" style="stroke: #808080; stroke-width: 2.0;"/><text fill="#808080" font-family="Helvetica" font-size="14" lengthAdjust="spacingAndGlyphs" text-decoration="line-through" textLength="146" x="341.6667" y="350.6817">i3dmExport, py3dtiles</text><path d="M288.6667,334.7157 L298.6667,334.7157 C313.6667,334.7157 313.6667,345.2497 328.6667,345.2497 L338.6667,345.2497 " fill="none" style="stroke: #808080; stroke-width: 2.0;"/><path d="M135.3333,855.5986 L145.3333,855.5986 C160.3333,855.5986 160.3333,334.7157 175.3333,334.7157 L185.3333,334.7157 " fill="none" style="stroke: #808080; stroke-width: 2.0;"/><rect fill="#DEB887" height="39.0679" rx="7" ry="7" style="stroke: #A80036; stroke-width: 1.5;" width="115.3333" x="185.3333" y="374.2497"/><path d="M200.4167,390.4843 L199.8333,391.8703 L199.5055,392.0161 L198.1195,391.4328 L197.2807,392.2716 L197.864,393.6576 L197.7182,393.9854 L196.3322,394.5688 L196.3322,395.7354 L197.7182,396.3188 L197.864,396.6839 L197.2807,398.0326 L198.1195,398.8714 L199.5055,398.2881 L199.8333,398.4339 L200.4167,399.8199 L201.5833,399.8199 L202.1667,398.4339 L202.4945,398.2881 L203.8805,398.8714 L204.7193,398.0326 L204.136,396.6466 L204.2818,396.3188 L205.6678,395.7354 L205.6678,394.5688 L204.2818,393.9854 L204.136,393.6576 L204.6832,392.2716 L203.8805,391.4328 L202.4945,392.0161 L202.1667,391.8703 L201.5833,390.4843 L200.4167,390.4843 M201,393.4009 C201.9683,393.4009 202.75,394.1826 202.75,395.1509 C202.75,396.1193 201.9683,396.9009 201,396.9009 C200.0317,396.9009 199.25,396.1193 199.25,395.1509 C199.25,394.1826 200.0317,393.4009 201,393.4009 " fill="#000000" style="stroke: ; stroke-width: 0.0; stroke-dasharray: ;"/><text fill="#000000" font-family="Helvetica" font-size="14" lengthAdjust="spacingAndGlyphs" textLength="80" x="210.6667" y="399.2156">--tilers-path</text><text fill="#000000" font-family="Helvetica" font-size="14" lengthAdjust="spacingAndGlyphs" textLength="115" x="353.6667" y="388.6817">default: tiler_app</text><path d="M300.6667,393.7836 L310.6667,393.7836 C325.6667,393.7836 325.6667,383.2497 340.6667,383.2497 L350.6667,383.2497 " fill="none" style="stroke: #808080; stroke-width: 2.0;"/><text fill="#000000" font-family="Helvetica" font-size="14" lengthAdjust="spacingAndGlyphs" textLength="130" x="353.6667" y="409.7496">any-other-directory</text><path d="M300.6667,393.7836 L310.6667,393.7836 C325.6667,393.7836 325.6667,404.3176 340.6667,404.3176 L350.6667,404.3176 " fill="none" style="stroke: #808080; stroke-width: 2.0;"/><path d="M135.3333,855.5986 L145.3333,855.5986 C160.3333,855.5986 160.3333,393.7836 175.3333,393.7836 L185.3333,393.7836 " fill="none" style="stroke: #808080; stroke-width: 2.0;"/><rect fill="#FA8072" height="39.0679" rx="7" ry="7" style="stroke: #A80036; stroke-width: 1.5;" width="147.3333" x="185.3333" y="433.3176"/><path d="M196.3333,449.5522 L196.3333,454.2188 L201,454.2188 L201,449.5522 L196.3333,449.5522 M202.1667,451.8855 L202.1667,455.3855 L198.6667,455.3855 L198.6667,456.5522 L203.3333,456.5522 L203.3333,451.8855 L202.1667,451.8855 M204.5,454.2188 L204.5,457.7188 L201,457.7188 L201,458.8855 L205.6667,458.8855 L205.6667,454.2188 L204.5,454.2188 " fill="#000000" style="stroke: ; stroke-width: 0.0; stroke-dasharray: ;"/><text fill="#000000" font-family="Helvetica" font-size="14" lengthAdjust="spacingAndGlyphs" textLength="112" x="210.6667" y="458.2835">separate-tilesets</text><path d="M391.3333,439.0182 L390.1667,442.5182 L386.6667,442.5182 L389.5833,444.8515 L388.4167,448.3515 L391.3333,446.0182 L394.25,448.3515 L393.0833,444.8515 L396,442.5182 L392.5,442.5182 L391.3333,439.0182 " fill="#000000" style="stroke: ; stroke-width: 0.0; stroke-dasharray: ;"/><text fill="#000000" font-family="Helvetica" font-size="14" lengthAdjust="spacingAndGlyphs" textLength="74" x="401" y="447.7496">objectclass</text><path d="M332.6667,452.8515 L342.6667,452.8515 C357.6667,452.8515 357.6667,442.3176 372.6667,442.3176 L382.6667,442.3176 " fill="none" style="stroke: #808080; stroke-width: 2.0;"/><text fill="#808080" font-family="Helvetica" font-size="14" lengthAdjust="spacingAndGlyphs" text-decoration="line-through" textLength="77" x="385.6667" y="468.8175">namespace</text><path d="M332.6667,452.8515 L342.6667,452.8515 C357.6667,452.8515 357.6667,463.3855 372.6667,463.3855 L382.6667,463.3855 " fill="none" style="stroke: #808080; stroke-width: 2.0;"/><path d="M135.3333,855.5986 L145.3333,855.5986 C160.3333,855.5986 160.3333,452.8515 175.3333,452.8515 L185.3333,452.8515 " fill="none" style="stroke: #808080; stroke-width: 2.0;"/><rect fill="#87CEEB" height="39.0679" rx="7" ry="7" style="stroke: #A80036; stroke-width: 1.5;" width="78.3333" x="185.3333" y="521.9195"/><path d="M200.4167,538.154 C198.1685,538.154 196.3333,539.9892 196.3333,542.2374 C196.3333,544.4855 198.1685,546.3207 200.4167,546.3207 C201.1073,546.3207 201.777,546.1515 202.3487,545.847 A1.1667,1.1667 0 0 0 202.4945,545.9929 L203.6612,547.1595 A1.1853,1.1853 0 1 0 205.3388,545.4819 L204.1722,544.3152 A1.1667,1.1667 0 0 0 203.9902,544.1694 C204.3005,543.5942 204.5012,542.9339 204.5012,542.2374 C204.5012,539.9892 202.666,538.154 200.4178,538.154 M200.4178,539.3207 C202.036,539.3207 203.3345,540.6192 203.3345,542.2374 C203.3345,543.0085 203.0533,543.7225 202.5692,544.2429 L202.533,544.279 A1.1667,1.1667 0 0 0 202.3872,544.4249 C201.8715,544.888 201.1703,545.154 200.4178,545.154 C198.7997,545.154 197.5012,543.8555 197.5012,542.2374 C197.5012,540.6192 198.7997,539.3207 200.4178,539.3207 " fill="#000000" style="stroke: ; stroke-width: 0.0; stroke-dasharray: ;"/><text fill="#000000" font-family="Helvetica" font-size="14" lengthAdjust="spacingAndGlyphs" textLength="43" x="210.6667" y="546.8854">advise</text><rect fill="#8FBC8F" height="39.0679" rx="7" ry="7" style="stroke: #A80036; stroke-width: 1.5;" width="102.3333" x="313.6667" y="492.3855"/><path d="M327,508.6201 L327,510.9534 L324.6667,510.9534 L324.6667,515.6201 L327,515.6201 L327,517.9534 L331.6667,517.9534 L331.6667,515.6201 L334,515.6201 L334,510.9534 L331.6667,510.9534 L331.6667,508.6201 L327,508.6201 " fill="#000000" style="stroke: ; stroke-width: 0.0; stroke-dasharray: ;"/><text fill="#000000" font-family="Helvetica" font-size="14" lengthAdjust="spacingAndGlyphs" textLength="67" x="339" y="517.3514">--help / -h</text><path d="M263.6667,541.4534 L273.6667,541.4534 C288.6667,541.4534 288.6667,511.9195 303.6667,511.9195 L313.6667,511.9195 " fill="none" style="stroke: #808080; stroke-width: 2.0;"/><rect fill="#DEB887" height="39.0679" rx="7" ry="7" style="stroke: #A80036; stroke-width: 1.5;" width="142.3333" x="313.6667" y="551.4534"/><path d="M328.75,567.688 L328.1667,569.074 L327.8388,569.2198 L326.4528,568.6365 L325.614,569.4753 L326.1973,570.8613 L326.0515,571.1892 L324.6655,571.7725 L324.6655,572.9392 L326.0515,573.5225 L326.1973,573.8877 L325.614,575.2363 L326.4528,576.0752 L327.8388,575.4918 L328.1667,575.6377 L328.75,577.0237 L329.9167,577.0237 L330.5,575.6377 L330.8278,575.4918 L332.2138,576.0752 L333.0527,575.2363 L332.4693,573.8503 L332.6152,573.5225 L334.0012,572.9392 L334.0012,571.7725 L332.6152,571.1892 L332.4693,570.8613 L333.0165,569.4753 L332.2138,568.6365 L330.8278,569.2198 L330.5,569.074 L329.9167,567.688 L328.75,567.688 M329.3333,570.6047 C330.3017,570.6047 331.0833,571.3863 331.0833,572.3547 C331.0833,573.323 330.3017,574.1047 329.3333,574.1047 C328.365,574.1047 327.5833,573.323 327.5833,572.3547 C327.5833,571.3863 328.365,570.6047 329.3333,570.6047 " fill="#000000" style="stroke: ; stroke-width: 0.0; stroke-dasharray: ;"/><text fill="#000000" font-family="Helvetica" font-size="14" lengthAdjust="spacingAndGlyphs" textLength="107" x="339" y="576.4194">--output-file / -o</text><path d="M514.6667,557.154 L513.5,560.654 L510,560.654 L512.9167,562.9874 L511.75,566.4874 L514.6667,564.154 L517.5833,566.4874 L516.4167,562.9874 L519.3333,560.654 L515.8333,560.654 L514.6667,557.154 " fill="#000000" style="stroke: ; stroke-width: 0.0; stroke-dasharray: ;"/><text fill="#000000" font-family="Helvetica" font-size="14" lengthAdjust="spacingAndGlyphs" textLength="71" x="524.3333" y="565.8854">advice.yml</text><path d="M456,570.9874 L466,570.9874 C481,570.9874 481,560.4534 496,560.4534 L506,560.4534 " fill="none" style="stroke: #808080; stroke-width: 2.0;"/><text fill="#000000" font-family="Helvetica" font-size="14" lengthAdjust="spacingAndGlyphs" textLength="134" x="509" y="586.9533">any-other-file-name</text><path d="M456,570.9874 L466,570.9874 C481,570.9874 481,581.5213 496,581.5213 L506,581.5213 " fill="none" style="stroke: #808080; stroke-width: 2.0;"/><path d="M263.6667,541.4534 L273.6667,541.4534 C288.6667,541.4534 288.6667,570.9874 303.6667,570.9874 L313.6667,570.9874 " fill="none" style="stroke: #808080; stroke-width: 2.0;"/><path d="M135.3333,855.5986 L145.3333,855.5986 C160.3333,855.5986 160.3333,541.4534 175.3333,541.4534 L185.3333,541.4534 " fill="none" style="stroke: #808080; stroke-width: 2.0;"/><rect fill="#87CEEB" height="39.0679" rx="7" ry="7" style="stroke: #A80036; stroke-width: 1.5;" width="56.3333" x="185.3333" y="1088.1373"/><path d="M196.3333,1104.3719 L196.3333,1107.8719 L199.8333,1107.8719 L199.8333,1104.3719 L196.3333,1104.3719 M202.1667,1104.3719 L202.1667,1107.8719 L205.6667,1107.8719 L205.6667,1104.3719 L202.1667,1104.3719 M196.3333,1110.2052 L196.3333,1113.7052 L199.8333,1113.7052 L199.8333,1110.2052 L196.3333,1110.2052 M202.1667,1110.2052 L202.1667,1113.7052 L205.6667,1113.7052 L205.6667,1110.2052 L202.1667,1110.2052 " fill="#000000" style="stroke: ; stroke-width: 0.0; stroke-dasharray: ;"/><text fill="#000000" font-family="Helvetica" font-size="14" lengthAdjust="spacingAndGlyphs" textLength="21" x="210.6667" y="1113.1032">tile</text><rect fill="#8FBC8F" height="39.0679" rx="7" ry="7" style="stroke: #A80036; stroke-width: 1.5;" width="102.3333" x="291.6667" y="610.5213"/><path d="M305,626.7559 L305,629.0893 L302.6667,629.0893 L302.6667,633.7559 L305,633.7559 L305,636.0893 L309.6667,636.0893 L309.6667,633.7559 L312,633.7559 L312,629.0893 L309.6667,629.0893 L309.6667,626.7559 L305,626.7559 " fill="#000000" style="stroke: ; stroke-width: 0.0; stroke-dasharray: ;"/><text fill="#000000" font-family="Helvetica" font-size="14" lengthAdjust="spacingAndGlyphs" textLength="67" x="317" y="635.4873">--help / -h</text><path d="M241.6667,1107.6712 L251.6667,1107.6712 C266.6667,1107.6712 266.6667,630.0553 281.6667,630.0553 L291.6667,630.0553 " fill="none" style="stroke: #808080; stroke-width: 2.0;"/><rect fill="#DEB887" height="39.0679" rx="7" ry="7" style="stroke: #A80036; stroke-width: 1.5;" width="119.3333" x="291.6667" y="669.5893"/><path d="M306.75,685.8238 L306.1667,687.2098 L305.8388,687.3557 L304.4528,686.7723 L303.614,687.6112 L304.1973,688.9972 L304.0515,689.325 L302.6655,689.9083 L302.6655,691.075 L304.0515,691.6583 L304.1973,692.0235 L303.614,693.3722 L304.4528,694.211 L305.8388,693.6277 L306.1667,693.7735 L306.75,695.1595 L307.9167,695.1595 L308.5,693.7735 L308.8278,693.6277 L310.2138,694.211 L311.0527,693.3722 L310.4693,691.9862 L310.6152,691.6583 L312.0012,691.075 L312.0012,689.9083 L310.6152,689.325 L310.4693,688.9972 L311.0165,687.6112 L310.2138,686.7723 L308.8278,687.3557 L308.5,687.2098 L307.9167,685.8238 L306.75,685.8238 M307.3333,688.7405 C308.3017,688.7405 309.0833,689.5222 309.0833,690.4905 C309.0833,691.4588 308.3017,692.2405 307.3333,692.2405 C306.365,692.2405 305.5833,691.4588 305.5833,690.4905 C305.5833,689.5222 306.365,688.7405 307.3333,688.7405 " fill="#000000" style="stroke: ; stroke-width: 0.0; stroke-dasharray: ;"/><text fill="#000000" font-family="Helvetica" font-size="14" lengthAdjust="spacingAndGlyphs" textLength="84" x="317" y="694.5552">--style-mode</text><text fill="#000000" font-family="Helvetica" font-size="14" lengthAdjust="spacingAndGlyphs" textLength="145" x="464" y="662.9533">existing-appearances</text><path d="M411,689.1232 L421,689.1232 C436,689.1232 436,657.5213 451,657.5213 L461,657.5213 " fill="none" style="stroke: #808080; stroke-width: 2.0;"/><text fill="#000000" font-family="Helvetica" font-size="14" lengthAdjust="spacingAndGlyphs" textLength="104" x="464" y="684.0212">property-based</text><path d="M411,689.1232 L421,689.1232 C436,689.1232 436,678.5893 451,678.5893 L461,678.5893 " fill="none" style="stroke: #808080; stroke-width: 2.0;"/><path d="M469.6667,696.3578 L468.5,699.8578 L465,699.8578 L467.9167,702.1911 L466.75,705.6911 L469.6667,703.3578 L472.5833,705.6911 L471.4167,702.1911 L474.3333,699.8578 L470.8333,699.8578 L469.6667,696.3578 " fill="#000000" style="stroke: ; stroke-width: 0.0; stroke-dasharray: ;"/><text fill="#000000" font-family="Helvetica" font-size="14" lengthAdjust="spacingAndGlyphs" textLength="120" x="479.3333" y="705.0892">objectclass-based</text><path d="M411,689.1232 L421,689.1232 C436,689.1232 436,699.6572 451,699.6572 L461,699.6572 " fill="none" style="stroke: #808080; stroke-width: 2.0;"/><text fill="#000000" font-family="Helvetica" font-size="14" lengthAdjust="spacingAndGlyphs" textLength="53" x="464" y="726.1571">no-style</text><path d="M411,689.1232 L421,689.1232 C436,689.1232 436,720.7251 451,720.7251 L461,720.7251 " fill="none" style="stroke: #808080; stroke-width: 2.0;"/><path d="M241.6667,1107.6712 L251.6667,1107.6712 C266.6667,1107.6712 266.6667,689.1232 281.6667,689.1232 L291.6667,689.1232 " fill="none" style="stroke: #808080; stroke-width: 2.0;"/><rect fill="#DEB887" height="39.0679" rx="7" ry="7" style="stroke: #A80036; stroke-width: 1.5;" width="201.3333" x="291.6667" y="741.2591"/><path d="M306.75,757.4936 L306.1667,758.8796 L305.8388,759.0255 L304.4528,758.4421 L303.614,759.281 L304.1973,760.667 L304.0515,760.9948 L302.6655,761.5781 L302.6655,762.7448 L304.0515,763.3281 L304.1973,763.6933 L303.614,765.042 L304.4528,765.8808 L305.8388,765.2975 L306.1667,765.4433 L306.75,766.8293 L307.9167,766.8293 L308.5,765.4433 L308.8278,765.2975 L310.2138,765.8808 L311.0527,765.042 L310.4693,763.656 L310.6152,763.3281 L312.0012,762.7448 L312.0012,761.5781 L310.6152,760.9948 L310.4693,760.667 L311.0165,759.281 L310.2138,758.4421 L308.8278,759.0255 L308.5,758.8796 L307.9167,757.4936 L306.75,757.4936 M307.3333,760.4103 C308.3017,760.4103 309.0833,761.192 309.0833,762.1603 C309.0833,763.1286 308.3017,763.9103 307.3333,763.9103 C306.365,763.9103 305.5833,763.1286 305.5833,762.1603 C305.5833,761.192 306.365,760.4103 307.3333,760.4103 " fill="#000000" style="stroke: ; stroke-width: 0.0; stroke-dasharray: ;"/><text fill="#000000" font-family="Helvetica" font-size="14" lengthAdjust="spacingAndGlyphs" textLength="166" x="317" y="766.225">--style-absence-behavior</text><path d="M551.6667,746.9597 L550.5,750.4597 L547,750.4597 L549.9167,752.793 L548.75,756.293 L551.6667,753.9597 L554.5833,756.293 L553.4167,752.793 L556.3333,750.4597 L552.8333,750.4597 L551.6667,746.9597 " fill="#000000" style="stroke: ; stroke-width: 0.0; stroke-dasharray: ;"/><text fill="#000000" font-family="Helvetica" font-size="14" lengthAdjust="spacingAndGlyphs" textLength="63" x="561.3333" y="755.691">fall-down</text><path d="M493,760.793 L503,760.793 C518,760.793 518,750.2591 533,750.2591 L543,750.2591 " fill="none" style="stroke: #808080; stroke-width: 2.0;"/><text fill="#000000" font-family="Helvetica" font-size="14" lengthAdjust="spacingAndGlyphs" textLength="48" x="546" y="776.7589">rise-up</text><path d="M493,760.793 L503,760.793 C518,760.793 518,771.327 533,771.327 L543,771.327 " fill="none" style="stroke: #808080; stroke-width: 2.0;"/><path d="M241.6667,1107.6712 L251.6667,1107.6712 C266.6667,1107.6712 266.6667,760.793 281.6667,760.793 L291.6667,760.793 " fill="none" style="stroke: #808080; stroke-width: 2.0;"/><rect fill="#DEB887" height="39.0679" rx="7" ry="7" style="stroke: #A80036; stroke-width: 1.5;" width="134.3333" x="291.6667" y="802.3949"/><path d="M306.75,818.6295 L306.1667,820.0155 L305.8388,820.1613 L304.4528,819.578 L303.614,820.4168 L304.1973,821.8028 L304.0515,822.1306 L302.6655,822.714 L302.6655,823.8806 L304.0515,824.464 L304.1973,824.8291 L303.614,826.1778 L304.4528,827.0166 L305.8388,826.4333 L306.1667,826.5791 L306.75,827.9651 L307.9167,827.9651 L308.5,826.5791 L308.8278,826.4333 L310.2138,827.0166 L311.0527,826.1778 L310.4693,824.7918 L310.6152,824.464 L312.0012,823.8806 L312.0012,822.714 L310.6152,822.1306 L310.4693,821.8028 L311.0165,820.4168 L310.2138,819.578 L308.8278,820.1613 L308.5,820.0155 L307.9167,818.6295 L306.75,818.6295 M307.3333,821.5461 C308.3017,821.5461 309.0833,822.3278 309.0833,823.2961 C309.0833,824.2645 308.3017,825.0461 307.3333,825.0461 C306.365,825.0461 305.5833,824.2645 305.5833,823.2961 C305.5833,822.3278 306.365,821.5461 307.3333,821.5461 " fill="#000000" style="stroke: ; stroke-width: 0.0; stroke-dasharray: ;"/><text fill="#000000" font-family="Helvetica" font-size="14" lengthAdjust="spacingAndGlyphs" textLength="99" x="317" y="827.3608">--transparency</text><text fill="#000000" font-family="Helvetica" font-size="14" lengthAdjust="spacingAndGlyphs" textLength="39" x="479" y="806.2929">blend</text><path d="M426,821.9288 L436,821.9288 C451,821.9288 451,800.8609 466,800.8609 L476,800.8609 " fill="none" style="stroke: #808080; stroke-width: 2.0;"/><text fill="#000000" font-family="Helvetica" font-size="14" lengthAdjust="spacingAndGlyphs" textLength="35" x="479" y="827.3608">mask</text><path d="M426,821.9288 L436,821.9288 C451,821.9288 451,821.9288 466,821.9288 L476,821.9288 " fill="none" style="stroke: #808080; stroke-width: 2.0;"/><path d="M484.6667,839.6974 L483.5,843.1974 L480,843.1974 L482.9167,845.5307 L481.75,849.0307 L484.6667,846.6974 L487.5833,849.0307 L486.4167,845.5307 L489.3333,843.1974 L485.8333,843.1974 L484.6667,839.6974 " fill="#000000" style="stroke: ; stroke-width: 0.0; stroke-dasharray: ;"/><text fill="#000000" font-family="Helvetica" font-size="14" lengthAdjust="spacingAndGlyphs" textLength="51" x="494.3333" y="848.4287">opaque</text><path d="M426,821.9288 L436,821.9288 C451,821.9288 451,842.9968 466,842.9968 L476,842.9968 " fill="none" style="stroke: #808080; stroke-width: 2.0;"/><path d="M241.6667,1107.6712 L251.6667,1107.6712 C266.6667,1107.6712 266.6667,821.9288 281.6667,821.9288 L291.6667,821.9288 " fill="none" style="stroke: #808080; stroke-width: 2.0;"/><rect fill="#DEB887" height="39.0679" rx="7" ry="7" style="stroke: #A80036; stroke-width: 1.5;" width="161.3333" x="291.6667" y="863.5307"/><path d="M306.75,879.7653 L306.1667,881.1513 L305.8388,881.2971 L304.4528,880.7138 L303.614,881.5526 L304.1973,882.9386 L304.0515,883.2665 L302.6655,883.8498 L302.6655,885.0165 L304.0515,885.5998 L304.1973,885.965 L303.614,887.3136 L304.4528,888.1525 L305.8388,887.5691 L306.1667,887.715 L306.75,889.101 L307.9167,889.101 L308.5,887.715 L308.8278,887.5691 L310.2138,888.1525 L311.0527,887.3136 L310.4693,885.9276 L310.6152,885.5998 L312.0012,885.0165 L312.0012,883.8498 L310.6152,883.2665 L310.4693,882.9386 L311.0165,881.5526 L310.2138,880.7138 L308.8278,881.2971 L308.5,881.1513 L307.9167,879.7653 L306.75,879.7653 M307.3333,882.682 C308.3017,882.682 309.0833,883.4636 309.0833,884.432 C309.0833,885.4003 308.3017,886.182 307.3333,886.182 C306.365,886.182 305.5833,885.4003 305.5833,884.432 C305.5833,883.4636 306.365,882.682 307.3333,882.682 " fill="#000000" style="stroke: ; stroke-width: 0.0; stroke-dasharray: ;"/><text fill="#000000" font-family="Helvetica" font-size="14" lengthAdjust="spacingAndGlyphs" textLength="126" x="317" y="888.4967">--output-folder / -o</text><path d="M511.6667,869.2313 L510.5,872.7313 L507,872.7313 L509.9167,875.0647 L508.75,878.5647 L511.6667,876.2313 L514.5833,878.5647 L513.4167,875.0647 L516.3333,872.7313 L512.8333,872.7313 L511.6667,869.2313 " fill="#000000" style="stroke: ; stroke-width: 0.0; stroke-dasharray: ;"/><text fill="#000000" font-family="Helvetica" font-size="14" lengthAdjust="spacingAndGlyphs" textLength="52" x="521.3333" y="877.9627">/shared</text><path d="M453,883.0647 L463,883.0647 C478,883.0647 478,872.5307 493,872.5307 L503,872.5307 " fill="none" style="stroke: #808080; stroke-width: 2.0;"/><text fill="#000000" font-family="Helvetica" font-size="14" lengthAdjust="spacingAndGlyphs" textLength="130" x="506" y="899.0306">any-other-directory</text><path d="M453,883.0647 L463,883.0647 C478,883.0647 478,893.5986 493,893.5986 L503,893.5986 " fill="none" style="stroke: #808080; stroke-width: 2.0;"/><path d="M241.6667,1107.6712 L251.6667,1107.6712 C266.6667,1107.6712 266.6667,883.0647 281.6667,883.0647 L291.6667,883.0647 " fill="none" style="stroke: #808080; stroke-width: 2.0;"/><rect fill="#DEB887" height="39.0679" rx="7" ry="7" style="stroke: #A80036; stroke-width: 1.5;" width="130.3333" x="291.6667" y="922.5986"/><path d="M306.75,938.8332 L306.1667,940.2192 L305.8388,940.3651 L304.4528,939.7817 L303.614,940.6206 L304.1973,942.0066 L304.0515,942.3344 L302.6655,942.9177 L302.6655,944.0844 L304.0515,944.6677 L304.1973,945.0329 L303.614,946.3816 L304.4528,947.2204 L305.8388,946.6371 L306.1667,946.7829 L306.75,948.1689 L307.9167,948.1689 L308.5,946.7829 L308.8278,946.6371 L310.2138,947.2204 L311.0527,946.3816 L310.4693,944.9956 L310.6152,944.6677 L312.0012,944.0844 L312.0012,942.9177 L310.6152,942.3344 L310.4693,942.0066 L311.0165,940.6206 L310.2138,939.7817 L308.8278,940.3651 L308.5,940.2192 L307.9167,938.8332 L306.75,938.8332 M307.3333,941.7499 C308.3017,941.7499 309.0833,942.5316 309.0833,943.4999 C309.0833,944.4682 308.3017,945.2499 307.3333,945.2499 C306.365,945.2499 305.5833,944.4682 305.5833,943.4999 C305.5833,942.5316 306.365,941.7499 307.3333,941.7499 " fill="#000000" style="stroke: ; stroke-width: 0.0; stroke-dasharray: ;"/><text fill="#000000" font-family="Helvetica" font-size="14" lengthAdjust="spacingAndGlyphs" textLength="95" x="317" y="947.5646">--custom-style</text><path d="M480.6667,928.2993 L479.5,931.7993 L476,931.7993 L478.9167,934.1326 L477.75,937.6326 L480.6667,935.2993 L483.5833,937.6326 L482.4167,934.1326 L485.3333,931.7993 L481.8333,931.7993 L480.6667,928.2993 " fill="#000000" style="stroke: ; stroke-width: 0.0; stroke-dasharray: ;"/><text fill="#000000" font-family="Helvetica" font-size="14" lengthAdjust="spacingAndGlyphs" textLength="175" x="490.3333" y="937.0306">materials_for_features.csv</text><path d="M422,942.1326 L432,942.1326 C447,942.1326 447,931.5986 462,931.5986 L472,931.5986 " fill="none" style="stroke: #808080; stroke-width: 2.0;"/><text fill="#000000" font-family="Helvetica" font-size="14" lengthAdjust="spacingAndGlyphs" textLength="171" x="475" y="958.0985">any-other-copy-of-csv-file</text><path d="M422,942.1326 L432,942.1326 C447,942.1326 447,952.6666 462,952.6666 L472,952.6666 " fill="none" style="stroke: #808080; stroke-width: 2.0;"/><path d="M241.6667,1107.6712 L251.6667,1107.6712 C266.6667,1107.6712 266.6667,942.1326 281.6667,942.1326 L291.6667,942.1326 " fill="none" style="stroke: #808080; stroke-width: 2.0;"/><rect fill="#00CED1" height="39.0679" rx="7" ry="7" style="stroke: #A80036; stroke-width: 1.5;" width="111.3333" x="291.6667" y="983.7345"/><path d="M303.25,999.9691 C302.928,999.9691 302.6667,1000.2304 302.6667,1000.5524 C302.6667,1000.8744 302.928,1001.1357 303.25,1001.1357 C303.572,1001.1357 303.8333,1000.8744 303.8333,1000.5524 C303.8333,1000.2304 303.572,999.9691 303.25,999.9691 M305,999.9691 L305,1001.1357 L312,1001.1357 L312,999.9691 L305,999.9691 M303.25,1002.3024 C302.928,1002.3024 302.6667,1002.5637 302.6667,1002.8857 C302.6667,1003.2077 302.928,1003.4691 303.25,1003.4691 C303.572,1003.4691 303.8333,1003.2077 303.8333,1002.8857 C303.8333,1002.5637 303.572,1002.3024 303.25,1002.3024 M305,1002.3024 L305,1003.4691 L312,1003.4691 L312,1002.3024 L305,1002.3024 M303.25,1004.6357 C302.928,1004.6357 302.6667,1004.8971 302.6667,1005.2191 C302.6667,1005.5411 302.928,1005.8024 303.25,1005.8024 C303.572,1005.8024 303.8333,1005.5411 303.8333,1005.2191 C303.8333,1004.8971 303.572,1004.6357 303.25,1004.6357 M305,1004.6357 L305,1005.8024 L312,1005.8024 L312,1004.6357 L305,1004.6357 M303.25,1006.9691 C302.928,1006.9691 302.6667,1007.2304 302.6667,1007.5524 C302.6667,1007.8744 302.928,1008.1357 303.25,1008.1357 C303.572,1008.1357 303.8333,1007.8744 303.8333,1007.5524 C303.8333,1007.2304 303.572,1006.9691 303.25,1006.9691 M305,1006.9691 L305,1008.1357 L312,1008.1357 L312,1006.9691 L305,1006.9691 " fill="#000000" style="stroke: ; stroke-width: 0.0; stroke-dasharray: ;"/><text fill="#000000" font-family="Helvetica" font-size="14" lengthAdjust="spacingAndGlyphs" textLength="76" x="317" y="1008.7004">--attributes</text><path d="M461.6667,978.9011 L460.5,982.4011 L457,982.4011 L459.9167,984.7345 L458.75,988.2345 L461.6667,985.9011 L464.5833,988.2345 L463.4167,984.7345 L466.3333,982.4011 L462.8333,982.4011 L461.6667,978.9011 " fill="#000000" style="stroke: ; stroke-width: 0.0; stroke-dasharray: ;"/><text fill="#000000" font-family="Helvetica" font-size="14" lengthAdjust="spacingAndGlyphs" textLength="34" x="471.3333" y="987.6325">none</text><path d="M403,1003.2684 L413,1003.2684 C428,1003.2684 428,982.2005 443,982.2005 L453,982.2005 " fill="none" style="stroke: #808080; stroke-width: 2.0;"/><text fill="#000000" font-family="Helvetica" font-size="14" lengthAdjust="spacingAndGlyphs" textLength="56" x="456" y="1008.7004">selected</text><path d="M403,1003.2684 L413,1003.2684 C428,1003.2684 428,1003.2684 443,1003.2684 L453,1003.2684 " fill="none" style="stroke: #808080; stroke-width: 2.0;"/><text fill="#000000" font-family="Helvetica" font-size="14" lengthAdjust="spacingAndGlyphs" textLength="16" x="456" y="1029.7683">all</text><path d="M403,1003.2684 L413,1003.2684 C428,1003.2684 428,1024.3363 443,1024.3363 L453,1024.3363 " fill="none" style="stroke: #808080; stroke-width: 2.0;"/><path d="M241.6667,1107.6712 L251.6667,1107.6712 C266.6667,1107.6712 266.6667,1003.2684 281.6667,1003.2684 L291.6667,1003.2684 " fill="none" style="stroke: #808080; stroke-width: 2.0;"/><rect fill="#00CED1" height="39.0679" rx="7" ry="7" style="stroke: #A80036; stroke-width: 1.5;" width="172.3333" x="291.6667" y="1044.8703"/><path d="M303.25,1061.1049 C302.928,1061.1049 302.6667,1061.3662 302.6667,1061.6882 C302.6667,1062.0102 302.928,1062.2716 303.25,1062.2716 C303.572,1062.2716 303.8333,1062.0102 303.8333,1061.6882 C303.8333,1061.3662 303.572,1061.1049 303.25,1061.1049 M305,1061.1049 L305,1062.2716 L312,1062.2716 L312,1061.1049 L305,1061.1049 M303.25,1063.4382 C302.928,1063.4382 302.6667,1063.6996 302.6667,1064.0216 C302.6667,1064.3436 302.928,1064.6049 303.25,1064.6049 C303.572,1064.6049 303.8333,1064.3436 303.8333,1064.0216 C303.8333,1063.6996 303.572,1063.4382 303.25,1063.4382 M305,1063.4382 L305,1064.6049 L312,1064.6049 L312,1063.4382 L305,1063.4382 M303.25,1065.7716 C302.928,1065.7716 302.6667,1066.0329 302.6667,1066.3549 C302.6667,1066.6769 302.928,1066.9382 303.25,1066.9382 C303.572,1066.9382 303.8333,1066.6769 303.8333,1066.3549 C303.8333,1066.0329 303.572,1065.7716 303.25,1065.7716 M305,1065.7716 L305,1066.9382 L312,1066.9382 L312,1065.7716 L305,1065.7716 M303.25,1068.1049 C302.928,1068.1049 302.6667,1068.3662 302.6667,1068.6882 C302.6667,1069.0102 302.928,1069.2716 303.25,1069.2716 C303.572,1069.2716 303.8333,1069.0102 303.8333,1068.6882 C303.8333,1068.3662 303.572,1068.1049 303.25,1068.1049 M305,1068.1049 L305,1069.2716 L312,1069.2716 L312,1068.1049 L305,1068.1049 " fill="#000000" style="stroke: ; stroke-width: 0.0; stroke-dasharray: ;"/><text fill="#000000" font-family="Helvetica" font-size="14" lengthAdjust="spacingAndGlyphs" textLength="137" x="317" y="1069.8362">--selected-attributes</text><path d="M523.8333,1050.5709 C523.1893,1050.5709 522.6667,1051.0936 522.6667,1051.7376 C522.6667,1052.3816 523.1893,1052.9043 523.8333,1052.9043 C524.4773,1052.9043 525,1052.3816 525,1051.7376 C525,1051.0936 524.4773,1050.5709 523.8333,1050.5709 M522.0833,1053.4876 C521.115,1053.4876 520.3333,1054.2693 520.3333,1055.2376 L521.5,1055.2376 C521.5,1054.9109 521.7567,1054.6543 522.0833,1054.6543 C522.41,1054.6543 522.6667,1054.9109 522.6667,1055.2376 C522.6667,1055.5643 521.5,1057.1509 521.5,1058.1543 C521.5,1059.1576 522.2817,1059.9043 523.25,1059.9043 C524.2183,1059.9043 525,1059.1226 525,1058.1543 L523.8333,1058.1543 C523.8333,1058.4809 523.5767,1058.7376 523.25,1058.7376 C522.9233,1058.7376 522.6667,1058.4809 522.6667,1058.1543 C522.6667,1057.7343 523.8333,1056.0076 523.8333,1055.2376 C523.8333,1054.2926 523.0517,1053.4876 522.0833,1053.4876 " fill="#000000" style="stroke: ; stroke-width: 0.0; stroke-dasharray: ;"/><text fill="#000000" font-family="Helvetica" font-size="14" lengthAdjust="spacingAndGlyphs" textLength="232" x="532.3333" y="1059.3023">comma,separated,list,of,attributes</text><path d="M464,1064.4043 L474,1064.4043 C489,1064.4043 489,1053.8703 504,1053.8703 L514,1053.8703 " fill="none" style="stroke: #808080; stroke-width: 2.0;"/><path d="M523.8333,1071.6388 C523.1893,1071.6388 522.6667,1072.1615 522.6667,1072.8055 C522.6667,1073.4495 523.1893,1073.9722 523.8333,1073.9722 C524.4773,1073.9722 525,1073.4495 525,1072.8055 C525,1072.1615 524.4773,1071.6388 523.8333,1071.6388 M522.0833,1074.5555 C521.115,1074.5555 520.3333,1075.3372 520.3333,1076.3055 L521.5,1076.3055 C521.5,1075.9788 521.7567,1075.7222 522.0833,1075.7222 C522.41,1075.7222 522.6667,1075.9788 522.6667,1076.3055 C522.6667,1076.6322 521.5,1078.2188 521.5,1079.2222 C521.5,1080.2255 522.2817,1080.9722 523.25,1080.9722 C524.2183,1080.9722 525,1080.1905 525,1079.2222 L523.8333,1079.2222 C523.8333,1079.5488 523.5767,1079.8055 523.25,1079.8055 C522.9233,1079.8055 522.6667,1079.5488 522.6667,1079.2222 C522.6667,1078.8022 523.8333,1077.0755 523.8333,1076.3055 C523.8333,1075.3605 523.0517,1074.5555 522.0833,1074.5555 " fill="#000000" style="stroke: ; stroke-width: 0.0; stroke-dasharray: ;"/><text fill="#000000" font-family="Helvetica" font-size="14" lengthAdjust="spacingAndGlyphs" textLength="64" x="532.3333" y="1080.3702">check the</text><text fill="#000000" font-family="Helvetica" font-size="14" font-weight="bold" lengthAdjust="spacingAndGlyphs" textLength="74" x="600.3333" y="1080.3702">advice.yml</text><text fill="#000000" font-family="Helvetica" font-size="14" lengthAdjust="spacingAndGlyphs" textLength="21" x="678.3333" y="1080.3702">file</text><path d="M464,1064.4043 L474,1064.4043 C489,1064.4043 489,1074.9382 504,1074.9382 L514,1074.9382 " fill="none" style="stroke: #808080; stroke-width: 2.0;"/><path d="M241.6667,1107.6712 L251.6667,1107.6712 C266.6667,1107.6712 266.6667,1064.4043 281.6667,1064.4043 L291.6667,1064.4043 " fill="none" style="stroke: #808080; stroke-width: 2.0;"/><rect fill="#00CED1" height="39.0679" rx="7" ry="7" style="stroke: #A80036; stroke-width: 1.5;" width="171.3333" x="291.6667" y="1103.9382"/><path d="M303.25,1120.1728 C302.928,1120.1728 302.6667,1120.4341 302.6667,1120.7561 C302.6667,1121.0781 302.928,1121.3395 303.25,1121.3395 C303.572,1121.3395 303.8333,1121.0781 303.8333,1120.7561 C303.8333,1120.4341 303.572,1120.1728 303.25,1120.1728 M305,1120.1728 L305,1121.3395 L312,1121.3395 L312,1120.1728 L305,1120.1728 M303.25,1122.5061 C302.928,1122.5061 302.6667,1122.7675 302.6667,1123.0895 C302.6667,1123.4115 302.928,1123.6728 303.25,1123.6728 C303.572,1123.6728 303.8333,1123.4115 303.8333,1123.0895 C303.8333,1122.7675 303.572,1122.5061 303.25,1122.5061 M305,1122.5061 L305,1123.6728 L312,1123.6728 L312,1122.5061 L305,1122.5061 M303.25,1124.8395 C302.928,1124.8395 302.6667,1125.1008 302.6667,1125.4228 C302.6667,1125.7448 302.928,1126.0061 303.25,1126.0061 C303.572,1126.0061 303.8333,1125.7448 303.8333,1125.4228 C303.8333,1125.1008 303.572,1124.8395 303.25,1124.8395 M305,1124.8395 L305,1126.0061 L312,1126.0061 L312,1124.8395 L305,1124.8395 M303.25,1127.1728 C302.928,1127.1728 302.6667,1127.4341 302.6667,1127.7561 C302.6667,1128.0781 302.928,1128.3395 303.25,1128.3395 C303.572,1128.3395 303.8333,1128.0781 303.8333,1127.7561 C303.8333,1127.4341 303.572,1127.1728 303.25,1127.1728 M305,1127.1728 L305,1128.3395 L312,1128.3395 L312,1127.1728 L305,1127.1728 " fill="#000000" style="stroke: ; stroke-width: 0.0; stroke-dasharray: ;"/><text fill="#000000" font-family="Helvetica" font-size="14" lengthAdjust="spacingAndGlyphs" textLength="136" x="317" y="1128.9042">--attribute-structure</text><path d="M521.6667,1109.6388 L520.5,1113.1388 L517,1113.1388 L519.9167,1115.4722 L518.75,1118.9722 L521.6667,1116.6388 L524.5833,1118.9722 L523.4167,1115.4722 L526.3333,1113.1388 L522.8333,1113.1388 L521.6667,1109.6388 " fill="#000000" style="stroke: ; stroke-width: 0.0; stroke-dasharray: ;"/><text fill="#000000" font-family="Helvetica" font-size="14" lengthAdjust="spacingAndGlyphs" textLength="22" x="531.3333" y="1118.3702">flat</text><path d="M463,1123.4722 L473,1123.4722 C488,1123.4722 488,1112.9382 503,1112.9382 L513,1112.9382 " fill="none" style="stroke: #808080; stroke-width: 2.0;"/><text fill="#000000" font-family="Helvetica" font-size="14" lengthAdjust="spacingAndGlyphs" textLength="46" x="516" y="1139.4381">nested</text><path d="M463,1123.4722 L473,1123.4722 C488,1123.4722 488,1134.0061 503,1134.0061 L513,1134.0061 " fill="none" style="stroke: #808080; stroke-width: 2.0;"/><path d="M241.6667,1107.6712 L251.6667,1107.6712 C266.6667,1107.6712 266.6667,1123.4722 281.6667,1123.4722 L291.6667,1123.4722 " fill="none" style="stroke: #808080; stroke-width: 2.0;"/><rect fill="#A9DCDF" height="39.0679" rx="7" ry="7" style="stroke: #A80036; stroke-width: 1.5;" width="137.3333" x="291.6667" y="1163.0061"/><path d="M307.3333,1179.2407 L303.8333,1182.7407 L310.8333,1182.7407 L307.3333,1179.2407 M303.8333,1185.0741 L307.3333,1188.5741 L310.8333,1185.0741 L303.8333,1185.0741 " fill="#000000" style="stroke: ; stroke-width: 0.0; stroke-dasharray: ;"/><text fill="#000000" font-family="Helvetica" font-size="14" lengthAdjust="spacingAndGlyphs" textLength="0" x="317" y="1187.9721"/><text fill="#808080" font-family="Helvetica" font-size="14" lengthAdjust="spacingAndGlyphs" text-decoration="line-through" textLength="102" x="317" y="1187.9721">--vertical-offset</text><path d="M487.6667,1168.7068 L486.5,1172.2068 L483,1172.2068 L485.9167,1174.5401 L484.75,1178.0401 L487.6667,1175.7068 L490.5833,1178.0401 L489.4167,1174.5401 L492.3333,1172.2068 L488.8333,1172.2068 L487.6667,1168.7068 " fill="#000000" style="stroke: ; stroke-width: 0.0; stroke-dasharray: ;"/><text fill="#000000" font-family="Helvetica" font-size="14" lengthAdjust="spacingAndGlyphs" textLength="0" x="497.3333" y="1177.4381"/><text fill="#808080" font-family="Helvetica" font-size="14" lengthAdjust="spacingAndGlyphs" text-decoration="line-through" textLength="8" x="497.3333" y="1177.4381">0</text><path d="M429,1182.5401 L439,1182.5401 C454,1182.5401 454,1172.0061 469,1172.0061 L479,1172.0061 " fill="none" style="stroke: #808080; stroke-width: 2.0;"/><text fill="#808080" font-family="Helvetica" font-size="14" lengthAdjust="spacingAndGlyphs" text-decoration="line-through" textLength="113" x="482" y="1198.506">any-metric-value</text><path d="M429,1182.5401 L439,1182.5401 C454,1182.5401 454,1193.0741 469,1193.0741 L479,1193.0741 " fill="none" style="stroke: #808080; stroke-width: 2.0;"/><path d="M241.6667,1107.6712 L251.6667,1107.6712 C266.6667,1107.6712 266.6667,1182.5401 281.6667,1182.5401 L291.6667,1182.5401 " fill="none" style="stroke: #808080; stroke-width: 2.0;"/><rect fill="#F0E68C" height="39.0679" rx="7" ry="7" style="stroke: #A80036; stroke-width: 1.5;" width="144.3333" x="291.6667" y="1222.0741"/><path d="M304.2347,1238.3086 A0.5857,0.5857 0 0 0 304.4167,1239.4753 L305,1239.4753 L305,1241.1156 C304.8973,1241.3163 303.607,1243.8141 303.068,1244.7253 C302.8895,1245.038 302.6667,1245.4393 302.6667,1245.9655 C302.6667,1246.4123 302.8288,1246.8568 303.1403,1247.1683 C303.4437,1247.4716 303.8905,1247.642 304.3432,1247.642 L310.3223,1247.642 C310.7692,1247.642 311.2137,1247.4798 311.5252,1247.1683 C311.8285,1246.865 311.9988,1246.4181 311.9988,1245.9655 C311.9988,1245.4381 311.7725,1245.031 311.5975,1244.7253 C311.0573,1243.8153 309.7682,1241.3163 309.6655,1241.1156 L309.6655,1239.4753 L310.2488,1239.4753 A0.5833,0.5833 0 1 0 310.2488,1238.3086 L304.4155,1238.3086 A0.5833,0.5833 0 0 0 304.3058,1238.3086 A0.5857,0.5857 0 0 0 304.2323,1238.3086 M306.1643,1239.4753 L308.4977,1239.4753 L308.4977,1241.3711 L308.5712,1241.4808 C309.3318,1242.9193 309.3318,1242.9193 309.9933,1244.142 L304.6698,1244.142 C305.3313,1242.9181 306.092,1241.4808 306.092,1241.4808 L306.1655,1241.3711 L306.1655,1239.4753 " fill="#000000" style="stroke: ; stroke-width: 0.0; stroke-dasharray: ;"/><text fill="#000000" font-family="Helvetica" font-size="14" lengthAdjust="spacingAndGlyphs" textLength="0" x="317" y="1247.04"/><text fill="#808080" font-family="Helvetica" font-size="14" lengthAdjust="spacingAndGlyphs" text-decoration="line-through" textLength="109" x="317" y="1247.04">--3dtiles-version</text><text fill="#808080" font-family="Helvetica" font-size="14" lengthAdjust="spacingAndGlyphs" text-decoration="line-through" textLength="20" x="489" y="1225.9721">2.0</text><path d="M436,1241.608 L446,1241.608 C461,1241.608 461,1220.5401 476,1220.5401 L486,1220.5401 " fill="none" style="stroke: #808080; stroke-width: 2.0;"/><path d="M494.6667,1238.3086 L493.5,1241.8086 L490,1241.8086 L492.9167,1244.142 L491.75,1247.642 L494.6667,1245.3086 L497.5833,1247.642 L496.4167,1244.142 L499.3333,1241.8086 L495.8333,1241.8086 L494.6667,1238.3086 " fill="#000000" style="stroke: ; stroke-width: 0.0; stroke-dasharray: ;"/><text fill="#000000" font-family="Helvetica" font-size="14" lengthAdjust="spacingAndGlyphs" textLength="0" x="504.3333" y="1247.04"/><text fill="#808080" font-family="Helvetica" font-size="14" lengthAdjust="spacingAndGlyphs" text-decoration="line-through" textLength="20" x="504.3333" y="1247.04">1.1</text><path d="M436,1241.608 L446,1241.608 C461,1241.608 461,1241.608 476,1241.608 L486,1241.608 " fill="none" style="stroke: #808080; stroke-width: 2.0;"/><text fill="#808080" font-family="Helvetica" font-size="14" lengthAdjust="spacingAndGlyphs" text-decoration="line-through" textLength="20" x="489" y="1268.1079">1.0</text><path d="M436,1241.608 L446,1241.608 C461,1241.608 461,1262.6759 476,1262.6759 L486,1262.6759 " fill="none" style="stroke: #808080; stroke-width: 2.0;"/><path d="M241.6667,1107.6712 L251.6667,1107.6712 C266.6667,1107.6712 266.6667,1241.608 281.6667,1241.608 L291.6667,1241.608 " fill="none" style="stroke: #808080; stroke-width: 2.0;"/><rect fill="#D8BFD8" height="39.0679" rx="7" ry="7" style="stroke: #A80036; stroke-width: 1.5;" width="66.3333" x="291.6667" y="1306.3457"/><path d="M306.5318,1322.5803 A0.5833,0.5833 0 0 0 306.3125,1323.565 L307.0417,1324.2941 L302.8487,1328.5595 L302.6667,1328.7415 L302.6667,1331.9136 L305.8388,1331.9136 L305.9847,1331.7316 L310.25,1327.4663 L310.9792,1328.2316 A0.5833,0.5833 0 1 0 311.818,1327.429 L310.7237,1326.3346 L311.489,1325.5693 C312.1773,1324.8926 312.1773,1323.7668 311.489,1323.0901 C310.8357,1322.4251 309.6748,1322.4251 309.0098,1323.0901 L308.2445,1323.8555 L307.1502,1322.7611 A0.5833,0.5833 0 0 0 306.603,1322.5791 A0.5833,0.5833 0 0 0 306.5295,1322.5791 M307.8782,1325.1318 L309.41,1326.6636 L305.728,1330.3456 L304.2335,1328.8138 L307.8793,1325.1318 " fill="#000000" style="stroke: ; stroke-width: 0.0; stroke-dasharray: ;"/><text fill="#000000" font-family="Helvetica" font-size="14" lengthAdjust="spacingAndGlyphs" textLength="0" x="317" y="1331.3117"/><text fill="#808080" font-family="Helvetica" font-size="14" lengthAdjust="spacingAndGlyphs" text-decoration="line-through" textLength="31" x="317" y="1331.3117">--lod</text><text fill="#808080" font-family="Helvetica" font-size="14" lengthAdjust="spacingAndGlyphs" text-decoration="line-through" textLength="29" x="411" y="1289.1758">lod0</text><path d="M358,1325.8797 L368,1325.8797 C383,1325.8797 383,1283.7438 398,1283.7438 L408,1283.7438 " fill="none" style="stroke: #808080; stroke-width: 2.0;"/><text fill="#808080" font-family="Helvetica" font-size="14" lengthAdjust="spacingAndGlyphs" text-decoration="line-through" textLength="29" x="411" y="1310.2437">lod1</text><path d="M358,1325.8797 L368,1325.8797 C383,1325.8797 383,1304.8118 398,1304.8118 L408,1304.8118 " fill="none" style="stroke: #808080; stroke-width: 2.0;"/><text fill="#808080" font-family="Helvetica" font-size="14" lengthAdjust="spacingAndGlyphs" text-decoration="line-through" textLength="29" x="411" y="1331.3117">lod2</text><path d="M358,1325.8797 L368,1325.8797 C383,1325.8797 383,1325.8797 398,1325.8797 L408,1325.8797 " fill="none" style="stroke: #808080; stroke-width: 2.0;"/><path d="M416.6667,1343.6482 L415.5,1347.1482 L412,1347.1482 L414.9167,1349.4816 L413.75,1352.9816 L416.6667,1350.6482 L419.5833,1352.9816 L418.4167,1349.4816 L421.3333,1347.1482 L417.8333,1347.1482 L416.6667,1343.6482 " fill="#000000" style="stroke: ; stroke-width: 0.0; stroke-dasharray: ;"/><text fill="#000000" font-family="Helvetica" font-size="14" lengthAdjust="spacingAndGlyphs" textLength="0" x="426.3333" y="1352.3796"/><text fill="#808080" font-family="Helvetica" font-size="14" lengthAdjust="spacingAndGlyphs" text-decoration="line-through" textLength="29" x="426.3333" y="1352.3796">lod3</text><path d="M358,1325.8797 L368,1325.8797 C383,1325.8797 383,1346.9476 398,1346.9476 L408,1346.9476 " fill="none" style="stroke: #808080; stroke-width: 2.0;"/><text fill="#808080" font-family="Helvetica" font-size="14" lengthAdjust="spacingAndGlyphs" text-decoration="line-through" textLength="81" x="411" y="1373.4475">all-available</text><path d="M358,1325.8797 L368,1325.8797 C383,1325.8797 383,1368.0155 398,1368.0155 L408,1368.0155 " fill="none" style="stroke: #808080; stroke-width: 2.0;"/><path d="M241.6667,1107.6712 L251.6667,1107.6712 C266.6667,1107.6712 266.6667,1325.8797 281.6667,1325.8797 L291.6667,1325.8797 " fill="none" style="stroke: #808080; stroke-width: 2.0;"/><rect fill="#D8BFD8" height="39.0679" rx="7" ry="7" style="stroke: #A80036; stroke-width: 1.5;" width="191.3333" x="291.6667" y="1388.5495"/><path d="M306.5318,1404.7841 A0.5833,0.5833 0 0 0 306.3125,1405.7687 L307.0417,1406.4979 L302.8487,1410.7632 L302.6667,1410.9452 L302.6667,1414.1174 L305.8388,1414.1174 L305.9847,1413.9354 L310.25,1409.6701 L310.9792,1410.4354 A0.5833,0.5833 0 1 0 311.818,1409.6327 L310.7237,1408.5384 L311.489,1407.7731 C312.1773,1407.0964 312.1773,1405.9706 311.489,1405.2939 C310.8357,1404.6289 309.6748,1404.6289 309.0098,1405.2939 L308.2445,1406.0592 L307.1502,1404.9649 A0.5833,0.5833 0 0 0 306.603,1404.7829 A0.5833,0.5833 0 0 0 306.5295,1404.7829 M307.8782,1407.3356 L309.41,1408.8674 L305.728,1412.5494 L304.2335,1411.0176 L307.8793,1407.3356 " fill="#000000" style="stroke: ; stroke-width: 0.0; stroke-dasharray: ;"/><text fill="#000000" font-family="Helvetica" font-size="14" lengthAdjust="spacingAndGlyphs" textLength="0" x="317" y="1413.5154"/><text fill="#808080" font-family="Helvetica" font-size="14" lengthAdjust="spacingAndGlyphs" text-decoration="line-through" textLength="156" x="317" y="1413.5154">--lod-absence-behavior</text><path d="M541.6667,1394.2501 L540.5,1397.7501 L537,1397.7501 L539.9167,1400.0834 L538.75,1403.5834 L541.6667,1401.2501 L544.5833,1403.5834 L543.4167,1400.0834 L546.3333,1397.7501 L542.8333,1397.7501 L541.6667,1394.2501 " fill="#000000" style="stroke: ; stroke-width: 0.0; stroke-dasharray: ;"/><text fill="#000000" font-family="Helvetica" font-size="14" lengthAdjust="spacingAndGlyphs" textLength="0" x="551.3333" y="1402.9814"/><text fill="#808080" font-family="Helvetica" font-size="14" lengthAdjust="spacingAndGlyphs" text-decoration="line-through" textLength="63" x="551.3333" y="1402.9814">fall-down</text><path d="M483,1408.0834 L493,1408.0834 C508,1408.0834 508,1397.5495 523,1397.5495 L533,1397.5495 " fill="none" style="stroke: #808080; stroke-width: 2.0;"/><text fill="#808080" font-family="Helvetica" font-size="14" lengthAdjust="spacingAndGlyphs" text-decoration="line-through" textLength="48" x="536" y="1424.0494">rise-up</text><path d="M483,1408.0834 L493,1408.0834 C508,1408.0834 508,1418.6174 523,1418.6174 L533,1418.6174 " fill="none" style="stroke: #808080; stroke-width: 2.0;"/><path d="M241.6667,1107.6712 L251.6667,1107.6712 C266.6667,1107.6712 266.6667,1408.0834 281.6667,1408.0834 L291.6667,1408.0834 " fill="none" style="stroke: #808080; stroke-width: 2.0;"/><rect fill="#B0C4DE" height="39.0679" rx="7" ry="7" style="stroke: #A80036; stroke-width: 1.5;" width="215.3333" x="291.6667" y="1447.6174"/><path d="M303.5417,1463.852 C303.0727,1463.852 302.6667,1464.258 302.6667,1464.727 L302.6667,1471.1436 C302.6667,1471.6126 303.0727,1472.0186 303.5417,1472.0186 L308.7917,1472.0186 C309.2607,1472.0186 309.6667,1471.6126 309.6667,1471.1436 L309.6667,1469.6853 L308.5,1469.6853 L308.5,1470.852 L303.8333,1470.852 L303.8333,1465.0186 L306.1667,1465.0186 L306.1667,1463.852 L303.5417,1463.852 M309.6667,1463.852 L309.6667,1465.0186 C307.275,1465.0186 305.3453,1466.82 305.0723,1469.1381 C305.3208,1468.1173 306.2378,1467.352 307.3333,1467.352 L309.6667,1467.352 L309.6667,1468.5186 L312,1466.1853 L309.6667,1463.852 " fill="#000000" style="stroke: ; stroke-width: 0.0; stroke-dasharray: ;"/><text fill="#000000" font-family="Helvetica" font-size="14" lengthAdjust="spacingAndGlyphs" textLength="0" x="317" y="1472.5833"/><text fill="#808080" font-family="Helvetica" font-size="14" lengthAdjust="spacingAndGlyphs" text-decoration="line-through" textLength="180" x="317" y="1472.5833">--ignore-thematic-surfaces</text><path d="M565.6667,1453.318 L564.5,1456.818 L561,1456.818 L563.9167,1459.1513 L562.75,1462.6513 L565.6667,1460.318 L568.5833,1462.6513 L567.4167,1459.1513 L570.3333,1456.818 L566.8333,1456.818 L565.6667,1453.318 " fill="#000000" style="stroke: ; stroke-width: 0.0; stroke-dasharray: ;"/><text fill="#000000" font-family="Helvetica" font-size="14" lengthAdjust="spacingAndGlyphs" textLength="0" x="575.3333" y="1462.0494"/><text fill="#808080" font-family="Helvetica" font-size="14" lengthAdjust="spacingAndGlyphs" text-decoration="line-through" textLength="32" x="575.3333" y="1462.0494">false</text><path d="M507,1467.1513 L517,1467.1513 C532,1467.1513 532,1456.6174 547,1456.6174 L557,1456.6174 " fill="none" style="stroke: #808080; stroke-width: 2.0;"/><text fill="#808080" font-family="Helvetica" font-size="14" lengthAdjust="spacingAndGlyphs" text-decoration="line-through" textLength="28" x="560" y="1483.1173">true</text><path d="M507,1467.1513 L517,1467.1513 C532,1467.1513 532,1477.6853 547,1477.6853 L557,1477.6853 " fill="none" style="stroke: #808080; stroke-width: 2.0;"/><path d="M241.6667,1107.6712 L251.6667,1107.6712 C266.6667,1107.6712 266.6667,1467.1513 281.6667,1467.1513 L291.6667,1467.1513 " fill="none" style="stroke: #808080; stroke-width: 2.0;"/><rect fill="#B0C4DE" height="39.0679" rx="7" ry="7" style="stroke: #A80036; stroke-width: 1.5;" width="241.3333" x="291.6667" y="1506.6853"/><path d="M306.1667,1522.9199 C305.84,1522.9199 305.5378,1523.0377 305.3278,1523.2477 C305.1178,1523.4577 305,1523.7599 305,1524.0866 C305,1524.4132 305.2112,1524.6454 305.3278,1524.9254 C305.3628,1524.9954 305.4013,1525.1132 305.4013,1525.2532 L302.6667,1525.2532 L302.6667,1532.2532 L305.4013,1532.2532 C305.4013,1532.1132 305.3885,1531.9954 305.3652,1531.9254 C305.2368,1531.6454 305,1531.4132 305,1531.0866 C305,1530.7599 305.1178,1530.4577 305.3278,1530.2477 C305.5378,1530.0377 305.84,1529.9199 306.1667,1529.9199 C306.4933,1529.9199 306.7955,1530.0377 307.0055,1530.2477 C307.2155,1530.4577 307.3333,1530.7599 307.3333,1531.0866 C307.3333,1531.4132 307.1222,1531.6454 307.0055,1531.9254 C306.9705,1531.9954 306.932,1532.1132 306.932,1532.2532 L309.6667,1532.2532 L309.6667,1529.5186 C309.8067,1529.5186 309.9245,1529.5314 309.9945,1529.5547 C310.2745,1529.6831 310.5067,1529.9199 310.8333,1529.9199 C311.16,1529.9199 311.4622,1529.8021 311.6722,1529.5921 C311.8822,1529.3821 312,1529.0799 312,1528.7532 C312,1528.4266 311.8822,1528.1244 311.6722,1527.9144 C311.4622,1527.7044 311.16,1527.5866 310.8333,1527.5866 C310.5067,1527.5866 310.2745,1527.7977 309.9945,1527.9144 C309.9245,1527.9494 309.8067,1527.9879 309.6667,1527.9879 L309.6667,1525.2532 L306.932,1525.2532 C306.932,1525.1132 306.9448,1524.9954 306.9682,1524.9254 C307.0965,1524.6454 307.3333,1524.4132 307.3333,1524.0866 C307.3333,1523.7599 307.2155,1523.4577 307.0055,1523.2477 C306.7955,1523.0377 306.4933,1522.9199 306.1667,1522.9199 " fill="#000000" style="stroke: ; stroke-width: 0.0; stroke-dasharray: ;"/><text fill="#000000" font-family="Helvetica" font-size="14" lengthAdjust="spacingAndGlyphs" textLength="0" x="317" y="1531.6512"/><text fill="#808080" font-family="Helvetica" font-size="14" lengthAdjust="spacingAndGlyphs" text-decoration="line-through" textLength="206" x="317" y="1531.6512">--aggregate-thematic-surfaces</text><path d="M591.6667,1512.3859 L590.5,1515.8859 L587,1515.8859 L589.9167,1518.2193 L588.75,1521.7193 L591.6667,1519.3859 L594.5833,1521.7193 L593.4167,1518.2193 L596.3333,1515.8859 L592.8333,1515.8859 L591.6667,1512.3859 " fill="#000000" style="stroke: ; stroke-width: 0.0; stroke-dasharray: ;"/><text fill="#000000" font-family="Helvetica" font-size="14" lengthAdjust="spacingAndGlyphs" textLength="0" x="601.3333" y="1521.1173"/><text fill="#808080" font-family="Helvetica" font-size="14" lengthAdjust="spacingAndGlyphs" text-decoration="line-through" textLength="32" x="601.3333" y="1521.1173">false</text><path d="M533,1526.2193 L543,1526.2193 C558,1526.2193 558,1515.6853 573,1515.6853 L583,1515.6853 " fill="none" style="stroke: #808080; stroke-width: 2.0;"/><text fill="#808080" font-family="Helvetica" font-size="14" lengthAdjust="spacingAndGlyphs" text-decoration="line-through" textLength="28" x="586" y="1542.1852">true</text><path d="M533,1526.2193 L543,1526.2193 C558,1526.2193 558,1536.7532 573,1536.7532 L583,1536.7532 " fill="none" style="stroke: #808080; stroke-width: 2.0;"/><path d="M241.6667,1107.6712 L251.6667,1107.6712 C266.6667,1107.6712 266.6667,1526.2193 281.6667,1526.2193 L291.6667,1526.2193 " fill="none" style="stroke: #808080; stroke-width: 2.0;"/><rect fill="#B0C4DE" height="39.0679" rx="7" ry="7" style="stroke: #A80036; stroke-width: 1.5;" width="264.3333" x="291.6667" y="1565.7532"/><path d="M305.5833,1581.9878 L303.8333,1583.7378 L306.75,1586.6545 L303.8333,1589.5711 L305.5833,1591.3211 L310.25,1586.6545 L305.5833,1581.9878 " fill="#000000" style="stroke: ; stroke-width: 0.0; stroke-dasharray: ;"/><text fill="#000000" font-family="Helvetica" font-size="14" lengthAdjust="spacingAndGlyphs" textLength="0" x="317" y="1590.7192"/><text fill="#808080" font-family="Helvetica" font-size="14" lengthAdjust="spacingAndGlyphs" text-decoration="line-through" textLength="229" x="317" y="1590.7192">--join-thematic-surface-properties</text><path d="M614.6667,1571.4538 L613.5,1574.9538 L610,1574.9538 L612.9167,1577.2872 L611.75,1580.7872 L614.6667,1578.4538 L617.5833,1580.7872 L616.4167,1577.2872 L619.3333,1574.9538 L615.8333,1574.9538 L614.6667,1571.4538 " fill="#000000" style="stroke: ; stroke-width: 0.0; stroke-dasharray: ;"/><text fill="#000000" font-family="Helvetica" font-size="14" lengthAdjust="spacingAndGlyphs" textLength="0" x="624.3333" y="1580.1852"/><text fill="#808080" font-family="Helvetica" font-size="14" lengthAdjust="spacingAndGlyphs" text-decoration="line-through" textLength="32" x="624.3333" y="1580.1852">false</text><path d="M556,1585.2872 L566,1585.2872 C581,1585.2872 581,1574.7532 596,1574.7532 L606,1574.7532 " fill="none" style="stroke: #808080; stroke-width: 2.0;"/><text fill="#808080" font-family="Helvetica" font-size="14" lengthAdjust="spacingAndGlyphs" text-decoration="line-through" textLength="28" x="609" y="1601.2531">true</text><path d="M556,1585.2872 L566,1585.2872 C581,1585.2872 581,1595.8211 596,1595.8211 L606,1595.8211 " fill="none" style="stroke: #808080; stroke-width: 2.0;"/><path d="M241.6667,1107.6712 L251.6667,1107.6712 C266.6667,1107.6712 266.6667,1585.2872 281.6667,1585.2872 L291.6667,1585.2872 " fill="none" style="stroke: #808080; stroke-width: 2.0;"/><path d="M135.3333,855.5986 L145.3333,855.5986 C160.3333,855.5986 160.3333,1107.6712 175.3333,1107.6712 L185.3333,1107.6712 " fill="none" style="stroke: #808080; stroke-width: 2.0;"/><rect fill="#DDDDDD" height="67.2038" rx="5" ry="5" style="stroke: #000000; stroke-width: 1.0;" width="250" x="18" y="1622.8211"/><text fill="#000000" font-family="Helvetica" font-size="14" lengthAdjust="spacingAndGlyphs" textLength="54" x="24" y="1642.7871">Legend:</text><text fill="#000000" font-family="Helvetica" font-size="14" lengthAdjust="spacingAndGlyphs" textLength="0" x="32" y="1661.855"/><path d="M37.6667,1653.1236 L36.5,1656.6236 L33,1656.6236 L35.9167,1658.957 L34.75,1662.457 L37.6667,1660.1236 L40.5833,1662.457 L39.4167,1658.957 L42.3333,1656.6236 L38.8333,1656.6236 L37.6667,1653.1236 " fill="#000000" style="stroke: ; stroke-width: 0.0; stroke-dasharray: ;"/><text fill="#000000" font-family="Helvetica" font-size="14" lengthAdjust="spacingAndGlyphs" textLength="147" x="47.3333" y="1661.855">: Default Option/Entry</text><text fill="#000000" font-family="Helvetica" font-size="14" lengthAdjust="spacingAndGlyphs" textLength="0" x="32" y="1680.9229"/><text fill="#808080" font-family="Helvetica" font-size="14" lengthAdjust="spacingAndGlyphs" text-decoration="line-through" textLength="76" x="32" y="1680.9229">Striked Out</text><text fill="#000000" font-family="Helvetica" font-size="14" lengthAdjust="spacingAndGlyphs" textLength="150" x="112" y="1680.9229">: Not implemented yet</text><!--MD5=[59b160e3751df6f13105ebb124286087]
@startmindmap
title citydb-3dtiler Functionality Matrix



skinparam {
    DefaultFontName Helvetica 
    defaultTextAlignment center
    RoundCorner 14
    Shadowing false

    BackgroundColor white

    TitleFontSize 36
    TitleFontStyle Bold

    minClassWidth 125
    maxClassWidth 300
    nodesep 30
    ranksep 30
    CircledCharacterRadius 10
    CircledCharacterFontSize 12
    CircledCharacterFontColor White
    Class {
        FontSize 16
        FontStyle Bold
        FontColor black
        BackgroundColor #FFFFFF90
        BorderThickness 0.5
        BorderColor Gray
        ArrowThickness 2
        ArrowColor Gray
        AttributeIconSize 9
    }

}
right header
<font color=indianred size=12><b>Last Edit : 19.05.2026</b></font>
endheader

*[#lightgray] <&terminal> citydb-3dtiler

**[#darkseagreen] <&medical-cross> - -help / -h

**_ database connection arguments group - - - ->
***[#lightyellow] <&spreadsheet> - -db-host / -H
***[#lightyellow] <&spreadsheet> - -db-port / -P
***[#lightyellow] <&spreadsheet> - -db-name / -d
***[#lightyellow] <&spreadsheet> - -db-schema / -S
***[#lightyellow] <&spreadsheet> - -db-username / -u
***[#lightyellow] <&spreadsheet> - -db-password / -p

**_ <font color=gray><s>filter arguments group</s></font>

**[#burlywood] <&cog> - -tiler-app
***_ <&star> pg2b3dm
***_ <font color=gray><s>i3dmExport, py3dtiles</s></font>

**[#burlywood] <&cog> - -tilers-path
***_ default: tiler_app
***_ any-other-directory

**[#salmon] <&layers> separate-tilesets
***_ <&star> objectclass
***_ <font color=gray><s>namespace</s></font>

**[#skyblue] <&magnifying-glass> advise
***[#darkseagreen] <&medical-cross> - -help / -h
***[#burlywood] <&cog> - -output-file / -o
****_ <&star> advice.yml
****_ any-other-file-name

**[#skyblue] <&grid-two-up> tile
***[#darkseagreen] <&medical-cross> - -help / -h
***[#burlywood] <&cog> - -style-mode
****_ existing-appearances
****_ property-based
****_ <&star> objectclass-based
****_ no-style

***[#burlywood] <&cog> - -style-absence-behavior
****_ <&star> fall-down
****_ rise-up

***[#burlywood] <&cog> - -transparency
****_ blend
****_ mask
****_ <&star> opaque

***[#burlywood] <&cog> - -output-folder / -o
****_ <&star> /shared
****_ any-other-directory

***[#burlywood] <&cog> - -custom-style
****_ <&star> materials_for_features.csv
****_ any-other-copy-of-csv-file

***[#darkturquoise] <&list> - -attributes
****_ <&star> none
****_ selected
****_ all

***[#darkturquoise] <&list> - -selected-attributes
****_ <&info> comma,separated,list,of,attributes
****_ <&info> check the <b>advice.yml</b> file

***[#darkturquoise] <&list> - -attribute-structure
****_ <&star> flat
****_ nested

***[#application] <&elevator> <font color=gray><s>- -vertical-offset</s></font>
****_ <&star> <font color=gray><s>0</s></font>
****_ <font color=gray><s>any-metric-value</s></font>

***[#khaki] <&beaker> <font color=gray><s>- -3dtiles-version</s></font>
****_ <font color=gray><s>2.0</s></font>
****_ <&star> <font color=gray><s>1.1</s></font>
****_ <font color=gray><s>1.0</s></font>

***[#thistle] <&eyedropper> <font color=gray><s>- -lod</s></font>
****_ <font color=gray><s>lod0</s></font>
****_ <font color=gray><s>lod1</s></font>
****_ <font color=gray><s>lod2</s></font>
****_ <&star> <font color=gray><s>lod3</s></font>
****_ <font color=gray><s>all-available</s></font>

***[#thistle] <&eyedropper> <font color=gray><s>- -lod-absence-behavior</s></font>
****_ <&star> <font color=gray><s>fall-down</s></font>
****_ <font color=gray><s>rise-up</s></font>

***[#lightsteelblue] <&share-boxed> <font color=gray><s>- -ignore-thematic-surfaces</s></font>
****_ <&star> <font color=gray><s>false</s></font>
****_ <font color=gray><s>true</s></font>

***[#lightsteelblue] <&puzzle-piece> <font color=gray><s>- -aggregate-thematic-surfaces</s></font>
****_ <&star> <font color=gray><s>false</s></font>
****_ <font color=gray><s>true</s></font>

***[#lightsteelblue] <&chevron-right> <font color=gray><s>- -join-thematic-surface-properties</s></font>
****_ <&star> <font color=gray><s>false</s></font>
****_ <font color=gray><s>true</s></font>

legend left
Legend:
  <&star> : Default Option/Entry
  <font color=gray><s>Striked Out</s></font> : Not implemented yet
endlegend
@endmindmap

PlantUML version 1.2020.02(Sun Mar 01 11:22:07 CET 2020)
(GPL source distribution)
Java Runtime: OpenJDK Runtime Environment
JVM: OpenJDK 64-Bit Server VM
Java Version: 21.0.10+7-Ubuntu-124.04
Operating System: Linux
Default Encoding: UTF-8
Language: en
Country: US
--></g></svg>