<?xml version="1.0" encoding="UTF-8" standalone="no"?><svg xmlns="http://www.w3.org/2000/svg" xmlns:xlink="http://www.w3.org/1999/xlink" contentScriptType="application/ecmascript" contentStyleType="text/css" height="1255px" preserveAspectRatio="none" style="width:731px;height:1255px;" version="1.1" viewBox="0 0 731 1255" width="731px" zoomAndPan="magnify"><defs><filter height="300%" id="f1xijez49mcdi8" width="300%" x="-1" y="-1"><feGaussianBlur result="blurOut" stdDeviation="2.0"/><feColorMatrix in="blurOut" result="blurOut2" type="matrix" values="0 0 0 0 0 0 0 0 0 0 0 0 0 0 0 0 0 0 .4 0"/><feOffset dx="4.0" dy="4.0" in="blurOut2" result="blurOut3"/><feBlend in="SourceGraphic" in2="blurOut3" mode="normal"/></filter></defs><g><text fill="#FF0000" font-family="sans-serif" font-size="10" lengthAdjust="spacingAndGlyphs" textLength="114" x="555.6667" y="20.69">Last Check : 22.01.2026</text><rect fill="none" height="29.0679" style="stroke: none; stroke-width: 1.0;" width="166" x="256.3333" y="28.62"/><text fill="#000000" font-family="sans-serif" font-size="14" font-weight="bold" lengthAdjust="spacingAndGlyphs" textLength="156" x="261.3333" y="48.5859">Folder &amp; File Structure</text><rect fill="#C0C0C0" filter="url(#f1xijez49mcdi8)" height="39.0679" rx="12.5" ry="12.5" style="stroke: #A80036; stroke-width: 1.5;" width="110" x="10" y="558.6387"/><text fill="#000000" font-family="sans-serif" font-size="14" lengthAdjust="spacingAndGlyphs" textLength="90" x="20" y="583.6047">citydb-3dtiler</text><rect fill="#C0C0C0" filter="url(#f1xijez49mcdi8)" height="39.0679" rx="12.5" ry="12.5" style="stroke: #A80036; stroke-width: 1.5;" width="85.3333" x="170" y="193.8917"/><path d="M181.1097,210.1262 C181.0397,210.1262 181,210.1659 181,210.2359 L181,219.3511 C181,219.4211 181.0397,219.4607 181.1097,219.4607 L189.0582,219.4607 C189.1282,219.4607 189.1678,219.4211 189.1678,219.3511 L189.1678,210.2359 C189.1678,210.1659 189.1282,210.1262 189.0582,210.1262 L181.1097,210.1262 M182.1667,211.2929 L188,211.2929 L188,213.6262 L182.1667,213.6262 L182.1667,211.2929 M182.1667,214.7929 L183.3333,214.7929 L183.3333,215.9596 L182.1667,215.9596 L182.1667,214.7929 M184.5,214.7929 L185.6667,214.7929 L185.6667,215.9596 L184.5,215.9596 L184.5,214.7929 M186.8333,214.7929 L188,214.7929 L188,218.2929 L186.8333,218.2929 L186.8333,214.7929 M182.1667,217.1262 L183.3333,217.1262 L183.3333,218.2929 L182.1667,218.2929 L182.1667,217.1262 M184.5,217.1262 L185.6667,217.1262 L185.6667,218.2929 L184.5,218.2929 L184.5,217.1262 " fill="#000000" style="stroke: ; stroke-width: 0.0; stroke-dasharray: ;"/><text fill="#000000" font-family="sans-serif" font-size="14" lengthAdjust="spacingAndGlyphs" textLength="50" x="195.3333" y="218.8576">io_tools</text><rect fill="#F8F8FF" filter="url(#f1xijez49mcdi8)" height="39.0679" rx="12.5" ry="12.5" style="stroke: #A80036; stroke-width: 1.5;" width="75.3333" x="305.3333" y="75.7558"/><path d="M316.443,91.9904 C316.373,91.9904 316.3333,92.0301 316.3333,92.1001 L316.3333,101.2152 C316.3333,101.2852 316.373,101.3249 316.443,101.3249 L324.3915,101.3249 C324.4615,101.3249 324.5012,101.2852 324.5012,101.2152 L324.5012,92.1001 C324.5012,92.0301 324.4615,91.9904 324.3915,91.9904 L316.443,91.9904 M317.5,93.1571 L323.3333,93.1571 L323.3333,95.4904 L317.5,95.4904 L317.5,93.1571 M317.5,96.6571 L318.6667,96.6571 L318.6667,97.8237 L317.5,97.8237 L317.5,96.6571 M319.8333,96.6571 L321,96.6571 L321,97.8237 L319.8333,97.8237 L319.8333,96.6571 M322.1667,96.6571 L323.3333,96.6571 L323.3333,100.1571 L322.1667,100.1571 L322.1667,96.6571 M317.5,98.9904 L318.6667,98.9904 L318.6667,100.1571 L317.5,100.1571 L317.5,98.9904 M319.8333,98.9904 L321,98.9904 L321,100.1571 L319.8333,100.1571 L319.8333,98.9904 " fill="#000000" style="stroke: ; stroke-width: 0.0; stroke-dasharray: ;"/><text fill="#000000" font-family="sans-serif" font-size="14" lengthAdjust="spacingAndGlyphs" textLength="40" x="330.6667" y="100.7218">folder</text><text fill="#000000" font-family="sans-serif" font-size="14" lengthAdjust="spacingAndGlyphs" textLength="88" x="433.6667" y="79.6538">create_folder</text><path d="M380.6667,95.2898 L390.6667,95.2898 C405.6667,95.2898 405.6667,74.2219 420.6667,74.2219 L430.6667,74.2219 " fill="none" style="stroke: #A80036; stroke-width: 1.0;"/><text fill="#000000" font-family="sans-serif" font-size="14" lengthAdjust="spacingAndGlyphs" textLength="162" x="433.6667" y="100.7218">check_custom_materials</text><path d="M380.6667,95.2898 L390.6667,95.2898 C405.6667,95.2898 405.6667,95.2898 420.6667,95.2898 L430.6667,95.2898 " fill="none" style="stroke: #A80036; stroke-width: 1.0;"/><text fill="#000000" font-family="sans-serif" font-size="14" lengthAdjust="spacingAndGlyphs" textLength="84" x="433.6667" y="121.7897">check_file_in</text><path d="M380.6667,95.2898 L390.6667,95.2898 C405.6667,95.2898 405.6667,116.3577 420.6667,116.3577 L430.6667,116.3577 " fill="none" style="stroke: #A80036; stroke-width: 1.0;"/><path d="M255.3333,213.4256 L265.3333,213.4256 C280.3333,213.4256 280.3333,95.2898 295.3333,95.2898 L305.3333,95.2898 " fill="none" style="stroke: #A80036; stroke-width: 1.0;"/><rect fill="#F8F8FF" filter="url(#f1xijez49mcdi8)" height="39.0679" rx="12.5" ry="12.5" style="stroke: #A80036; stroke-width: 1.5;" width="110.3333" x="305.3333" y="136.8917"/><path d="M316.443,153.1262 C316.373,153.1262 316.3333,153.1659 316.3333,153.2359 L316.3333,162.3511 C316.3333,162.4211 316.373,162.4607 316.443,162.4607 L324.3915,162.4607 C324.4615,162.4607 324.5012,162.4211 324.5012,162.3511 L324.5012,153.2359 C324.5012,153.1659 324.4615,153.1262 324.3915,153.1262 L316.443,153.1262 M317.5,154.2929 L323.3333,154.2929 L323.3333,156.6262 L317.5,156.6262 L317.5,154.2929 M317.5,157.7929 L318.6667,157.7929 L318.6667,158.9596 L317.5,158.9596 L317.5,157.7929 M319.8333,157.7929 L321,157.7929 L321,158.9596 L319.8333,158.9596 L319.8333,157.7929 M322.1667,157.7929 L323.3333,157.7929 L323.3333,161.2929 L322.1667,161.2929 L322.1667,157.7929 M317.5,160.1262 L318.6667,160.1262 L318.6667,161.2929 L317.5,161.2929 L317.5,160.1262 M319.8333,160.1262 L321,160.1262 L321,161.2929 L319.8333,161.2929 L319.8333,160.1262 " fill="#000000" style="stroke: ; stroke-width: 0.0; stroke-dasharray: ;"/><text fill="#000000" font-family="sans-serif" font-size="14" lengthAdjust="spacingAndGlyphs" textLength="75" x="330.6667" y="161.8576">pg_plpgsql</text><text fill="#000000" font-family="sans-serif" font-size="14" lengthAdjust="spacingAndGlyphs" textLength="100" x="468.6667" y="161.8576">copy_materials</text><path d="M415.6667,156.4256 L425.6667,156.4256 C440.6667,156.4256 440.6667,156.4256 455.6667,156.4256 L465.6667,156.4256 " fill="none" style="stroke: #A80036; stroke-width: 1.0;"/><path d="M255.3333,213.4256 L265.3333,213.4256 C280.3333,213.4256 280.3333,156.4256 295.3333,156.4256 L305.3333,156.4256 " fill="none" style="stroke: #A80036; stroke-width: 1.0;"/><rect fill="#F8F8FF" filter="url(#f1xijez49mcdi8)" height="39.0679" rx="12.5" ry="12.5" style="stroke: #A80036; stroke-width: 1.5;" width="79.3333" x="305.3333" y="195.9596"/><path d="M316.443,212.1942 C316.373,212.1942 316.3333,212.2338 316.3333,212.3038 L316.3333,221.419 C316.3333,221.489 316.373,221.5287 316.443,221.5287 L324.3915,221.5287 C324.4615,221.5287 324.5012,221.489 324.5012,221.419 L324.5012,212.3038 C324.5012,212.2338 324.4615,212.1942 324.3915,212.1942 L316.443,212.1942 M317.5,213.3608 L323.3333,213.3608 L323.3333,215.6942 L317.5,215.6942 L317.5,213.3608 M317.5,216.8608 L318.6667,216.8608 L318.6667,218.0275 L317.5,218.0275 L317.5,216.8608 M319.8333,216.8608 L321,216.8608 L321,218.0275 L319.8333,218.0275 L319.8333,216.8608 M322.1667,216.8608 L323.3333,216.8608 L323.3333,220.3608 L322.1667,220.3608 L322.1667,216.8608 M317.5,219.1942 L318.6667,219.1942 L318.6667,220.3608 L317.5,220.3608 L317.5,219.1942 M319.8333,219.1942 L321,219.1942 L321,220.3608 L319.8333,220.3608 L319.8333,219.1942 " fill="#000000" style="stroke: ; stroke-width: 0.0; stroke-dasharray: ;"/><text fill="#000000" font-family="sans-serif" font-size="14" lengthAdjust="spacingAndGlyphs" textLength="44" x="330.6667" y="220.9255">pg_sql</text><text fill="#000000" font-family="sans-serif" font-size="14" lengthAdjust="spacingAndGlyphs" textLength="84" x="437.6667" y="220.9255">read_sql_file</text><path d="M384.6667,215.4935 L394.6667,215.4935 C409.6667,215.4935 409.6667,215.4935 424.6667,215.4935 L434.6667,215.4935 " fill="none" style="stroke: #A80036; stroke-width: 1.0;"/><path d="M255.3333,213.4256 L265.3333,213.4256 C280.3333,213.4256 280.3333,215.4935 295.3333,215.4935 L305.3333,215.4935 " fill="none" style="stroke: #A80036; stroke-width: 1.0;"/><rect fill="#F8F8FF" filter="url(#f1xijez49mcdi8)" height="39.0679" rx="12.5" ry="12.5" style="stroke: #A80036; stroke-width: 1.5;" width="63.3333" x="305.3333" y="255.0275"/><path d="M316.443,271.2621 C316.373,271.2621 316.3333,271.3017 316.3333,271.3717 L316.3333,280.4869 C316.3333,280.5569 316.373,280.5966 316.443,280.5966 L324.3915,280.5966 C324.4615,280.5966 324.5012,280.5569 324.5012,280.4869 L324.5012,271.3717 C324.5012,271.3017 324.4615,271.2621 324.3915,271.2621 L316.443,271.2621 M317.5,272.4287 L323.3333,272.4287 L323.3333,274.7621 L317.5,274.7621 L317.5,272.4287 M317.5,275.9287 L318.6667,275.9287 L318.6667,277.0954 L317.5,277.0954 L317.5,275.9287 M319.8333,275.9287 L321,275.9287 L321,277.0954 L319.8333,277.0954 L319.8333,275.9287 M322.1667,275.9287 L323.3333,275.9287 L323.3333,279.4287 L322.1667,279.4287 L322.1667,275.9287 M317.5,278.2621 L318.6667,278.2621 L318.6667,279.4287 L317.5,279.4287 L317.5,278.2621 M319.8333,278.2621 L321,278.2621 L321,279.4287 L319.8333,279.4287 L319.8333,278.2621 " fill="#000000" style="stroke: ; stroke-width: 0.0; stroke-dasharray: ;"/><text fill="#000000" font-family="sans-serif" font-size="14" lengthAdjust="spacingAndGlyphs" textLength="28" x="330.6667" y="279.9934">tiles</text><text fill="#000000" font-family="sans-serif" font-size="14" lengthAdjust="spacingAndGlyphs" textLength="95" x="421.6667" y="279.9934">generate_tiles</text><path d="M368.6667,274.5614 L378.6667,274.5614 C393.6667,274.5614 393.6667,274.5614 408.6667,274.5614 L418.6667,274.5614 " fill="none" style="stroke: #A80036; stroke-width: 1.0;"/><path d="M255.3333,213.4256 L265.3333,213.4256 C280.3333,213.4256 280.3333,274.5614 295.3333,274.5614 L305.3333,274.5614 " fill="none" style="stroke: #A80036; stroke-width: 1.0;"/><rect fill="#F8F8FF" filter="url(#f1xijez49mcdi8)" height="39.0679" rx="12.5" ry="12.5" style="stroke: #A80036; stroke-width: 1.5;" width="67.3333" x="305.3333" y="314.0954"/><path d="M316.443,330.33 C316.373,330.33 316.3333,330.3697 316.3333,330.4397 L316.3333,339.5548 C316.3333,339.6248 316.373,339.6645 316.443,339.6645 L324.3915,339.6645 C324.4615,339.6645 324.5012,339.6248 324.5012,339.5548 L324.5012,330.4397 C324.5012,330.3697 324.4615,330.33 324.3915,330.33 L316.443,330.33 M317.5,331.4967 L323.3333,331.4967 L323.3333,333.83 L317.5,333.83 L317.5,331.4967 M317.5,334.9967 L318.6667,334.9967 L318.6667,336.1633 L317.5,336.1633 L317.5,334.9967 M319.8333,334.9967 L321,334.9967 L321,336.1633 L319.8333,336.1633 L319.8333,334.9967 M322.1667,334.9967 L323.3333,334.9967 L323.3333,338.4967 L322.1667,338.4967 L322.1667,334.9967 M317.5,337.33 L318.6667,337.33 L318.6667,338.4967 L317.5,338.4967 L317.5,337.33 M319.8333,337.33 L321,337.33 L321,338.4967 L319.8333,338.4967 L319.8333,337.33 " fill="#000000" style="stroke: ; stroke-width: 0.0; stroke-dasharray: ;"/><text fill="#000000" font-family="sans-serif" font-size="14" lengthAdjust="spacingAndGlyphs" textLength="32" x="330.6667" y="339.0613">yaml</text><text fill="#000000" font-family="sans-serif" font-size="14" lengthAdjust="spacingAndGlyphs" textLength="69" x="425.6667" y="328.5274">read_yaml</text><path d="M372.6667,333.6294 L382.6667,333.6294 C397.6667,333.6294 397.6667,323.0954 412.6667,323.0954 L422.6667,323.0954 " fill="none" style="stroke: #A80036; stroke-width: 1.0;"/><text fill="#000000" font-family="sans-serif" font-size="14" lengthAdjust="spacingAndGlyphs" textLength="72" x="425.6667" y="349.5953">write_yaml</text><path d="M372.6667,333.6294 L382.6667,333.6294 C397.6667,333.6294 397.6667,344.1633 412.6667,344.1633 L422.6667,344.1633 " fill="none" style="stroke: #A80036; stroke-width: 1.0;"/><path d="M255.3333,213.4256 L265.3333,213.4256 C280.3333,213.4256 280.3333,333.6294 295.3333,333.6294 L305.3333,333.6294 " fill="none" style="stroke: #A80036; stroke-width: 1.0;"/><path d="M120,578.1727 L130,578.1727 C145,578.1727 145,213.4256 160,213.4256 L170,213.4256 " fill="none" style="stroke: #A80036; stroke-width: 1.0;"/><rect fill="#C0C0C0" filter="url(#f1xijez49mcdi8)" height="39.0679" rx="12.5" ry="12.5" style="stroke: #A80036; stroke-width: 1.5;" width="83.3333" x="170" y="417.3671"/><path d="M184.5,433.6017 C183.8537,433.6017 183.3333,434.136 183.3333,434.7683 L183.3333,435.935 L181.1097,435.935 C181.0397,435.935 181,435.9747 181,436.0447 L181,438.8517 C181,439.1783 181.2567,439.435 181.5833,439.435 L189.75,439.435 C190.0767,439.435 190.3333,439.1783 190.3333,438.8517 L190.3333,436.0447 C190.3333,435.9747 190.2937,435.935 190.2237,435.935 L188,435.935 L188,434.7683 C188,434.136 187.4797,433.6017 186.8333,433.6017 L184.5,433.6017 M184.5,434.7683 L186.8333,434.7683 L186.8333,435.935 L184.5,435.935 L184.5,434.7683 M181,440.492 L181,442.8253 C181,442.8953 181.0397,442.935 181.1097,442.935 L190.2248,442.935 C190.2948,442.935 190.3345,442.8953 190.3345,442.8253 L190.3345,440.492 C190.1478,440.5503 189.9612,440.6017 189.7512,440.6017 L181.5845,440.6017 C181.3745,440.6017 181.1878,440.5503 181.0012,440.492 " fill="#000000" style="stroke: ; stroke-width: 0.0; stroke-dasharray: ;"/><text fill="#000000" font-family="sans-serif" font-size="14" lengthAdjust="spacingAndGlyphs" textLength="48" x="195.3333" y="442.333">classes</text><rect fill="#F8F8FF" filter="url(#f1xijez49mcdi8)" height="39.0679" rx="12.5" ry="12.5" style="stroke: #A80036; stroke-width: 1.5;" width="113.3333" x="303.3333" y="385.7652"/><path d="M317.8333,401.9998 C317.187,401.9998 316.6667,402.5341 316.6667,403.1664 L316.6667,404.3331 L314.443,404.3331 C314.373,404.3331 314.3333,404.3728 314.3333,404.4428 L314.3333,407.2498 C314.3333,407.5764 314.59,407.8331 314.9167,407.8331 L323.0833,407.8331 C323.41,407.8331 323.6667,407.5764 323.6667,407.2498 L323.6667,404.4428 C323.6667,404.3728 323.627,404.3331 323.557,404.3331 L321.3333,404.3331 L321.3333,403.1664 C321.3333,402.5341 320.813,401.9998 320.1667,401.9998 L317.8333,401.9998 M317.8333,403.1664 L320.1667,403.1664 L320.1667,404.3331 L317.8333,404.3331 L317.8333,403.1664 M314.3333,408.8901 L314.3333,411.2234 C314.3333,411.2934 314.373,411.3331 314.443,411.3331 L323.5582,411.3331 C323.6282,411.3331 323.6678,411.2934 323.6678,411.2234 L323.6678,408.8901 C323.4812,408.9484 323.2945,408.9998 323.0845,408.9998 L314.9178,408.9998 C314.7078,408.9998 314.5212,408.9484 314.3345,408.8901 " fill="#000000" style="stroke: ; stroke-width: 0.0; stroke-dasharray: ;"/><text fill="#000000" font-family="sans-serif" font-size="14" lengthAdjust="spacingAndGlyphs" textLength="78" x="328.6667" y="410.7311">advisement</text><text fill="#000000" font-family="sans-serif" font-size="14" lengthAdjust="spacingAndGlyphs" textLength="181" x="469.6667" y="379.1293">TransformedDict (Abstract)</text><path d="M416.6667,405.2992 L426.6667,405.2992 C441.6667,405.2992 441.6667,373.6973 456.6667,373.6973 L466.6667,373.6973 " fill="none" style="stroke: #A80036; stroke-width: 1.0;"/><text fill="#000000" font-family="sans-serif" font-size="14" lengthAdjust="spacingAndGlyphs" textLength="79" x="469.6667" y="400.1972">Advisement</text><path d="M416.6667,405.2992 L426.6667,405.2992 C441.6667,405.2992 441.6667,394.7652 456.6667,394.7652 L466.6667,394.7652 " fill="none" style="stroke: #A80036; stroke-width: 1.0;"/><text fill="#000000" font-family="sans-serif" font-size="14" lengthAdjust="spacingAndGlyphs" textLength="79" x="469.6667" y="421.2651">ObjectClass</text><path d="M416.6667,405.2992 L426.6667,405.2992 C441.6667,405.2992 441.6667,415.8331 456.6667,415.8331 L466.6667,415.8331 " fill="none" style="stroke: #A80036; stroke-width: 1.0;"/><text fill="#000000" font-family="sans-serif" font-size="14" lengthAdjust="spacingAndGlyphs" textLength="204" x="469.6667" y="442.333">ObjectClassRecommendations</text><path d="M416.6667,405.2992 L426.6667,405.2992 C441.6667,405.2992 441.6667,436.901 456.6667,436.901 L466.6667,436.901 " fill="none" style="stroke: #A80036; stroke-width: 1.0;"/><path d="M253.3333,436.901 L263.3333,436.901 C278.3333,436.901 278.3333,405.2992 293.3333,405.2992 L303.3333,405.2992 " fill="none" style="stroke: #A80036; stroke-width: 1.0;"/><rect fill="#F8F8FF" filter="url(#f1xijez49mcdi8)" height="39.0679" rx="12.5" ry="12.5" style="stroke: #A80036; stroke-width: 1.5;" width="103.3333" x="303.3333" y="459.5029"/><path d="M317.8333,475.7375 C317.187,475.7375 316.6667,476.2718 316.6667,476.9042 L316.6667,478.0708 L314.443,478.0708 C314.373,478.0708 314.3333,478.1105 314.3333,478.1805 L314.3333,480.9875 C314.3333,481.3142 314.59,481.5708 314.9167,481.5708 L323.0833,481.5708 C323.41,481.5708 323.6667,481.3142 323.6667,480.9875 L323.6667,478.1805 C323.6667,478.1105 323.627,478.0708 323.557,478.0708 L321.3333,478.0708 L321.3333,476.9042 C321.3333,476.2718 320.813,475.7375 320.1667,475.7375 L317.8333,475.7375 M317.8333,476.9042 L320.1667,476.9042 L320.1667,478.0708 L317.8333,478.0708 L317.8333,476.9042 M314.3333,482.6278 L314.3333,484.9612 C314.3333,485.0312 314.373,485.0708 314.443,485.0708 L323.5582,485.0708 C323.6282,485.0708 323.6678,485.0312 323.6678,484.9612 L323.6678,482.6278 C323.4812,482.6862 323.2945,482.7375 323.0845,482.7375 L314.9178,482.7375 C314.7078,482.7375 314.5212,482.6862 314.3345,482.6278 " fill="#000000" style="stroke: ; stroke-width: 0.0; stroke-dasharray: ;"/><text fill="#000000" font-family="sans-serif" font-size="14" lengthAdjust="spacingAndGlyphs" textLength="68" x="328.6667" y="484.4688">sql_blocks</text><text fill="#000000" font-family="sans-serif" font-size="14" lengthAdjust="spacingAndGlyphs" textLength="76" x="459.6667" y="463.4009">QueryBlock</text><path d="M406.6667,479.0369 L416.6667,479.0369 C431.6667,479.0369 431.6667,457.9689 446.6667,457.9689 L456.6667,457.9689 " fill="none" style="stroke: #A80036; stroke-width: 1.0;"/><text fill="#000000" font-family="sans-serif" font-size="14" lengthAdjust="spacingAndGlyphs" textLength="83" x="459.6667" y="484.4688">QueryBlocks</text><path d="M406.6667,479.0369 L416.6667,479.0369 C431.6667,479.0369 431.6667,479.0369 446.6667,479.0369 L456.6667,479.0369 " fill="none" style="stroke: #A80036; stroke-width: 1.0;"/><text fill="#000000" font-family="sans-serif" font-size="14" lengthAdjust="spacingAndGlyphs" textLength="211" x="459.6667" y="505.5368">and_others (see Class Diagram)</text><path d="M406.6667,479.0369 L416.6667,479.0369 C431.6667,479.0369 431.6667,500.1048 446.6667,500.1048 L456.6667,500.1048 " fill="none" style="stroke: #A80036; stroke-width: 1.0;"/><path d="M253.3333,436.901 L263.3333,436.901 C278.3333,436.901 278.3333,479.0369 293.3333,479.0369 L303.3333,479.0369 " fill="none" style="stroke: #A80036; stroke-width: 1.0;"/><path d="M120,578.1727 L130,578.1727 C145,578.1727 145,436.901 160,436.901 L170,436.901 " fill="none" style="stroke: #A80036; stroke-width: 1.0;"/><rect fill="#C0C0C0" filter="url(#f1xijez49mcdi8)" height="39.0679" rx="12.5" ry="12.5" style="stroke: #A80036; stroke-width: 1.5;" width="97.3333" x="170" y="575.3764"/><path d="M181.1097,591.611 C181.0397,591.611 181,591.6507 181,591.7207 L181,600.8359 C181,600.9059 181.0397,600.9455 181.1097,600.9455 L189.0582,600.9455 C189.1282,600.9455 189.1678,600.9059 189.1678,600.8359 L189.1678,591.7207 C189.1678,591.6507 189.1282,591.611 189.0582,591.611 L181.1097,591.611 M182.1667,592.7777 L188,592.7777 L188,595.111 L182.1667,595.111 L182.1667,592.7777 M182.1667,596.2777 L183.3333,596.2777 L183.3333,597.4444 L182.1667,597.4444 L182.1667,596.2777 M184.5,596.2777 L185.6667,596.2777 L185.6667,597.4444 L184.5,597.4444 L184.5,596.2777 M186.8333,596.2777 L188,596.2777 L188,599.7777 L186.8333,599.7777 L186.8333,596.2777 M182.1667,598.611 L183.3333,598.611 L183.3333,599.7777 L182.1667,599.7777 L182.1667,598.611 M184.5,598.611 L185.6667,598.611 L185.6667,599.7777 L184.5,599.7777 L184.5,598.611 " fill="#000000" style="stroke: ; stroke-width: 0.0; stroke-dasharray: ;"/><text fill="#000000" font-family="sans-serif" font-size="14" lengthAdjust="spacingAndGlyphs" textLength="62" x="195.3333" y="600.3424">database</text><rect fill="#F8F8FF" filter="url(#f1xijez49mcdi8)" height="39.0679" rx="12.5" ry="12.5" style="stroke: #A80036; stroke-width: 1.5;" width="133.3333" x="317.3333" y="575.3764"/><path d="M328.443,591.611 C328.373,591.611 328.3333,591.6507 328.3333,591.7207 L328.3333,600.8359 C328.3333,600.9059 328.373,600.9455 328.443,600.9455 L336.3915,600.9455 C336.4615,600.9455 336.5012,600.9059 336.5012,600.8359 L336.5012,591.7207 C336.5012,591.6507 336.4615,591.611 336.3915,591.611 L328.443,591.611 M329.5,592.7777 L335.3333,592.7777 L335.3333,595.111 L329.5,595.111 L329.5,592.7777 M329.5,596.2777 L330.6667,596.2777 L330.6667,597.4444 L329.5,597.4444 L329.5,596.2777 M331.8333,596.2777 L333,596.2777 L333,597.4444 L331.8333,597.4444 L331.8333,596.2777 M334.1667,596.2777 L335.3333,596.2777 L335.3333,599.7777 L334.1667,599.7777 L334.1667,596.2777 M329.5,598.611 L330.6667,598.611 L330.6667,599.7777 L329.5,599.7777 L329.5,598.611 M331.8333,598.611 L333,598.611 L333,599.7777 L331.8333,599.7777 L331.8333,598.611 " fill="#000000" style="stroke: ; stroke-width: 0.0; stroke-dasharray: ;"/><text fill="#000000" font-family="sans-serif" font-size="14" lengthAdjust="spacingAndGlyphs" textLength="98" x="342.6667" y="600.3424">pg_connection</text><text fill="#000000" font-family="sans-serif" font-size="14" lengthAdjust="spacingAndGlyphs" textLength="110" x="503.6667" y="526.6047">pg_show_details</text><path d="M450.6667,594.9104 L460.6667,594.9104 C475.6667,594.9104 475.6667,521.1727 490.6667,521.1727 L500.6667,521.1727 " fill="none" style="stroke: #A80036; stroke-width: 1.0;"/><text fill="#000000" font-family="sans-serif" font-size="14" lengthAdjust="spacingAndGlyphs" textLength="85" x="503.6667" y="547.6726">pg_establish</text><path d="M450.6667,594.9104 L460.6667,594.9104 C475.6667,594.9104 475.6667,542.2406 490.6667,542.2406 L500.6667,542.2406 " fill="none" style="stroke: #A80036; stroke-width: 1.0;"/><text fill="#000000" font-family="sans-serif" font-size="14" lengthAdjust="spacingAndGlyphs" textLength="122" x="503.6667" y="568.7405">pg_create_session</text><path d="M450.6667,594.9104 L460.6667,594.9104 C475.6667,594.9104 475.6667,563.3085 490.6667,563.3085 L500.6667,563.3085 " fill="none" style="stroke: #A80036; stroke-width: 1.0;"/><text fill="#000000" font-family="sans-serif" font-size="14" lengthAdjust="spacingAndGlyphs" textLength="142" x="503.6667" y="589.8084">pg_check_connection</text><path d="M450.6667,594.9104 L460.6667,594.9104 C475.6667,594.9104 475.6667,584.3764 490.6667,584.3764 L500.6667,584.3764 " fill="none" style="stroke: #A80036; stroke-width: 1.0;"/><text fill="#000000" font-family="sans-serif" font-size="14" lengthAdjust="spacingAndGlyphs" textLength="168" x="503.6667" y="610.8763">create_materialized_view</text><path d="M450.6667,594.9104 L460.6667,594.9104 C475.6667,594.9104 475.6667,605.4444 490.6667,605.4444 L500.6667,605.4444 " fill="none" style="stroke: #A80036; stroke-width: 1.0;"/><text fill="#000000" font-family="sans-serif" font-size="14" lengthAdjust="spacingAndGlyphs" textLength="163" x="503.6667" y="631.9443">index_materialized_view</text><path d="M450.6667,594.9104 L460.6667,594.9104 C475.6667,594.9104 475.6667,626.5123 490.6667,626.5123 L500.6667,626.5123 " fill="none" style="stroke: #A80036; stroke-width: 1.0;"/><text fill="#000000" font-family="sans-serif" font-size="14" lengthAdjust="spacingAndGlyphs" textLength="119" x="503.6667" y="653.0122">get_query_results</text><path d="M450.6667,594.9104 L460.6667,594.9104 C475.6667,594.9104 475.6667,647.5802 490.6667,647.5802 L500.6667,647.5802 " fill="none" style="stroke: #A80036; stroke-width: 1.0;"/><text fill="#000000" font-family="sans-serif" font-size="14" lengthAdjust="spacingAndGlyphs" textLength="50" x="503.6667" y="674.0801">run_sql</text><path d="M450.6667,594.9104 L460.6667,594.9104 C475.6667,594.9104 475.6667,668.6481 490.6667,668.6481 L500.6667,668.6481 " fill="none" style="stroke: #A80036; stroke-width: 1.0;"/><path d="M267.3333,594.9104 L277.3333,594.9104 C292.3333,594.9104 292.3333,594.9104 307.3333,594.9104 L317.3333,594.9104 " fill="none" style="stroke: #A80036; stroke-width: 1.0;"/><path d="M120,578.1727 L130,578.1727 C145,578.1727 145,594.9104 160,594.9104 L170,594.9104 " fill="none" style="stroke: #A80036; stroke-width: 1.0;"/><rect fill="#C0C0C0" filter="url(#f1xijez49mcdi8)" height="39.0679" rx="12.5" ry="12.5" style="stroke: #A80036; stroke-width: 1.5;" width="99.3333" x="170" y="748.25"/><path d="M185.6667,764.4846 L185.2653,764.8859 C185.137,765.0142 182.1667,768.0184 182.1667,770.5734 C182.1667,772.4984 183.7417,774.0734 185.6667,774.0734 C187.5917,774.0734 189.1667,772.4984 189.1667,770.5734 C189.1667,768.0184 186.1963,765.0142 186.068,764.8859 L185.6667,764.4846 M183.9167,769.9901 C184.2433,769.9901 184.5,770.2467 184.5,770.5734 C184.5,771.2151 185.025,771.7401 185.6667,771.7401 C185.9933,771.7401 186.25,771.9967 186.25,772.3234 C186.25,772.6501 185.9933,772.9067 185.6667,772.9067 C184.3833,772.9067 183.3333,771.8567 183.3333,770.5734 C183.3333,770.2467 183.59,769.9901 183.9167,769.9901 " fill="#000000" style="stroke: ; stroke-width: 0.0; stroke-dasharray: ;"/><text fill="#000000" font-family="sans-serif" font-size="14" lengthAdjust="spacingAndGlyphs" textLength="64" x="195.3333" y="773.2159">instances</text><rect fill="#F8F8FF" filter="url(#f1xijez49mcdi8)" height="39.0679" rx="12.5" ry="12.5" style="stroke: #A80036; stroke-width: 1.5;" width="97.3333" x="319.3333" y="689.1821"/><path d="M335,705.4167 L334.5987,705.818 C334.4703,705.9463 331.5,708.9505 331.5,711.5055 C331.5,713.4305 333.075,715.0055 335,715.0055 C336.925,715.0055 338.5,713.4305 338.5,711.5055 C338.5,708.9505 335.5297,705.9463 335.4013,705.818 L335,705.4167 M333.25,710.9222 C333.5767,710.9222 333.8333,711.1788 333.8333,711.5055 C333.8333,712.1472 334.3583,712.6722 335,712.6722 C335.3267,712.6722 335.5833,712.9288 335.5833,713.2555 C335.5833,713.5822 335.3267,713.8388 335,713.8388 C333.7167,713.8388 332.6667,712.7888 332.6667,711.5055 C332.6667,711.1788 332.9233,710.9222 333.25,710.9222 " fill="#000000" style="stroke: ; stroke-width: 0.0; stroke-dasharray: ;"/><text fill="#000000" font-family="sans-serif" font-size="14" lengthAdjust="spacingAndGlyphs" textLength="62" x="344.6667" y="714.148">in_advise</text><text fill="#000000" font-family="sans-serif" font-size="14" lengthAdjust="spacingAndGlyphs" textLength="129" x="469.6667" y="703.6141">geometry_statistics</text><path d="M416.6667,708.716 L426.6667,708.716 C441.6667,708.716 441.6667,698.1821 456.6667,698.1821 L466.6667,698.1821 " fill="none" style="stroke: #A80036; stroke-width: 1.0;"/><text fill="#000000" font-family="sans-serif" font-size="14" lengthAdjust="spacingAndGlyphs" textLength="250" x="469.6667" y="724.682">recommended_max_features_per_tile</text><path d="M416.6667,708.716 L426.6667,708.716 C441.6667,708.716 441.6667,719.25 456.6667,719.25 L466.6667,719.25 " fill="none" style="stroke: #A80036; stroke-width: 1.0;"/><path d="M269.3333,767.784 L279.3333,767.784 C294.3333,767.784 294.3333,708.716 309.3333,708.716 L319.3333,708.716 " fill="none" style="stroke: #A80036; stroke-width: 1.0;"/><rect fill="#F8F8FF" filter="url(#f1xijez49mcdi8)" height="39.0679" rx="12.5" ry="12.5" style="stroke: #A80036; stroke-width: 1.5;" width="77.3333" x="319.3333" y="748.25"/><path d="M335,764.4846 L334.5987,764.8859 C334.4703,765.0142 331.5,768.0184 331.5,770.5734 C331.5,772.4984 333.075,774.0734 335,774.0734 C336.925,774.0734 338.5,772.4984 338.5,770.5734 C338.5,768.0184 335.5297,765.0142 335.4013,764.8859 L335,764.4846 M333.25,769.9901 C333.5767,769.9901 333.8333,770.2467 333.8333,770.5734 C333.8333,771.2151 334.3583,771.7401 335,771.7401 C335.3267,771.7401 335.5833,771.9967 335.5833,772.3234 C335.5833,772.6501 335.3267,772.9067 335,772.9067 C333.7167,772.9067 332.6667,771.8567 332.6667,770.5734 C332.6667,770.2467 332.9233,769.9901 333.25,769.9901 " fill="#000000" style="stroke: ; stroke-width: 0.0; stroke-dasharray: ;"/><text fill="#000000" font-family="sans-serif" font-size="14" lengthAdjust="spacingAndGlyphs" textLength="42" x="344.6667" y="773.2159">kernel</text><text fill="#000000" font-family="sans-serif" font-size="14" lengthAdjust="spacingAndGlyphs" textLength="71" x="449.6667" y="773.2159">krnl_query</text><path d="M396.6667,767.784 L406.6667,767.784 C421.6667,767.784 421.6667,767.784 436.6667,767.784 L446.6667,767.784 " fill="none" style="stroke: #A80036; stroke-width: 1.0;"/><path d="M269.3333,767.784 L279.3333,767.784 C294.3333,767.784 294.3333,767.784 309.3333,767.784 L319.3333,767.784 " fill="none" style="stroke: #A80036; stroke-width: 1.0;"/><rect fill="#F8F8FF" filter="url(#f1xijez49mcdi8)" height="39.0679" rx="12.5" ry="12.5" style="stroke: #A80036; stroke-width: 1.5;" width="91.3333" x="319.3333" y="807.3179"/><path d="M335,823.5525 L334.5987,823.9538 C334.4703,824.0822 331.5,827.0863 331.5,829.6413 C331.5,831.5663 333.075,833.1413 335,833.1413 C336.925,833.1413 338.5,831.5663 338.5,829.6413 C338.5,827.0863 335.5297,824.0822 335.4013,823.9538 L335,823.5525 M333.25,829.058 C333.5767,829.058 333.8333,829.3147 333.8333,829.6413 C333.8333,830.283 334.3583,830.808 335,830.808 C335.3267,830.808 335.5833,831.0647 335.5833,831.3913 C335.5833,831.718 335.3267,831.9747 335,831.9747 C333.7167,831.9747 332.6667,830.9247 332.6667,829.6413 C332.6667,829.3147 332.9233,829.058 333.25,829.058 " fill="#000000" style="stroke: ; stroke-width: 0.0; stroke-dasharray: ;"/><text fill="#000000" font-family="sans-serif" font-size="14" lengthAdjust="spacingAndGlyphs" textLength="56" x="344.6667" y="832.2838">material</text><text fill="#000000" font-family="sans-serif" font-size="14" lengthAdjust="spacingAndGlyphs" textLength="200" x="463.6667" y="821.7499">objectclass_falldown_addition</text><path d="M410.6667,826.8519 L420.6667,826.8519 C435.6667,826.8519 435.6667,816.3179 450.6667,816.3179 L460.6667,816.3179 " fill="none" style="stroke: #A80036; stroke-width: 1.0;"/><text fill="#000000" font-family="sans-serif" font-size="14" lengthAdjust="spacingAndGlyphs" textLength="196" x="463.6667" y="842.8178">properties_falldown_addition</text><path d="M410.6667,826.8519 L420.6667,826.8519 C435.6667,826.8519 435.6667,837.3858 450.6667,837.3858 L460.6667,837.3858 " fill="none" style="stroke: #A80036; stroke-width: 1.0;"/><path d="M269.3333,767.784 L279.3333,767.784 C294.3333,767.784 294.3333,826.8519 309.3333,826.8519 L319.3333,826.8519 " fill="none" style="stroke: #A80036; stroke-width: 1.0;"/><path d="M120,578.1727 L130,578.1727 C145,578.1727 145,767.784 160,767.784 L170,767.784 " fill="none" style="stroke: #A80036; stroke-width: 1.0;"/><rect fill="#F8F8FF" filter="url(#f1xijez49mcdi8)" height="39.0679" rx="12.5" ry="12.5" style="stroke: #A80036; stroke-width: 1.5;" width="125.3333" x="170" y="866.3858"/><path d="M181.1097,882.6204 C181.0397,882.6204 181,882.6601 181,882.7301 L181,891.8452 C181,891.9152 181.0397,891.9549 181.1097,891.9549 L189.0582,891.9549 C189.1282,891.9549 189.1678,891.9152 189.1678,891.8452 L189.1678,882.7301 C189.1678,882.6601 189.1282,882.6204 189.0582,882.6204 L181.1097,882.6204 M182.1667,883.7871 L188,883.7871 L188,886.1204 L182.1667,886.1204 L182.1667,883.7871 M182.1667,887.2871 L183.3333,887.2871 L183.3333,888.4537 L182.1667,888.4537 L182.1667,887.2871 M184.5,887.2871 L185.6667,887.2871 L185.6667,888.4537 L184.5,888.4537 L184.5,887.2871 M186.8333,887.2871 L188,887.2871 L188,890.7871 L186.8333,890.7871 L186.8333,887.2871 M182.1667,889.6204 L183.3333,889.6204 L183.3333,890.7871 L182.1667,890.7871 L182.1667,889.6204 M184.5,889.6204 L185.6667,889.6204 L185.6667,890.7871 L184.5,890.7871 L184.5,889.6204 " fill="#000000" style="stroke: ; stroke-width: 0.0; stroke-dasharray: ;"/><text fill="#000000" font-family="sans-serif" font-size="14" lengthAdjust="spacingAndGlyphs" textLength="90" x="195.3333" y="891.3518">citydb-3dtiler</text><path d="M120,578.1727 L130,578.1727 C145,578.1727 145,885.9198 160,885.9198 L170,885.9198 " fill="none" style="stroke: #A80036; stroke-width: 1.0;"/><rect fill="#F8F8FF" filter="url(#f1xijez49mcdi8)" height="39.0679" rx="12.5" ry="12.5" style="stroke: #A80036; stroke-width: 1.5;" width="118.3333" x="170" y="925.4537"/><path d="M181.1097,941.6883 C181.0397,941.6883 181,941.728 181,941.798 L181,950.9132 C181,950.9832 181.0397,951.0228 181.1097,951.0228 L189.0582,951.0228 C189.1282,951.0228 189.1678,950.9832 189.1678,950.9132 L189.1678,941.798 C189.1678,941.728 189.1282,941.6883 189.0582,941.6883 L181.1097,941.6883 M182.1667,942.855 L188,942.855 L188,945.1883 L182.1667,945.1883 L182.1667,942.855 M182.1667,946.355 L183.3333,946.355 L183.3333,947.5217 L182.1667,947.5217 L182.1667,946.355 M184.5,946.355 L185.6667,946.355 L185.6667,947.5217 L184.5,947.5217 L184.5,946.355 M186.8333,946.355 L188,946.355 L188,949.855 L186.8333,949.855 L186.8333,946.355 M182.1667,948.6883 L183.3333,948.6883 L183.3333,949.855 L182.1667,949.855 L182.1667,948.6883 M184.5,948.6883 L185.6667,948.6883 L185.6667,949.855 L184.5,949.855 L184.5,948.6883 " fill="#000000" style="stroke: ; stroke-width: 0.0; stroke-dasharray: ;"/><text fill="#000000" font-family="sans-serif" font-size="14" lengthAdjust="spacingAndGlyphs" textLength="83" x="195.3333" y="950.4197">advise_main</text><path d="M120,578.1727 L130,578.1727 C145,578.1727 145,944.9877 160,944.9877 L170,944.9877 " fill="none" style="stroke: #A80036; stroke-width: 1.0;"/><rect fill="#F8F8FF" filter="url(#f1xijez49mcdi8)" height="39.0679" rx="12.5" ry="12.5" style="stroke: #A80036; stroke-width: 1.5;" width="96.3333" x="170" y="984.5217"/><path d="M181.1097,1000.7562 C181.0397,1000.7562 181,1000.7959 181,1000.8659 L181,1009.9811 C181,1010.0511 181.0397,1010.0907 181.1097,1010.0907 L189.0582,1010.0907 C189.1282,1010.0907 189.1678,1010.0511 189.1678,1009.9811 L189.1678,1000.8659 C189.1678,1000.7959 189.1282,1000.7562 189.0582,1000.7562 L181.1097,1000.7562 M182.1667,1001.9229 L188,1001.9229 L188,1004.2562 L182.1667,1004.2562 L182.1667,1001.9229 M182.1667,1005.4229 L183.3333,1005.4229 L183.3333,1006.5896 L182.1667,1006.5896 L182.1667,1005.4229 M184.5,1005.4229 L185.6667,1005.4229 L185.6667,1006.5896 L184.5,1006.5896 L184.5,1005.4229 M186.8333,1005.4229 L188,1005.4229 L188,1008.9229 L186.8333,1008.9229 L186.8333,1005.4229 M182.1667,1007.7562 L183.3333,1007.7562 L183.3333,1008.9229 L182.1667,1008.9229 L182.1667,1007.7562 M184.5,1007.7562 L185.6667,1007.7562 L185.6667,1008.9229 L184.5,1008.9229 L184.5,1007.7562 " fill="#000000" style="stroke: ; stroke-width: 0.0; stroke-dasharray: ;"/><text fill="#000000" font-family="sans-serif" font-size="14" lengthAdjust="spacingAndGlyphs" textLength="61" x="195.3333" y="1009.4876">tile_main</text><path d="M120,578.1727 L130,578.1727 C145,578.1727 145,1004.0556 160,1004.0556 L170,1004.0556 " fill="none" style="stroke: #A80036; stroke-width: 1.0;"/><rect fill="#F8F8FF" filter="url(#f1xijez49mcdi8)" height="39.0679" rx="12.5" ry="12.5" style="stroke: #A80036; stroke-width: 1.5;" width="127.3333" x="170" y="1043.5896"/><path d="M181.1097,1059.8242 C181.0397,1059.8242 181,1059.8638 181,1059.9338 L181,1069.049 C181,1069.119 181.0397,1069.1587 181.1097,1069.1587 L189.0582,1069.1587 C189.1282,1069.1587 189.1678,1069.119 189.1678,1069.049 L189.1678,1059.9338 C189.1678,1059.8638 189.1282,1059.8242 189.0582,1059.8242 L181.1097,1059.8242 M182.1667,1060.9908 L188,1060.9908 L188,1063.3242 L182.1667,1063.3242 L182.1667,1060.9908 M182.1667,1064.4908 L183.3333,1064.4908 L183.3333,1065.6575 L182.1667,1065.6575 L182.1667,1064.4908 M184.5,1064.4908 L185.6667,1064.4908 L185.6667,1065.6575 L184.5,1065.6575 L184.5,1064.4908 M186.8333,1064.4908 L188,1064.4908 L188,1067.9908 L186.8333,1067.9908 L186.8333,1064.4908 M182.1667,1066.8242 L183.3333,1066.8242 L183.3333,1067.9908 L182.1667,1067.9908 L182.1667,1066.8242 M184.5,1066.8242 L185.6667,1066.8242 L185.6667,1067.9908 L184.5,1067.9908 L184.5,1066.8242 " fill="#000000" style="stroke: ; stroke-width: 0.0; stroke-dasharray: ;"/><text fill="#000000" font-family="sans-serif" font-size="14" lengthAdjust="spacingAndGlyphs" textLength="92" x="195.3333" y="1068.5555">default_paths</text><path d="M120,578.1727 L130,578.1727 C145,578.1727 145,1063.1235 160,1063.1235 L170,1063.1235 " fill="none" style="stroke: #A80036; stroke-width: 1.0;"/><rect fill="#DDDDDD" height="143.4754" rx="5" ry="5" style="stroke: #000000; stroke-width: 1.0;" width="178.3333" x="18" y="1100.6575"/><text fill="#000000" font-family="sans-serif" font-size="14" lengthAdjust="spacingAndGlyphs" textLength="40" x="24" y="1120.6234">Icons:</text><text fill="#000000" font-family="sans-serif" font-size="14" lengthAdjust="spacingAndGlyphs" textLength="61" x="40" y="1139.6913">Main File</text><path d="M110.6667,1130.96 L106,1134.46 L107.1667,1134.46 L107.1667,1139.1267 L109.5,1139.1267 L109.5,1136.7933 L111.8333,1136.7933 L111.8333,1139.1267 L114.1667,1139.1267 L114.1667,1134.4238 L115.3333,1134.46 L110.6667,1130.96 " fill="#000000" style="stroke: ; stroke-width: 0.0; stroke-dasharray: ;"/><text fill="#000000" font-family="sans-serif" font-size="14" lengthAdjust="spacingAndGlyphs" textLength="65" x="40" y="1158.7593">Functions</text><path d="M110.1097,1150.0279 C110.0397,1150.0279 110,1150.0676 110,1150.1376 L110,1159.2527 C110,1159.3227 110.0397,1159.3624 110.1097,1159.3624 L118.0582,1159.3624 C118.1282,1159.3624 118.1678,1159.3227 118.1678,1159.2527 L118.1678,1150.1376 C118.1678,1150.0676 118.1282,1150.0279 118.0582,1150.0279 L110.1097,1150.0279 M111.1667,1151.1946 L117,1151.1946 L117,1153.5279 L111.1667,1153.5279 L111.1667,1151.1946 M111.1667,1154.6946 L112.3333,1154.6946 L112.3333,1155.8612 L111.1667,1155.8612 L111.1667,1154.6946 M113.5,1154.6946 L114.6667,1154.6946 L114.6667,1155.8612 L113.5,1155.8612 L113.5,1154.6946 M115.8333,1154.6946 L117,1154.6946 L117,1158.1946 L115.8333,1158.1946 L115.8333,1154.6946 M111.1667,1157.0279 L112.3333,1157.0279 L112.3333,1158.1946 L111.1667,1158.1946 L111.1667,1157.0279 M113.5,1157.0279 L114.6667,1157.0279 L114.6667,1158.1946 L113.5,1158.1946 L113.5,1157.0279 " fill="#000000" style="stroke: ; stroke-width: 0.0; stroke-dasharray: ;"/><text fill="#000000" font-family="sans-serif" font-size="14" lengthAdjust="spacingAndGlyphs" textLength="135" x="40" y="1177.8272">Classes/Dictionaries</text><path d="M183.5,1169.0958 C182.8537,1169.0958 182.3333,1169.6302 182.3333,1170.2625 L182.3333,1171.4292 L180.1097,1171.4292 C180.0397,1171.4292 180,1171.4688 180,1171.5388 L180,1174.3458 C180,1174.6725 180.2567,1174.9292 180.5833,1174.9292 L188.75,1174.9292 C189.0767,1174.9292 189.3333,1174.6725 189.3333,1174.3458 L189.3333,1171.5388 C189.3333,1171.4688 189.2937,1171.4292 189.2237,1171.4292 L187,1171.4292 L187,1170.2625 C187,1169.6302 186.4797,1169.0958 185.8333,1169.0958 L183.5,1169.0958 M183.5,1170.2625 L185.8333,1170.2625 L185.8333,1171.4292 L183.5,1171.4292 L183.5,1170.2625 M180,1175.9862 L180,1178.3195 C180,1178.3895 180.0397,1178.4292 180.1097,1178.4292 L189.2248,1178.4292 C189.2948,1178.4292 189.3345,1178.3895 189.3345,1178.3195 L189.3345,1175.9862 C189.1478,1176.0445 188.9612,1176.0958 188.7512,1176.0958 L180.5845,1176.0958 C180.3745,1176.0958 180.1878,1176.0445 180.0012,1175.9862 " fill="#000000" style="stroke: ; stroke-width: 0.0; stroke-dasharray: ;"/><text fill="#000000" font-family="sans-serif" font-size="14" lengthAdjust="spacingAndGlyphs" textLength="74" x="24" y="1196.8951">Box Colors:</text><text fill="#000000" font-family="sans-serif" font-size="14" lengthAdjust="spacingAndGlyphs" textLength="96" x="40" y="1215.963">Folders = Gray</text><text fill="#000000" font-family="sans-serif" font-size="14" lengthAdjust="spacingAndGlyphs" textLength="85" x="40" y="1235.0309">Files = White</text><!--MD5=[ae2682f2ada8adb39118bfb6af7a7b90]
@startmindmap
title Folder & File Structure
right header
<font color=red size=10> Last Check : 22.01.2026</font>
endheader
*[#silver] citydb-3dtiler
**[#silver] <&calculator> io_tools
***[#ghostwhite] <&calculator> folder
****_ create_folder
****_ check_custom_materials
****_ check_file_in
***[#ghostwhite] <&calculator> pg_plpgsql
****_ copy_materials
***[#ghostwhite] <&calculator> pg_sql
****_ read_sql_file
***[#ghostwhite] <&calculator> tiles
****_ generate_tiles
***[#ghostwhite] <&calculator> yaml
****_ read_yaml
****_ write_yaml
**[#silver] <&briefcase> classes
***[#ghostwhite] <&briefcase> advisement
****_ TransformedDict (Abstract)
****_ Advisement
****_ ObjectClass
****_ ObjectClassRecommendations
***[#ghostwhite] <&briefcase> sql_blocks
****_ QueryBlock
****_ QueryBlocks
****_ and_others (see Class Diagram)
**[#silver] <&calculator> database
***[#ghostwhite] <&calculator> pg_connection
****_ pg_show_details
****_ pg_establish
****_ pg_create_session
****_ pg_check_connection
****_ create_materialized_view
****_ index_materialized_view
****_ get_query_results
****_ run_sql
**[#silver] <&droplet> instances
***[#ghostwhite] <&droplet> in_advise
****_ geometry_statistics
****_ recommended_max_features_per_tile
***[#ghostwhite] <&droplet> kernel
****_ krnl_query
***[#ghostwhite] <&droplet> material
****_ objectclass_falldown_addition
****_ properties_falldown_addition
**[#ghostwhite] <&calculator> citydb-3dtiler
**[#ghostwhite] <&calculator> advise_main
**[#ghostwhite] <&calculator> tile_main
**[#ghostwhite] <&calculator> default_paths
legend left
    Icons:
        Main File <&home>
        Functions <&calculator>
        Classes/Dictionaries <&briefcase>
    Box Colors:
        Folders = Gray
        Files = White
endlegend
@endmindmap

PlantUML version 1.2020.02(Sun Mar 01 11:22:07 CET 2020)
(GPL source distribution)
Java Runtime: OpenJDK Runtime Environment
JVM: OpenJDK 64-Bit Server VM
Java Version: 21.0.10+7-Ubuntu-124.04
Operating System: Linux
Default Encoding: UTF-8
Language: en
Country: US
--></g></svg>